M48
; DRILL file {KiCad 9.0.7} date 2026-03-19T00:20:20+1100
; FORMAT={-:-/ absolute / metric / decimal}
; #@! TF.CreationDate,2026-03-19T00:20:20+11:00
; #@! TF.GenerationSoftware,Kicad,Pcbnew,9.0.7
; #@! TF.FileFunction,Plated,1,2,Blind
FMAT,2
METRIC
; #@! TA.AperFunction,Plated,Buried,ViaDrill
T1C0.300
; #@! TA.AperFunction,Plated,Buried,ViaDrill
T2C0.400
%
G90
G05
T1
X60.71Y-60.0
X76.728Y-128.94
X76.75Y-109.5
X78.25Y-112.5
X80.0Y-112.5
X90.5Y-129.0
X90.75Y-128.25
X94.0Y-130.25
X117.0Y-128.25
X117.25Y-130.25
X117.5Y-133.5
X127.0Y-87.5
X127.75Y-90.25
X156.3Y-111.7
X157.0Y-114.5
X161.5Y-176.75
X164.75Y-128.0
X164.75Y-130.25
X164.75Y-133.25
X164.75Y-176.25
X166.75Y-175.75
X169.25Y-118.0
X227.4Y-178.876
X229.0Y-180.0
T2
X71.71Y-108.0
X103.25Y-89.0
X107.5Y-89.0
X129.75Y-91.25
X167.5Y-107.5
X169.5Y-93.5
X176.0Y-56.5
X176.0Y-91.5
X217.5Y-188.2
X224.5Y-182.75
X243.5Y-85.25
X243.5Y-195.5
M30
