%TF.GenerationSoftware,KiCad,Pcbnew,9.0.7*%
%TF.CreationDate,2026-03-19T00:19:46+11:00*%
%TF.ProjectId,SolarSystem,536f6c61-7253-4797-9374-656d2e6b6963,0*%
%TF.SameCoordinates,Original*%
%TF.FileFunction,Legend,Top*%
%TF.FilePolarity,Positive*%
%FSLAX46Y46*%
G04 Gerber Fmt 4.6, Leading zero omitted, Abs format (unit mm)*
G04 Created by KiCad (PCBNEW 9.0.7) date 2026-03-19 00:19:46*
%MOMM*%
%LPD*%
G01*
G04 APERTURE LIST*
%ADD10C,0.150000*%
%ADD11C,0.098425*%
%ADD12C,0.120000*%
%ADD13C,0.254000*%
%ADD14C,0.080135*%
%ADD15C,0.152400*%
%ADD16C,0.127000*%
%ADD17C,0.200000*%
%ADD18C,0.600000*%
G04 APERTURE END LIST*
D10*
X110418519Y-117059999D02*
X110656614Y-117059999D01*
X110561376Y-117298094D02*
X110656614Y-117059999D01*
X110656614Y-117059999D02*
X110561376Y-116821904D01*
X110847090Y-117202856D02*
X110656614Y-117059999D01*
X110656614Y-117059999D02*
X110847090Y-116917142D01*
X56288095Y-88304819D02*
X56288095Y-89019104D01*
X56288095Y-89019104D02*
X56240476Y-89161961D01*
X56240476Y-89161961D02*
X56145238Y-89257200D01*
X56145238Y-89257200D02*
X56002381Y-89304819D01*
X56002381Y-89304819D02*
X55907143Y-89304819D01*
X56526191Y-89400057D02*
X57288095Y-89400057D01*
X57526191Y-89304819D02*
X57526191Y-88304819D01*
X57526191Y-88304819D02*
X57907143Y-88304819D01*
X57907143Y-88304819D02*
X58002381Y-88352438D01*
X58002381Y-88352438D02*
X58050000Y-88400057D01*
X58050000Y-88400057D02*
X58097619Y-88495295D01*
X58097619Y-88495295D02*
X58097619Y-88638152D01*
X58097619Y-88638152D02*
X58050000Y-88733390D01*
X58050000Y-88733390D02*
X58002381Y-88781009D01*
X58002381Y-88781009D02*
X57907143Y-88828628D01*
X57907143Y-88828628D02*
X57526191Y-88828628D01*
X58383334Y-88304819D02*
X58716667Y-89304819D01*
X58716667Y-89304819D02*
X59050000Y-88304819D01*
X59383334Y-88923866D02*
X60145239Y-88923866D01*
X59764286Y-89304819D02*
X59764286Y-88542914D01*
X61145238Y-89304819D02*
X60573810Y-89304819D01*
X60859524Y-89304819D02*
X60859524Y-88304819D01*
X60859524Y-88304819D02*
X60764286Y-88447676D01*
X60764286Y-88447676D02*
X60669048Y-88542914D01*
X60669048Y-88542914D02*
X60573810Y-88590533D01*
X251357142Y-104404819D02*
X251357142Y-105119104D01*
X251357142Y-105119104D02*
X251309523Y-105261961D01*
X251309523Y-105261961D02*
X251214285Y-105357200D01*
X251214285Y-105357200D02*
X251071428Y-105404819D01*
X251071428Y-105404819D02*
X250976190Y-105404819D01*
X251595238Y-105500057D02*
X252357142Y-105500057D01*
X252928571Y-104881009D02*
X253071428Y-104928628D01*
X253071428Y-104928628D02*
X253119047Y-104976247D01*
X253119047Y-104976247D02*
X253166666Y-105071485D01*
X253166666Y-105071485D02*
X253166666Y-105214342D01*
X253166666Y-105214342D02*
X253119047Y-105309580D01*
X253119047Y-105309580D02*
X253071428Y-105357200D01*
X253071428Y-105357200D02*
X252976190Y-105404819D01*
X252976190Y-105404819D02*
X252595238Y-105404819D01*
X252595238Y-105404819D02*
X252595238Y-104404819D01*
X252595238Y-104404819D02*
X252928571Y-104404819D01*
X252928571Y-104404819D02*
X253023809Y-104452438D01*
X253023809Y-104452438D02*
X253071428Y-104500057D01*
X253071428Y-104500057D02*
X253119047Y-104595295D01*
X253119047Y-104595295D02*
X253119047Y-104690533D01*
X253119047Y-104690533D02*
X253071428Y-104785771D01*
X253071428Y-104785771D02*
X253023809Y-104833390D01*
X253023809Y-104833390D02*
X252928571Y-104881009D01*
X252928571Y-104881009D02*
X252595238Y-104881009D01*
X253547619Y-105119104D02*
X254023809Y-105119104D01*
X253452381Y-105404819D02*
X253785714Y-104404819D01*
X253785714Y-104404819D02*
X254119047Y-105404819D01*
X254309524Y-104404819D02*
X254880952Y-104404819D01*
X254595238Y-105404819D02*
X254595238Y-104404819D01*
X255214286Y-105023866D02*
X255976191Y-105023866D01*
X255595238Y-105404819D02*
X255595238Y-104642914D01*
X256976190Y-105404819D02*
X256404762Y-105404819D01*
X256690476Y-105404819D02*
X256690476Y-104404819D01*
X256690476Y-104404819D02*
X256595238Y-104547676D01*
X256595238Y-104547676D02*
X256500000Y-104642914D01*
X256500000Y-104642914D02*
X256404762Y-104690533D01*
X170213295Y-174449819D02*
X170213295Y-175259342D01*
X170213295Y-175259342D02*
X170260914Y-175354580D01*
X170260914Y-175354580D02*
X170308533Y-175402200D01*
X170308533Y-175402200D02*
X170403771Y-175449819D01*
X170403771Y-175449819D02*
X170594247Y-175449819D01*
X170594247Y-175449819D02*
X170689485Y-175402200D01*
X170689485Y-175402200D02*
X170737104Y-175354580D01*
X170737104Y-175354580D02*
X170784723Y-175259342D01*
X170784723Y-175259342D02*
X170784723Y-174449819D01*
X171737104Y-174449819D02*
X171260914Y-174449819D01*
X171260914Y-174449819D02*
X171213295Y-174926009D01*
X171213295Y-174926009D02*
X171260914Y-174878390D01*
X171260914Y-174878390D02*
X171356152Y-174830771D01*
X171356152Y-174830771D02*
X171594247Y-174830771D01*
X171594247Y-174830771D02*
X171689485Y-174878390D01*
X171689485Y-174878390D02*
X171737104Y-174926009D01*
X171737104Y-174926009D02*
X171784723Y-175021247D01*
X171784723Y-175021247D02*
X171784723Y-175259342D01*
X171784723Y-175259342D02*
X171737104Y-175354580D01*
X171737104Y-175354580D02*
X171689485Y-175402200D01*
X171689485Y-175402200D02*
X171594247Y-175449819D01*
X171594247Y-175449819D02*
X171356152Y-175449819D01*
X171356152Y-175449819D02*
X171260914Y-175402200D01*
X171260914Y-175402200D02*
X171213295Y-175354580D01*
X167876400Y-170944619D02*
X167876400Y-171182714D01*
X167638305Y-171087476D02*
X167876400Y-171182714D01*
X167876400Y-171182714D02*
X168114495Y-171087476D01*
X167733543Y-171373190D02*
X167876400Y-171182714D01*
X167876400Y-171182714D02*
X168019257Y-171373190D01*
D11*
X80934383Y-112647014D02*
X80803149Y-112459538D01*
X80709411Y-112647014D02*
X80709411Y-112253313D01*
X80709411Y-112253313D02*
X80859392Y-112253313D01*
X80859392Y-112253313D02*
X80896888Y-112272061D01*
X80896888Y-112272061D02*
X80915635Y-112290809D01*
X80915635Y-112290809D02*
X80934383Y-112328304D01*
X80934383Y-112328304D02*
X80934383Y-112384547D01*
X80934383Y-112384547D02*
X80915635Y-112422042D01*
X80915635Y-112422042D02*
X80896888Y-112440790D01*
X80896888Y-112440790D02*
X80859392Y-112459538D01*
X80859392Y-112459538D02*
X80709411Y-112459538D01*
X81309336Y-112647014D02*
X81084364Y-112647014D01*
X81196850Y-112647014D02*
X81196850Y-112253313D01*
X81196850Y-112253313D02*
X81159355Y-112309556D01*
X81159355Y-112309556D02*
X81121860Y-112347052D01*
X81121860Y-112347052D02*
X81084364Y-112365799D01*
D12*
X118417142Y-98115817D02*
X118417142Y-97635817D01*
X118417142Y-97635817D02*
X118531428Y-97635817D01*
X118531428Y-97635817D02*
X118599999Y-97658674D01*
X118599999Y-97658674D02*
X118645714Y-97704388D01*
X118645714Y-97704388D02*
X118668571Y-97750102D01*
X118668571Y-97750102D02*
X118691428Y-97841531D01*
X118691428Y-97841531D02*
X118691428Y-97910102D01*
X118691428Y-97910102D02*
X118668571Y-98001531D01*
X118668571Y-98001531D02*
X118645714Y-98047245D01*
X118645714Y-98047245D02*
X118599999Y-98092960D01*
X118599999Y-98092960D02*
X118531428Y-98115817D01*
X118531428Y-98115817D02*
X118417142Y-98115817D01*
X119148571Y-98115817D02*
X118874285Y-98115817D01*
X119011428Y-98115817D02*
X119011428Y-97635817D01*
X119011428Y-97635817D02*
X118965714Y-97704388D01*
X118965714Y-97704388D02*
X118919999Y-97750102D01*
X118919999Y-97750102D02*
X118874285Y-97772960D01*
X119445714Y-97635817D02*
X119491428Y-97635817D01*
X119491428Y-97635817D02*
X119537142Y-97658674D01*
X119537142Y-97658674D02*
X119560000Y-97681531D01*
X119560000Y-97681531D02*
X119582857Y-97727245D01*
X119582857Y-97727245D02*
X119605714Y-97818674D01*
X119605714Y-97818674D02*
X119605714Y-97932960D01*
X119605714Y-97932960D02*
X119582857Y-98024388D01*
X119582857Y-98024388D02*
X119560000Y-98070102D01*
X119560000Y-98070102D02*
X119537142Y-98092960D01*
X119537142Y-98092960D02*
X119491428Y-98115817D01*
X119491428Y-98115817D02*
X119445714Y-98115817D01*
X119445714Y-98115817D02*
X119400000Y-98092960D01*
X119400000Y-98092960D02*
X119377142Y-98070102D01*
X119377142Y-98070102D02*
X119354285Y-98024388D01*
X119354285Y-98024388D02*
X119331428Y-97932960D01*
X119331428Y-97932960D02*
X119331428Y-97818674D01*
X119331428Y-97818674D02*
X119354285Y-97727245D01*
X119354285Y-97727245D02*
X119377142Y-97681531D01*
X119377142Y-97681531D02*
X119400000Y-97658674D01*
X119400000Y-97658674D02*
X119445714Y-97635817D01*
D10*
X219733723Y-192256666D02*
X219764200Y-192287142D01*
X219764200Y-192287142D02*
X219794676Y-192378571D01*
X219794676Y-192378571D02*
X219794676Y-192439523D01*
X219794676Y-192439523D02*
X219764200Y-192530952D01*
X219764200Y-192530952D02*
X219703247Y-192591904D01*
X219703247Y-192591904D02*
X219642295Y-192622381D01*
X219642295Y-192622381D02*
X219520390Y-192652857D01*
X219520390Y-192652857D02*
X219428961Y-192652857D01*
X219428961Y-192652857D02*
X219307057Y-192622381D01*
X219307057Y-192622381D02*
X219246104Y-192591904D01*
X219246104Y-192591904D02*
X219185152Y-192530952D01*
X219185152Y-192530952D02*
X219154676Y-192439523D01*
X219154676Y-192439523D02*
X219154676Y-192378571D01*
X219154676Y-192378571D02*
X219185152Y-192287142D01*
X219185152Y-192287142D02*
X219215628Y-192256666D01*
X219215628Y-192012857D02*
X219185152Y-191982381D01*
X219185152Y-191982381D02*
X219154676Y-191921428D01*
X219154676Y-191921428D02*
X219154676Y-191769047D01*
X219154676Y-191769047D02*
X219185152Y-191708095D01*
X219185152Y-191708095D02*
X219215628Y-191677619D01*
X219215628Y-191677619D02*
X219276580Y-191647142D01*
X219276580Y-191647142D02*
X219337533Y-191647142D01*
X219337533Y-191647142D02*
X219428961Y-191677619D01*
X219428961Y-191677619D02*
X219794676Y-192043333D01*
X219794676Y-192043333D02*
X219794676Y-191647142D01*
X213957533Y-195654761D02*
X213957533Y-195045238D01*
X214262295Y-195349999D02*
X213652771Y-195349999D01*
X56038095Y-114004819D02*
X56038095Y-114719104D01*
X56038095Y-114719104D02*
X55990476Y-114861961D01*
X55990476Y-114861961D02*
X55895238Y-114957200D01*
X55895238Y-114957200D02*
X55752381Y-115004819D01*
X55752381Y-115004819D02*
X55657143Y-115004819D01*
X56276191Y-115100057D02*
X57038095Y-115100057D01*
X57276191Y-115004819D02*
X57276191Y-114004819D01*
X57276191Y-114004819D02*
X57657143Y-114004819D01*
X57657143Y-114004819D02*
X57752381Y-114052438D01*
X57752381Y-114052438D02*
X57800000Y-114100057D01*
X57800000Y-114100057D02*
X57847619Y-114195295D01*
X57847619Y-114195295D02*
X57847619Y-114338152D01*
X57847619Y-114338152D02*
X57800000Y-114433390D01*
X57800000Y-114433390D02*
X57752381Y-114481009D01*
X57752381Y-114481009D02*
X57657143Y-114528628D01*
X57657143Y-114528628D02*
X57276191Y-114528628D01*
X58133334Y-114004819D02*
X58466667Y-115004819D01*
X58466667Y-115004819D02*
X58800000Y-114004819D01*
X59133334Y-114623866D02*
X59895239Y-114623866D01*
X60895238Y-115004819D02*
X60323810Y-115004819D01*
X60609524Y-115004819D02*
X60609524Y-114004819D01*
X60609524Y-114004819D02*
X60514286Y-114147676D01*
X60514286Y-114147676D02*
X60419048Y-114242914D01*
X60419048Y-114242914D02*
X60323810Y-114290533D01*
X251619047Y-163304819D02*
X251619047Y-164019104D01*
X251619047Y-164019104D02*
X251571428Y-164161961D01*
X251571428Y-164161961D02*
X251476190Y-164257200D01*
X251476190Y-164257200D02*
X251333333Y-164304819D01*
X251333333Y-164304819D02*
X251238095Y-164304819D01*
X251857143Y-164400057D02*
X252619047Y-164400057D01*
X252857143Y-164304819D02*
X252857143Y-163304819D01*
X252857143Y-163304819D02*
X253190476Y-164019104D01*
X253190476Y-164019104D02*
X253523809Y-163304819D01*
X253523809Y-163304819D02*
X253523809Y-164304819D01*
X253904762Y-163304819D02*
X254523809Y-163304819D01*
X254523809Y-163304819D02*
X254190476Y-163685771D01*
X254190476Y-163685771D02*
X254333333Y-163685771D01*
X254333333Y-163685771D02*
X254428571Y-163733390D01*
X254428571Y-163733390D02*
X254476190Y-163781009D01*
X254476190Y-163781009D02*
X254523809Y-163876247D01*
X254523809Y-163876247D02*
X254523809Y-164114342D01*
X254523809Y-164114342D02*
X254476190Y-164209580D01*
X254476190Y-164209580D02*
X254428571Y-164257200D01*
X254428571Y-164257200D02*
X254333333Y-164304819D01*
X254333333Y-164304819D02*
X254047619Y-164304819D01*
X254047619Y-164304819D02*
X253952381Y-164257200D01*
X253952381Y-164257200D02*
X253904762Y-164209580D01*
X254952381Y-163923866D02*
X255714286Y-163923866D01*
X255333333Y-164304819D02*
X255333333Y-163542914D01*
X256714285Y-164304819D02*
X256142857Y-164304819D01*
X256428571Y-164304819D02*
X256428571Y-163304819D01*
X256428571Y-163304819D02*
X256333333Y-163447676D01*
X256333333Y-163447676D02*
X256238095Y-163542914D01*
X256238095Y-163542914D02*
X256142857Y-163590533D01*
D13*
X100463809Y-115953365D02*
X100403333Y-116013842D01*
X100403333Y-116013842D02*
X100221904Y-116074318D01*
X100221904Y-116074318D02*
X100100952Y-116074318D01*
X100100952Y-116074318D02*
X99919523Y-116013842D01*
X99919523Y-116013842D02*
X99798571Y-115892889D01*
X99798571Y-115892889D02*
X99738094Y-115771937D01*
X99738094Y-115771937D02*
X99677618Y-115530032D01*
X99677618Y-115530032D02*
X99677618Y-115348603D01*
X99677618Y-115348603D02*
X99738094Y-115106699D01*
X99738094Y-115106699D02*
X99798571Y-114985746D01*
X99798571Y-114985746D02*
X99919523Y-114864794D01*
X99919523Y-114864794D02*
X100100952Y-114804318D01*
X100100952Y-114804318D02*
X100221904Y-114804318D01*
X100221904Y-114804318D02*
X100403333Y-114864794D01*
X100403333Y-114864794D02*
X100463809Y-114925270D01*
X101552380Y-116074318D02*
X101552380Y-114804318D01*
X101552380Y-116013842D02*
X101431428Y-116074318D01*
X101431428Y-116074318D02*
X101189523Y-116074318D01*
X101189523Y-116074318D02*
X101068571Y-116013842D01*
X101068571Y-116013842D02*
X101008094Y-115953365D01*
X101008094Y-115953365D02*
X100947618Y-115832413D01*
X100947618Y-115832413D02*
X100947618Y-115469556D01*
X100947618Y-115469556D02*
X101008094Y-115348603D01*
X101008094Y-115348603D02*
X101068571Y-115288127D01*
X101068571Y-115288127D02*
X101189523Y-115227651D01*
X101189523Y-115227651D02*
X101431428Y-115227651D01*
X101431428Y-115227651D02*
X101552380Y-115288127D01*
X102036190Y-114804318D02*
X102822381Y-114804318D01*
X102822381Y-114804318D02*
X102399047Y-115288127D01*
X102399047Y-115288127D02*
X102580476Y-115288127D01*
X102580476Y-115288127D02*
X102701428Y-115348603D01*
X102701428Y-115348603D02*
X102761904Y-115409080D01*
X102761904Y-115409080D02*
X102822381Y-115530032D01*
X102822381Y-115530032D02*
X102822381Y-115832413D01*
X102822381Y-115832413D02*
X102761904Y-115953365D01*
X102761904Y-115953365D02*
X102701428Y-116013842D01*
X102701428Y-116013842D02*
X102580476Y-116074318D01*
X102580476Y-116074318D02*
X102217619Y-116074318D01*
X102217619Y-116074318D02*
X102096666Y-116013842D01*
X102096666Y-116013842D02*
X102036190Y-115953365D01*
D12*
X163369714Y-97051017D02*
X163369714Y-96571017D01*
X163369714Y-96571017D02*
X163484000Y-96571017D01*
X163484000Y-96571017D02*
X163552571Y-96593874D01*
X163552571Y-96593874D02*
X163598286Y-96639588D01*
X163598286Y-96639588D02*
X163621143Y-96685302D01*
X163621143Y-96685302D02*
X163644000Y-96776731D01*
X163644000Y-96776731D02*
X163644000Y-96845302D01*
X163644000Y-96845302D02*
X163621143Y-96936731D01*
X163621143Y-96936731D02*
X163598286Y-96982445D01*
X163598286Y-96982445D02*
X163552571Y-97028160D01*
X163552571Y-97028160D02*
X163484000Y-97051017D01*
X163484000Y-97051017D02*
X163369714Y-97051017D01*
X164055429Y-96571017D02*
X163964000Y-96571017D01*
X163964000Y-96571017D02*
X163918286Y-96593874D01*
X163918286Y-96593874D02*
X163895429Y-96616731D01*
X163895429Y-96616731D02*
X163849714Y-96685302D01*
X163849714Y-96685302D02*
X163826857Y-96776731D01*
X163826857Y-96776731D02*
X163826857Y-96959588D01*
X163826857Y-96959588D02*
X163849714Y-97005302D01*
X163849714Y-97005302D02*
X163872571Y-97028160D01*
X163872571Y-97028160D02*
X163918286Y-97051017D01*
X163918286Y-97051017D02*
X164009714Y-97051017D01*
X164009714Y-97051017D02*
X164055429Y-97028160D01*
X164055429Y-97028160D02*
X164078286Y-97005302D01*
X164078286Y-97005302D02*
X164101143Y-96959588D01*
X164101143Y-96959588D02*
X164101143Y-96845302D01*
X164101143Y-96845302D02*
X164078286Y-96799588D01*
X164078286Y-96799588D02*
X164055429Y-96776731D01*
X164055429Y-96776731D02*
X164009714Y-96753874D01*
X164009714Y-96753874D02*
X163918286Y-96753874D01*
X163918286Y-96753874D02*
X163872571Y-96776731D01*
X163872571Y-96776731D02*
X163849714Y-96799588D01*
X163849714Y-96799588D02*
X163826857Y-96845302D01*
D13*
X110203365Y-86059999D02*
X110263842Y-86120475D01*
X110263842Y-86120475D02*
X110324318Y-86301904D01*
X110324318Y-86301904D02*
X110324318Y-86422856D01*
X110324318Y-86422856D02*
X110263842Y-86604285D01*
X110263842Y-86604285D02*
X110142889Y-86725237D01*
X110142889Y-86725237D02*
X110021937Y-86785714D01*
X110021937Y-86785714D02*
X109780032Y-86846190D01*
X109780032Y-86846190D02*
X109598603Y-86846190D01*
X109598603Y-86846190D02*
X109356699Y-86785714D01*
X109356699Y-86785714D02*
X109235746Y-86725237D01*
X109235746Y-86725237D02*
X109114794Y-86604285D01*
X109114794Y-86604285D02*
X109054318Y-86422856D01*
X109054318Y-86422856D02*
X109054318Y-86301904D01*
X109054318Y-86301904D02*
X109114794Y-86120475D01*
X109114794Y-86120475D02*
X109175270Y-86059999D01*
X109477651Y-85515714D02*
X110747651Y-85515714D01*
X109538127Y-85515714D02*
X109477651Y-85394761D01*
X109477651Y-85394761D02*
X109477651Y-85152856D01*
X109477651Y-85152856D02*
X109538127Y-85031904D01*
X109538127Y-85031904D02*
X109598603Y-84971428D01*
X109598603Y-84971428D02*
X109719556Y-84910952D01*
X109719556Y-84910952D02*
X110082413Y-84910952D01*
X110082413Y-84910952D02*
X110203365Y-84971428D01*
X110203365Y-84971428D02*
X110263842Y-85031904D01*
X110263842Y-85031904D02*
X110324318Y-85152856D01*
X110324318Y-85152856D02*
X110324318Y-85394761D01*
X110324318Y-85394761D02*
X110263842Y-85515714D01*
X109477651Y-84487618D02*
X110324318Y-84185237D01*
X110324318Y-84185237D02*
X109477651Y-83882856D01*
X110324318Y-82733808D02*
X110324318Y-83459523D01*
X110324318Y-83096666D02*
X109054318Y-83096666D01*
X109054318Y-83096666D02*
X109235746Y-83217618D01*
X109235746Y-83217618D02*
X109356699Y-83338570D01*
X109356699Y-83338570D02*
X109417175Y-83459523D01*
D10*
X110854819Y-102638094D02*
X109854819Y-102638094D01*
X109854819Y-102638094D02*
X109854819Y-102399999D01*
X109854819Y-102399999D02*
X109902438Y-102257142D01*
X109902438Y-102257142D02*
X109997676Y-102161904D01*
X109997676Y-102161904D02*
X110092914Y-102114285D01*
X110092914Y-102114285D02*
X110283390Y-102066666D01*
X110283390Y-102066666D02*
X110426247Y-102066666D01*
X110426247Y-102066666D02*
X110616723Y-102114285D01*
X110616723Y-102114285D02*
X110711961Y-102161904D01*
X110711961Y-102161904D02*
X110807200Y-102257142D01*
X110807200Y-102257142D02*
X110854819Y-102399999D01*
X110854819Y-102399999D02*
X110854819Y-102638094D01*
X110854819Y-101590475D02*
X110854819Y-101399999D01*
X110854819Y-101399999D02*
X110807200Y-101304761D01*
X110807200Y-101304761D02*
X110759580Y-101257142D01*
X110759580Y-101257142D02*
X110616723Y-101161904D01*
X110616723Y-101161904D02*
X110426247Y-101114285D01*
X110426247Y-101114285D02*
X110045295Y-101114285D01*
X110045295Y-101114285D02*
X109950057Y-101161904D01*
X109950057Y-101161904D02*
X109902438Y-101209523D01*
X109902438Y-101209523D02*
X109854819Y-101304761D01*
X109854819Y-101304761D02*
X109854819Y-101495237D01*
X109854819Y-101495237D02*
X109902438Y-101590475D01*
X109902438Y-101590475D02*
X109950057Y-101638094D01*
X109950057Y-101638094D02*
X110045295Y-101685713D01*
X110045295Y-101685713D02*
X110283390Y-101685713D01*
X110283390Y-101685713D02*
X110378628Y-101638094D01*
X110378628Y-101638094D02*
X110426247Y-101590475D01*
X110426247Y-101590475D02*
X110473866Y-101495237D01*
X110473866Y-101495237D02*
X110473866Y-101304761D01*
X110473866Y-101304761D02*
X110426247Y-101209523D01*
X110426247Y-101209523D02*
X110378628Y-101161904D01*
X110378628Y-101161904D02*
X110283390Y-101114285D01*
X111234819Y-106221904D02*
X110234819Y-106221904D01*
X111234819Y-105650476D02*
X110663390Y-106079047D01*
X110234819Y-105650476D02*
X110806247Y-106221904D01*
D11*
X105876280Y-111869519D02*
X105857532Y-111888267D01*
X105857532Y-111888267D02*
X105801289Y-111907014D01*
X105801289Y-111907014D02*
X105763794Y-111907014D01*
X105763794Y-111907014D02*
X105707551Y-111888267D01*
X105707551Y-111888267D02*
X105670056Y-111850771D01*
X105670056Y-111850771D02*
X105651308Y-111813276D01*
X105651308Y-111813276D02*
X105632560Y-111738285D01*
X105632560Y-111738285D02*
X105632560Y-111682042D01*
X105632560Y-111682042D02*
X105651308Y-111607052D01*
X105651308Y-111607052D02*
X105670056Y-111569556D01*
X105670056Y-111569556D02*
X105707551Y-111532061D01*
X105707551Y-111532061D02*
X105763794Y-111513313D01*
X105763794Y-111513313D02*
X105801289Y-111513313D01*
X105801289Y-111513313D02*
X105857532Y-111532061D01*
X105857532Y-111532061D02*
X105876280Y-111550809D01*
X106213738Y-111907014D02*
X106213738Y-111513313D01*
X106213738Y-111888267D02*
X106176243Y-111907014D01*
X106176243Y-111907014D02*
X106101252Y-111907014D01*
X106101252Y-111907014D02*
X106063757Y-111888267D01*
X106063757Y-111888267D02*
X106045009Y-111869519D01*
X106045009Y-111869519D02*
X106026261Y-111832024D01*
X106026261Y-111832024D02*
X106026261Y-111719538D01*
X106026261Y-111719538D02*
X106045009Y-111682042D01*
X106045009Y-111682042D02*
X106063757Y-111663295D01*
X106063757Y-111663295D02*
X106101252Y-111644547D01*
X106101252Y-111644547D02*
X106176243Y-111644547D01*
X106176243Y-111644547D02*
X106213738Y-111663295D01*
X106569944Y-111644547D02*
X106569944Y-111907014D01*
X106476206Y-111494566D02*
X106382467Y-111775781D01*
X106382467Y-111775781D02*
X106626187Y-111775781D01*
D14*
X82423453Y-115951622D02*
X82102913Y-115951622D01*
X82392926Y-115615819D02*
X82408190Y-115631083D01*
X82408190Y-115631083D02*
X82423453Y-115676874D01*
X82423453Y-115676874D02*
X82423453Y-115707402D01*
X82423453Y-115707402D02*
X82408190Y-115753193D01*
X82408190Y-115753193D02*
X82377662Y-115783721D01*
X82377662Y-115783721D02*
X82347134Y-115798984D01*
X82347134Y-115798984D02*
X82286079Y-115814248D01*
X82286079Y-115814248D02*
X82240288Y-115814248D01*
X82240288Y-115814248D02*
X82179232Y-115798984D01*
X82179232Y-115798984D02*
X82148705Y-115783721D01*
X82148705Y-115783721D02*
X82118177Y-115753193D01*
X82118177Y-115753193D02*
X82102913Y-115707402D01*
X82102913Y-115707402D02*
X82102913Y-115676874D01*
X82102913Y-115676874D02*
X82118177Y-115631083D01*
X82118177Y-115631083D02*
X82133441Y-115615819D01*
X82423453Y-115310543D02*
X82423453Y-115493708D01*
X82423453Y-115402125D02*
X82102913Y-115402125D01*
X82102913Y-115402125D02*
X82148705Y-115432653D01*
X82148705Y-115432653D02*
X82179232Y-115463181D01*
X82179232Y-115463181D02*
X82194496Y-115493708D01*
D10*
X126604819Y-74096666D02*
X126604819Y-74572856D01*
X126604819Y-74572856D02*
X125604819Y-74572856D01*
X126604819Y-73239523D02*
X126604819Y-73810951D01*
X126604819Y-73525237D02*
X125604819Y-73525237D01*
X125604819Y-73525237D02*
X125747676Y-73620475D01*
X125747676Y-73620475D02*
X125842914Y-73715713D01*
X125842914Y-73715713D02*
X125890533Y-73810951D01*
X66954819Y-50988095D02*
X67669104Y-50988095D01*
X67669104Y-50988095D02*
X67811961Y-51035714D01*
X67811961Y-51035714D02*
X67907200Y-51130952D01*
X67907200Y-51130952D02*
X67954819Y-51273809D01*
X67954819Y-51273809D02*
X67954819Y-51369047D01*
X68050057Y-50750000D02*
X68050057Y-49988095D01*
X66954819Y-49892856D02*
X67954819Y-49559523D01*
X67954819Y-49559523D02*
X66954819Y-49226190D01*
X67954819Y-48892856D02*
X66954819Y-48892856D01*
X66954819Y-48892856D02*
X66954819Y-48654761D01*
X66954819Y-48654761D02*
X67002438Y-48511904D01*
X67002438Y-48511904D02*
X67097676Y-48416666D01*
X67097676Y-48416666D02*
X67192914Y-48369047D01*
X67192914Y-48369047D02*
X67383390Y-48321428D01*
X67383390Y-48321428D02*
X67526247Y-48321428D01*
X67526247Y-48321428D02*
X67716723Y-48369047D01*
X67716723Y-48369047D02*
X67811961Y-48416666D01*
X67811961Y-48416666D02*
X67907200Y-48511904D01*
X67907200Y-48511904D02*
X67954819Y-48654761D01*
X67954819Y-48654761D02*
X67954819Y-48892856D01*
X67954819Y-47892856D02*
X66954819Y-47892856D01*
X66954819Y-47892856D02*
X66954819Y-47654761D01*
X66954819Y-47654761D02*
X67002438Y-47511904D01*
X67002438Y-47511904D02*
X67097676Y-47416666D01*
X67097676Y-47416666D02*
X67192914Y-47369047D01*
X67192914Y-47369047D02*
X67383390Y-47321428D01*
X67383390Y-47321428D02*
X67526247Y-47321428D01*
X67526247Y-47321428D02*
X67716723Y-47369047D01*
X67716723Y-47369047D02*
X67811961Y-47416666D01*
X67811961Y-47416666D02*
X67907200Y-47511904D01*
X67907200Y-47511904D02*
X67954819Y-47654761D01*
X67954819Y-47654761D02*
X67954819Y-47892856D01*
X67954819Y-46369047D02*
X67954819Y-46940475D01*
X67954819Y-46654761D02*
X66954819Y-46654761D01*
X66954819Y-46654761D02*
X67097676Y-46749999D01*
X67097676Y-46749999D02*
X67192914Y-46845237D01*
X67192914Y-46845237D02*
X67240533Y-46940475D01*
X67573866Y-45940475D02*
X67573866Y-45178571D01*
X67954819Y-44178571D02*
X67954819Y-44749999D01*
X67954819Y-44464285D02*
X66954819Y-44464285D01*
X66954819Y-44464285D02*
X67097676Y-44559523D01*
X67097676Y-44559523D02*
X67192914Y-44654761D01*
X67192914Y-44654761D02*
X67240533Y-44749999D01*
D11*
X76625047Y-114139519D02*
X76606299Y-114158267D01*
X76606299Y-114158267D02*
X76550056Y-114177014D01*
X76550056Y-114177014D02*
X76512561Y-114177014D01*
X76512561Y-114177014D02*
X76456318Y-114158267D01*
X76456318Y-114158267D02*
X76418823Y-114120771D01*
X76418823Y-114120771D02*
X76400075Y-114083276D01*
X76400075Y-114083276D02*
X76381327Y-114008285D01*
X76381327Y-114008285D02*
X76381327Y-113952042D01*
X76381327Y-113952042D02*
X76400075Y-113877052D01*
X76400075Y-113877052D02*
X76418823Y-113839556D01*
X76418823Y-113839556D02*
X76456318Y-113802061D01*
X76456318Y-113802061D02*
X76512561Y-113783313D01*
X76512561Y-113783313D02*
X76550056Y-113783313D01*
X76550056Y-113783313D02*
X76606299Y-113802061D01*
X76606299Y-113802061D02*
X76625047Y-113820809D01*
X76756281Y-113914547D02*
X76850019Y-114177014D01*
X76850019Y-114177014D02*
X76943757Y-113914547D01*
X77074991Y-114158267D02*
X77112487Y-114177014D01*
X77112487Y-114177014D02*
X77187477Y-114177014D01*
X77187477Y-114177014D02*
X77224973Y-114158267D01*
X77224973Y-114158267D02*
X77243720Y-114120771D01*
X77243720Y-114120771D02*
X77243720Y-114102024D01*
X77243720Y-114102024D02*
X77224973Y-114064528D01*
X77224973Y-114064528D02*
X77187477Y-114045781D01*
X77187477Y-114045781D02*
X77131234Y-114045781D01*
X77131234Y-114045781D02*
X77093739Y-114027033D01*
X77093739Y-114027033D02*
X77074991Y-113989538D01*
X77074991Y-113989538D02*
X77074991Y-113970790D01*
X77074991Y-113970790D02*
X77093739Y-113933295D01*
X77093739Y-113933295D02*
X77131234Y-113914547D01*
X77131234Y-113914547D02*
X77187477Y-113914547D01*
X77187477Y-113914547D02*
X77224973Y-113933295D01*
X77618673Y-114177014D02*
X77393701Y-114177014D01*
X77506187Y-114177014D02*
X77506187Y-113783313D01*
X77506187Y-113783313D02*
X77468692Y-113839556D01*
X77468692Y-113839556D02*
X77431197Y-113877052D01*
X77431197Y-113877052D02*
X77393701Y-113895799D01*
D13*
X179230000Y-167453365D02*
X179169524Y-167513842D01*
X179169524Y-167513842D02*
X178988095Y-167574318D01*
X178988095Y-167574318D02*
X178867143Y-167574318D01*
X178867143Y-167574318D02*
X178685714Y-167513842D01*
X178685714Y-167513842D02*
X178564762Y-167392889D01*
X178564762Y-167392889D02*
X178504285Y-167271937D01*
X178504285Y-167271937D02*
X178443809Y-167030032D01*
X178443809Y-167030032D02*
X178443809Y-166848603D01*
X178443809Y-166848603D02*
X178504285Y-166606699D01*
X178504285Y-166606699D02*
X178564762Y-166485746D01*
X178564762Y-166485746D02*
X178685714Y-166364794D01*
X178685714Y-166364794D02*
X178867143Y-166304318D01*
X178867143Y-166304318D02*
X178988095Y-166304318D01*
X178988095Y-166304318D02*
X179169524Y-166364794D01*
X179169524Y-166364794D02*
X179230000Y-166425270D01*
X179774285Y-166727651D02*
X179774285Y-167997651D01*
X179774285Y-166788127D02*
X179895238Y-166727651D01*
X179895238Y-166727651D02*
X180137143Y-166727651D01*
X180137143Y-166727651D02*
X180258095Y-166788127D01*
X180258095Y-166788127D02*
X180318571Y-166848603D01*
X180318571Y-166848603D02*
X180379047Y-166969556D01*
X180379047Y-166969556D02*
X180379047Y-167332413D01*
X180379047Y-167332413D02*
X180318571Y-167453365D01*
X180318571Y-167453365D02*
X180258095Y-167513842D01*
X180258095Y-167513842D02*
X180137143Y-167574318D01*
X180137143Y-167574318D02*
X179895238Y-167574318D01*
X179895238Y-167574318D02*
X179774285Y-167513842D01*
X180802381Y-166727651D02*
X181104762Y-167574318D01*
X181104762Y-167574318D02*
X181407143Y-166727651D01*
X181770000Y-166304318D02*
X182556191Y-166304318D01*
X182556191Y-166304318D02*
X182132857Y-166788127D01*
X182132857Y-166788127D02*
X182314286Y-166788127D01*
X182314286Y-166788127D02*
X182435238Y-166848603D01*
X182435238Y-166848603D02*
X182495714Y-166909080D01*
X182495714Y-166909080D02*
X182556191Y-167030032D01*
X182556191Y-167030032D02*
X182556191Y-167332413D01*
X182556191Y-167332413D02*
X182495714Y-167453365D01*
X182495714Y-167453365D02*
X182435238Y-167513842D01*
X182435238Y-167513842D02*
X182314286Y-167574318D01*
X182314286Y-167574318D02*
X181951429Y-167574318D01*
X181951429Y-167574318D02*
X181830476Y-167513842D01*
X181830476Y-167513842D02*
X181770000Y-167453365D01*
X125392618Y-97074318D02*
X125392618Y-95804318D01*
X125392618Y-95804318D02*
X125694999Y-95804318D01*
X125694999Y-95804318D02*
X125876428Y-95864794D01*
X125876428Y-95864794D02*
X125997380Y-95985746D01*
X125997380Y-95985746D02*
X126057857Y-96106699D01*
X126057857Y-96106699D02*
X126118333Y-96348603D01*
X126118333Y-96348603D02*
X126118333Y-96530032D01*
X126118333Y-96530032D02*
X126057857Y-96771937D01*
X126057857Y-96771937D02*
X125997380Y-96892889D01*
X125997380Y-96892889D02*
X125876428Y-97013842D01*
X125876428Y-97013842D02*
X125694999Y-97074318D01*
X125694999Y-97074318D02*
X125392618Y-97074318D01*
X127327857Y-97074318D02*
X126602142Y-97074318D01*
X126964999Y-97074318D02*
X126964999Y-95804318D01*
X126964999Y-95804318D02*
X126844047Y-95985746D01*
X126844047Y-95985746D02*
X126723095Y-96106699D01*
X126723095Y-96106699D02*
X126602142Y-96167175D01*
D11*
X197577014Y-175363719D02*
X197389538Y-175494953D01*
X197577014Y-175588691D02*
X197183313Y-175588691D01*
X197183313Y-175588691D02*
X197183313Y-175438710D01*
X197183313Y-175438710D02*
X197202061Y-175401215D01*
X197202061Y-175401215D02*
X197220809Y-175382467D01*
X197220809Y-175382467D02*
X197258304Y-175363719D01*
X197258304Y-175363719D02*
X197314547Y-175363719D01*
X197314547Y-175363719D02*
X197352042Y-175382467D01*
X197352042Y-175382467D02*
X197370790Y-175401215D01*
X197370790Y-175401215D02*
X197389538Y-175438710D01*
X197389538Y-175438710D02*
X197389538Y-175588691D01*
X197577014Y-175026261D02*
X197183313Y-175026261D01*
X197558267Y-175026261D02*
X197577014Y-175063757D01*
X197577014Y-175063757D02*
X197577014Y-175138747D01*
X197577014Y-175138747D02*
X197558267Y-175176243D01*
X197558267Y-175176243D02*
X197539519Y-175194990D01*
X197539519Y-175194990D02*
X197502024Y-175213738D01*
X197502024Y-175213738D02*
X197389538Y-175213738D01*
X197389538Y-175213738D02*
X197352042Y-175194990D01*
X197352042Y-175194990D02*
X197333295Y-175176243D01*
X197333295Y-175176243D02*
X197314547Y-175138747D01*
X197314547Y-175138747D02*
X197314547Y-175063757D01*
X197314547Y-175063757D02*
X197333295Y-175026261D01*
X197183313Y-174876280D02*
X197183313Y-174613812D01*
X197183313Y-174613812D02*
X197577014Y-174782541D01*
D10*
X202745180Y-192291433D02*
X202745180Y-191815243D01*
X202745180Y-191815243D02*
X203745180Y-191815243D01*
X203649942Y-192577148D02*
X203697561Y-192624767D01*
X203697561Y-192624767D02*
X203745180Y-192720005D01*
X203745180Y-192720005D02*
X203745180Y-192958100D01*
X203745180Y-192958100D02*
X203697561Y-193053338D01*
X203697561Y-193053338D02*
X203649942Y-193100957D01*
X203649942Y-193100957D02*
X203554704Y-193148576D01*
X203554704Y-193148576D02*
X203459466Y-193148576D01*
X203459466Y-193148576D02*
X203316609Y-193100957D01*
X203316609Y-193100957D02*
X202745180Y-192529529D01*
X202745180Y-192529529D02*
X202745180Y-193148576D01*
X163080476Y-88704819D02*
X163080476Y-87704819D01*
X163080476Y-87704819D02*
X163413809Y-88419104D01*
X163413809Y-88419104D02*
X163747142Y-87704819D01*
X163747142Y-87704819D02*
X163747142Y-88704819D01*
X164175714Y-87800057D02*
X164223333Y-87752438D01*
X164223333Y-87752438D02*
X164318571Y-87704819D01*
X164318571Y-87704819D02*
X164556666Y-87704819D01*
X164556666Y-87704819D02*
X164651904Y-87752438D01*
X164651904Y-87752438D02*
X164699523Y-87800057D01*
X164699523Y-87800057D02*
X164747142Y-87895295D01*
X164747142Y-87895295D02*
X164747142Y-87990533D01*
X164747142Y-87990533D02*
X164699523Y-88133390D01*
X164699523Y-88133390D02*
X164128095Y-88704819D01*
X164128095Y-88704819D02*
X164747142Y-88704819D01*
X160080000Y-93306819D02*
X160080000Y-93544914D01*
X159841905Y-93449676D02*
X160080000Y-93544914D01*
X160080000Y-93544914D02*
X160318095Y-93449676D01*
X159937143Y-93735390D02*
X160080000Y-93544914D01*
X160080000Y-93544914D02*
X160222857Y-93735390D01*
X94804819Y-50130952D02*
X95519104Y-50130952D01*
X95519104Y-50130952D02*
X95661961Y-50178571D01*
X95661961Y-50178571D02*
X95757200Y-50273809D01*
X95757200Y-50273809D02*
X95804819Y-50416666D01*
X95804819Y-50416666D02*
X95804819Y-50511904D01*
X95900057Y-49892857D02*
X95900057Y-49130952D01*
X95804819Y-48892856D02*
X94804819Y-48892856D01*
X94804819Y-48892856D02*
X95519104Y-48559523D01*
X95519104Y-48559523D02*
X94804819Y-48226190D01*
X94804819Y-48226190D02*
X95804819Y-48226190D01*
X95804819Y-47226190D02*
X95804819Y-47797618D01*
X95804819Y-47511904D02*
X94804819Y-47511904D01*
X94804819Y-47511904D02*
X94947676Y-47607142D01*
X94947676Y-47607142D02*
X95042914Y-47702380D01*
X95042914Y-47702380D02*
X95090533Y-47797618D01*
X95423866Y-46797618D02*
X95423866Y-46035714D01*
X95804819Y-46416666D02*
X95042914Y-46416666D01*
X95804819Y-45035714D02*
X95804819Y-45607142D01*
X95804819Y-45321428D02*
X94804819Y-45321428D01*
X94804819Y-45321428D02*
X94947676Y-45416666D01*
X94947676Y-45416666D02*
X95042914Y-45511904D01*
X95042914Y-45511904D02*
X95090533Y-45607142D01*
X158514819Y-102888094D02*
X157514819Y-102888094D01*
X157514819Y-102888094D02*
X157514819Y-102649999D01*
X157514819Y-102649999D02*
X157562438Y-102507142D01*
X157562438Y-102507142D02*
X157657676Y-102411904D01*
X157657676Y-102411904D02*
X157752914Y-102364285D01*
X157752914Y-102364285D02*
X157943390Y-102316666D01*
X157943390Y-102316666D02*
X158086247Y-102316666D01*
X158086247Y-102316666D02*
X158276723Y-102364285D01*
X158276723Y-102364285D02*
X158371961Y-102411904D01*
X158371961Y-102411904D02*
X158467200Y-102507142D01*
X158467200Y-102507142D02*
X158514819Y-102649999D01*
X158514819Y-102649999D02*
X158514819Y-102888094D01*
X157514819Y-101411904D02*
X157514819Y-101888094D01*
X157514819Y-101888094D02*
X157991009Y-101935713D01*
X157991009Y-101935713D02*
X157943390Y-101888094D01*
X157943390Y-101888094D02*
X157895771Y-101792856D01*
X157895771Y-101792856D02*
X157895771Y-101554761D01*
X157895771Y-101554761D02*
X157943390Y-101459523D01*
X157943390Y-101459523D02*
X157991009Y-101411904D01*
X157991009Y-101411904D02*
X158086247Y-101364285D01*
X158086247Y-101364285D02*
X158324342Y-101364285D01*
X158324342Y-101364285D02*
X158419580Y-101411904D01*
X158419580Y-101411904D02*
X158467200Y-101459523D01*
X158467200Y-101459523D02*
X158514819Y-101554761D01*
X158514819Y-101554761D02*
X158514819Y-101792856D01*
X158514819Y-101792856D02*
X158467200Y-101888094D01*
X158467200Y-101888094D02*
X158419580Y-101935713D01*
X158834819Y-106221904D02*
X157834819Y-106221904D01*
X158834819Y-105650476D02*
X158263390Y-106079047D01*
X157834819Y-105650476D02*
X158406247Y-106221904D01*
X156274819Y-50130952D02*
X156989104Y-50130952D01*
X156989104Y-50130952D02*
X157131961Y-50178571D01*
X157131961Y-50178571D02*
X157227200Y-50273809D01*
X157227200Y-50273809D02*
X157274819Y-50416666D01*
X157274819Y-50416666D02*
X157274819Y-50511904D01*
X157370057Y-49892857D02*
X157370057Y-49130952D01*
X157274819Y-48892856D02*
X156274819Y-48892856D01*
X156274819Y-48892856D02*
X156989104Y-48559523D01*
X156989104Y-48559523D02*
X156274819Y-48226190D01*
X156274819Y-48226190D02*
X157274819Y-48226190D01*
X156370057Y-47797618D02*
X156322438Y-47749999D01*
X156322438Y-47749999D02*
X156274819Y-47654761D01*
X156274819Y-47654761D02*
X156274819Y-47416666D01*
X156274819Y-47416666D02*
X156322438Y-47321428D01*
X156322438Y-47321428D02*
X156370057Y-47273809D01*
X156370057Y-47273809D02*
X156465295Y-47226190D01*
X156465295Y-47226190D02*
X156560533Y-47226190D01*
X156560533Y-47226190D02*
X156703390Y-47273809D01*
X156703390Y-47273809D02*
X157274819Y-47845237D01*
X157274819Y-47845237D02*
X157274819Y-47226190D01*
X156893866Y-46797618D02*
X156893866Y-46035714D01*
X157274819Y-46416666D02*
X156512914Y-46416666D01*
X157274819Y-45035714D02*
X157274819Y-45607142D01*
X157274819Y-45321428D02*
X156274819Y-45321428D01*
X156274819Y-45321428D02*
X156417676Y-45416666D01*
X156417676Y-45416666D02*
X156512914Y-45511904D01*
X156512914Y-45511904D02*
X156560533Y-45607142D01*
D13*
X165992618Y-72324318D02*
X165992618Y-71054318D01*
X165992618Y-71054318D02*
X166294999Y-71054318D01*
X166294999Y-71054318D02*
X166476428Y-71114794D01*
X166476428Y-71114794D02*
X166597380Y-71235746D01*
X166597380Y-71235746D02*
X166657857Y-71356699D01*
X166657857Y-71356699D02*
X166718333Y-71598603D01*
X166718333Y-71598603D02*
X166718333Y-71780032D01*
X166718333Y-71780032D02*
X166657857Y-72021937D01*
X166657857Y-72021937D02*
X166597380Y-72142889D01*
X166597380Y-72142889D02*
X166476428Y-72263842D01*
X166476428Y-72263842D02*
X166294999Y-72324318D01*
X166294999Y-72324318D02*
X165992618Y-72324318D01*
X167202142Y-71175270D02*
X167262618Y-71114794D01*
X167262618Y-71114794D02*
X167383571Y-71054318D01*
X167383571Y-71054318D02*
X167685952Y-71054318D01*
X167685952Y-71054318D02*
X167806904Y-71114794D01*
X167806904Y-71114794D02*
X167867380Y-71175270D01*
X167867380Y-71175270D02*
X167927857Y-71296222D01*
X167927857Y-71296222D02*
X167927857Y-71417175D01*
X167927857Y-71417175D02*
X167867380Y-71598603D01*
X167867380Y-71598603D02*
X167141666Y-72324318D01*
X167141666Y-72324318D02*
X167927857Y-72324318D01*
D11*
X164096280Y-107447014D02*
X163965046Y-107259538D01*
X163871308Y-107447014D02*
X163871308Y-107053313D01*
X163871308Y-107053313D02*
X164021289Y-107053313D01*
X164021289Y-107053313D02*
X164058785Y-107072061D01*
X164058785Y-107072061D02*
X164077532Y-107090809D01*
X164077532Y-107090809D02*
X164096280Y-107128304D01*
X164096280Y-107128304D02*
X164096280Y-107184547D01*
X164096280Y-107184547D02*
X164077532Y-107222042D01*
X164077532Y-107222042D02*
X164058785Y-107240790D01*
X164058785Y-107240790D02*
X164021289Y-107259538D01*
X164021289Y-107259538D02*
X163871308Y-107259538D01*
X164433738Y-107447014D02*
X164433738Y-107053313D01*
X164433738Y-107428267D02*
X164396243Y-107447014D01*
X164396243Y-107447014D02*
X164321252Y-107447014D01*
X164321252Y-107447014D02*
X164283757Y-107428267D01*
X164283757Y-107428267D02*
X164265009Y-107409519D01*
X164265009Y-107409519D02*
X164246261Y-107372024D01*
X164246261Y-107372024D02*
X164246261Y-107259538D01*
X164246261Y-107259538D02*
X164265009Y-107222042D01*
X164265009Y-107222042D02*
X164283757Y-107203295D01*
X164283757Y-107203295D02*
X164321252Y-107184547D01*
X164321252Y-107184547D02*
X164396243Y-107184547D01*
X164396243Y-107184547D02*
X164433738Y-107203295D01*
X164583720Y-107053313D02*
X164827439Y-107053313D01*
X164827439Y-107053313D02*
X164696206Y-107203295D01*
X164696206Y-107203295D02*
X164752449Y-107203295D01*
X164752449Y-107203295D02*
X164789944Y-107222042D01*
X164789944Y-107222042D02*
X164808692Y-107240790D01*
X164808692Y-107240790D02*
X164827439Y-107278285D01*
X164827439Y-107278285D02*
X164827439Y-107372024D01*
X164827439Y-107372024D02*
X164808692Y-107409519D01*
X164808692Y-107409519D02*
X164789944Y-107428267D01*
X164789944Y-107428267D02*
X164752449Y-107447014D01*
X164752449Y-107447014D02*
X164639963Y-107447014D01*
X164639963Y-107447014D02*
X164602467Y-107428267D01*
X164602467Y-107428267D02*
X164583720Y-107409519D01*
X159337014Y-133231719D02*
X159149538Y-133362953D01*
X159337014Y-133456691D02*
X158943313Y-133456691D01*
X158943313Y-133456691D02*
X158943313Y-133306710D01*
X158943313Y-133306710D02*
X158962061Y-133269215D01*
X158962061Y-133269215D02*
X158980809Y-133250467D01*
X158980809Y-133250467D02*
X159018304Y-133231719D01*
X159018304Y-133231719D02*
X159074547Y-133231719D01*
X159074547Y-133231719D02*
X159112042Y-133250467D01*
X159112042Y-133250467D02*
X159130790Y-133269215D01*
X159130790Y-133269215D02*
X159149538Y-133306710D01*
X159149538Y-133306710D02*
X159149538Y-133456691D01*
X159337014Y-132894261D02*
X158943313Y-132894261D01*
X159318267Y-132894261D02*
X159337014Y-132931757D01*
X159337014Y-132931757D02*
X159337014Y-133006747D01*
X159337014Y-133006747D02*
X159318267Y-133044243D01*
X159318267Y-133044243D02*
X159299519Y-133062990D01*
X159299519Y-133062990D02*
X159262024Y-133081738D01*
X159262024Y-133081738D02*
X159149538Y-133081738D01*
X159149538Y-133081738D02*
X159112042Y-133062990D01*
X159112042Y-133062990D02*
X159093295Y-133044243D01*
X159093295Y-133044243D02*
X159074547Y-133006747D01*
X159074547Y-133006747D02*
X159074547Y-132931757D01*
X159074547Y-132931757D02*
X159093295Y-132894261D01*
X159337014Y-132500560D02*
X159337014Y-132725532D01*
X159337014Y-132613046D02*
X158943313Y-132613046D01*
X158943313Y-132613046D02*
X158999556Y-132650541D01*
X158999556Y-132650541D02*
X159037052Y-132688037D01*
X159037052Y-132688037D02*
X159055799Y-132725532D01*
D10*
X76283095Y-141719819D02*
X76283095Y-142529342D01*
X76283095Y-142529342D02*
X76330714Y-142624580D01*
X76330714Y-142624580D02*
X76378333Y-142672200D01*
X76378333Y-142672200D02*
X76473571Y-142719819D01*
X76473571Y-142719819D02*
X76664047Y-142719819D01*
X76664047Y-142719819D02*
X76759285Y-142672200D01*
X76759285Y-142672200D02*
X76806904Y-142624580D01*
X76806904Y-142624580D02*
X76854523Y-142529342D01*
X76854523Y-142529342D02*
X76854523Y-141719819D01*
X77854523Y-142719819D02*
X77283095Y-142719819D01*
X77568809Y-142719819D02*
X77568809Y-141719819D01*
X77568809Y-141719819D02*
X77473571Y-141862676D01*
X77473571Y-141862676D02*
X77378333Y-141957914D01*
X77378333Y-141957914D02*
X77283095Y-142005533D01*
D11*
X162456280Y-173277014D02*
X162325046Y-173089538D01*
X162231308Y-173277014D02*
X162231308Y-172883313D01*
X162231308Y-172883313D02*
X162381289Y-172883313D01*
X162381289Y-172883313D02*
X162418785Y-172902061D01*
X162418785Y-172902061D02*
X162437532Y-172920809D01*
X162437532Y-172920809D02*
X162456280Y-172958304D01*
X162456280Y-172958304D02*
X162456280Y-173014547D01*
X162456280Y-173014547D02*
X162437532Y-173052042D01*
X162437532Y-173052042D02*
X162418785Y-173070790D01*
X162418785Y-173070790D02*
X162381289Y-173089538D01*
X162381289Y-173089538D02*
X162231308Y-173089538D01*
X162793738Y-173277014D02*
X162793738Y-172883313D01*
X162793738Y-173258267D02*
X162756243Y-173277014D01*
X162756243Y-173277014D02*
X162681252Y-173277014D01*
X162681252Y-173277014D02*
X162643757Y-173258267D01*
X162643757Y-173258267D02*
X162625009Y-173239519D01*
X162625009Y-173239519D02*
X162606261Y-173202024D01*
X162606261Y-173202024D02*
X162606261Y-173089538D01*
X162606261Y-173089538D02*
X162625009Y-173052042D01*
X162625009Y-173052042D02*
X162643757Y-173033295D01*
X162643757Y-173033295D02*
X162681252Y-173014547D01*
X162681252Y-173014547D02*
X162756243Y-173014547D01*
X162756243Y-173014547D02*
X162793738Y-173033295D01*
X163149944Y-172883313D02*
X163074953Y-172883313D01*
X163074953Y-172883313D02*
X163037458Y-172902061D01*
X163037458Y-172902061D02*
X163018710Y-172920809D01*
X163018710Y-172920809D02*
X162981215Y-172977052D01*
X162981215Y-172977052D02*
X162962467Y-173052042D01*
X162962467Y-173052042D02*
X162962467Y-173202024D01*
X162962467Y-173202024D02*
X162981215Y-173239519D01*
X162981215Y-173239519D02*
X162999963Y-173258267D01*
X162999963Y-173258267D02*
X163037458Y-173277014D01*
X163037458Y-173277014D02*
X163112449Y-173277014D01*
X163112449Y-173277014D02*
X163149944Y-173258267D01*
X163149944Y-173258267D02*
X163168692Y-173239519D01*
X163168692Y-173239519D02*
X163187439Y-173202024D01*
X163187439Y-173202024D02*
X163187439Y-173108285D01*
X163187439Y-173108285D02*
X163168692Y-173070790D01*
X163168692Y-173070790D02*
X163149944Y-173052042D01*
X163149944Y-173052042D02*
X163112449Y-173033295D01*
X163112449Y-173033295D02*
X163037458Y-173033295D01*
X163037458Y-173033295D02*
X162999963Y-173052042D01*
X162999963Y-173052042D02*
X162981215Y-173070790D01*
X162981215Y-173070790D02*
X162962467Y-173108285D01*
X122756280Y-87639519D02*
X122737532Y-87658267D01*
X122737532Y-87658267D02*
X122681289Y-87677014D01*
X122681289Y-87677014D02*
X122643794Y-87677014D01*
X122643794Y-87677014D02*
X122587551Y-87658267D01*
X122587551Y-87658267D02*
X122550056Y-87620771D01*
X122550056Y-87620771D02*
X122531308Y-87583276D01*
X122531308Y-87583276D02*
X122512560Y-87508285D01*
X122512560Y-87508285D02*
X122512560Y-87452042D01*
X122512560Y-87452042D02*
X122531308Y-87377052D01*
X122531308Y-87377052D02*
X122550056Y-87339556D01*
X122550056Y-87339556D02*
X122587551Y-87302061D01*
X122587551Y-87302061D02*
X122643794Y-87283313D01*
X122643794Y-87283313D02*
X122681289Y-87283313D01*
X122681289Y-87283313D02*
X122737532Y-87302061D01*
X122737532Y-87302061D02*
X122756280Y-87320809D01*
X122925009Y-87677014D02*
X122925009Y-87283313D01*
X122925009Y-87433295D02*
X122962504Y-87414547D01*
X122962504Y-87414547D02*
X123037495Y-87414547D01*
X123037495Y-87414547D02*
X123074990Y-87433295D01*
X123074990Y-87433295D02*
X123093738Y-87452042D01*
X123093738Y-87452042D02*
X123112486Y-87489538D01*
X123112486Y-87489538D02*
X123112486Y-87602024D01*
X123112486Y-87602024D02*
X123093738Y-87639519D01*
X123093738Y-87639519D02*
X123074990Y-87658267D01*
X123074990Y-87658267D02*
X123037495Y-87677014D01*
X123037495Y-87677014D02*
X122962504Y-87677014D01*
X122962504Y-87677014D02*
X122925009Y-87658267D01*
X123487439Y-87677014D02*
X123262467Y-87677014D01*
X123374953Y-87677014D02*
X123374953Y-87283313D01*
X123374953Y-87283313D02*
X123337458Y-87339556D01*
X123337458Y-87339556D02*
X123299963Y-87377052D01*
X123299963Y-87377052D02*
X123262467Y-87395799D01*
D10*
X80454819Y-50988095D02*
X81169104Y-50988095D01*
X81169104Y-50988095D02*
X81311961Y-51035714D01*
X81311961Y-51035714D02*
X81407200Y-51130952D01*
X81407200Y-51130952D02*
X81454819Y-51273809D01*
X81454819Y-51273809D02*
X81454819Y-51369047D01*
X81550057Y-50750000D02*
X81550057Y-49988095D01*
X80454819Y-49892856D02*
X81454819Y-49559523D01*
X81454819Y-49559523D02*
X80454819Y-49226190D01*
X81454819Y-48892856D02*
X80454819Y-48892856D01*
X80454819Y-48892856D02*
X80454819Y-48654761D01*
X80454819Y-48654761D02*
X80502438Y-48511904D01*
X80502438Y-48511904D02*
X80597676Y-48416666D01*
X80597676Y-48416666D02*
X80692914Y-48369047D01*
X80692914Y-48369047D02*
X80883390Y-48321428D01*
X80883390Y-48321428D02*
X81026247Y-48321428D01*
X81026247Y-48321428D02*
X81216723Y-48369047D01*
X81216723Y-48369047D02*
X81311961Y-48416666D01*
X81311961Y-48416666D02*
X81407200Y-48511904D01*
X81407200Y-48511904D02*
X81454819Y-48654761D01*
X81454819Y-48654761D02*
X81454819Y-48892856D01*
X81454819Y-47892856D02*
X80454819Y-47892856D01*
X80454819Y-47892856D02*
X80454819Y-47654761D01*
X80454819Y-47654761D02*
X80502438Y-47511904D01*
X80502438Y-47511904D02*
X80597676Y-47416666D01*
X80597676Y-47416666D02*
X80692914Y-47369047D01*
X80692914Y-47369047D02*
X80883390Y-47321428D01*
X80883390Y-47321428D02*
X81026247Y-47321428D01*
X81026247Y-47321428D02*
X81216723Y-47369047D01*
X81216723Y-47369047D02*
X81311961Y-47416666D01*
X81311961Y-47416666D02*
X81407200Y-47511904D01*
X81407200Y-47511904D02*
X81454819Y-47654761D01*
X81454819Y-47654761D02*
X81454819Y-47892856D01*
X81454819Y-46369047D02*
X81454819Y-46940475D01*
X81454819Y-46654761D02*
X80454819Y-46654761D01*
X80454819Y-46654761D02*
X80597676Y-46749999D01*
X80597676Y-46749999D02*
X80692914Y-46845237D01*
X80692914Y-46845237D02*
X80740533Y-46940475D01*
X81073866Y-45940475D02*
X81073866Y-45178571D01*
X81454819Y-45559523D02*
X80692914Y-45559523D01*
X81454819Y-44178571D02*
X81454819Y-44749999D01*
X81454819Y-44464285D02*
X80454819Y-44464285D01*
X80454819Y-44464285D02*
X80597676Y-44559523D01*
X80597676Y-44559523D02*
X80692914Y-44654761D01*
X80692914Y-44654761D02*
X80740533Y-44749999D01*
D12*
X206545714Y-176915817D02*
X206545714Y-176435817D01*
X206545714Y-176435817D02*
X206660000Y-176435817D01*
X206660000Y-176435817D02*
X206728571Y-176458674D01*
X206728571Y-176458674D02*
X206774286Y-176504388D01*
X206774286Y-176504388D02*
X206797143Y-176550102D01*
X206797143Y-176550102D02*
X206820000Y-176641531D01*
X206820000Y-176641531D02*
X206820000Y-176710102D01*
X206820000Y-176710102D02*
X206797143Y-176801531D01*
X206797143Y-176801531D02*
X206774286Y-176847245D01*
X206774286Y-176847245D02*
X206728571Y-176892960D01*
X206728571Y-176892960D02*
X206660000Y-176915817D01*
X206660000Y-176915817D02*
X206545714Y-176915817D01*
X207094286Y-176641531D02*
X207048571Y-176618674D01*
X207048571Y-176618674D02*
X207025714Y-176595817D01*
X207025714Y-176595817D02*
X207002857Y-176550102D01*
X207002857Y-176550102D02*
X207002857Y-176527245D01*
X207002857Y-176527245D02*
X207025714Y-176481531D01*
X207025714Y-176481531D02*
X207048571Y-176458674D01*
X207048571Y-176458674D02*
X207094286Y-176435817D01*
X207094286Y-176435817D02*
X207185714Y-176435817D01*
X207185714Y-176435817D02*
X207231429Y-176458674D01*
X207231429Y-176458674D02*
X207254286Y-176481531D01*
X207254286Y-176481531D02*
X207277143Y-176527245D01*
X207277143Y-176527245D02*
X207277143Y-176550102D01*
X207277143Y-176550102D02*
X207254286Y-176595817D01*
X207254286Y-176595817D02*
X207231429Y-176618674D01*
X207231429Y-176618674D02*
X207185714Y-176641531D01*
X207185714Y-176641531D02*
X207094286Y-176641531D01*
X207094286Y-176641531D02*
X207048571Y-176664388D01*
X207048571Y-176664388D02*
X207025714Y-176687245D01*
X207025714Y-176687245D02*
X207002857Y-176732960D01*
X207002857Y-176732960D02*
X207002857Y-176824388D01*
X207002857Y-176824388D02*
X207025714Y-176870102D01*
X207025714Y-176870102D02*
X207048571Y-176892960D01*
X207048571Y-176892960D02*
X207094286Y-176915817D01*
X207094286Y-176915817D02*
X207185714Y-176915817D01*
X207185714Y-176915817D02*
X207231429Y-176892960D01*
X207231429Y-176892960D02*
X207254286Y-176870102D01*
X207254286Y-176870102D02*
X207277143Y-176824388D01*
X207277143Y-176824388D02*
X207277143Y-176732960D01*
X207277143Y-176732960D02*
X207254286Y-176687245D01*
X207254286Y-176687245D02*
X207231429Y-176664388D01*
X207231429Y-176664388D02*
X207185714Y-176641531D01*
D10*
X115629819Y-124753904D02*
X116439342Y-124753904D01*
X116439342Y-124753904D02*
X116534580Y-124706285D01*
X116534580Y-124706285D02*
X116582200Y-124658666D01*
X116582200Y-124658666D02*
X116629819Y-124563428D01*
X116629819Y-124563428D02*
X116629819Y-124372952D01*
X116629819Y-124372952D02*
X116582200Y-124277714D01*
X116582200Y-124277714D02*
X116534580Y-124230095D01*
X116534580Y-124230095D02*
X116439342Y-124182476D01*
X116439342Y-124182476D02*
X115629819Y-124182476D01*
X115629819Y-123801523D02*
X115629819Y-123134857D01*
X115629819Y-123134857D02*
X116629819Y-123563428D01*
X112124619Y-127090799D02*
X112362714Y-127090799D01*
X112267476Y-127328894D02*
X112362714Y-127090799D01*
X112362714Y-127090799D02*
X112267476Y-126852704D01*
X112553190Y-127233656D02*
X112362714Y-127090799D01*
X112362714Y-127090799D02*
X112553190Y-126947942D01*
D13*
X219312618Y-186074318D02*
X219312618Y-184804318D01*
X219312618Y-184804318D02*
X219614999Y-184804318D01*
X219614999Y-184804318D02*
X219796428Y-184864794D01*
X219796428Y-184864794D02*
X219917380Y-184985746D01*
X219917380Y-184985746D02*
X219977857Y-185106699D01*
X219977857Y-185106699D02*
X220038333Y-185348603D01*
X220038333Y-185348603D02*
X220038333Y-185530032D01*
X220038333Y-185530032D02*
X219977857Y-185771937D01*
X219977857Y-185771937D02*
X219917380Y-185892889D01*
X219917380Y-185892889D02*
X219796428Y-186013842D01*
X219796428Y-186013842D02*
X219614999Y-186074318D01*
X219614999Y-186074318D02*
X219312618Y-186074318D01*
X221126904Y-185227651D02*
X221126904Y-186074318D01*
X220824523Y-184743842D02*
X220522142Y-185650984D01*
X220522142Y-185650984D02*
X221308333Y-185650984D01*
D11*
X116608804Y-107577014D02*
X116477570Y-107389538D01*
X116383832Y-107577014D02*
X116383832Y-107183313D01*
X116383832Y-107183313D02*
X116533813Y-107183313D01*
X116533813Y-107183313D02*
X116571309Y-107202061D01*
X116571309Y-107202061D02*
X116590056Y-107220809D01*
X116590056Y-107220809D02*
X116608804Y-107258304D01*
X116608804Y-107258304D02*
X116608804Y-107314547D01*
X116608804Y-107314547D02*
X116590056Y-107352042D01*
X116590056Y-107352042D02*
X116571309Y-107370790D01*
X116571309Y-107370790D02*
X116533813Y-107389538D01*
X116533813Y-107389538D02*
X116383832Y-107389538D01*
X116946262Y-107577014D02*
X116946262Y-107183313D01*
X116946262Y-107558267D02*
X116908767Y-107577014D01*
X116908767Y-107577014D02*
X116833776Y-107577014D01*
X116833776Y-107577014D02*
X116796281Y-107558267D01*
X116796281Y-107558267D02*
X116777533Y-107539519D01*
X116777533Y-107539519D02*
X116758785Y-107502024D01*
X116758785Y-107502024D02*
X116758785Y-107389538D01*
X116758785Y-107389538D02*
X116777533Y-107352042D01*
X116777533Y-107352042D02*
X116796281Y-107333295D01*
X116796281Y-107333295D02*
X116833776Y-107314547D01*
X116833776Y-107314547D02*
X116908767Y-107314547D01*
X116908767Y-107314547D02*
X116946262Y-107333295D01*
X117339963Y-107577014D02*
X117114991Y-107577014D01*
X117227477Y-107577014D02*
X117227477Y-107183313D01*
X117227477Y-107183313D02*
X117189982Y-107239556D01*
X117189982Y-107239556D02*
X117152487Y-107277052D01*
X117152487Y-107277052D02*
X117114991Y-107295799D01*
X117714916Y-107577014D02*
X117489944Y-107577014D01*
X117602430Y-107577014D02*
X117602430Y-107183313D01*
X117602430Y-107183313D02*
X117564935Y-107239556D01*
X117564935Y-107239556D02*
X117527440Y-107277052D01*
X117527440Y-107277052D02*
X117489944Y-107295799D01*
D10*
X202011905Y-169494819D02*
X202011905Y-168494819D01*
X202011905Y-168494819D02*
X202250000Y-168494819D01*
X202250000Y-168494819D02*
X202392857Y-168542438D01*
X202392857Y-168542438D02*
X202488095Y-168637676D01*
X202488095Y-168637676D02*
X202535714Y-168732914D01*
X202535714Y-168732914D02*
X202583333Y-168923390D01*
X202583333Y-168923390D02*
X202583333Y-169066247D01*
X202583333Y-169066247D02*
X202535714Y-169256723D01*
X202535714Y-169256723D02*
X202488095Y-169351961D01*
X202488095Y-169351961D02*
X202392857Y-169447200D01*
X202392857Y-169447200D02*
X202250000Y-169494819D01*
X202250000Y-169494819D02*
X202011905Y-169494819D01*
X202916667Y-168494819D02*
X203583333Y-168494819D01*
X203583333Y-168494819D02*
X203154762Y-169494819D01*
X198678095Y-169814819D02*
X198678095Y-168814819D01*
X199249523Y-169814819D02*
X198820952Y-169243390D01*
X199249523Y-168814819D02*
X198678095Y-169386247D01*
D13*
X148963809Y-114953365D02*
X148903333Y-115013842D01*
X148903333Y-115013842D02*
X148721904Y-115074318D01*
X148721904Y-115074318D02*
X148600952Y-115074318D01*
X148600952Y-115074318D02*
X148419523Y-115013842D01*
X148419523Y-115013842D02*
X148298571Y-114892889D01*
X148298571Y-114892889D02*
X148238094Y-114771937D01*
X148238094Y-114771937D02*
X148177618Y-114530032D01*
X148177618Y-114530032D02*
X148177618Y-114348603D01*
X148177618Y-114348603D02*
X148238094Y-114106699D01*
X148238094Y-114106699D02*
X148298571Y-113985746D01*
X148298571Y-113985746D02*
X148419523Y-113864794D01*
X148419523Y-113864794D02*
X148600952Y-113804318D01*
X148600952Y-113804318D02*
X148721904Y-113804318D01*
X148721904Y-113804318D02*
X148903333Y-113864794D01*
X148903333Y-113864794D02*
X148963809Y-113925270D01*
X150052380Y-115074318D02*
X150052380Y-113804318D01*
X150052380Y-115013842D02*
X149931428Y-115074318D01*
X149931428Y-115074318D02*
X149689523Y-115074318D01*
X149689523Y-115074318D02*
X149568571Y-115013842D01*
X149568571Y-115013842D02*
X149508094Y-114953365D01*
X149508094Y-114953365D02*
X149447618Y-114832413D01*
X149447618Y-114832413D02*
X149447618Y-114469556D01*
X149447618Y-114469556D02*
X149508094Y-114348603D01*
X149508094Y-114348603D02*
X149568571Y-114288127D01*
X149568571Y-114288127D02*
X149689523Y-114227651D01*
X149689523Y-114227651D02*
X149931428Y-114227651D01*
X149931428Y-114227651D02*
X150052380Y-114288127D01*
X151322381Y-115074318D02*
X150596666Y-115074318D01*
X150959523Y-115074318D02*
X150959523Y-113804318D01*
X150959523Y-113804318D02*
X150838571Y-113985746D01*
X150838571Y-113985746D02*
X150717619Y-114106699D01*
X150717619Y-114106699D02*
X150596666Y-114167175D01*
D10*
X115739819Y-114011904D02*
X116549342Y-114011904D01*
X116549342Y-114011904D02*
X116644580Y-113964285D01*
X116644580Y-113964285D02*
X116692200Y-113916666D01*
X116692200Y-113916666D02*
X116739819Y-113821428D01*
X116739819Y-113821428D02*
X116739819Y-113630952D01*
X116739819Y-113630952D02*
X116692200Y-113535714D01*
X116692200Y-113535714D02*
X116644580Y-113488095D01*
X116644580Y-113488095D02*
X116549342Y-113440476D01*
X116549342Y-113440476D02*
X115739819Y-113440476D01*
X116168390Y-112821428D02*
X116120771Y-112916666D01*
X116120771Y-112916666D02*
X116073152Y-112964285D01*
X116073152Y-112964285D02*
X115977914Y-113011904D01*
X115977914Y-113011904D02*
X115930295Y-113011904D01*
X115930295Y-113011904D02*
X115835057Y-112964285D01*
X115835057Y-112964285D02*
X115787438Y-112916666D01*
X115787438Y-112916666D02*
X115739819Y-112821428D01*
X115739819Y-112821428D02*
X115739819Y-112630952D01*
X115739819Y-112630952D02*
X115787438Y-112535714D01*
X115787438Y-112535714D02*
X115835057Y-112488095D01*
X115835057Y-112488095D02*
X115930295Y-112440476D01*
X115930295Y-112440476D02*
X115977914Y-112440476D01*
X115977914Y-112440476D02*
X116073152Y-112488095D01*
X116073152Y-112488095D02*
X116120771Y-112535714D01*
X116120771Y-112535714D02*
X116168390Y-112630952D01*
X116168390Y-112630952D02*
X116168390Y-112821428D01*
X116168390Y-112821428D02*
X116216009Y-112916666D01*
X116216009Y-112916666D02*
X116263628Y-112964285D01*
X116263628Y-112964285D02*
X116358866Y-113011904D01*
X116358866Y-113011904D02*
X116549342Y-113011904D01*
X116549342Y-113011904D02*
X116644580Y-112964285D01*
X116644580Y-112964285D02*
X116692200Y-112916666D01*
X116692200Y-112916666D02*
X116739819Y-112821428D01*
X116739819Y-112821428D02*
X116739819Y-112630952D01*
X116739819Y-112630952D02*
X116692200Y-112535714D01*
X116692200Y-112535714D02*
X116644580Y-112488095D01*
X116644580Y-112488095D02*
X116549342Y-112440476D01*
X116549342Y-112440476D02*
X116358866Y-112440476D01*
X116358866Y-112440476D02*
X116263628Y-112488095D01*
X116263628Y-112488095D02*
X116216009Y-112535714D01*
X116216009Y-112535714D02*
X116168390Y-112630952D01*
D11*
X153996280Y-112639519D02*
X153977532Y-112658267D01*
X153977532Y-112658267D02*
X153921289Y-112677014D01*
X153921289Y-112677014D02*
X153883794Y-112677014D01*
X153883794Y-112677014D02*
X153827551Y-112658267D01*
X153827551Y-112658267D02*
X153790056Y-112620771D01*
X153790056Y-112620771D02*
X153771308Y-112583276D01*
X153771308Y-112583276D02*
X153752560Y-112508285D01*
X153752560Y-112508285D02*
X153752560Y-112452042D01*
X153752560Y-112452042D02*
X153771308Y-112377052D01*
X153771308Y-112377052D02*
X153790056Y-112339556D01*
X153790056Y-112339556D02*
X153827551Y-112302061D01*
X153827551Y-112302061D02*
X153883794Y-112283313D01*
X153883794Y-112283313D02*
X153921289Y-112283313D01*
X153921289Y-112283313D02*
X153977532Y-112302061D01*
X153977532Y-112302061D02*
X153996280Y-112320809D01*
X154333738Y-112677014D02*
X154333738Y-112283313D01*
X154333738Y-112658267D02*
X154296243Y-112677014D01*
X154296243Y-112677014D02*
X154221252Y-112677014D01*
X154221252Y-112677014D02*
X154183757Y-112658267D01*
X154183757Y-112658267D02*
X154165009Y-112639519D01*
X154165009Y-112639519D02*
X154146261Y-112602024D01*
X154146261Y-112602024D02*
X154146261Y-112489538D01*
X154146261Y-112489538D02*
X154165009Y-112452042D01*
X154165009Y-112452042D02*
X154183757Y-112433295D01*
X154183757Y-112433295D02*
X154221252Y-112414547D01*
X154221252Y-112414547D02*
X154296243Y-112414547D01*
X154296243Y-112414547D02*
X154333738Y-112433295D01*
X154502467Y-112320809D02*
X154521215Y-112302061D01*
X154521215Y-112302061D02*
X154558710Y-112283313D01*
X154558710Y-112283313D02*
X154652449Y-112283313D01*
X154652449Y-112283313D02*
X154689944Y-112302061D01*
X154689944Y-112302061D02*
X154708692Y-112320809D01*
X154708692Y-112320809D02*
X154727439Y-112358304D01*
X154727439Y-112358304D02*
X154727439Y-112395799D01*
X154727439Y-112395799D02*
X154708692Y-112452042D01*
X154708692Y-112452042D02*
X154483720Y-112677014D01*
X154483720Y-112677014D02*
X154727439Y-112677014D01*
X81375047Y-114389519D02*
X81356299Y-114408267D01*
X81356299Y-114408267D02*
X81300056Y-114427014D01*
X81300056Y-114427014D02*
X81262561Y-114427014D01*
X81262561Y-114427014D02*
X81206318Y-114408267D01*
X81206318Y-114408267D02*
X81168823Y-114370771D01*
X81168823Y-114370771D02*
X81150075Y-114333276D01*
X81150075Y-114333276D02*
X81131327Y-114258285D01*
X81131327Y-114258285D02*
X81131327Y-114202042D01*
X81131327Y-114202042D02*
X81150075Y-114127052D01*
X81150075Y-114127052D02*
X81168823Y-114089556D01*
X81168823Y-114089556D02*
X81206318Y-114052061D01*
X81206318Y-114052061D02*
X81262561Y-114033313D01*
X81262561Y-114033313D02*
X81300056Y-114033313D01*
X81300056Y-114033313D02*
X81356299Y-114052061D01*
X81356299Y-114052061D02*
X81375047Y-114070809D01*
X81506281Y-114164547D02*
X81600019Y-114427014D01*
X81600019Y-114427014D02*
X81693757Y-114164547D01*
X81824991Y-114408267D02*
X81862487Y-114427014D01*
X81862487Y-114427014D02*
X81937477Y-114427014D01*
X81937477Y-114427014D02*
X81974973Y-114408267D01*
X81974973Y-114408267D02*
X81993720Y-114370771D01*
X81993720Y-114370771D02*
X81993720Y-114352024D01*
X81993720Y-114352024D02*
X81974973Y-114314528D01*
X81974973Y-114314528D02*
X81937477Y-114295781D01*
X81937477Y-114295781D02*
X81881234Y-114295781D01*
X81881234Y-114295781D02*
X81843739Y-114277033D01*
X81843739Y-114277033D02*
X81824991Y-114239538D01*
X81824991Y-114239538D02*
X81824991Y-114220790D01*
X81824991Y-114220790D02*
X81843739Y-114183295D01*
X81843739Y-114183295D02*
X81881234Y-114164547D01*
X81881234Y-114164547D02*
X81937477Y-114164547D01*
X81937477Y-114164547D02*
X81974973Y-114183295D01*
X82143701Y-114070809D02*
X82162449Y-114052061D01*
X82162449Y-114052061D02*
X82199944Y-114033313D01*
X82199944Y-114033313D02*
X82293683Y-114033313D01*
X82293683Y-114033313D02*
X82331178Y-114052061D01*
X82331178Y-114052061D02*
X82349926Y-114070809D01*
X82349926Y-114070809D02*
X82368673Y-114108304D01*
X82368673Y-114108304D02*
X82368673Y-114145799D01*
X82368673Y-114145799D02*
X82349926Y-114202042D01*
X82349926Y-114202042D02*
X82124954Y-114427014D01*
X82124954Y-114427014D02*
X82368673Y-114427014D01*
D13*
X127213809Y-89453365D02*
X127153333Y-89513842D01*
X127153333Y-89513842D02*
X126971904Y-89574318D01*
X126971904Y-89574318D02*
X126850952Y-89574318D01*
X126850952Y-89574318D02*
X126669523Y-89513842D01*
X126669523Y-89513842D02*
X126548571Y-89392889D01*
X126548571Y-89392889D02*
X126488094Y-89271937D01*
X126488094Y-89271937D02*
X126427618Y-89030032D01*
X126427618Y-89030032D02*
X126427618Y-88848603D01*
X126427618Y-88848603D02*
X126488094Y-88606699D01*
X126488094Y-88606699D02*
X126548571Y-88485746D01*
X126548571Y-88485746D02*
X126669523Y-88364794D01*
X126669523Y-88364794D02*
X126850952Y-88304318D01*
X126850952Y-88304318D02*
X126971904Y-88304318D01*
X126971904Y-88304318D02*
X127153333Y-88364794D01*
X127153333Y-88364794D02*
X127213809Y-88425270D01*
X127758094Y-89574318D02*
X127758094Y-88304318D01*
X127758094Y-88788127D02*
X127879047Y-88727651D01*
X127879047Y-88727651D02*
X128120952Y-88727651D01*
X128120952Y-88727651D02*
X128241904Y-88788127D01*
X128241904Y-88788127D02*
X128302380Y-88848603D01*
X128302380Y-88848603D02*
X128362856Y-88969556D01*
X128362856Y-88969556D02*
X128362856Y-89332413D01*
X128362856Y-89332413D02*
X128302380Y-89453365D01*
X128302380Y-89453365D02*
X128241904Y-89513842D01*
X128241904Y-89513842D02*
X128120952Y-89574318D01*
X128120952Y-89574318D02*
X127879047Y-89574318D01*
X127879047Y-89574318D02*
X127758094Y-89513842D01*
X128846666Y-88425270D02*
X128907142Y-88364794D01*
X128907142Y-88364794D02*
X129028095Y-88304318D01*
X129028095Y-88304318D02*
X129330476Y-88304318D01*
X129330476Y-88304318D02*
X129451428Y-88364794D01*
X129451428Y-88364794D02*
X129511904Y-88425270D01*
X129511904Y-88425270D02*
X129572381Y-88546222D01*
X129572381Y-88546222D02*
X129572381Y-88667175D01*
X129572381Y-88667175D02*
X129511904Y-88848603D01*
X129511904Y-88848603D02*
X128786190Y-89574318D01*
X128786190Y-89574318D02*
X129572381Y-89574318D01*
D11*
X115568804Y-133427014D02*
X115437570Y-133239538D01*
X115343832Y-133427014D02*
X115343832Y-133033313D01*
X115343832Y-133033313D02*
X115493813Y-133033313D01*
X115493813Y-133033313D02*
X115531309Y-133052061D01*
X115531309Y-133052061D02*
X115550056Y-133070809D01*
X115550056Y-133070809D02*
X115568804Y-133108304D01*
X115568804Y-133108304D02*
X115568804Y-133164547D01*
X115568804Y-133164547D02*
X115550056Y-133202042D01*
X115550056Y-133202042D02*
X115531309Y-133220790D01*
X115531309Y-133220790D02*
X115493813Y-133239538D01*
X115493813Y-133239538D02*
X115343832Y-133239538D01*
X115906262Y-133427014D02*
X115906262Y-133033313D01*
X115906262Y-133408267D02*
X115868767Y-133427014D01*
X115868767Y-133427014D02*
X115793776Y-133427014D01*
X115793776Y-133427014D02*
X115756281Y-133408267D01*
X115756281Y-133408267D02*
X115737533Y-133389519D01*
X115737533Y-133389519D02*
X115718785Y-133352024D01*
X115718785Y-133352024D02*
X115718785Y-133239538D01*
X115718785Y-133239538D02*
X115737533Y-133202042D01*
X115737533Y-133202042D02*
X115756281Y-133183295D01*
X115756281Y-133183295D02*
X115793776Y-133164547D01*
X115793776Y-133164547D02*
X115868767Y-133164547D01*
X115868767Y-133164547D02*
X115906262Y-133183295D01*
X116299963Y-133427014D02*
X116074991Y-133427014D01*
X116187477Y-133427014D02*
X116187477Y-133033313D01*
X116187477Y-133033313D02*
X116149982Y-133089556D01*
X116149982Y-133089556D02*
X116112487Y-133127052D01*
X116112487Y-133127052D02*
X116074991Y-133145799D01*
X116543683Y-133033313D02*
X116581178Y-133033313D01*
X116581178Y-133033313D02*
X116618673Y-133052061D01*
X116618673Y-133052061D02*
X116637421Y-133070809D01*
X116637421Y-133070809D02*
X116656169Y-133108304D01*
X116656169Y-133108304D02*
X116674916Y-133183295D01*
X116674916Y-133183295D02*
X116674916Y-133277033D01*
X116674916Y-133277033D02*
X116656169Y-133352024D01*
X116656169Y-133352024D02*
X116637421Y-133389519D01*
X116637421Y-133389519D02*
X116618673Y-133408267D01*
X116618673Y-133408267D02*
X116581178Y-133427014D01*
X116581178Y-133427014D02*
X116543683Y-133427014D01*
X116543683Y-133427014D02*
X116506187Y-133408267D01*
X116506187Y-133408267D02*
X116487440Y-133389519D01*
X116487440Y-133389519D02*
X116468692Y-133352024D01*
X116468692Y-133352024D02*
X116449944Y-133277033D01*
X116449944Y-133277033D02*
X116449944Y-133183295D01*
X116449944Y-133183295D02*
X116468692Y-133108304D01*
X116468692Y-133108304D02*
X116487440Y-133070809D01*
X116487440Y-133070809D02*
X116506187Y-133052061D01*
X116506187Y-133052061D02*
X116543683Y-133033313D01*
D10*
X251357142Y-78804819D02*
X251357142Y-79519104D01*
X251357142Y-79519104D02*
X251309523Y-79661961D01*
X251309523Y-79661961D02*
X251214285Y-79757200D01*
X251214285Y-79757200D02*
X251071428Y-79804819D01*
X251071428Y-79804819D02*
X250976190Y-79804819D01*
X251595238Y-79900057D02*
X252357142Y-79900057D01*
X252928571Y-79281009D02*
X253071428Y-79328628D01*
X253071428Y-79328628D02*
X253119047Y-79376247D01*
X253119047Y-79376247D02*
X253166666Y-79471485D01*
X253166666Y-79471485D02*
X253166666Y-79614342D01*
X253166666Y-79614342D02*
X253119047Y-79709580D01*
X253119047Y-79709580D02*
X253071428Y-79757200D01*
X253071428Y-79757200D02*
X252976190Y-79804819D01*
X252976190Y-79804819D02*
X252595238Y-79804819D01*
X252595238Y-79804819D02*
X252595238Y-78804819D01*
X252595238Y-78804819D02*
X252928571Y-78804819D01*
X252928571Y-78804819D02*
X253023809Y-78852438D01*
X253023809Y-78852438D02*
X253071428Y-78900057D01*
X253071428Y-78900057D02*
X253119047Y-78995295D01*
X253119047Y-78995295D02*
X253119047Y-79090533D01*
X253119047Y-79090533D02*
X253071428Y-79185771D01*
X253071428Y-79185771D02*
X253023809Y-79233390D01*
X253023809Y-79233390D02*
X252928571Y-79281009D01*
X252928571Y-79281009D02*
X252595238Y-79281009D01*
X253547619Y-79519104D02*
X254023809Y-79519104D01*
X253452381Y-79804819D02*
X253785714Y-78804819D01*
X253785714Y-78804819D02*
X254119047Y-79804819D01*
X254309524Y-78804819D02*
X254880952Y-78804819D01*
X254595238Y-79804819D02*
X254595238Y-78804819D01*
X255214286Y-79423866D02*
X255976191Y-79423866D01*
X256976190Y-79804819D02*
X256404762Y-79804819D01*
X256690476Y-79804819D02*
X256690476Y-78804819D01*
X256690476Y-78804819D02*
X256595238Y-78947676D01*
X256595238Y-78947676D02*
X256500000Y-79042914D01*
X256500000Y-79042914D02*
X256404762Y-79090533D01*
X216795180Y-173850476D02*
X217795180Y-173850476D01*
X217795180Y-173850476D02*
X217080895Y-174183809D01*
X217080895Y-174183809D02*
X217795180Y-174517142D01*
X217795180Y-174517142D02*
X216795180Y-174517142D01*
X217795180Y-174898095D02*
X217795180Y-175517142D01*
X217795180Y-175517142D02*
X217414228Y-175183809D01*
X217414228Y-175183809D02*
X217414228Y-175326666D01*
X217414228Y-175326666D02*
X217366609Y-175421904D01*
X217366609Y-175421904D02*
X217318990Y-175469523D01*
X217318990Y-175469523D02*
X217223752Y-175517142D01*
X217223752Y-175517142D02*
X216985657Y-175517142D01*
X216985657Y-175517142D02*
X216890419Y-175469523D01*
X216890419Y-175469523D02*
X216842800Y-175421904D01*
X216842800Y-175421904D02*
X216795180Y-175326666D01*
X216795180Y-175326666D02*
X216795180Y-175040952D01*
X216795180Y-175040952D02*
X216842800Y-174945714D01*
X216842800Y-174945714D02*
X216890419Y-174898095D01*
X211493180Y-170850000D02*
X211255085Y-170850000D01*
X211350323Y-170611905D02*
X211255085Y-170850000D01*
X211255085Y-170850000D02*
X211350323Y-171088095D01*
X211064609Y-170707143D02*
X211255085Y-170850000D01*
X211255085Y-170850000D02*
X211064609Y-170992857D01*
X210402819Y-170849999D02*
X210640914Y-170849999D01*
X210545676Y-171088094D02*
X210640914Y-170849999D01*
X210640914Y-170849999D02*
X210545676Y-170611904D01*
X210831390Y-170992856D02*
X210640914Y-170849999D01*
X210640914Y-170849999D02*
X210831390Y-170707142D01*
X94792819Y-124711904D02*
X95602342Y-124711904D01*
X95602342Y-124711904D02*
X95697580Y-124664285D01*
X95697580Y-124664285D02*
X95745200Y-124616666D01*
X95745200Y-124616666D02*
X95792819Y-124521428D01*
X95792819Y-124521428D02*
X95792819Y-124330952D01*
X95792819Y-124330952D02*
X95745200Y-124235714D01*
X95745200Y-124235714D02*
X95697580Y-124188095D01*
X95697580Y-124188095D02*
X95602342Y-124140476D01*
X95602342Y-124140476D02*
X94792819Y-124140476D01*
X94888057Y-123711904D02*
X94840438Y-123664285D01*
X94840438Y-123664285D02*
X94792819Y-123569047D01*
X94792819Y-123569047D02*
X94792819Y-123330952D01*
X94792819Y-123330952D02*
X94840438Y-123235714D01*
X94840438Y-123235714D02*
X94888057Y-123188095D01*
X94888057Y-123188095D02*
X94983295Y-123140476D01*
X94983295Y-123140476D02*
X95078533Y-123140476D01*
X95078533Y-123140476D02*
X95221390Y-123188095D01*
X95221390Y-123188095D02*
X95792819Y-123759523D01*
X95792819Y-123759523D02*
X95792819Y-123140476D01*
D13*
X175742618Y-72324318D02*
X175742618Y-71054318D01*
X175742618Y-71054318D02*
X176044999Y-71054318D01*
X176044999Y-71054318D02*
X176226428Y-71114794D01*
X176226428Y-71114794D02*
X176347380Y-71235746D01*
X176347380Y-71235746D02*
X176407857Y-71356699D01*
X176407857Y-71356699D02*
X176468333Y-71598603D01*
X176468333Y-71598603D02*
X176468333Y-71780032D01*
X176468333Y-71780032D02*
X176407857Y-72021937D01*
X176407857Y-72021937D02*
X176347380Y-72142889D01*
X176347380Y-72142889D02*
X176226428Y-72263842D01*
X176226428Y-72263842D02*
X176044999Y-72324318D01*
X176044999Y-72324318D02*
X175742618Y-72324318D01*
X176891666Y-71054318D02*
X177677857Y-71054318D01*
X177677857Y-71054318D02*
X177254523Y-71538127D01*
X177254523Y-71538127D02*
X177435952Y-71538127D01*
X177435952Y-71538127D02*
X177556904Y-71598603D01*
X177556904Y-71598603D02*
X177617380Y-71659080D01*
X177617380Y-71659080D02*
X177677857Y-71780032D01*
X177677857Y-71780032D02*
X177677857Y-72082413D01*
X177677857Y-72082413D02*
X177617380Y-72203365D01*
X177617380Y-72203365D02*
X177556904Y-72263842D01*
X177556904Y-72263842D02*
X177435952Y-72324318D01*
X177435952Y-72324318D02*
X177073095Y-72324318D01*
X177073095Y-72324318D02*
X176952142Y-72263842D01*
X176952142Y-72263842D02*
X176891666Y-72203365D01*
D10*
X182074819Y-50130952D02*
X182789104Y-50130952D01*
X182789104Y-50130952D02*
X182931961Y-50178571D01*
X182931961Y-50178571D02*
X183027200Y-50273809D01*
X183027200Y-50273809D02*
X183074819Y-50416666D01*
X183074819Y-50416666D02*
X183074819Y-50511904D01*
X183170057Y-49892857D02*
X183170057Y-49130952D01*
X183074819Y-48892856D02*
X182074819Y-48892856D01*
X182074819Y-48892856D02*
X182789104Y-48559523D01*
X182789104Y-48559523D02*
X182074819Y-48226190D01*
X182074819Y-48226190D02*
X183074819Y-48226190D01*
X182170057Y-47797618D02*
X182122438Y-47749999D01*
X182122438Y-47749999D02*
X182074819Y-47654761D01*
X182074819Y-47654761D02*
X182074819Y-47416666D01*
X182074819Y-47416666D02*
X182122438Y-47321428D01*
X182122438Y-47321428D02*
X182170057Y-47273809D01*
X182170057Y-47273809D02*
X182265295Y-47226190D01*
X182265295Y-47226190D02*
X182360533Y-47226190D01*
X182360533Y-47226190D02*
X182503390Y-47273809D01*
X182503390Y-47273809D02*
X183074819Y-47845237D01*
X183074819Y-47845237D02*
X183074819Y-47226190D01*
X182693866Y-46797618D02*
X182693866Y-46035714D01*
X183074819Y-45035714D02*
X183074819Y-45607142D01*
X183074819Y-45321428D02*
X182074819Y-45321428D01*
X182074819Y-45321428D02*
X182217676Y-45416666D01*
X182217676Y-45416666D02*
X182312914Y-45511904D01*
X182312914Y-45511904D02*
X182360533Y-45607142D01*
D11*
X77714047Y-131459519D02*
X77695299Y-131478267D01*
X77695299Y-131478267D02*
X77639056Y-131497014D01*
X77639056Y-131497014D02*
X77601561Y-131497014D01*
X77601561Y-131497014D02*
X77545318Y-131478267D01*
X77545318Y-131478267D02*
X77507823Y-131440771D01*
X77507823Y-131440771D02*
X77489075Y-131403276D01*
X77489075Y-131403276D02*
X77470327Y-131328285D01*
X77470327Y-131328285D02*
X77470327Y-131272042D01*
X77470327Y-131272042D02*
X77489075Y-131197052D01*
X77489075Y-131197052D02*
X77507823Y-131159556D01*
X77507823Y-131159556D02*
X77545318Y-131122061D01*
X77545318Y-131122061D02*
X77601561Y-131103313D01*
X77601561Y-131103313D02*
X77639056Y-131103313D01*
X77639056Y-131103313D02*
X77695299Y-131122061D01*
X77695299Y-131122061D02*
X77714047Y-131140809D01*
X77845281Y-131234547D02*
X77939019Y-131497014D01*
X77939019Y-131497014D02*
X78032757Y-131234547D01*
X78163991Y-131478267D02*
X78201487Y-131497014D01*
X78201487Y-131497014D02*
X78276477Y-131497014D01*
X78276477Y-131497014D02*
X78313973Y-131478267D01*
X78313973Y-131478267D02*
X78332720Y-131440771D01*
X78332720Y-131440771D02*
X78332720Y-131422024D01*
X78332720Y-131422024D02*
X78313973Y-131384528D01*
X78313973Y-131384528D02*
X78276477Y-131365781D01*
X78276477Y-131365781D02*
X78220234Y-131365781D01*
X78220234Y-131365781D02*
X78182739Y-131347033D01*
X78182739Y-131347033D02*
X78163991Y-131309538D01*
X78163991Y-131309538D02*
X78163991Y-131290790D01*
X78163991Y-131290790D02*
X78182739Y-131253295D01*
X78182739Y-131253295D02*
X78220234Y-131234547D01*
X78220234Y-131234547D02*
X78276477Y-131234547D01*
X78276477Y-131234547D02*
X78313973Y-131253295D01*
X78463954Y-131103313D02*
X78707673Y-131103313D01*
X78707673Y-131103313D02*
X78576440Y-131253295D01*
X78576440Y-131253295D02*
X78632683Y-131253295D01*
X78632683Y-131253295D02*
X78670178Y-131272042D01*
X78670178Y-131272042D02*
X78688926Y-131290790D01*
X78688926Y-131290790D02*
X78707673Y-131328285D01*
X78707673Y-131328285D02*
X78707673Y-131422024D01*
X78707673Y-131422024D02*
X78688926Y-131459519D01*
X78688926Y-131459519D02*
X78670178Y-131478267D01*
X78670178Y-131478267D02*
X78632683Y-131497014D01*
X78632683Y-131497014D02*
X78520197Y-131497014D01*
X78520197Y-131497014D02*
X78482701Y-131478267D01*
X78482701Y-131478267D02*
X78463954Y-131459519D01*
X191556280Y-166339519D02*
X191537532Y-166358267D01*
X191537532Y-166358267D02*
X191481289Y-166377014D01*
X191481289Y-166377014D02*
X191443794Y-166377014D01*
X191443794Y-166377014D02*
X191387551Y-166358267D01*
X191387551Y-166358267D02*
X191350056Y-166320771D01*
X191350056Y-166320771D02*
X191331308Y-166283276D01*
X191331308Y-166283276D02*
X191312560Y-166208285D01*
X191312560Y-166208285D02*
X191312560Y-166152042D01*
X191312560Y-166152042D02*
X191331308Y-166077052D01*
X191331308Y-166077052D02*
X191350056Y-166039556D01*
X191350056Y-166039556D02*
X191387551Y-166002061D01*
X191387551Y-166002061D02*
X191443794Y-165983313D01*
X191443794Y-165983313D02*
X191481289Y-165983313D01*
X191481289Y-165983313D02*
X191537532Y-166002061D01*
X191537532Y-166002061D02*
X191556280Y-166020809D01*
X191725009Y-166377014D02*
X191725009Y-165983313D01*
X191725009Y-166133295D02*
X191762504Y-166114547D01*
X191762504Y-166114547D02*
X191837495Y-166114547D01*
X191837495Y-166114547D02*
X191874990Y-166133295D01*
X191874990Y-166133295D02*
X191893738Y-166152042D01*
X191893738Y-166152042D02*
X191912486Y-166189538D01*
X191912486Y-166189538D02*
X191912486Y-166302024D01*
X191912486Y-166302024D02*
X191893738Y-166339519D01*
X191893738Y-166339519D02*
X191874990Y-166358267D01*
X191874990Y-166358267D02*
X191837495Y-166377014D01*
X191837495Y-166377014D02*
X191762504Y-166377014D01*
X191762504Y-166377014D02*
X191725009Y-166358267D01*
X192249944Y-165983313D02*
X192174953Y-165983313D01*
X192174953Y-165983313D02*
X192137458Y-166002061D01*
X192137458Y-166002061D02*
X192118710Y-166020809D01*
X192118710Y-166020809D02*
X192081215Y-166077052D01*
X192081215Y-166077052D02*
X192062467Y-166152042D01*
X192062467Y-166152042D02*
X192062467Y-166302024D01*
X192062467Y-166302024D02*
X192081215Y-166339519D01*
X192081215Y-166339519D02*
X192099963Y-166358267D01*
X192099963Y-166358267D02*
X192137458Y-166377014D01*
X192137458Y-166377014D02*
X192212449Y-166377014D01*
X192212449Y-166377014D02*
X192249944Y-166358267D01*
X192249944Y-166358267D02*
X192268692Y-166339519D01*
X192268692Y-166339519D02*
X192287439Y-166302024D01*
X192287439Y-166302024D02*
X192287439Y-166208285D01*
X192287439Y-166208285D02*
X192268692Y-166170790D01*
X192268692Y-166170790D02*
X192249944Y-166152042D01*
X192249944Y-166152042D02*
X192212449Y-166133295D01*
X192212449Y-166133295D02*
X192137458Y-166133295D01*
X192137458Y-166133295D02*
X192099963Y-166152042D01*
X192099963Y-166152042D02*
X192081215Y-166170790D01*
X192081215Y-166170790D02*
X192062467Y-166208285D01*
D13*
X176633365Y-85061666D02*
X176693842Y-85122142D01*
X176693842Y-85122142D02*
X176754318Y-85303571D01*
X176754318Y-85303571D02*
X176754318Y-85424523D01*
X176754318Y-85424523D02*
X176693842Y-85605952D01*
X176693842Y-85605952D02*
X176572889Y-85726904D01*
X176572889Y-85726904D02*
X176451937Y-85787381D01*
X176451937Y-85787381D02*
X176210032Y-85847857D01*
X176210032Y-85847857D02*
X176028603Y-85847857D01*
X176028603Y-85847857D02*
X175786699Y-85787381D01*
X175786699Y-85787381D02*
X175665746Y-85726904D01*
X175665746Y-85726904D02*
X175544794Y-85605952D01*
X175544794Y-85605952D02*
X175484318Y-85424523D01*
X175484318Y-85424523D02*
X175484318Y-85303571D01*
X175484318Y-85303571D02*
X175544794Y-85122142D01*
X175544794Y-85122142D02*
X175605270Y-85061666D01*
X176754318Y-83852142D02*
X176754318Y-84577857D01*
X176754318Y-84215000D02*
X175484318Y-84215000D01*
X175484318Y-84215000D02*
X175665746Y-84335952D01*
X175665746Y-84335952D02*
X175786699Y-84456904D01*
X175786699Y-84456904D02*
X175847175Y-84577857D01*
D11*
X228509519Y-178353719D02*
X228528267Y-178372467D01*
X228528267Y-178372467D02*
X228547014Y-178428710D01*
X228547014Y-178428710D02*
X228547014Y-178466205D01*
X228547014Y-178466205D02*
X228528267Y-178522448D01*
X228528267Y-178522448D02*
X228490771Y-178559944D01*
X228490771Y-178559944D02*
X228453276Y-178578691D01*
X228453276Y-178578691D02*
X228378285Y-178597439D01*
X228378285Y-178597439D02*
X228322042Y-178597439D01*
X228322042Y-178597439D02*
X228247052Y-178578691D01*
X228247052Y-178578691D02*
X228209556Y-178559944D01*
X228209556Y-178559944D02*
X228172061Y-178522448D01*
X228172061Y-178522448D02*
X228153313Y-178466205D01*
X228153313Y-178466205D02*
X228153313Y-178428710D01*
X228153313Y-178428710D02*
X228172061Y-178372467D01*
X228172061Y-178372467D02*
X228190809Y-178353719D01*
X228547014Y-178184990D02*
X228153313Y-178184990D01*
X228303295Y-178184990D02*
X228284547Y-178147495D01*
X228284547Y-178147495D02*
X228284547Y-178072504D01*
X228284547Y-178072504D02*
X228303295Y-178035009D01*
X228303295Y-178035009D02*
X228322042Y-178016261D01*
X228322042Y-178016261D02*
X228359538Y-177997514D01*
X228359538Y-177997514D02*
X228472024Y-177997514D01*
X228472024Y-177997514D02*
X228509519Y-178016261D01*
X228509519Y-178016261D02*
X228528267Y-178035009D01*
X228528267Y-178035009D02*
X228547014Y-178072504D01*
X228547014Y-178072504D02*
X228547014Y-178147495D01*
X228547014Y-178147495D02*
X228528267Y-178184990D01*
X228284547Y-177660055D02*
X228547014Y-177660055D01*
X228134566Y-177753794D02*
X228415781Y-177847532D01*
X228415781Y-177847532D02*
X228415781Y-177603812D01*
D10*
X250595238Y-214254819D02*
X250595238Y-214969104D01*
X250595238Y-214969104D02*
X250547619Y-215111961D01*
X250547619Y-215111961D02*
X250452381Y-215207200D01*
X250452381Y-215207200D02*
X250309524Y-215254819D01*
X250309524Y-215254819D02*
X250214286Y-215254819D01*
X250833334Y-215350057D02*
X251595238Y-215350057D01*
X251833334Y-215254819D02*
X251833334Y-214254819D01*
X251833334Y-214254819D02*
X252214286Y-214254819D01*
X252214286Y-214254819D02*
X252309524Y-214302438D01*
X252309524Y-214302438D02*
X252357143Y-214350057D01*
X252357143Y-214350057D02*
X252404762Y-214445295D01*
X252404762Y-214445295D02*
X252404762Y-214588152D01*
X252404762Y-214588152D02*
X252357143Y-214683390D01*
X252357143Y-214683390D02*
X252309524Y-214731009D01*
X252309524Y-214731009D02*
X252214286Y-214778628D01*
X252214286Y-214778628D02*
X251833334Y-214778628D01*
X253261905Y-214588152D02*
X253261905Y-215254819D01*
X252833334Y-214588152D02*
X252833334Y-215111961D01*
X252833334Y-215111961D02*
X252880953Y-215207200D01*
X252880953Y-215207200D02*
X252976191Y-215254819D01*
X252976191Y-215254819D02*
X253119048Y-215254819D01*
X253119048Y-215254819D02*
X253214286Y-215207200D01*
X253214286Y-215207200D02*
X253261905Y-215159580D01*
X253738096Y-215254819D02*
X253738096Y-214588152D01*
X253738096Y-214683390D02*
X253785715Y-214635771D01*
X253785715Y-214635771D02*
X253880953Y-214588152D01*
X253880953Y-214588152D02*
X254023810Y-214588152D01*
X254023810Y-214588152D02*
X254119048Y-214635771D01*
X254119048Y-214635771D02*
X254166667Y-214731009D01*
X254166667Y-214731009D02*
X254166667Y-215254819D01*
X254166667Y-214731009D02*
X254214286Y-214635771D01*
X254214286Y-214635771D02*
X254309524Y-214588152D01*
X254309524Y-214588152D02*
X254452381Y-214588152D01*
X254452381Y-214588152D02*
X254547620Y-214635771D01*
X254547620Y-214635771D02*
X254595239Y-214731009D01*
X254595239Y-214731009D02*
X254595239Y-215254819D01*
X255071429Y-214588152D02*
X255071429Y-215588152D01*
X255071429Y-214635771D02*
X255166667Y-214588152D01*
X255166667Y-214588152D02*
X255357143Y-214588152D01*
X255357143Y-214588152D02*
X255452381Y-214635771D01*
X255452381Y-214635771D02*
X255500000Y-214683390D01*
X255500000Y-214683390D02*
X255547619Y-214778628D01*
X255547619Y-214778628D02*
X255547619Y-215064342D01*
X255547619Y-215064342D02*
X255500000Y-215159580D01*
X255500000Y-215159580D02*
X255452381Y-215207200D01*
X255452381Y-215207200D02*
X255357143Y-215254819D01*
X255357143Y-215254819D02*
X255166667Y-215254819D01*
X255166667Y-215254819D02*
X255071429Y-215207200D01*
X255976191Y-214873866D02*
X256738096Y-214873866D01*
X256357143Y-215254819D02*
X256357143Y-214492914D01*
X257738095Y-215254819D02*
X257166667Y-215254819D01*
X257452381Y-215254819D02*
X257452381Y-214254819D01*
X257452381Y-214254819D02*
X257357143Y-214397676D01*
X257357143Y-214397676D02*
X257261905Y-214492914D01*
X257261905Y-214492914D02*
X257166667Y-214540533D01*
D11*
X163236280Y-133177014D02*
X163105046Y-132989538D01*
X163011308Y-133177014D02*
X163011308Y-132783313D01*
X163011308Y-132783313D02*
X163161289Y-132783313D01*
X163161289Y-132783313D02*
X163198785Y-132802061D01*
X163198785Y-132802061D02*
X163217532Y-132820809D01*
X163217532Y-132820809D02*
X163236280Y-132858304D01*
X163236280Y-132858304D02*
X163236280Y-132914547D01*
X163236280Y-132914547D02*
X163217532Y-132952042D01*
X163217532Y-132952042D02*
X163198785Y-132970790D01*
X163198785Y-132970790D02*
X163161289Y-132989538D01*
X163161289Y-132989538D02*
X163011308Y-132989538D01*
X163573738Y-133177014D02*
X163573738Y-132783313D01*
X163573738Y-133158267D02*
X163536243Y-133177014D01*
X163536243Y-133177014D02*
X163461252Y-133177014D01*
X163461252Y-133177014D02*
X163423757Y-133158267D01*
X163423757Y-133158267D02*
X163405009Y-133139519D01*
X163405009Y-133139519D02*
X163386261Y-133102024D01*
X163386261Y-133102024D02*
X163386261Y-132989538D01*
X163386261Y-132989538D02*
X163405009Y-132952042D01*
X163405009Y-132952042D02*
X163423757Y-132933295D01*
X163423757Y-132933295D02*
X163461252Y-132914547D01*
X163461252Y-132914547D02*
X163536243Y-132914547D01*
X163536243Y-132914547D02*
X163573738Y-132933295D01*
X163742467Y-132820809D02*
X163761215Y-132802061D01*
X163761215Y-132802061D02*
X163798710Y-132783313D01*
X163798710Y-132783313D02*
X163892449Y-132783313D01*
X163892449Y-132783313D02*
X163929944Y-132802061D01*
X163929944Y-132802061D02*
X163948692Y-132820809D01*
X163948692Y-132820809D02*
X163967439Y-132858304D01*
X163967439Y-132858304D02*
X163967439Y-132895799D01*
X163967439Y-132895799D02*
X163948692Y-132952042D01*
X163948692Y-132952042D02*
X163723720Y-133177014D01*
X163723720Y-133177014D02*
X163967439Y-133177014D01*
X157756280Y-173977014D02*
X157625046Y-173789538D01*
X157531308Y-173977014D02*
X157531308Y-173583313D01*
X157531308Y-173583313D02*
X157681289Y-173583313D01*
X157681289Y-173583313D02*
X157718785Y-173602061D01*
X157718785Y-173602061D02*
X157737532Y-173620809D01*
X157737532Y-173620809D02*
X157756280Y-173658304D01*
X157756280Y-173658304D02*
X157756280Y-173714547D01*
X157756280Y-173714547D02*
X157737532Y-173752042D01*
X157737532Y-173752042D02*
X157718785Y-173770790D01*
X157718785Y-173770790D02*
X157681289Y-173789538D01*
X157681289Y-173789538D02*
X157531308Y-173789538D01*
X158093738Y-173977014D02*
X158093738Y-173583313D01*
X158093738Y-173958267D02*
X158056243Y-173977014D01*
X158056243Y-173977014D02*
X157981252Y-173977014D01*
X157981252Y-173977014D02*
X157943757Y-173958267D01*
X157943757Y-173958267D02*
X157925009Y-173939519D01*
X157925009Y-173939519D02*
X157906261Y-173902024D01*
X157906261Y-173902024D02*
X157906261Y-173789538D01*
X157906261Y-173789538D02*
X157925009Y-173752042D01*
X157925009Y-173752042D02*
X157943757Y-173733295D01*
X157943757Y-173733295D02*
X157981252Y-173714547D01*
X157981252Y-173714547D02*
X158056243Y-173714547D01*
X158056243Y-173714547D02*
X158093738Y-173733295D01*
X158468692Y-173583313D02*
X158281215Y-173583313D01*
X158281215Y-173583313D02*
X158262467Y-173770790D01*
X158262467Y-173770790D02*
X158281215Y-173752042D01*
X158281215Y-173752042D02*
X158318710Y-173733295D01*
X158318710Y-173733295D02*
X158412449Y-173733295D01*
X158412449Y-173733295D02*
X158449944Y-173752042D01*
X158449944Y-173752042D02*
X158468692Y-173770790D01*
X158468692Y-173770790D02*
X158487439Y-173808285D01*
X158487439Y-173808285D02*
X158487439Y-173902024D01*
X158487439Y-173902024D02*
X158468692Y-173939519D01*
X158468692Y-173939519D02*
X158449944Y-173958267D01*
X158449944Y-173958267D02*
X158412449Y-173977014D01*
X158412449Y-173977014D02*
X158318710Y-173977014D01*
X158318710Y-173977014D02*
X158281215Y-173958267D01*
X158281215Y-173958267D02*
X158262467Y-173939519D01*
X114577014Y-102521195D02*
X114389538Y-102652429D01*
X114577014Y-102746167D02*
X114183313Y-102746167D01*
X114183313Y-102746167D02*
X114183313Y-102596186D01*
X114183313Y-102596186D02*
X114202061Y-102558691D01*
X114202061Y-102558691D02*
X114220809Y-102539943D01*
X114220809Y-102539943D02*
X114258304Y-102521195D01*
X114258304Y-102521195D02*
X114314547Y-102521195D01*
X114314547Y-102521195D02*
X114352042Y-102539943D01*
X114352042Y-102539943D02*
X114370790Y-102558691D01*
X114370790Y-102558691D02*
X114389538Y-102596186D01*
X114389538Y-102596186D02*
X114389538Y-102746167D01*
X114577014Y-102183737D02*
X114183313Y-102183737D01*
X114558267Y-102183737D02*
X114577014Y-102221233D01*
X114577014Y-102221233D02*
X114577014Y-102296223D01*
X114577014Y-102296223D02*
X114558267Y-102333719D01*
X114558267Y-102333719D02*
X114539519Y-102352466D01*
X114539519Y-102352466D02*
X114502024Y-102371214D01*
X114502024Y-102371214D02*
X114389538Y-102371214D01*
X114389538Y-102371214D02*
X114352042Y-102352466D01*
X114352042Y-102352466D02*
X114333295Y-102333719D01*
X114333295Y-102333719D02*
X114314547Y-102296223D01*
X114314547Y-102296223D02*
X114314547Y-102221233D01*
X114314547Y-102221233D02*
X114333295Y-102183737D01*
X114577014Y-101790036D02*
X114577014Y-102015008D01*
X114577014Y-101902522D02*
X114183313Y-101902522D01*
X114183313Y-101902522D02*
X114239556Y-101940017D01*
X114239556Y-101940017D02*
X114277052Y-101977513D01*
X114277052Y-101977513D02*
X114295799Y-102015008D01*
X114220809Y-101640055D02*
X114202061Y-101621307D01*
X114202061Y-101621307D02*
X114183313Y-101583812D01*
X114183313Y-101583812D02*
X114183313Y-101490074D01*
X114183313Y-101490074D02*
X114202061Y-101452578D01*
X114202061Y-101452578D02*
X114220809Y-101433831D01*
X114220809Y-101433831D02*
X114258304Y-101415083D01*
X114258304Y-101415083D02*
X114295799Y-101415083D01*
X114295799Y-101415083D02*
X114352042Y-101433831D01*
X114352042Y-101433831D02*
X114577014Y-101658803D01*
X114577014Y-101658803D02*
X114577014Y-101415083D01*
X205156280Y-173577014D02*
X205025046Y-173389538D01*
X204931308Y-173577014D02*
X204931308Y-173183313D01*
X204931308Y-173183313D02*
X205081289Y-173183313D01*
X205081289Y-173183313D02*
X205118785Y-173202061D01*
X205118785Y-173202061D02*
X205137532Y-173220809D01*
X205137532Y-173220809D02*
X205156280Y-173258304D01*
X205156280Y-173258304D02*
X205156280Y-173314547D01*
X205156280Y-173314547D02*
X205137532Y-173352042D01*
X205137532Y-173352042D02*
X205118785Y-173370790D01*
X205118785Y-173370790D02*
X205081289Y-173389538D01*
X205081289Y-173389538D02*
X204931308Y-173389538D01*
X205493738Y-173577014D02*
X205493738Y-173183313D01*
X205493738Y-173558267D02*
X205456243Y-173577014D01*
X205456243Y-173577014D02*
X205381252Y-173577014D01*
X205381252Y-173577014D02*
X205343757Y-173558267D01*
X205343757Y-173558267D02*
X205325009Y-173539519D01*
X205325009Y-173539519D02*
X205306261Y-173502024D01*
X205306261Y-173502024D02*
X205306261Y-173389538D01*
X205306261Y-173389538D02*
X205325009Y-173352042D01*
X205325009Y-173352042D02*
X205343757Y-173333295D01*
X205343757Y-173333295D02*
X205381252Y-173314547D01*
X205381252Y-173314547D02*
X205456243Y-173314547D01*
X205456243Y-173314547D02*
X205493738Y-173333295D01*
X205737458Y-173352042D02*
X205699963Y-173333295D01*
X205699963Y-173333295D02*
X205681215Y-173314547D01*
X205681215Y-173314547D02*
X205662467Y-173277052D01*
X205662467Y-173277052D02*
X205662467Y-173258304D01*
X205662467Y-173258304D02*
X205681215Y-173220809D01*
X205681215Y-173220809D02*
X205699963Y-173202061D01*
X205699963Y-173202061D02*
X205737458Y-173183313D01*
X205737458Y-173183313D02*
X205812449Y-173183313D01*
X205812449Y-173183313D02*
X205849944Y-173202061D01*
X205849944Y-173202061D02*
X205868692Y-173220809D01*
X205868692Y-173220809D02*
X205887439Y-173258304D01*
X205887439Y-173258304D02*
X205887439Y-173277052D01*
X205887439Y-173277052D02*
X205868692Y-173314547D01*
X205868692Y-173314547D02*
X205849944Y-173333295D01*
X205849944Y-173333295D02*
X205812449Y-173352042D01*
X205812449Y-173352042D02*
X205737458Y-173352042D01*
X205737458Y-173352042D02*
X205699963Y-173370790D01*
X205699963Y-173370790D02*
X205681215Y-173389538D01*
X205681215Y-173389538D02*
X205662467Y-173427033D01*
X205662467Y-173427033D02*
X205662467Y-173502024D01*
X205662467Y-173502024D02*
X205681215Y-173539519D01*
X205681215Y-173539519D02*
X205699963Y-173558267D01*
X205699963Y-173558267D02*
X205737458Y-173577014D01*
X205737458Y-173577014D02*
X205812449Y-173577014D01*
X205812449Y-173577014D02*
X205849944Y-173558267D01*
X205849944Y-173558267D02*
X205868692Y-173539519D01*
X205868692Y-173539519D02*
X205887439Y-173502024D01*
X205887439Y-173502024D02*
X205887439Y-173427033D01*
X205887439Y-173427033D02*
X205868692Y-173389538D01*
X205868692Y-173389538D02*
X205849944Y-173370790D01*
X205849944Y-173370790D02*
X205812449Y-173352042D01*
X95159519Y-129355719D02*
X95178267Y-129374467D01*
X95178267Y-129374467D02*
X95197014Y-129430710D01*
X95197014Y-129430710D02*
X95197014Y-129468205D01*
X95197014Y-129468205D02*
X95178267Y-129524448D01*
X95178267Y-129524448D02*
X95140771Y-129561944D01*
X95140771Y-129561944D02*
X95103276Y-129580691D01*
X95103276Y-129580691D02*
X95028285Y-129599439D01*
X95028285Y-129599439D02*
X94972042Y-129599439D01*
X94972042Y-129599439D02*
X94897052Y-129580691D01*
X94897052Y-129580691D02*
X94859556Y-129561944D01*
X94859556Y-129561944D02*
X94822061Y-129524448D01*
X94822061Y-129524448D02*
X94803313Y-129468205D01*
X94803313Y-129468205D02*
X94803313Y-129430710D01*
X94803313Y-129430710D02*
X94822061Y-129374467D01*
X94822061Y-129374467D02*
X94840809Y-129355719D01*
X95197014Y-129186990D02*
X94803313Y-129186990D01*
X94953295Y-129186990D02*
X94934547Y-129149495D01*
X94934547Y-129149495D02*
X94934547Y-129074504D01*
X94934547Y-129074504D02*
X94953295Y-129037009D01*
X94953295Y-129037009D02*
X94972042Y-129018261D01*
X94972042Y-129018261D02*
X95009538Y-128999514D01*
X95009538Y-128999514D02*
X95122024Y-128999514D01*
X95122024Y-128999514D02*
X95159519Y-129018261D01*
X95159519Y-129018261D02*
X95178267Y-129037009D01*
X95178267Y-129037009D02*
X95197014Y-129074504D01*
X95197014Y-129074504D02*
X95197014Y-129149495D01*
X95197014Y-129149495D02*
X95178267Y-129186990D01*
X94803313Y-128643308D02*
X94803313Y-128830784D01*
X94803313Y-128830784D02*
X94990790Y-128849532D01*
X94990790Y-128849532D02*
X94972042Y-128830784D01*
X94972042Y-128830784D02*
X94953295Y-128793289D01*
X94953295Y-128793289D02*
X94953295Y-128699551D01*
X94953295Y-128699551D02*
X94972042Y-128662055D01*
X94972042Y-128662055D02*
X94990790Y-128643308D01*
X94990790Y-128643308D02*
X95028285Y-128624560D01*
X95028285Y-128624560D02*
X95122024Y-128624560D01*
X95122024Y-128624560D02*
X95159519Y-128643308D01*
X95159519Y-128643308D02*
X95178267Y-128662055D01*
X95178267Y-128662055D02*
X95197014Y-128699551D01*
X95197014Y-128699551D02*
X95197014Y-128793289D01*
X95197014Y-128793289D02*
X95178267Y-128830784D01*
X95178267Y-128830784D02*
X95159519Y-128849532D01*
D10*
X120704819Y-50130952D02*
X121419104Y-50130952D01*
X121419104Y-50130952D02*
X121561961Y-50178571D01*
X121561961Y-50178571D02*
X121657200Y-50273809D01*
X121657200Y-50273809D02*
X121704819Y-50416666D01*
X121704819Y-50416666D02*
X121704819Y-50511904D01*
X121800057Y-49892857D02*
X121800057Y-49130952D01*
X121704819Y-48892856D02*
X120704819Y-48892856D01*
X120704819Y-48892856D02*
X121419104Y-48559523D01*
X121419104Y-48559523D02*
X120704819Y-48226190D01*
X120704819Y-48226190D02*
X121704819Y-48226190D01*
X121704819Y-47226190D02*
X121704819Y-47797618D01*
X121704819Y-47511904D02*
X120704819Y-47511904D01*
X120704819Y-47511904D02*
X120847676Y-47607142D01*
X120847676Y-47607142D02*
X120942914Y-47702380D01*
X120942914Y-47702380D02*
X120990533Y-47797618D01*
X121323866Y-46797618D02*
X121323866Y-46035714D01*
X121704819Y-45035714D02*
X121704819Y-45607142D01*
X121704819Y-45321428D02*
X120704819Y-45321428D01*
X120704819Y-45321428D02*
X120847676Y-45416666D01*
X120847676Y-45416666D02*
X120942914Y-45511904D01*
X120942914Y-45511904D02*
X120990533Y-45607142D01*
D13*
X232453365Y-178366190D02*
X232513842Y-178426666D01*
X232513842Y-178426666D02*
X232574318Y-178608095D01*
X232574318Y-178608095D02*
X232574318Y-178729047D01*
X232574318Y-178729047D02*
X232513842Y-178910476D01*
X232513842Y-178910476D02*
X232392889Y-179031428D01*
X232392889Y-179031428D02*
X232271937Y-179091905D01*
X232271937Y-179091905D02*
X232030032Y-179152381D01*
X232030032Y-179152381D02*
X231848603Y-179152381D01*
X231848603Y-179152381D02*
X231606699Y-179091905D01*
X231606699Y-179091905D02*
X231485746Y-179031428D01*
X231485746Y-179031428D02*
X231364794Y-178910476D01*
X231364794Y-178910476D02*
X231304318Y-178729047D01*
X231304318Y-178729047D02*
X231304318Y-178608095D01*
X231304318Y-178608095D02*
X231364794Y-178426666D01*
X231364794Y-178426666D02*
X231425270Y-178366190D01*
X232574318Y-177821905D02*
X231304318Y-177821905D01*
X231788127Y-177821905D02*
X231727651Y-177700952D01*
X231727651Y-177700952D02*
X231727651Y-177459047D01*
X231727651Y-177459047D02*
X231788127Y-177338095D01*
X231788127Y-177338095D02*
X231848603Y-177277619D01*
X231848603Y-177277619D02*
X231969556Y-177217143D01*
X231969556Y-177217143D02*
X232332413Y-177217143D01*
X232332413Y-177217143D02*
X232453365Y-177277619D01*
X232453365Y-177277619D02*
X232513842Y-177338095D01*
X232513842Y-177338095D02*
X232574318Y-177459047D01*
X232574318Y-177459047D02*
X232574318Y-177700952D01*
X232574318Y-177700952D02*
X232513842Y-177821905D01*
X231304318Y-176793809D02*
X231304318Y-176007618D01*
X231304318Y-176007618D02*
X231788127Y-176430952D01*
X231788127Y-176430952D02*
X231788127Y-176249523D01*
X231788127Y-176249523D02*
X231848603Y-176128571D01*
X231848603Y-176128571D02*
X231909080Y-176068095D01*
X231909080Y-176068095D02*
X232030032Y-176007618D01*
X232030032Y-176007618D02*
X232332413Y-176007618D01*
X232332413Y-176007618D02*
X232453365Y-176068095D01*
X232453365Y-176068095D02*
X232513842Y-176128571D01*
X232513842Y-176128571D02*
X232574318Y-176249523D01*
X232574318Y-176249523D02*
X232574318Y-176612380D01*
X232574318Y-176612380D02*
X232513842Y-176733333D01*
X232513842Y-176733333D02*
X232453365Y-176793809D01*
D10*
X241595238Y-199204819D02*
X241595238Y-199919104D01*
X241595238Y-199919104D02*
X241547619Y-200061961D01*
X241547619Y-200061961D02*
X241452381Y-200157200D01*
X241452381Y-200157200D02*
X241309524Y-200204819D01*
X241309524Y-200204819D02*
X241214286Y-200204819D01*
X241833334Y-200300057D02*
X242595238Y-200300057D01*
X242833334Y-200204819D02*
X242833334Y-199204819D01*
X242833334Y-199204819D02*
X243214286Y-199204819D01*
X243214286Y-199204819D02*
X243309524Y-199252438D01*
X243309524Y-199252438D02*
X243357143Y-199300057D01*
X243357143Y-199300057D02*
X243404762Y-199395295D01*
X243404762Y-199395295D02*
X243404762Y-199538152D01*
X243404762Y-199538152D02*
X243357143Y-199633390D01*
X243357143Y-199633390D02*
X243309524Y-199681009D01*
X243309524Y-199681009D02*
X243214286Y-199728628D01*
X243214286Y-199728628D02*
X242833334Y-199728628D01*
X244261905Y-199538152D02*
X244261905Y-200204819D01*
X243833334Y-199538152D02*
X243833334Y-200061961D01*
X243833334Y-200061961D02*
X243880953Y-200157200D01*
X243880953Y-200157200D02*
X243976191Y-200204819D01*
X243976191Y-200204819D02*
X244119048Y-200204819D01*
X244119048Y-200204819D02*
X244214286Y-200157200D01*
X244214286Y-200157200D02*
X244261905Y-200109580D01*
X244738096Y-200204819D02*
X244738096Y-199538152D01*
X244738096Y-199633390D02*
X244785715Y-199585771D01*
X244785715Y-199585771D02*
X244880953Y-199538152D01*
X244880953Y-199538152D02*
X245023810Y-199538152D01*
X245023810Y-199538152D02*
X245119048Y-199585771D01*
X245119048Y-199585771D02*
X245166667Y-199681009D01*
X245166667Y-199681009D02*
X245166667Y-200204819D01*
X245166667Y-199681009D02*
X245214286Y-199585771D01*
X245214286Y-199585771D02*
X245309524Y-199538152D01*
X245309524Y-199538152D02*
X245452381Y-199538152D01*
X245452381Y-199538152D02*
X245547620Y-199585771D01*
X245547620Y-199585771D02*
X245595239Y-199681009D01*
X245595239Y-199681009D02*
X245595239Y-200204819D01*
X246071429Y-199538152D02*
X246071429Y-200538152D01*
X246071429Y-199585771D02*
X246166667Y-199538152D01*
X246166667Y-199538152D02*
X246357143Y-199538152D01*
X246357143Y-199538152D02*
X246452381Y-199585771D01*
X246452381Y-199585771D02*
X246500000Y-199633390D01*
X246500000Y-199633390D02*
X246547619Y-199728628D01*
X246547619Y-199728628D02*
X246547619Y-200014342D01*
X246547619Y-200014342D02*
X246500000Y-200109580D01*
X246500000Y-200109580D02*
X246452381Y-200157200D01*
X246452381Y-200157200D02*
X246357143Y-200204819D01*
X246357143Y-200204819D02*
X246166667Y-200204819D01*
X246166667Y-200204819D02*
X246071429Y-200157200D01*
X246976191Y-199823866D02*
X247738096Y-199823866D01*
X248738095Y-200204819D02*
X248166667Y-200204819D01*
X248452381Y-200204819D02*
X248452381Y-199204819D01*
X248452381Y-199204819D02*
X248357143Y-199347676D01*
X248357143Y-199347676D02*
X248261905Y-199442914D01*
X248261905Y-199442914D02*
X248166667Y-199490533D01*
D11*
X76472383Y-112647014D02*
X76341149Y-112459538D01*
X76247411Y-112647014D02*
X76247411Y-112253313D01*
X76247411Y-112253313D02*
X76397392Y-112253313D01*
X76397392Y-112253313D02*
X76434888Y-112272061D01*
X76434888Y-112272061D02*
X76453635Y-112290809D01*
X76453635Y-112290809D02*
X76472383Y-112328304D01*
X76472383Y-112328304D02*
X76472383Y-112384547D01*
X76472383Y-112384547D02*
X76453635Y-112422042D01*
X76453635Y-112422042D02*
X76434888Y-112440790D01*
X76434888Y-112440790D02*
X76397392Y-112459538D01*
X76397392Y-112459538D02*
X76247411Y-112459538D01*
X76622364Y-112290809D02*
X76641112Y-112272061D01*
X76641112Y-112272061D02*
X76678607Y-112253313D01*
X76678607Y-112253313D02*
X76772346Y-112253313D01*
X76772346Y-112253313D02*
X76809841Y-112272061D01*
X76809841Y-112272061D02*
X76828589Y-112290809D01*
X76828589Y-112290809D02*
X76847336Y-112328304D01*
X76847336Y-112328304D02*
X76847336Y-112365799D01*
X76847336Y-112365799D02*
X76828589Y-112422042D01*
X76828589Y-112422042D02*
X76603617Y-112647014D01*
X76603617Y-112647014D02*
X76847336Y-112647014D01*
D10*
X163344819Y-124753904D02*
X164154342Y-124753904D01*
X164154342Y-124753904D02*
X164249580Y-124706285D01*
X164249580Y-124706285D02*
X164297200Y-124658666D01*
X164297200Y-124658666D02*
X164344819Y-124563428D01*
X164344819Y-124563428D02*
X164344819Y-124372952D01*
X164344819Y-124372952D02*
X164297200Y-124277714D01*
X164297200Y-124277714D02*
X164249580Y-124230095D01*
X164249580Y-124230095D02*
X164154342Y-124182476D01*
X164154342Y-124182476D02*
X163344819Y-124182476D01*
X163344819Y-123801523D02*
X163344819Y-123182476D01*
X163344819Y-123182476D02*
X163725771Y-123515809D01*
X163725771Y-123515809D02*
X163725771Y-123372952D01*
X163725771Y-123372952D02*
X163773390Y-123277714D01*
X163773390Y-123277714D02*
X163821009Y-123230095D01*
X163821009Y-123230095D02*
X163916247Y-123182476D01*
X163916247Y-123182476D02*
X164154342Y-123182476D01*
X164154342Y-123182476D02*
X164249580Y-123230095D01*
X164249580Y-123230095D02*
X164297200Y-123277714D01*
X164297200Y-123277714D02*
X164344819Y-123372952D01*
X164344819Y-123372952D02*
X164344819Y-123658666D01*
X164344819Y-123658666D02*
X164297200Y-123753904D01*
X164297200Y-123753904D02*
X164249580Y-123801523D01*
X159839619Y-127090799D02*
X160077714Y-127090799D01*
X159982476Y-127328894D02*
X160077714Y-127090799D01*
X160077714Y-127090799D02*
X159982476Y-126852704D01*
X160268190Y-127233656D02*
X160077714Y-127090799D01*
X160077714Y-127090799D02*
X160268190Y-126947942D01*
D11*
X111437014Y-133075719D02*
X111249538Y-133206953D01*
X111437014Y-133300691D02*
X111043313Y-133300691D01*
X111043313Y-133300691D02*
X111043313Y-133150710D01*
X111043313Y-133150710D02*
X111062061Y-133113215D01*
X111062061Y-133113215D02*
X111080809Y-133094467D01*
X111080809Y-133094467D02*
X111118304Y-133075719D01*
X111118304Y-133075719D02*
X111174547Y-133075719D01*
X111174547Y-133075719D02*
X111212042Y-133094467D01*
X111212042Y-133094467D02*
X111230790Y-133113215D01*
X111230790Y-133113215D02*
X111249538Y-133150710D01*
X111249538Y-133150710D02*
X111249538Y-133300691D01*
X111437014Y-132738261D02*
X111043313Y-132738261D01*
X111418267Y-132738261D02*
X111437014Y-132775757D01*
X111437014Y-132775757D02*
X111437014Y-132850747D01*
X111437014Y-132850747D02*
X111418267Y-132888243D01*
X111418267Y-132888243D02*
X111399519Y-132906990D01*
X111399519Y-132906990D02*
X111362024Y-132925738D01*
X111362024Y-132925738D02*
X111249538Y-132925738D01*
X111249538Y-132925738D02*
X111212042Y-132906990D01*
X111212042Y-132906990D02*
X111193295Y-132888243D01*
X111193295Y-132888243D02*
X111174547Y-132850747D01*
X111174547Y-132850747D02*
X111174547Y-132775757D01*
X111174547Y-132775757D02*
X111193295Y-132738261D01*
X111437014Y-132532037D02*
X111437014Y-132457046D01*
X111437014Y-132457046D02*
X111418267Y-132419551D01*
X111418267Y-132419551D02*
X111399519Y-132400803D01*
X111399519Y-132400803D02*
X111343276Y-132363308D01*
X111343276Y-132363308D02*
X111268285Y-132344560D01*
X111268285Y-132344560D02*
X111118304Y-132344560D01*
X111118304Y-132344560D02*
X111080809Y-132363308D01*
X111080809Y-132363308D02*
X111062061Y-132382055D01*
X111062061Y-132382055D02*
X111043313Y-132419551D01*
X111043313Y-132419551D02*
X111043313Y-132494541D01*
X111043313Y-132494541D02*
X111062061Y-132532037D01*
X111062061Y-132532037D02*
X111080809Y-132550784D01*
X111080809Y-132550784D02*
X111118304Y-132569532D01*
X111118304Y-132569532D02*
X111212042Y-132569532D01*
X111212042Y-132569532D02*
X111249538Y-132550784D01*
X111249538Y-132550784D02*
X111268285Y-132532037D01*
X111268285Y-132532037D02*
X111287033Y-132494541D01*
X111287033Y-132494541D02*
X111287033Y-132419551D01*
X111287033Y-132419551D02*
X111268285Y-132382055D01*
X111268285Y-132382055D02*
X111249538Y-132363308D01*
X111249538Y-132363308D02*
X111212042Y-132344560D01*
X91413028Y-130169519D02*
X91394280Y-130188267D01*
X91394280Y-130188267D02*
X91338037Y-130207014D01*
X91338037Y-130207014D02*
X91300542Y-130207014D01*
X91300542Y-130207014D02*
X91244299Y-130188267D01*
X91244299Y-130188267D02*
X91206804Y-130150771D01*
X91206804Y-130150771D02*
X91188056Y-130113276D01*
X91188056Y-130113276D02*
X91169308Y-130038285D01*
X91169308Y-130038285D02*
X91169308Y-129982042D01*
X91169308Y-129982042D02*
X91188056Y-129907052D01*
X91188056Y-129907052D02*
X91206804Y-129869556D01*
X91206804Y-129869556D02*
X91244299Y-129832061D01*
X91244299Y-129832061D02*
X91300542Y-129813313D01*
X91300542Y-129813313D02*
X91338037Y-129813313D01*
X91338037Y-129813313D02*
X91394280Y-129832061D01*
X91394280Y-129832061D02*
X91413028Y-129850809D01*
X91769234Y-130207014D02*
X91581757Y-130207014D01*
X91581757Y-130207014D02*
X91581757Y-129813313D01*
X92106691Y-130207014D02*
X91881719Y-130207014D01*
X91994205Y-130207014D02*
X91994205Y-129813313D01*
X91994205Y-129813313D02*
X91956710Y-129869556D01*
X91956710Y-129869556D02*
X91919215Y-129907052D01*
X91919215Y-129907052D02*
X91881719Y-129925799D01*
X161877014Y-102248719D02*
X161689538Y-102379953D01*
X161877014Y-102473691D02*
X161483313Y-102473691D01*
X161483313Y-102473691D02*
X161483313Y-102323710D01*
X161483313Y-102323710D02*
X161502061Y-102286215D01*
X161502061Y-102286215D02*
X161520809Y-102267467D01*
X161520809Y-102267467D02*
X161558304Y-102248719D01*
X161558304Y-102248719D02*
X161614547Y-102248719D01*
X161614547Y-102248719D02*
X161652042Y-102267467D01*
X161652042Y-102267467D02*
X161670790Y-102286215D01*
X161670790Y-102286215D02*
X161689538Y-102323710D01*
X161689538Y-102323710D02*
X161689538Y-102473691D01*
X161877014Y-101911261D02*
X161483313Y-101911261D01*
X161858267Y-101911261D02*
X161877014Y-101948757D01*
X161877014Y-101948757D02*
X161877014Y-102023747D01*
X161877014Y-102023747D02*
X161858267Y-102061243D01*
X161858267Y-102061243D02*
X161839519Y-102079990D01*
X161839519Y-102079990D02*
X161802024Y-102098738D01*
X161802024Y-102098738D02*
X161689538Y-102098738D01*
X161689538Y-102098738D02*
X161652042Y-102079990D01*
X161652042Y-102079990D02*
X161633295Y-102061243D01*
X161633295Y-102061243D02*
X161614547Y-102023747D01*
X161614547Y-102023747D02*
X161614547Y-101948757D01*
X161614547Y-101948757D02*
X161633295Y-101911261D01*
X161614547Y-101555055D02*
X161877014Y-101555055D01*
X161464566Y-101648794D02*
X161745781Y-101742532D01*
X161745781Y-101742532D02*
X161745781Y-101498812D01*
D10*
X163344819Y-114011904D02*
X164154342Y-114011904D01*
X164154342Y-114011904D02*
X164249580Y-113964285D01*
X164249580Y-113964285D02*
X164297200Y-113916666D01*
X164297200Y-113916666D02*
X164344819Y-113821428D01*
X164344819Y-113821428D02*
X164344819Y-113630952D01*
X164344819Y-113630952D02*
X164297200Y-113535714D01*
X164297200Y-113535714D02*
X164249580Y-113488095D01*
X164249580Y-113488095D02*
X164154342Y-113440476D01*
X164154342Y-113440476D02*
X163344819Y-113440476D01*
X163678152Y-112535714D02*
X164344819Y-112535714D01*
X163297200Y-112773809D02*
X164011485Y-113011904D01*
X164011485Y-113011904D02*
X164011485Y-112392857D01*
X158023519Y-117059999D02*
X158261614Y-117059999D01*
X158166376Y-117298094D02*
X158261614Y-117059999D01*
X158261614Y-117059999D02*
X158166376Y-116821904D01*
X158452090Y-117202856D02*
X158261614Y-117059999D01*
X158261614Y-117059999D02*
X158452090Y-116917142D01*
X115870476Y-88454819D02*
X115870476Y-87454819D01*
X115870476Y-87454819D02*
X116203809Y-88169104D01*
X116203809Y-88169104D02*
X116537142Y-87454819D01*
X116537142Y-87454819D02*
X116537142Y-88454819D01*
X117537142Y-88454819D02*
X116965714Y-88454819D01*
X117251428Y-88454819D02*
X117251428Y-87454819D01*
X117251428Y-87454819D02*
X117156190Y-87597676D01*
X117156190Y-87597676D02*
X117060952Y-87692914D01*
X117060952Y-87692914D02*
X116965714Y-87740533D01*
X112870000Y-93306819D02*
X112870000Y-93544914D01*
X112631905Y-93449676D02*
X112870000Y-93544914D01*
X112870000Y-93544914D02*
X113108095Y-93449676D01*
X112727143Y-93735390D02*
X112870000Y-93544914D01*
X112870000Y-93544914D02*
X113012857Y-93735390D01*
X243369047Y-179704819D02*
X243369047Y-180419104D01*
X243369047Y-180419104D02*
X243321428Y-180561961D01*
X243321428Y-180561961D02*
X243226190Y-180657200D01*
X243226190Y-180657200D02*
X243083333Y-180704819D01*
X243083333Y-180704819D02*
X242988095Y-180704819D01*
X243607143Y-180800057D02*
X244369047Y-180800057D01*
X244607143Y-180704819D02*
X244607143Y-179704819D01*
X244607143Y-179704819D02*
X244940476Y-180419104D01*
X244940476Y-180419104D02*
X245273809Y-179704819D01*
X245273809Y-179704819D02*
X245273809Y-180704819D01*
X245654762Y-179704819D02*
X246273809Y-179704819D01*
X246273809Y-179704819D02*
X245940476Y-180085771D01*
X245940476Y-180085771D02*
X246083333Y-180085771D01*
X246083333Y-180085771D02*
X246178571Y-180133390D01*
X246178571Y-180133390D02*
X246226190Y-180181009D01*
X246226190Y-180181009D02*
X246273809Y-180276247D01*
X246273809Y-180276247D02*
X246273809Y-180514342D01*
X246273809Y-180514342D02*
X246226190Y-180609580D01*
X246226190Y-180609580D02*
X246178571Y-180657200D01*
X246178571Y-180657200D02*
X246083333Y-180704819D01*
X246083333Y-180704819D02*
X245797619Y-180704819D01*
X245797619Y-180704819D02*
X245702381Y-180657200D01*
X245702381Y-180657200D02*
X245654762Y-180609580D01*
X246702381Y-180323866D02*
X247464286Y-180323866D01*
X248464285Y-180704819D02*
X247892857Y-180704819D01*
X248178571Y-180704819D02*
X248178571Y-179704819D01*
X248178571Y-179704819D02*
X248083333Y-179847676D01*
X248083333Y-179847676D02*
X247988095Y-179942914D01*
X247988095Y-179942914D02*
X247892857Y-179990533D01*
D13*
X100703365Y-86059999D02*
X100763842Y-86120475D01*
X100763842Y-86120475D02*
X100824318Y-86301904D01*
X100824318Y-86301904D02*
X100824318Y-86422856D01*
X100824318Y-86422856D02*
X100763842Y-86604285D01*
X100763842Y-86604285D02*
X100642889Y-86725237D01*
X100642889Y-86725237D02*
X100521937Y-86785714D01*
X100521937Y-86785714D02*
X100280032Y-86846190D01*
X100280032Y-86846190D02*
X100098603Y-86846190D01*
X100098603Y-86846190D02*
X99856699Y-86785714D01*
X99856699Y-86785714D02*
X99735746Y-86725237D01*
X99735746Y-86725237D02*
X99614794Y-86604285D01*
X99614794Y-86604285D02*
X99554318Y-86422856D01*
X99554318Y-86422856D02*
X99554318Y-86301904D01*
X99554318Y-86301904D02*
X99614794Y-86120475D01*
X99614794Y-86120475D02*
X99675270Y-86059999D01*
X99977651Y-85515714D02*
X101247651Y-85515714D01*
X100038127Y-85515714D02*
X99977651Y-85394761D01*
X99977651Y-85394761D02*
X99977651Y-85152856D01*
X99977651Y-85152856D02*
X100038127Y-85031904D01*
X100038127Y-85031904D02*
X100098603Y-84971428D01*
X100098603Y-84971428D02*
X100219556Y-84910952D01*
X100219556Y-84910952D02*
X100582413Y-84910952D01*
X100582413Y-84910952D02*
X100703365Y-84971428D01*
X100703365Y-84971428D02*
X100763842Y-85031904D01*
X100763842Y-85031904D02*
X100824318Y-85152856D01*
X100824318Y-85152856D02*
X100824318Y-85394761D01*
X100824318Y-85394761D02*
X100763842Y-85515714D01*
X99977651Y-84487618D02*
X100824318Y-84185237D01*
X100824318Y-84185237D02*
X99977651Y-83882856D01*
X99675270Y-83459523D02*
X99614794Y-83399047D01*
X99614794Y-83399047D02*
X99554318Y-83278094D01*
X99554318Y-83278094D02*
X99554318Y-82975713D01*
X99554318Y-82975713D02*
X99614794Y-82854761D01*
X99614794Y-82854761D02*
X99675270Y-82794285D01*
X99675270Y-82794285D02*
X99796222Y-82733808D01*
X99796222Y-82733808D02*
X99917175Y-82733808D01*
X99917175Y-82733808D02*
X100098603Y-82794285D01*
X100098603Y-82794285D02*
X100824318Y-83519999D01*
X100824318Y-83519999D02*
X100824318Y-82733808D01*
D10*
X190238095Y-174144819D02*
X190238095Y-174954342D01*
X190238095Y-174954342D02*
X190285714Y-175049580D01*
X190285714Y-175049580D02*
X190333333Y-175097200D01*
X190333333Y-175097200D02*
X190428571Y-175144819D01*
X190428571Y-175144819D02*
X190619047Y-175144819D01*
X190619047Y-175144819D02*
X190714285Y-175097200D01*
X190714285Y-175097200D02*
X190761904Y-175049580D01*
X190761904Y-175049580D02*
X190809523Y-174954342D01*
X190809523Y-174954342D02*
X190809523Y-174144819D01*
X191714285Y-174144819D02*
X191523809Y-174144819D01*
X191523809Y-174144819D02*
X191428571Y-174192438D01*
X191428571Y-174192438D02*
X191380952Y-174240057D01*
X191380952Y-174240057D02*
X191285714Y-174382914D01*
X191285714Y-174382914D02*
X191238095Y-174573390D01*
X191238095Y-174573390D02*
X191238095Y-174954342D01*
X191238095Y-174954342D02*
X191285714Y-175049580D01*
X191285714Y-175049580D02*
X191333333Y-175097200D01*
X191333333Y-175097200D02*
X191428571Y-175144819D01*
X191428571Y-175144819D02*
X191619047Y-175144819D01*
X191619047Y-175144819D02*
X191714285Y-175097200D01*
X191714285Y-175097200D02*
X191761904Y-175049580D01*
X191761904Y-175049580D02*
X191809523Y-174954342D01*
X191809523Y-174954342D02*
X191809523Y-174716247D01*
X191809523Y-174716247D02*
X191761904Y-174621009D01*
X191761904Y-174621009D02*
X191714285Y-174573390D01*
X191714285Y-174573390D02*
X191619047Y-174525771D01*
X191619047Y-174525771D02*
X191428571Y-174525771D01*
X191428571Y-174525771D02*
X191333333Y-174573390D01*
X191333333Y-174573390D02*
X191285714Y-174621009D01*
X191285714Y-174621009D02*
X191238095Y-174716247D01*
X187190000Y-168823519D02*
X187190000Y-169061614D01*
X186951905Y-168966376D02*
X187190000Y-169061614D01*
X187190000Y-169061614D02*
X187428095Y-168966376D01*
X187047143Y-169252090D02*
X187190000Y-169061614D01*
X187190000Y-169061614D02*
X187332857Y-169252090D01*
D12*
%TO.C,J_PV+1*%
X63800000Y-95300000D02*
G75*
G02*
X52800000Y-95300000I-5500000J0D01*
G01*
X52800000Y-95300000D02*
G75*
G02*
X63800000Y-95300000I5500000J0D01*
G01*
%TO.C,J_BAT+1*%
X259500000Y-98450000D02*
G75*
G02*
X248500000Y-98450000I-5500000J0D01*
G01*
X248500000Y-98450000D02*
G75*
G02*
X259500000Y-98450000I5500000J0D01*
G01*
D15*
%TO.C,U5*%
X168879700Y-172328000D02*
X168879700Y-172632293D01*
X168879700Y-173547707D02*
X168879700Y-173902293D01*
X168879700Y-174817707D02*
X168879700Y-175172293D01*
X168879700Y-176087707D02*
X168879700Y-176442293D01*
X168879700Y-177357707D02*
X168879700Y-177662000D01*
X168879700Y-177662000D02*
X173070700Y-177662000D01*
X173070700Y-172328000D02*
X168879700Y-172328000D01*
X173070700Y-172632293D02*
X173070700Y-172328000D01*
X173070700Y-173902293D02*
X173070700Y-173547707D01*
X173070700Y-175172293D02*
X173070700Y-174817707D01*
X173070700Y-176442293D02*
X173070700Y-176087707D01*
X173070700Y-177662000D02*
X173070700Y-177357707D01*
D16*
%TO.C,R1*%
X82140000Y-110430000D02*
X81780000Y-110430000D01*
X82140000Y-111870000D02*
X81780000Y-111870000D01*
%TO.C,D10*%
X116095000Y-97436500D02*
X117295000Y-97436500D01*
X116095000Y-98463500D02*
X117295000Y-98463500D01*
D12*
X115235000Y-97950000D02*
G75*
G02*
X115115000Y-97950000I-60000J0D01*
G01*
X115115000Y-97950000D02*
G75*
G02*
X115235000Y-97950000I60000J0D01*
G01*
D17*
%TO.C,C2*%
X213750000Y-190200000D02*
X213750000Y-193850000D01*
X213750000Y-190200000D02*
X214900000Y-190200000D01*
X213750000Y-193850000D02*
X214600000Y-194700000D01*
X214600000Y-194700000D02*
X214900000Y-194700000D01*
X217400000Y-194700000D02*
X217100000Y-194700000D01*
X218250000Y-190200000D02*
X217100000Y-190200000D01*
X218250000Y-190200000D02*
X218250000Y-193850000D01*
X218250000Y-193850000D02*
X217400000Y-194700000D01*
D12*
%TO.C,J_PV-1*%
X63800000Y-107850000D02*
G75*
G02*
X52800000Y-107850000I-5500000J0D01*
G01*
X52800000Y-107850000D02*
G75*
G02*
X63800000Y-107850000I5500000J0D01*
G01*
%TO.C,J_M3+1*%
X259500000Y-170350000D02*
G75*
G02*
X248500000Y-170350000I-5500000J0D01*
G01*
X248500000Y-170350000D02*
G75*
G02*
X259500000Y-170350000I5500000J0D01*
G01*
D17*
%TO.C,Cd3*%
X105500000Y-114350000D02*
X105500000Y-116650000D01*
D16*
%TO.C,D6*%
X163280000Y-97426500D02*
X164480000Y-97426500D01*
X163280000Y-98453500D02*
X164480000Y-98453500D01*
D12*
X162420000Y-97940000D02*
G75*
G02*
X162300000Y-97940000I-60000J0D01*
G01*
X162300000Y-97940000D02*
G75*
G02*
X162420000Y-97940000I60000J0D01*
G01*
D17*
%TO.C,Cpv1*%
X108470000Y-84790000D02*
X106170000Y-84790000D01*
D12*
%TO.C,D9*%
X111460000Y-103430000D02*
X113700000Y-103430000D01*
X111460000Y-103550000D02*
X113700000Y-103550000D01*
X111460000Y-103670000D02*
X113700000Y-103670000D01*
X112580000Y-99380000D02*
X112580000Y-100030000D01*
X112580000Y-104920000D02*
X112580000Y-104270000D01*
X111460000Y-104270000D02*
X113700000Y-104270000D01*
X113700000Y-100030000D01*
X111460000Y-100030000D01*
X111460000Y-104270000D01*
D17*
%TO.C,IC1*%
X75708000Y-124553500D02*
X75708000Y-117746500D01*
X81558000Y-117746500D02*
X75708000Y-117746500D01*
X81558000Y-124553500D02*
X75708000Y-124553500D01*
X81558000Y-124553500D02*
X81558000Y-117746500D01*
D16*
X81539172Y-115780000D02*
G75*
G02*
X81192828Y-115780000I-173172J0D01*
G01*
X81192828Y-115780000D02*
G75*
G02*
X81539172Y-115780000I173172J0D01*
G01*
D17*
%TO.C,L1*%
X127685000Y-68830000D02*
X130435000Y-68830000D01*
X127685000Y-69630000D02*
X127685000Y-68830000D01*
X127685000Y-78230000D02*
X127685000Y-79030000D01*
X127685000Y-79030000D02*
X130435000Y-79030000D01*
X130435000Y-59830000D02*
X134885000Y-59830000D01*
X130435000Y-68830000D02*
X130435000Y-59830000D01*
X130435000Y-79030000D02*
X130435000Y-88030000D01*
X130435000Y-88030000D02*
X134885000Y-88030000D01*
X134885000Y-59830000D02*
X134885000Y-60630000D01*
X134885000Y-60630000D02*
X145685000Y-60630000D01*
X134885000Y-87230000D02*
X145685000Y-87230000D01*
X134885000Y-88030000D02*
X134885000Y-87230000D01*
X145685000Y-59830000D02*
X150135000Y-59830000D01*
X145685000Y-60630000D02*
X145685000Y-59830000D01*
X145685000Y-87230000D02*
X145685000Y-88030000D01*
X145685000Y-88030000D02*
X150135000Y-88030000D01*
X150135000Y-59830000D02*
X150135000Y-68830000D01*
X150135000Y-68830000D02*
X152885000Y-68830000D01*
X150135000Y-79030000D02*
X152885000Y-79030000D01*
X150135000Y-88030000D02*
X150135000Y-79030000D01*
X152885000Y-68830000D02*
X152885000Y-69630000D01*
X152885000Y-79030000D02*
X152885000Y-78230000D01*
D18*
X128585000Y-80430000D02*
G75*
G02*
X127985000Y-80430000I-300000J0D01*
G01*
X127985000Y-80430000D02*
G75*
G02*
X128585000Y-80430000I300000J0D01*
G01*
D12*
%TO.C,J_VDD1-1*%
X66500000Y-47750000D02*
G75*
G02*
X55500000Y-47750000I-5500000J0D01*
G01*
X55500000Y-47750000D02*
G75*
G02*
X66500000Y-47750000I5500000J0D01*
G01*
D17*
%TO.C,Cpv3*%
X183200000Y-170219000D02*
X180900000Y-170219000D01*
%TO.C,D1*%
X123830000Y-95200000D02*
X128830000Y-95200000D01*
X128830000Y-92500000D02*
X123455000Y-92500000D01*
D16*
%TO.C,Rd7*%
X198230000Y-174760000D02*
X198230000Y-174560000D01*
X199670000Y-174760000D02*
X199670000Y-174560000D01*
D15*
%TO.C,L2*%
X196824600Y-186082700D02*
X196824600Y-198833500D01*
X196824600Y-198833500D02*
X200212960Y-198833500D01*
X200212960Y-186082700D02*
X196824600Y-186082700D01*
X206187040Y-198833500D02*
X209575400Y-198833500D01*
X209575400Y-186082700D02*
X206187040Y-186082700D01*
X209575400Y-198833500D02*
X209575400Y-186082700D01*
%TO.C,M2*%
X158429000Y-86854649D02*
X158429000Y-90804000D01*
X158429000Y-90804000D02*
X163267700Y-90804000D01*
X160854700Y-91286600D02*
X160854700Y-91743800D01*
X161845300Y-91286600D02*
X161845300Y-91743800D01*
X163267700Y-90804000D02*
X163267700Y-92582000D01*
X163267700Y-92582000D02*
X164512300Y-92582000D01*
X164512300Y-90804000D02*
X169351000Y-90804000D01*
X164512300Y-92582000D02*
X164512300Y-90804000D01*
X165934700Y-91286600D02*
X165934700Y-91743800D01*
X166925300Y-91286600D02*
X166925300Y-91743800D01*
X169351000Y-90804000D02*
X169351000Y-86854649D01*
D12*
%TO.C,J_M1+1*%
X107350000Y-47750000D02*
G75*
G02*
X96350000Y-47750000I-5500000J0D01*
G01*
X96350000Y-47750000D02*
G75*
G02*
X107350000Y-47750000I5500000J0D01*
G01*
%TO.C,D5*%
X159060000Y-103430000D02*
X161300000Y-103430000D01*
X159060000Y-103550000D02*
X161300000Y-103550000D01*
X159060000Y-103670000D02*
X161300000Y-103670000D01*
X160180000Y-99380000D02*
X160180000Y-100030000D01*
X160180000Y-104920000D02*
X160180000Y-104270000D01*
X159060000Y-104270000D02*
X161300000Y-104270000D01*
X161300000Y-100030000D01*
X159060000Y-100030000D01*
X159060000Y-104270000D01*
%TO.C,J_M2+1*%
X168820000Y-47750000D02*
G75*
G02*
X157820000Y-47750000I-5500000J0D01*
G01*
X157820000Y-47750000D02*
G75*
G02*
X168820000Y-47750000I5500000J0D01*
G01*
D17*
%TO.C,D2*%
X164430000Y-75700000D02*
X169805000Y-75700000D01*
X169430000Y-73000000D02*
X164430000Y-73000000D01*
D16*
%TO.C,Rd3*%
X163980000Y-105230000D02*
X163780000Y-105230000D01*
X163980000Y-106670000D02*
X163780000Y-106670000D01*
%TO.C,Rd1*%
X159760000Y-132708000D02*
X159760000Y-132348000D01*
X161200000Y-132708000D02*
X161200000Y-132348000D01*
%TO.C,U1*%
X73870000Y-222650000D02*
X73870000Y-145150000D01*
X75370000Y-143650000D02*
X142370000Y-143650000D01*
X75890000Y-174120000D02*
X75890000Y-222380000D01*
X75890000Y-222380000D02*
X80890000Y-222380000D01*
X80890000Y-174120000D02*
X75890000Y-174120000D01*
X80890000Y-222380000D02*
X80890000Y-174120000D01*
X83490000Y-184030000D02*
X83490000Y-204850000D01*
X83490000Y-204850000D02*
X85990000Y-204850000D01*
X83490000Y-206890000D02*
X83490000Y-222630000D01*
X83490000Y-222630000D02*
X85990000Y-222630000D01*
X84870000Y-224150000D02*
X75370000Y-224150000D01*
X85990000Y-184030000D02*
X83490000Y-184030000D01*
X85990000Y-204850000D02*
X85990000Y-184030000D01*
X85990000Y-206890000D02*
X83490000Y-206890000D01*
X85990000Y-222630000D02*
X85990000Y-206890000D01*
X86870000Y-226150000D02*
X84870000Y-224150000D01*
X119870000Y-226150000D02*
X86870000Y-226150000D01*
X121870000Y-224150000D02*
X119870000Y-226150000D01*
X131750000Y-174890000D02*
X131750000Y-200790000D01*
X131750000Y-200790000D02*
X134250000Y-200790000D01*
X131750000Y-201810000D02*
X131750000Y-222630000D01*
X131750000Y-222630000D02*
X134250000Y-222630000D01*
X134250000Y-174890000D02*
X131750000Y-174890000D01*
X134250000Y-200790000D02*
X134250000Y-174890000D01*
X134250000Y-201810000D02*
X131750000Y-201810000D01*
X134250000Y-222630000D02*
X134250000Y-201810000D01*
X136850000Y-174120000D02*
X136850000Y-222380000D01*
X136850000Y-222380000D02*
X141850000Y-222380000D01*
X141850000Y-174120000D02*
X136850000Y-174120000D01*
X141850000Y-222380000D02*
X141850000Y-174120000D01*
X142370000Y-224150000D02*
X121870000Y-224150000D01*
X143870000Y-145150000D02*
X143870000Y-222650000D01*
X73870000Y-145150000D02*
G75*
G02*
X75370000Y-143650000I1500001J-1D01*
G01*
X75370000Y-224150000D02*
G75*
G02*
X73870000Y-222650000I1J1500001D01*
G01*
X142370000Y-143650000D02*
G75*
G02*
X143870000Y-145150000I0J-1500000D01*
G01*
X143870000Y-222650000D02*
G75*
G02*
X142370000Y-224150000I-1500000J0D01*
G01*
D17*
X75470000Y-175390000D02*
G75*
G02*
X75270000Y-175390000I-100000J0D01*
G01*
X75270000Y-175390000D02*
G75*
G02*
X75470000Y-175390000I100000J0D01*
G01*
X83090000Y-185550000D02*
G75*
G02*
X82890000Y-185550000I-100000J0D01*
G01*
X82890000Y-185550000D02*
G75*
G02*
X83090000Y-185550000I100000J0D01*
G01*
X83090000Y-208410000D02*
G75*
G02*
X82890000Y-208410000I-100000J0D01*
G01*
X82890000Y-208410000D02*
G75*
G02*
X83090000Y-208410000I100000J0D01*
G01*
X134850000Y-199270000D02*
G75*
G02*
X134650000Y-199270000I-100000J0D01*
G01*
X134650000Y-199270000D02*
G75*
G02*
X134850000Y-199270000I100000J0D01*
G01*
X134850000Y-221110000D02*
G75*
G02*
X134650000Y-221110000I-100000J0D01*
G01*
X134650000Y-221110000D02*
G75*
G02*
X134850000Y-221110000I100000J0D01*
G01*
X136430000Y-175390000D02*
G75*
G02*
X136230000Y-175390000I-100000J0D01*
G01*
X136230000Y-175390000D02*
G75*
G02*
X136430000Y-175390000I100000J0D01*
G01*
D16*
%TO.C,Rd6*%
X162497400Y-175102800D02*
X162497400Y-175442800D01*
X163857400Y-175102800D02*
X163857400Y-175442800D01*
D12*
%TO.C,J_VDD1+1*%
X80000000Y-47750000D02*
G75*
G02*
X69000000Y-47750000I-5500000J0D01*
G01*
X69000000Y-47750000D02*
G75*
G02*
X80000000Y-47750000I5500000J0D01*
G01*
D16*
%TO.C,D8*%
X206346500Y-174210000D02*
X206346500Y-175410000D01*
X207373500Y-174210000D02*
X207373500Y-175410000D01*
D12*
X206920000Y-173290000D02*
G75*
G02*
X206800000Y-173290000I-60000J0D01*
G01*
X206800000Y-173290000D02*
G75*
G02*
X206920000Y-173290000I60000J0D01*
G01*
D15*
%TO.C,U7*%
X113508000Y-121896500D02*
X113508000Y-126087500D01*
X113508000Y-126087500D02*
X113812293Y-126087500D01*
X113812293Y-121896500D02*
X113508000Y-121896500D01*
X114727707Y-126087500D02*
X115082293Y-126087500D01*
X115082293Y-121896500D02*
X114727707Y-121896500D01*
X115997707Y-126087500D02*
X116352293Y-126087500D01*
X116352293Y-121896500D02*
X115997707Y-121896500D01*
X117267707Y-126087500D02*
X117622293Y-126087500D01*
X117622293Y-121896500D02*
X117267707Y-121896500D01*
X118537707Y-126087500D02*
X118842000Y-126087500D01*
X118842000Y-121896500D02*
X118537707Y-121896500D01*
X118842000Y-126087500D02*
X118842000Y-121896500D01*
D17*
%TO.C,D4*%
X217750000Y-184100000D02*
X222750000Y-184100000D01*
X222750000Y-181400000D02*
X217375000Y-181400000D01*
D16*
%TO.C,Rd11*%
X116680000Y-104930000D02*
X116480000Y-104930000D01*
X116680000Y-106370000D02*
X116480000Y-106370000D01*
D12*
%TO.C,D7*%
X199980000Y-171160000D02*
X200630000Y-171160000D01*
X201230000Y-170040000D02*
X201230000Y-172280000D01*
X201350000Y-170040000D02*
X201350000Y-172280000D01*
X201470000Y-170040000D02*
X201470000Y-172280000D01*
X205520000Y-171160000D02*
X204870000Y-171160000D01*
X200630000Y-170040000D02*
X204870000Y-170040000D01*
X204870000Y-172280000D01*
X200630000Y-172280000D01*
X200630000Y-170040000D01*
D17*
%TO.C,Cd1*%
X153710000Y-113350000D02*
X153710000Y-115650000D01*
D15*
%TO.C,U8*%
X111078000Y-109567000D02*
X111078000Y-116933000D01*
X111078000Y-116933000D02*
X111392960Y-116933000D01*
X111400439Y-109567000D02*
X111078000Y-109567000D01*
X113557040Y-116933000D02*
X113940439Y-116933000D01*
X113940439Y-109567000D02*
X113549561Y-109567000D01*
X116089561Y-116933000D02*
X116480439Y-116933000D01*
X116480439Y-109567000D02*
X116089561Y-109567000D01*
X118629561Y-116933000D02*
X119020439Y-116933000D01*
X119020439Y-109567000D02*
X118629561Y-109567000D01*
X121169561Y-116933000D02*
X121492000Y-116933000D01*
X121492000Y-109567000D02*
X121169561Y-109567000D01*
X121492000Y-116933000D02*
X121492000Y-109567000D01*
D16*
%TO.C,Rd10*%
X115955000Y-131070000D02*
X116295000Y-131070000D01*
X115955000Y-132430000D02*
X116295000Y-132430000D01*
D12*
%TO.C,J_BAT-1*%
X259500000Y-85900000D02*
G75*
G02*
X248500000Y-85900000I-5500000J0D01*
G01*
X248500000Y-85900000D02*
G75*
G02*
X259500000Y-85900000I5500000J0D01*
G01*
D15*
%TO.C,M3*%
X212218000Y-174037700D02*
X212218000Y-175282300D01*
X212218000Y-175282300D02*
X213996000Y-175282300D01*
X213513400Y-171624700D02*
X213056200Y-171624700D01*
X213513400Y-172615300D02*
X213056200Y-172615300D01*
X213513400Y-176704700D02*
X213056200Y-176704700D01*
X213513400Y-177695300D02*
X213056200Y-177695300D01*
X213996000Y-169199000D02*
X213996000Y-174037700D01*
X213996000Y-174037700D02*
X212218000Y-174037700D01*
X213996000Y-175282300D02*
X213996000Y-180121000D01*
X213996000Y-180121000D02*
X217945351Y-180121000D01*
X217945351Y-169199000D02*
X213996000Y-169199000D01*
D12*
%TO.C,U2*%
X89378000Y-121890000D02*
X89473000Y-121890000D01*
X89378000Y-126010000D02*
X89378000Y-121890000D01*
X89473000Y-126010000D02*
X89378000Y-126010000D01*
X94403000Y-121890000D02*
X94498000Y-121890000D01*
X94498000Y-121890000D02*
X94498000Y-126010000D01*
X94498000Y-126010000D02*
X94403000Y-126010000D01*
X94738000Y-121590000D02*
X94408000Y-121350000D01*
X94738000Y-121110000D01*
X94738000Y-121590000D01*
G36*
X94738000Y-121590000D02*
G01*
X94408000Y-121350000D01*
X94738000Y-121110000D01*
X94738000Y-121590000D01*
G37*
D17*
%TO.C,D3*%
X174180000Y-75700000D02*
X179555000Y-75700000D01*
X179180000Y-73000000D02*
X174180000Y-73000000D01*
D12*
%TO.C,J_M2-1*%
X181620000Y-47750000D02*
G75*
G02*
X170620000Y-47750000I-5500000J0D01*
G01*
X170620000Y-47750000D02*
G75*
G02*
X181620000Y-47750000I5500000J0D01*
G01*
D17*
%TO.C,C1*%
X172880000Y-83200000D02*
X172880000Y-88150000D01*
X179480000Y-80150000D02*
X179480000Y-88150000D01*
D12*
%TO.C,J_Pump+1*%
X259500000Y-208300000D02*
G75*
G02*
X248500000Y-208300000I-5500000J0D01*
G01*
X248500000Y-208300000D02*
G75*
G02*
X259500000Y-208300000I5500000J0D01*
G01*
D16*
%TO.C,Rd2*%
X163720000Y-131070000D02*
X164060000Y-131070000D01*
X163720000Y-132430000D02*
X164060000Y-132430000D01*
%TO.C,Rd5*%
X157785200Y-174652800D02*
X158145200Y-174652800D01*
X157785200Y-176092800D02*
X158145200Y-176092800D01*
%TO.C,Rd12*%
X115300000Y-101770000D02*
X115300000Y-101530000D01*
X116700000Y-101770000D02*
X116700000Y-101530000D01*
%TO.C,Rd8*%
X202945000Y-173300000D02*
X203185000Y-173300000D01*
X202945000Y-174700000D02*
X203185000Y-174700000D01*
D12*
%TO.C,J_M1-1*%
X119900000Y-47750000D02*
G75*
G02*
X108900000Y-47750000I-5500000J0D01*
G01*
X108900000Y-47750000D02*
G75*
G02*
X119900000Y-47750000I5500000J0D01*
G01*
%TO.C,J_Pump-1*%
X259500000Y-195750000D02*
G75*
G02*
X248500000Y-195750000I-5500000J0D01*
G01*
X248500000Y-195750000D02*
G75*
G02*
X259500000Y-195750000I5500000J0D01*
G01*
D16*
%TO.C,R2*%
X78096000Y-110430000D02*
X77736000Y-110430000D01*
X78096000Y-111870000D02*
X77736000Y-111870000D01*
D15*
%TO.C,U3*%
X161223000Y-121896500D02*
X161223000Y-126087500D01*
X161223000Y-126087500D02*
X161527293Y-126087500D01*
X161527293Y-121896500D02*
X161223000Y-121896500D01*
X162442707Y-126087500D02*
X162797293Y-126087500D01*
X162797293Y-121896500D02*
X162442707Y-121896500D01*
X163712707Y-126087500D02*
X164067293Y-126087500D01*
X164067293Y-121896500D02*
X163712707Y-121896500D01*
X164982707Y-126087500D02*
X165337293Y-126087500D01*
X165337293Y-121896500D02*
X164982707Y-121896500D01*
X166252707Y-126087500D02*
X166557000Y-126087500D01*
X166557000Y-121896500D02*
X166252707Y-121896500D01*
X166557000Y-126087500D02*
X166557000Y-121896500D01*
D16*
%TO.C,Rd9*%
X111860000Y-132552000D02*
X111860000Y-132192000D01*
X113300000Y-132552000D02*
X113300000Y-132192000D01*
%TO.C,Rd4*%
X162300000Y-101685000D02*
X162300000Y-101445000D01*
X163700000Y-101685000D02*
X163700000Y-101445000D01*
D15*
%TO.C,U4*%
X158683000Y-109567000D02*
X158683000Y-116933000D01*
X158683000Y-116933000D02*
X158997960Y-116933000D01*
X159005439Y-109567000D02*
X158683000Y-109567000D01*
X161162040Y-116933000D02*
X161545439Y-116933000D01*
X161545439Y-109567000D02*
X161154561Y-109567000D01*
X163694561Y-116933000D02*
X164085439Y-116933000D01*
X164085439Y-109567000D02*
X163694561Y-109567000D01*
X166234561Y-116933000D02*
X166625439Y-116933000D01*
X166625439Y-109567000D02*
X166234561Y-109567000D01*
X168774561Y-116933000D02*
X169097000Y-116933000D01*
X169097000Y-109567000D02*
X168774561Y-109567000D01*
X169097000Y-116933000D02*
X169097000Y-109567000D01*
%TO.C,M1*%
X111219000Y-86854649D02*
X111219000Y-90804000D01*
X111219000Y-90804000D02*
X116057700Y-90804000D01*
X113644700Y-91286600D02*
X113644700Y-91743800D01*
X114635300Y-91286600D02*
X114635300Y-91743800D01*
X116057700Y-90804000D02*
X116057700Y-92582000D01*
X116057700Y-92582000D02*
X117302300Y-92582000D01*
X117302300Y-90804000D02*
X122141000Y-90804000D01*
X117302300Y-92582000D02*
X117302300Y-90804000D01*
X118724700Y-91286600D02*
X118724700Y-91743800D01*
X119715300Y-91286600D02*
X119715300Y-91743800D01*
X122141000Y-90804000D02*
X122141000Y-86854649D01*
D12*
%TO.C,J_M3-1*%
X259500000Y-182900000D02*
G75*
G02*
X248500000Y-182900000I-5500000J0D01*
G01*
X248500000Y-182900000D02*
G75*
G02*
X259500000Y-182900000I5500000J0D01*
G01*
D17*
%TO.C,Cpv2*%
X104300000Y-84790000D02*
X102000000Y-84790000D01*
D15*
%TO.C,U6*%
X187317000Y-169483000D02*
X187317000Y-169797960D01*
X187317000Y-171962040D02*
X187317000Y-172345439D01*
X187317000Y-174494561D02*
X187317000Y-174885439D01*
X187317000Y-177034561D02*
X187317000Y-177425439D01*
X187317000Y-179574561D02*
X187317000Y-179897000D01*
X187317000Y-179897000D02*
X194683000Y-179897000D01*
X194683000Y-169483000D02*
X187317000Y-169483000D01*
X194683000Y-169805439D02*
X194683000Y-169483000D01*
X194683000Y-172345439D02*
X194683000Y-171954561D01*
X194683000Y-174885439D02*
X194683000Y-174494561D01*
X194683000Y-177425439D02*
X194683000Y-177034561D01*
X194683000Y-179897000D02*
X194683000Y-179574561D01*
%TD*%
M02*
