%TF.GenerationSoftware,KiCad,Pcbnew,9.0.7*%
%TF.CreationDate,2026-03-19T00:19:46+11:00*%
%TF.ProjectId,SolarSystem,536f6c61-7253-4797-9374-656d2e6b6963,0*%
%TF.SameCoordinates,Original*%
%TF.FileFunction,Copper,L3,Inr*%
%TF.FilePolarity,Positive*%
%FSLAX46Y46*%
G04 Gerber Fmt 4.6, Leading zero omitted, Abs format (unit mm)*
G04 Created by KiCad (PCBNEW 9.0.7) date 2026-03-19 00:19:46*
%MOMM*%
%LPD*%
G01*
G04 APERTURE LIST*
G04 Aperture macros list*
%AMRoundRect*
0 Rectangle with rounded corners*
0 $1 Rounding radius*
0 $2 $3 $4 $5 $6 $7 $8 $9 X,Y pos of 4 corners*
0 Add a 4 corners polygon primitive as box body*
4,1,4,$2,$3,$4,$5,$6,$7,$8,$9,$2,$3,0*
0 Add four circle primitives for the rounded corners*
1,1,$1+$1,$2,$3*
1,1,$1+$1,$4,$5*
1,1,$1+$1,$6,$7*
1,1,$1+$1,$8,$9*
0 Add four rect primitives between the rounded corners*
20,1,$1+$1,$2,$3,$4,$5,0*
20,1,$1+$1,$4,$5,$6,$7,0*
20,1,$1+$1,$6,$7,$8,$9,0*
20,1,$1+$1,$8,$9,$2,$3,0*%
G04 Aperture macros list end*
%TA.AperFunction,ComponentPad*%
%ADD10C,10.160000*%
%TD*%
%TA.AperFunction,ComponentPad*%
%ADD11RoundRect,0.250000X0.550000X-0.550000X0.550000X0.550000X-0.550000X0.550000X-0.550000X-0.550000X0*%
%TD*%
%TA.AperFunction,ComponentPad*%
%ADD12C,1.600000*%
%TD*%
%TA.AperFunction,ComponentPad*%
%ADD13R,1.605000X1.605000*%
%TD*%
%TA.AperFunction,ComponentPad*%
%ADD14C,1.605000*%
%TD*%
%TA.AperFunction,ComponentPad*%
%ADD15R,1.530000X1.530000*%
%TD*%
%TA.AperFunction,ComponentPad*%
%ADD16C,1.530000*%
%TD*%
%TA.AperFunction,ComponentPad*%
%ADD17RoundRect,0.250000X-0.550000X-0.550000X0.550000X-0.550000X0.550000X0.550000X-0.550000X0.550000X0*%
%TD*%
%TA.AperFunction,ComponentPad*%
%ADD18R,1.498600X1.498600*%
%TD*%
%TA.AperFunction,ComponentPad*%
%ADD19C,1.498600*%
%TD*%
%TA.AperFunction,ViaPad*%
%ADD20C,0.700000*%
%TD*%
%TA.AperFunction,ViaPad*%
%ADD21C,0.600000*%
%TD*%
%TA.AperFunction,Conductor*%
%ADD22C,1.367000*%
%TD*%
%TA.AperFunction,Conductor*%
%ADD23C,0.200000*%
%TD*%
G04 APERTURE END LIST*
D10*
%TO.N,PV+*%
%TO.C,J_PV+1*%
X58300000Y-95300000D03*
%TD*%
%TO.N,BAT+*%
%TO.C,J_BAT+1*%
X254000000Y-98450000D03*
%TD*%
%TO.N,PGND*%
%TO.C,J_PV-1*%
X58300000Y-107850000D03*
%TD*%
%TO.N,/V_M3+*%
%TO.C,J_M3+1*%
X254000000Y-170350000D03*
%TD*%
D11*
%TO.N,/GateDriver_M1/SU1+*%
%TO.C,D9*%
X112580000Y-105960000D03*
D12*
%TO.N,/M1_Gate*%
X112580000Y-98340000D03*
%TD*%
D10*
%TO.N,PGND*%
%TO.C,J_VDD1-1*%
X61000000Y-47750000D03*
%TD*%
%TO.N,/V_M1+*%
%TO.C,J_M1+1*%
X101850000Y-47750000D03*
%TD*%
D11*
%TO.N,/GateDriver_M2/SU2+*%
%TO.C,D5*%
X160180000Y-105960000D03*
D12*
%TO.N,/M2_Gate*%
X160180000Y-98340000D03*
%TD*%
D10*
%TO.N,/V_M2+*%
%TO.C,J_M2+1*%
X163320000Y-47750000D03*
%TD*%
D13*
%TO.N,unconnected-(U1F-D8-PadCN5_1)*%
%TO.C,U1*%
X133000000Y-199270000D03*
D14*
%TO.N,unconnected-(U1F-D9-PadCN5_2)*%
X133000000Y-196730000D03*
%TO.N,unconnected-(U1F-D10-PadCN5_3)*%
X133000000Y-194190000D03*
%TO.N,unconnected-(U1F-D11-PadCN5_4)*%
X133000000Y-191650000D03*
%TO.N,unconnected-(U1F-D12-PadCN5_5)*%
X133000000Y-189110000D03*
%TO.N,unconnected-(U1F-D13-PadCN5_6)*%
X133000000Y-186570000D03*
%TO.N,unconnected-(U1F-CN5_GND-PadCN5_7)*%
X133000000Y-184030000D03*
%TO.N,unconnected-(U1F-AREF-PadCN5_8)*%
X133000000Y-181490000D03*
%TO.N,unconnected-(U1F-D14-PadCN5_9)*%
X133000000Y-178950000D03*
%TO.N,unconnected-(U1F-D15-PadCN5_10)*%
X133000000Y-176410000D03*
D13*
%TO.N,N/C*%
X84740000Y-185550000D03*
D14*
%TO.N,unconnected-(U1C-CN6_IOREF-PadCN6_2)*%
X84740000Y-188090000D03*
%TO.N,unconnected-(U1C-CN6_RESET-PadCN6_3)*%
X84740000Y-190630000D03*
%TO.N,/VCC*%
X84740000Y-193170000D03*
%TO.N,unconnected-(U1C-CN6_+5V-PadCN6_5)*%
X84740000Y-195710000D03*
%TO.N,AGND*%
X84740000Y-198250000D03*
X84740000Y-200790000D03*
%TO.N,unconnected-(U1C-CN6_VIN-PadCN6_8)*%
X84740000Y-203330000D03*
D15*
%TO.N,unconnected-(U1A-PC10-PadCN7_1)*%
X77120000Y-175390000D03*
D16*
%TO.N,unconnected-(U1A-PC11-PadCN7_2)*%
X79660000Y-175390000D03*
%TO.N,unconnected-(U1A-PC12-PadCN7_3)*%
X77120000Y-177930000D03*
%TO.N,unconnected-(U1A-PD2-PadCN7_4)*%
X79660000Y-177930000D03*
%TO.N,unconnected-(U1A-VDD-PadCN7_5)*%
X77120000Y-180470000D03*
%TO.N,unconnected-(U1A-E5V-PadCN7_6)*%
X79660000Y-180470000D03*
%TO.N,unconnected-(U1A-BOOT0-PadCN7_7)*%
X77120000Y-183010000D03*
%TO.N,CN7_GND_1*%
X79660000Y-183010000D03*
%TO.N,N/C*%
X77120000Y-185550000D03*
X79660000Y-185550000D03*
X77120000Y-188090000D03*
%TO.N,unconnected-(U1A-CN7_IOREF-PadCN7_12)*%
X79660000Y-188090000D03*
%TO.N,unconnected-(U1A-PA13-PadCN7_13)*%
X77120000Y-190630000D03*
%TO.N,unconnected-(U1A-CN7_RESET-PadCN7_14)*%
X79660000Y-190630000D03*
%TO.N,unconnected-(U1A-PA14-PadCN7_15)*%
X77120000Y-193170000D03*
%TO.N,unconnected-(U1A-CN7_+3V3-PadCN7_16)*%
X79660000Y-193170000D03*
%TO.N,unconnected-(U1A-PA15-PadCN7_17)*%
X77120000Y-195710000D03*
%TO.N,unconnected-(U1A-CN7_+5V-PadCN7_18)*%
X79660000Y-195710000D03*
%TO.N,CN7_GND*%
X77120000Y-198250000D03*
%TO.N,CN7_GND_2*%
X79660000Y-198250000D03*
%TO.N,unconnected-(U1A-PB7-PadCN7_21)*%
X77120000Y-200790000D03*
%TO.N,CN7_GND_3*%
X79660000Y-200790000D03*
%TO.N,unconnected-(U1A-PC13-PadCN7_23)*%
X77120000Y-203330000D03*
%TO.N,unconnected-(U1A-CN7_VIN-PadCN7_24)*%
X79660000Y-203330000D03*
%TO.N,unconnected-(U1A-PC14-PadCN7_25)*%
X77120000Y-205870000D03*
%TO.N,N/C*%
X79660000Y-205870000D03*
%TO.N,unconnected-(U1A-PC15-PadCN7_27)*%
X77120000Y-208410000D03*
%TO.N,unconnected-(U1A-PA0-PadCN7_28)*%
X79660000Y-208410000D03*
%TO.N,unconnected-(U1A-PH0-PadCN7_29)*%
X77120000Y-210950000D03*
%TO.N,unconnected-(U1A-PA1-PadCN7_30)*%
X79660000Y-210950000D03*
%TO.N,unconnected-(U1A-PH1-PadCN7_31)*%
X77120000Y-213490000D03*
%TO.N,unconnected-(U1A-PA4-PadCN7_32)*%
X79660000Y-213490000D03*
%TO.N,unconnected-(U1A-VBAT-PadCN7_33)*%
X77120000Y-216030000D03*
%TO.N,unconnected-(U1A-PB0-PadCN7_34)*%
X79660000Y-216030000D03*
%TO.N,unconnected-(U1A-PC2-PadCN7_35)*%
X77120000Y-218570000D03*
%TO.N,unconnected-(U1A-PC1{slash}PB9-PadCN7_36)*%
X79660000Y-218570000D03*
%TO.N,unconnected-(U1A-PC3-PadCN7_37)*%
X77120000Y-221110000D03*
%TO.N,unconnected-(U1A-PC0{slash}PB8-PadCN7_38)*%
X79660000Y-221110000D03*
D13*
%TO.N,/PV_Voltage_Out+*%
X84740000Y-208410000D03*
D14*
%TO.N,/PV_Voltage_Out-*%
X84740000Y-210950000D03*
%TO.N,/PV_Current*%
X84740000Y-213490000D03*
%TO.N,unconnected-(U1E-A3-PadCN8_4)*%
X84740000Y-216030000D03*
%TO.N,unconnected-(U1E-A4-PadCN8_5)*%
X84740000Y-218570000D03*
%TO.N,unconnected-(U1E-A5-PadCN8_6)*%
X84740000Y-221110000D03*
D13*
%TO.N,unconnected-(U1D-D0-PadCN9_1)*%
X133000000Y-221110000D03*
D14*
%TO.N,unconnected-(U1D-D1-PadCN9_2)*%
X133000000Y-218570000D03*
%TO.N,unconnected-(U1D-D2-PadCN9_3)*%
X133000000Y-216030000D03*
%TO.N,unconnected-(U1D-D3-PadCN9_4)*%
X133000000Y-213490000D03*
%TO.N,unconnected-(U1D-D4-PadCN9_5)*%
X133000000Y-210950000D03*
%TO.N,unconnected-(U1D-D5-PadCN9_6)*%
X133000000Y-208410000D03*
%TO.N,unconnected-(U1D-D6-PadCN9_7)*%
X133000000Y-205870000D03*
%TO.N,unconnected-(U1D-D7-PadCN9_8)*%
X133000000Y-203330000D03*
D15*
%TO.N,unconnected-(U1B-PC9-PadCN10_1)*%
X138080000Y-175390000D03*
D16*
%TO.N,unconnected-(U1B-PC8-PadCN10_2)*%
X140620000Y-175390000D03*
%TO.N,unconnected-(U1B-PB8-PadCN10_3)*%
X138080000Y-177930000D03*
%TO.N,unconnected-(U1B-PC6-PadCN10_4)*%
X140620000Y-177930000D03*
%TO.N,unconnected-(U1B-PB9-PadCN10_5)*%
X138080000Y-180470000D03*
%TO.N,unconnected-(U1B-PC5-PadCN10_6)*%
X140620000Y-180470000D03*
%TO.N,unconnected-(U1B-AVDD-PadCN10_7)*%
X138080000Y-183010000D03*
%TO.N,unconnected-(U1B-U5V-PadCN10_8)*%
X140620000Y-183010000D03*
%TO.N,CN10_GND_1*%
X138080000Y-185550000D03*
%TO.N,N/C*%
X140620000Y-185550000D03*
%TO.N,unconnected-(U1B-PA5-PadCN10_11)*%
X138080000Y-188090000D03*
%TO.N,unconnected-(U1B-PA12-PadCN10_12)*%
X140620000Y-188090000D03*
%TO.N,unconnected-(U1B-PA6-PadCN10_13)*%
X138080000Y-190630000D03*
%TO.N,unconnected-(U1B-PA11-PadCN10_14)*%
X140620000Y-190630000D03*
%TO.N,unconnected-(U1B-PA7-PadCN10_15)*%
X138080000Y-193170000D03*
%TO.N,unconnected-(U1B-PB12-PadCN10_16)*%
X140620000Y-193170000D03*
%TO.N,unconnected-(U1B-PB6-PadCN10_17)*%
X138080000Y-195710000D03*
%TO.N,N/C*%
X140620000Y-195710000D03*
%TO.N,unconnected-(U1B-PC7-PadCN10_19)*%
X138080000Y-198250000D03*
%TO.N,CN10_GND*%
X140620000Y-198250000D03*
%TO.N,/M2_Sig*%
X138080000Y-200790000D03*
%TO.N,unconnected-(U1B-PB2-PadCN10_22)*%
X140620000Y-200790000D03*
%TO.N,/M1_Sig*%
X138080000Y-203330000D03*
%TO.N,unconnected-(U1B-PB1-PadCN10_24)*%
X140620000Y-203330000D03*
%TO.N,unconnected-(U1B-PB10-PadCN10_25)*%
X138080000Y-205870000D03*
%TO.N,unconnected-(U1B-PB15-PadCN10_26)*%
X140620000Y-205870000D03*
%TO.N,unconnected-(U1B-PB4-PadCN10_27)*%
X138080000Y-208410000D03*
%TO.N,unconnected-(U1B-PB14-PadCN10_28)*%
X140620000Y-208410000D03*
%TO.N,unconnected-(U1B-PB5-PadCN10_29)*%
X138080000Y-210950000D03*
%TO.N,unconnected-(U1B-PB13-PadCN10_30)*%
X140620000Y-210950000D03*
%TO.N,unconnected-(U1B-PB3-PadCN10_31)*%
X138080000Y-213490000D03*
%TO.N,unconnected-(U1B-AGND-PadCN10_32)*%
X140620000Y-213490000D03*
%TO.N,/M3_Sig*%
X138080000Y-216030000D03*
%TO.N,unconnected-(U1B-PC4-PadCN10_34)*%
X140620000Y-216030000D03*
%TO.N,unconnected-(U1B-PA2-PadCN10_35)*%
X138080000Y-218570000D03*
%TO.N,N/C*%
X140620000Y-218570000D03*
%TO.N,unconnected-(U1B-PA3-PadCN10_37)*%
X138080000Y-221110000D03*
%TO.N,N/C*%
X140620000Y-221110000D03*
%TD*%
D10*
%TO.N,/VDD1*%
%TO.C,J_VDD1+1*%
X74500000Y-47750000D03*
%TD*%
D17*
%TO.N,/GateDriver_M3/SU3+*%
%TO.C,D7*%
X198940000Y-171160000D03*
D12*
%TO.N,/M3_Gate*%
X206560000Y-171160000D03*
%TD*%
D18*
%TO.N,/V_M1+*%
%TO.C,U8*%
X112475000Y-117060000D03*
D19*
%TO.N,Net-(U7-VO)*%
X115015000Y-117060000D03*
%TO.N,unconnected-(U8-NC-Pad3)*%
X117555000Y-117060000D03*
%TO.N,/M1_Source*%
X120095000Y-117060000D03*
X120095000Y-109440000D03*
%TO.N,/GateDriver_M1/SU1+*%
X117555000Y-109440000D03*
X115015000Y-109440000D03*
%TO.N,/V_M1+*%
X112475000Y-109440000D03*
%TD*%
D10*
%TO.N,PGND*%
%TO.C,J_BAT-1*%
X254000000Y-85900000D03*
%TD*%
%TO.N,PGND*%
%TO.C,J_M2-1*%
X176120000Y-47750000D03*
%TD*%
%TO.N,/Pump_Voltage*%
%TO.C,J_Pump+1*%
X254000000Y-208300000D03*
%TD*%
%TO.N,/M1_Source*%
%TO.C,J_M1-1*%
X114400000Y-47750000D03*
%TD*%
%TO.N,PGND*%
%TO.C,J_Pump-1*%
X254000000Y-195750000D03*
%TD*%
D18*
%TO.N,/V_M2+*%
%TO.C,U4*%
X160080000Y-117060000D03*
D19*
%TO.N,Net-(U3-VO)*%
X162620000Y-117060000D03*
%TO.N,unconnected-(U4-NC-Pad3)*%
X165160000Y-117060000D03*
%TO.N,PGND*%
X167700000Y-117060000D03*
X167700000Y-109440000D03*
%TO.N,/GateDriver_M2/SU2+*%
X165160000Y-109440000D03*
X162620000Y-109440000D03*
%TO.N,/V_M2+*%
X160080000Y-109440000D03*
%TD*%
D10*
%TO.N,/M3_Source*%
%TO.C,J_M3-1*%
X254000000Y-182900000D03*
%TD*%
D18*
%TO.N,/V_M3+*%
%TO.C,U6*%
X187190000Y-170880000D03*
D19*
%TO.N,Net-(U5-VO)*%
X187190000Y-173420000D03*
%TO.N,unconnected-(U6-NC-Pad3)*%
X187190000Y-175960000D03*
%TO.N,/M3_Source*%
X187190000Y-178500000D03*
X194810000Y-178500000D03*
%TO.N,/GateDriver_M3/SU3+*%
X194810000Y-175960000D03*
X194810000Y-173420000D03*
%TO.N,/V_M3+*%
X194810000Y-170880000D03*
%TD*%
D20*
%TO.N,/PV_IN*%
X96000000Y-80250000D03*
X89000000Y-117000000D03*
D21*
%TO.N,/VCC*%
X79500000Y-131500000D03*
X95750000Y-128000000D03*
%TO.N,/V_M3+*%
X187750000Y-165250000D03*
X245000000Y-165250000D03*
%TO.N,/M3_Source*%
X192000000Y-168500000D03*
X186250000Y-182000000D03*
X243500000Y-183000000D03*
X182750000Y-173250000D03*
X192000000Y-180750000D03*
X182750000Y-177250000D03*
D20*
%TO.N,/V_M2+*%
X151750000Y-111250000D03*
X162500000Y-59500000D03*
%TO.N,/M1_Source*%
X126000000Y-80750000D03*
X121250000Y-93500000D03*
X125250000Y-80000000D03*
X122000000Y-94250000D03*
D21*
X108500000Y-115000000D03*
X108500000Y-112500000D03*
D20*
X122000000Y-93500000D03*
X126000000Y-80000000D03*
D21*
X120500000Y-58000000D03*
D20*
X125250000Y-80750000D03*
X121250000Y-94250000D03*
D21*
X125250000Y-110000000D03*
X123000000Y-112500000D03*
X123000000Y-115000000D03*
%TO.N,/PV_Current*%
X93100000Y-128200000D03*
%TO.N,/VDD1*%
X74710000Y-60000000D03*
X82500000Y-113500000D03*
%TO.N,/PV_Voltage_Out-*%
X78000000Y-128500000D03*
%TO.N,/PV_Voltage_Out+*%
X79250000Y-128500000D03*
%TO.N,/M2_Sig*%
X160500000Y-135250000D03*
%TO.N,/M3_Sig*%
X157000000Y-177750000D03*
%TO.N,/M1_Sig*%
X112750000Y-134750000D03*
%TD*%
D22*
%TO.N,/PV_IN*%
X89000000Y-117000000D02*
X96000000Y-110000000D01*
X96000000Y-110000000D02*
X96000000Y-80250000D01*
D23*
%TO.N,/VCC*%
X82889000Y-134889000D02*
X82889000Y-191319000D01*
X82889000Y-191319000D02*
X84740000Y-193170000D01*
X95750000Y-184000000D02*
X95750000Y-128000000D01*
X86580000Y-193170000D02*
X95750000Y-184000000D01*
X84740000Y-193170000D02*
X86580000Y-193170000D01*
X79500000Y-131500000D02*
X82889000Y-134889000D01*
%TO.N,/V_M3+*%
X245000000Y-165250000D02*
X187750000Y-165250000D01*
%TO.N,/M3_Source*%
X243500000Y-183000000D02*
X187250000Y-183000000D01*
X192000000Y-168500000D02*
X192000000Y-180750000D01*
X182750000Y-173250000D02*
X182750000Y-177250000D01*
X187250000Y-183000000D02*
X186250000Y-182000000D01*
%TO.N,/V_M2+*%
X151750000Y-111250000D02*
X151500000Y-111000000D01*
X151500000Y-111000000D02*
X151500000Y-70500000D01*
X151500000Y-70500000D02*
X162500000Y-59500000D01*
%TO.N,/V_M1+*%
X112475000Y-117060000D02*
X112440000Y-117060000D01*
%TO.N,/M1_Source*%
X120500000Y-58500000D02*
X120500000Y-58000000D01*
D22*
X125250000Y-80750000D02*
X126000000Y-80750000D01*
X121250000Y-94250000D02*
X121250000Y-93500000D01*
X122000000Y-93500000D02*
X121250000Y-94250000D01*
D23*
X133000000Y-71000000D02*
X120500000Y-58500000D01*
X120000000Y-115000000D02*
X123000000Y-115000000D01*
X133000000Y-102250000D02*
X133000000Y-71000000D01*
X108500000Y-112500000D02*
X120250000Y-112500000D01*
D22*
X125250000Y-80750000D02*
X125250000Y-90500000D01*
X125250000Y-80000000D02*
X126000000Y-80000000D01*
D23*
X120095000Y-112345000D02*
X120250000Y-112500000D01*
X108500000Y-115000000D02*
X120000000Y-115000000D01*
X120095000Y-117060000D02*
X120095000Y-115095000D01*
D22*
X121250000Y-93500000D02*
X122000000Y-93500000D01*
D23*
X120095000Y-109440000D02*
X120095000Y-112345000D01*
D22*
X125250000Y-90500000D02*
X122250000Y-93500000D01*
D23*
X120250000Y-112500000D02*
X123000000Y-112500000D01*
X120095000Y-115095000D02*
X120000000Y-115000000D01*
D22*
X122000000Y-94250000D02*
X121250000Y-93500000D01*
D23*
X125250000Y-110000000D02*
X133000000Y-102250000D01*
D22*
X122000000Y-93500000D02*
X122250000Y-93500000D01*
X122000000Y-94250000D02*
X122000000Y-93500000D01*
X126000000Y-80000000D02*
X126000000Y-80750000D01*
D23*
%TO.N,/VDD1*%
X82500000Y-113500000D02*
X82500000Y-67790000D01*
X82500000Y-67790000D02*
X74710000Y-60000000D01*
%TD*%
M02*
