M48
; DRILL file {KiCad 9.0.7} date 2026-03-19T00:20:20+1100
; FORMAT={-:-/ absolute / metric / decimal}
; #@! TF.CreationDate,2026-03-19T00:20:20+11:00
; #@! TF.GenerationSoftware,Kicad,Pcbnew,9.0.7
; #@! TF.FileFunction,Plated,1,4,PTH
FMAT,2
METRIC
; #@! TA.AperFunction,Plated,PTH,ViaDrill
T1C0.300
; #@! TA.AperFunction,Plated,PTH,ComponentDrill
T2C0.800
; #@! TA.AperFunction,Plated,PTH,ComponentDrill
T3C0.991
; #@! TA.AperFunction,Plated,PTH,ComponentDrill
T4C1.020
; #@! TA.AperFunction,Plated,PTH,ComponentDrill
T5C1.070
; #@! TA.AperFunction,Plated,PTH,ComponentDrill
T6C6.100
%
G90
G05
T1
X78.0Y-128.5
X79.25Y-128.5
X79.5Y-131.5
X93.1Y-128.2
X112.75Y-134.75
X157.0Y-177.75
X160.5Y-135.25
T2
X112.58Y-98.34
X112.58Y-105.96
X160.18Y-98.34
X160.18Y-105.96
X198.94Y-171.16
X206.56Y-171.16
T3
X112.475Y-109.44
X112.475Y-117.06
X115.015Y-109.44
X115.015Y-117.06
X117.555Y-109.44
X117.555Y-117.06
X120.095Y-109.44
X120.095Y-117.06
X160.08Y-109.44
X160.08Y-117.06
X162.62Y-109.44
X162.62Y-117.06
X165.16Y-109.44
X165.16Y-117.06
X167.7Y-109.44
X167.7Y-117.06
X187.19Y-170.88
X187.19Y-173.42
X187.19Y-175.96
X187.19Y-178.5
X194.81Y-170.88
X194.81Y-173.42
X194.81Y-175.96
X194.81Y-178.5
T4
X77.12Y-175.39
X77.12Y-177.93
X77.12Y-180.47
X77.12Y-183.01
X77.12Y-185.55
X77.12Y-188.09
X77.12Y-190.63
X77.12Y-193.17
X77.12Y-195.71
X77.12Y-198.25
X77.12Y-200.79
X77.12Y-203.33
X77.12Y-205.87
X77.12Y-208.41
X77.12Y-210.95
X77.12Y-213.49
X77.12Y-216.03
X77.12Y-218.57
X77.12Y-221.11
X79.66Y-175.39
X79.66Y-177.93
X79.66Y-180.47
X79.66Y-183.01
X79.66Y-185.55
X79.66Y-188.09
X79.66Y-190.63
X79.66Y-193.17
X79.66Y-195.71
X79.66Y-198.25
X79.66Y-200.79
X79.66Y-203.33
X79.66Y-205.87
X79.66Y-208.41
X79.66Y-210.95
X79.66Y-213.49
X79.66Y-216.03
X79.66Y-218.57
X79.66Y-221.11
X138.08Y-175.39
X138.08Y-177.93
X138.08Y-180.47
X138.08Y-183.01
X138.08Y-185.55
X138.08Y-188.09
X138.08Y-190.63
X138.08Y-193.17
X138.08Y-195.71
X138.08Y-198.25
X138.08Y-200.79
X138.08Y-203.33
X138.08Y-205.87
X138.08Y-208.41
X138.08Y-210.95
X138.08Y-213.49
X138.08Y-216.03
X138.08Y-218.57
X138.08Y-221.11
X140.62Y-175.39
X140.62Y-177.93
X140.62Y-180.47
X140.62Y-183.01
X140.62Y-185.55
X140.62Y-188.09
X140.62Y-190.63
X140.62Y-193.17
X140.62Y-195.71
X140.62Y-198.25
X140.62Y-200.79
X140.62Y-203.33
X140.62Y-205.87
X140.62Y-208.41
X140.62Y-210.95
X140.62Y-213.49
X140.62Y-216.03
X140.62Y-218.57
X140.62Y-221.11
T5
X84.74Y-185.55
X84.74Y-188.09
X84.74Y-190.63
X84.74Y-193.17
X84.74Y-195.71
X84.74Y-198.25
X84.74Y-200.79
X84.74Y-203.33
X84.74Y-208.41
X84.74Y-210.95
X84.74Y-213.49
X84.74Y-216.03
X84.74Y-218.57
X84.74Y-221.11
X133.0Y-176.41
X133.0Y-178.95
X133.0Y-181.49
X133.0Y-184.03
X133.0Y-186.57
X133.0Y-189.11
X133.0Y-191.65
X133.0Y-194.19
X133.0Y-196.73
X133.0Y-199.27
X133.0Y-203.33
X133.0Y-205.87
X133.0Y-208.41
X133.0Y-210.95
X133.0Y-213.49
X133.0Y-216.03
X133.0Y-218.57
X133.0Y-221.11
T6
X58.3Y-95.3
X58.3Y-107.85
X61.0Y-47.75
X74.5Y-47.75
X101.85Y-47.75
X114.4Y-47.75
X163.32Y-47.75
X176.12Y-47.75
X254.0Y-85.9
X254.0Y-98.45
X254.0Y-170.35
X254.0Y-182.9
X254.0Y-195.75
X254.0Y-208.3
M30
