M48
; DRILL file {KiCad 9.0.7} date 2026-03-19T00:20:20+1100
; FORMAT={-:-/ absolute / metric / decimal}
; #@! TF.CreationDate,2026-03-19T00:20:20+11:00
; #@! TF.GenerationSoftware,Kicad,Pcbnew,9.0.7
; #@! TF.FileFunction,Plated,1,3,Blind
FMAT,2
METRIC
; #@! TA.AperFunction,Plated,Buried,ViaDrill
T1C0.300
; #@! TA.AperFunction,Plated,Buried,ViaDrill
T2C0.400
%
G90
G05
T1
X74.71Y-60.0
X82.5Y-113.5
X95.75Y-128.0
X108.5Y-112.5
X108.5Y-115.0
X120.5Y-58.0
X123.0Y-112.5
X123.0Y-115.0
X125.25Y-110.0
X182.75Y-173.25
X182.75Y-177.25
X186.25Y-182.0
X187.75Y-165.25
X192.0Y-168.5
X192.0Y-180.75
X243.5Y-183.0
X245.0Y-165.25
T2
X89.0Y-117.0
X96.0Y-80.25
X121.25Y-93.5
X121.25Y-94.25
X122.0Y-93.5
X122.0Y-94.25
X125.25Y-80.0
X125.25Y-80.75
X126.0Y-80.0
X126.0Y-80.75
X151.75Y-111.25
X162.5Y-59.5
M30
