%TF.GenerationSoftware,KiCad,Pcbnew,9.0.7*%
%TF.CreationDate,2026-03-19T00:19:46+11:00*%
%TF.ProjectId,SolarSystem,536f6c61-7253-4797-9374-656d2e6b6963,0*%
%TF.SameCoordinates,Original*%
%TF.FileFunction,Soldermask,Top*%
%TF.FilePolarity,Negative*%
%FSLAX46Y46*%
G04 Gerber Fmt 4.6, Leading zero omitted, Abs format (unit mm)*
G04 Created by KiCad (PCBNEW 9.0.7) date 2026-03-19 00:19:46*
%MOMM*%
%LPD*%
G01*
G04 APERTURE LIST*
G04 Aperture macros list*
%AMRoundRect*
0 Rectangle with rounded corners*
0 $1 Rounding radius*
0 $2 $3 $4 $5 $6 $7 $8 $9 X,Y pos of 4 corners*
0 Add a 4 corners polygon primitive as box body*
4,1,4,$2,$3,$4,$5,$6,$7,$8,$9,$2,$3,0*
0 Add four circle primitives for the rounded corners*
1,1,$1+$1,$2,$3*
1,1,$1+$1,$4,$5*
1,1,$1+$1,$6,$7*
1,1,$1+$1,$8,$9*
0 Add four rect primitives between the rounded corners*
20,1,$1+$1,$2,$3,$4,$5,0*
20,1,$1+$1,$4,$5,$6,$7,0*
20,1,$1+$1,$6,$7,$8,$9,0*
20,1,$1+$1,$8,$9,$2,$3,0*%
G04 Aperture macros list end*
%ADD10C,10.160000*%
%ADD11R,1.016000X0.457200*%
%ADD12RoundRect,0.102000X0.480000X0.735000X-0.480000X0.735000X-0.480000X-0.735000X0.480000X-0.735000X0*%
%ADD13RoundRect,0.102000X-0.380000X-0.200000X0.380000X-0.200000X0.380000X0.200000X-0.380000X0.200000X0*%
%ADD14RoundRect,0.102000X-0.800000X1.300000X-0.800000X-1.300000X0.800000X-1.300000X0.800000X1.300000X0*%
%ADD15R,1.430000X2.820000*%
%ADD16R,2.820000X1.430000*%
%ADD17RoundRect,0.250000X0.550000X-0.550000X0.550000X0.550000X-0.550000X0.550000X-0.550000X-0.550000X0*%
%ADD18C,1.600000*%
%ADD19RoundRect,0.102000X-0.190000X-0.200000X0.190000X-0.200000X0.190000X0.200000X-0.190000X0.200000X0*%
%ADD20O,0.804000X2.004000*%
%ADD21RoundRect,0.102000X4.250000X-4.000000X4.250000X4.000000X-4.250000X4.000000X-4.250000X-4.000000X0*%
%ADD22RoundRect,0.102000X0.190000X0.200000X-0.190000X0.200000X-0.190000X-0.200000X0.190000X-0.200000X0*%
%ADD23R,2.000000X1.550000*%
%ADD24RoundRect,0.102000X0.735000X-0.520000X0.735000X0.520000X-0.735000X0.520000X-0.735000X-0.520000X0*%
%ADD25R,5.308600X2.794000*%
%ADD26R,1.041400X3.505200*%
%ADD27R,10.718800X7.696200*%
%ADD28RoundRect,0.102000X0.520000X0.735000X-0.520000X0.735000X-0.520000X-0.735000X0.520000X-0.735000X0*%
%ADD29RoundRect,0.102000X0.735000X-0.480000X0.735000X0.480000X-0.735000X0.480000X-0.735000X-0.480000X0*%
%ADD30C,3.000000*%
%ADD31RoundRect,0.102000X-0.802500X-0.802500X0.802500X-0.802500X0.802500X0.802500X-0.802500X0.802500X0*%
%ADD32C,1.809000*%
%ADD33RoundRect,0.102000X-0.765000X-0.765000X0.765000X-0.765000X0.765000X0.765000X-0.765000X0.765000X0*%
%ADD34C,1.734000*%
%ADD35RoundRect,0.102000X-0.690000X0.460000X-0.690000X-0.460000X0.690000X-0.460000X0.690000X0.460000X0*%
%ADD36RoundRect,0.102000X-0.200000X0.380000X-0.200000X-0.380000X0.200000X-0.380000X0.200000X0.380000X0*%
%ADD37R,0.457200X1.016000*%
%ADD38RoundRect,0.250000X-0.550000X-0.550000X0.550000X-0.550000X0.550000X0.550000X-0.550000X0.550000X0*%
%ADD39R,1.498600X1.498600*%
%ADD40C,1.498600*%
%ADD41R,0.800000X0.940000*%
%ADD42RoundRect,0.102000X-0.460000X-0.690000X0.460000X-0.690000X0.460000X0.690000X-0.460000X0.690000X0*%
%ADD43R,3.505200X1.041400*%
%ADD44R,7.696200X10.718800*%
%ADD45RoundRect,0.150000X-0.150000X0.825000X-0.150000X-0.825000X0.150000X-0.825000X0.150000X0.825000X0*%
%ADD46RoundRect,0.102000X-0.200000X0.190000X-0.200000X-0.190000X0.200000X-0.190000X0.200000X0.190000X0*%
%ADD47R,1.800000X3.400000*%
%ADD48RoundRect,0.102000X-0.480000X-0.735000X0.480000X-0.735000X0.480000X0.735000X-0.480000X0.735000X0*%
%ADD49RoundRect,0.102000X0.710000X-0.500000X0.710000X0.500000X-0.710000X0.500000X-0.710000X-0.500000X0*%
%ADD50RoundRect,0.102000X-0.500000X-0.710000X0.500000X-0.710000X0.500000X0.710000X-0.500000X0.710000X0*%
%ADD51R,0.940000X0.800000*%
%ADD52RoundRect,0.102000X0.270000X0.300000X-0.270000X0.300000X-0.270000X-0.300000X0.270000X-0.300000X0*%
G04 APERTURE END LIST*
D10*
%TO.C,J_PV+1*%
X58300000Y-95300000D03*
%TD*%
%TO.C,J_BAT+1*%
X254000000Y-98450000D03*
%TD*%
D11*
%TO.C,U5*%
X168130400Y-173090000D03*
X168130400Y-174360000D03*
X168130400Y-175630000D03*
X168130400Y-176900000D03*
X173820000Y-176900000D03*
X173820000Y-175630000D03*
X173820000Y-174360000D03*
X173820000Y-173090000D03*
%TD*%
D12*
%TO.C,R1*%
X82938000Y-111150000D03*
X80982000Y-111150000D03*
%TD*%
D13*
%TO.C,D10*%
X116010000Y-97950000D03*
X117380000Y-97950000D03*
%TD*%
D14*
%TO.C,C2*%
X216000000Y-194250000D03*
X216000000Y-190650000D03*
%TD*%
D10*
%TO.C,J_PV-1*%
X58300000Y-107850000D03*
%TD*%
%TO.C,J_M3+1*%
X254000000Y-170350000D03*
%TD*%
D15*
%TO.C,Cd3*%
X104210000Y-115500000D03*
X106790000Y-115500000D03*
%TD*%
D13*
%TO.C,D6*%
X163195000Y-97940000D03*
X164565000Y-97940000D03*
%TD*%
D16*
%TO.C,Cpv1*%
X107320000Y-83500000D03*
X107320000Y-86080000D03*
%TD*%
D17*
%TO.C,D9*%
X112580000Y-105960000D03*
D18*
X112580000Y-98340000D03*
%TD*%
D19*
%TO.C,Cd4*%
X105309000Y-112500000D03*
X105871000Y-112500000D03*
%TD*%
D20*
%TO.C,IC1*%
X80538000Y-115800000D03*
X79268000Y-115800000D03*
X77998000Y-115800000D03*
X76728000Y-115800000D03*
X76728000Y-126500000D03*
X77998000Y-126500000D03*
X79268000Y-126500000D03*
X80538000Y-126500000D03*
%TD*%
D21*
%TO.C,L1*%
X131785000Y-73930000D03*
X148785000Y-73930000D03*
%TD*%
D10*
%TO.C,J_VDD1-1*%
X61000000Y-47750000D03*
%TD*%
D22*
%TO.C,Cvs1*%
X79003000Y-113550000D03*
X78441000Y-113550000D03*
%TD*%
D16*
%TO.C,Cpv3*%
X182050000Y-168929000D03*
X182050000Y-171509000D03*
%TD*%
D23*
%TO.C,D1*%
X124230000Y-93850000D03*
X128430000Y-93850000D03*
%TD*%
D24*
%TO.C,Rd7*%
X198950000Y-175600000D03*
X198950000Y-173720000D03*
%TD*%
D25*
%TO.C,L2*%
X203200000Y-187416200D03*
X203200000Y-197500000D03*
%TD*%
D26*
%TO.C,M2*%
X161350000Y-93852000D03*
D27*
X163890000Y-82689700D03*
D26*
X166430000Y-93852000D03*
%TD*%
D10*
%TO.C,J_M1+1*%
X101850000Y-47750000D03*
%TD*%
D17*
%TO.C,D5*%
X160180000Y-105960000D03*
D18*
X160180000Y-98340000D03*
%TD*%
D10*
%TO.C,J_M2+1*%
X163320000Y-47750000D03*
%TD*%
D23*
%TO.C,D2*%
X169030000Y-74350000D03*
X164830000Y-74350000D03*
%TD*%
D28*
%TO.C,Rd3*%
X164820000Y-105950000D03*
X162940000Y-105950000D03*
%TD*%
D29*
%TO.C,Rd1*%
X160480000Y-133506000D03*
X160480000Y-131550000D03*
%TD*%
D30*
%TO.C,U1*%
X84740000Y-171580000D03*
X117760000Y-223650000D03*
X133000000Y-172850000D03*
D31*
X133000000Y-199270000D03*
D32*
X133000000Y-196730000D03*
X133000000Y-194190000D03*
X133000000Y-191650000D03*
X133000000Y-189110000D03*
X133000000Y-186570000D03*
X133000000Y-184030000D03*
X133000000Y-181490000D03*
X133000000Y-178950000D03*
X133000000Y-176410000D03*
D31*
X84740000Y-185550000D03*
D32*
X84740000Y-188090000D03*
X84740000Y-190630000D03*
X84740000Y-193170000D03*
X84740000Y-195710000D03*
X84740000Y-198250000D03*
X84740000Y-200790000D03*
X84740000Y-203330000D03*
D33*
X77120000Y-175390000D03*
D34*
X79660000Y-175390000D03*
X77120000Y-177930000D03*
X79660000Y-177930000D03*
X77120000Y-180470000D03*
X79660000Y-180470000D03*
X77120000Y-183010000D03*
X79660000Y-183010000D03*
X77120000Y-185550000D03*
X79660000Y-185550000D03*
X77120000Y-188090000D03*
X79660000Y-188090000D03*
X77120000Y-190630000D03*
X79660000Y-190630000D03*
X77120000Y-193170000D03*
X79660000Y-193170000D03*
X77120000Y-195710000D03*
X79660000Y-195710000D03*
X77120000Y-198250000D03*
X79660000Y-198250000D03*
X77120000Y-200790000D03*
X79660000Y-200790000D03*
X77120000Y-203330000D03*
X79660000Y-203330000D03*
X77120000Y-205870000D03*
X79660000Y-205870000D03*
X77120000Y-208410000D03*
X79660000Y-208410000D03*
X77120000Y-210950000D03*
X79660000Y-210950000D03*
X77120000Y-213490000D03*
X79660000Y-213490000D03*
X77120000Y-216030000D03*
X79660000Y-216030000D03*
X77120000Y-218570000D03*
X79660000Y-218570000D03*
X77120000Y-221110000D03*
X79660000Y-221110000D03*
D31*
X84740000Y-208410000D03*
D32*
X84740000Y-210950000D03*
X84740000Y-213490000D03*
X84740000Y-216030000D03*
X84740000Y-218570000D03*
X84740000Y-221110000D03*
D31*
X133000000Y-221110000D03*
D32*
X133000000Y-218570000D03*
X133000000Y-216030000D03*
X133000000Y-213490000D03*
X133000000Y-210950000D03*
X133000000Y-208410000D03*
X133000000Y-205870000D03*
X133000000Y-203330000D03*
D33*
X138080000Y-175390000D03*
D34*
X140620000Y-175390000D03*
X138080000Y-177930000D03*
X140620000Y-177930000D03*
X138080000Y-180470000D03*
X140620000Y-180470000D03*
X138080000Y-183010000D03*
X140620000Y-183010000D03*
X138080000Y-185550000D03*
X140620000Y-185550000D03*
X138080000Y-188090000D03*
X140620000Y-188090000D03*
X138080000Y-190630000D03*
X140620000Y-190630000D03*
X138080000Y-193170000D03*
X140620000Y-193170000D03*
X138080000Y-195710000D03*
X140620000Y-195710000D03*
X138080000Y-198250000D03*
X140620000Y-198250000D03*
X138080000Y-200790000D03*
X140620000Y-200790000D03*
X138080000Y-203330000D03*
X140620000Y-203330000D03*
X138080000Y-205870000D03*
X140620000Y-205870000D03*
X138080000Y-208410000D03*
X140620000Y-208410000D03*
X138080000Y-210950000D03*
X140620000Y-210950000D03*
X138080000Y-213490000D03*
X140620000Y-213490000D03*
X138080000Y-216030000D03*
X140620000Y-216030000D03*
X138080000Y-218570000D03*
X140620000Y-218570000D03*
X138080000Y-221110000D03*
X140620000Y-221110000D03*
%TD*%
D35*
%TO.C,Rd6*%
X163177400Y-174317800D03*
X163177400Y-176227800D03*
%TD*%
D19*
%TO.C,Cb1*%
X124219000Y-87500000D03*
X124781000Y-87500000D03*
%TD*%
D10*
%TO.C,J_VDD1+1*%
X74500000Y-47750000D03*
%TD*%
D36*
%TO.C,D8*%
X206860000Y-174125000D03*
X206860000Y-175495000D03*
%TD*%
D37*
%TO.C,U7*%
X114270000Y-126836800D03*
X115540000Y-126836800D03*
X116810000Y-126836800D03*
X118080000Y-126836800D03*
X118080000Y-121147200D03*
X116810000Y-121147200D03*
X115540000Y-121147200D03*
X114270000Y-121147200D03*
%TD*%
D23*
%TO.C,D4*%
X218150000Y-182750000D03*
X222350000Y-182750000D03*
%TD*%
D28*
%TO.C,Rd11*%
X117520000Y-105650000D03*
X115640000Y-105650000D03*
%TD*%
D38*
%TO.C,D7*%
X198940000Y-171160000D03*
D18*
X206560000Y-171160000D03*
%TD*%
D15*
%TO.C,Cd1*%
X152420000Y-114500000D03*
X155000000Y-114500000D03*
%TD*%
D39*
%TO.C,U8*%
X112475000Y-117060000D03*
D40*
X115015000Y-117060000D03*
X117555000Y-117060000D03*
X120095000Y-117060000D03*
X120095000Y-109440000D03*
X117555000Y-109440000D03*
X115015000Y-109440000D03*
X112475000Y-109440000D03*
%TD*%
D19*
%TO.C,Cd2*%
X153429000Y-111700000D03*
X153991000Y-111700000D03*
%TD*%
D22*
%TO.C,Cvs2*%
X80603000Y-113550000D03*
X80041000Y-113550000D03*
%TD*%
D41*
%TO.C,Cb2*%
X124231000Y-89982000D03*
X125571000Y-89982000D03*
%TD*%
D42*
%TO.C,Rd10*%
X115170000Y-131750000D03*
X117080000Y-131750000D03*
%TD*%
D10*
%TO.C,J_BAT-1*%
X254000000Y-85900000D03*
%TD*%
D43*
%TO.C,M3*%
X210948000Y-172120000D03*
D44*
X222110300Y-174660000D03*
D43*
X210948000Y-177200000D03*
%TD*%
D45*
%TO.C,U2*%
X93843000Y-121475000D03*
X92573000Y-121475000D03*
X91303000Y-121475000D03*
X90033000Y-121475000D03*
X90033000Y-126425000D03*
X91303000Y-126425000D03*
X92573000Y-126425000D03*
X93843000Y-126425000D03*
%TD*%
D23*
%TO.C,D3*%
X178780000Y-74350000D03*
X174580000Y-74350000D03*
%TD*%
D10*
%TO.C,J_M2-1*%
X176120000Y-47750000D03*
%TD*%
D22*
%TO.C,Cvs3*%
X78900000Y-130550000D03*
X78338000Y-130550000D03*
%TD*%
D46*
%TO.C,Cb6*%
X191750000Y-166969000D03*
X191750000Y-167531000D03*
%TD*%
D47*
%TO.C,C1*%
X176180000Y-81850000D03*
X176180000Y-87850000D03*
%TD*%
D46*
%TO.C,Cb4*%
X227600000Y-177299000D03*
X227600000Y-177861000D03*
%TD*%
D10*
%TO.C,J_Pump+1*%
X254000000Y-208300000D03*
%TD*%
D42*
%TO.C,Rd2*%
X162935000Y-131750000D03*
X164845000Y-131750000D03*
%TD*%
D48*
%TO.C,Rd5*%
X156987200Y-175372800D03*
X158943200Y-175372800D03*
%TD*%
D49*
%TO.C,Rd12*%
X116000000Y-102585000D03*
X116000000Y-100715000D03*
%TD*%
D50*
%TO.C,Rd8*%
X202130000Y-174000000D03*
X204000000Y-174000000D03*
%TD*%
D46*
%TO.C,Cb5*%
X94250000Y-128750000D03*
X94250000Y-129312000D03*
%TD*%
D10*
%TO.C,J_M1-1*%
X114400000Y-47750000D03*
%TD*%
D51*
%TO.C,Cb3*%
X230000000Y-176910000D03*
X230000000Y-178250000D03*
%TD*%
D10*
%TO.C,J_Pump-1*%
X254000000Y-195750000D03*
%TD*%
D12*
%TO.C,R2*%
X78894000Y-111150000D03*
X76938000Y-111150000D03*
%TD*%
D37*
%TO.C,U3*%
X161985000Y-126836800D03*
X163255000Y-126836800D03*
X164525000Y-126836800D03*
X165795000Y-126836800D03*
X165795000Y-121147200D03*
X164525000Y-121147200D03*
X163255000Y-121147200D03*
X161985000Y-121147200D03*
%TD*%
D29*
%TO.C,Rd9*%
X112580000Y-133350000D03*
X112580000Y-131394000D03*
%TD*%
D52*
%TO.C,CL1*%
X92370000Y-129150000D03*
X91506000Y-129150000D03*
%TD*%
D49*
%TO.C,Rd4*%
X163000000Y-102500000D03*
X163000000Y-100630000D03*
%TD*%
D39*
%TO.C,U4*%
X160080000Y-117060000D03*
D40*
X162620000Y-117060000D03*
X165160000Y-117060000D03*
X167700000Y-117060000D03*
X167700000Y-109440000D03*
X165160000Y-109440000D03*
X162620000Y-109440000D03*
X160080000Y-109440000D03*
%TD*%
D26*
%TO.C,M1*%
X114140000Y-93852000D03*
D27*
X116680000Y-82689700D03*
D26*
X119220000Y-93852000D03*
%TD*%
D10*
%TO.C,J_M3-1*%
X254000000Y-182900000D03*
%TD*%
D16*
%TO.C,Cpv2*%
X103150000Y-83500000D03*
X103150000Y-86080000D03*
%TD*%
D39*
%TO.C,U6*%
X187190000Y-170880000D03*
D40*
X187190000Y-173420000D03*
X187190000Y-175960000D03*
X187190000Y-178500000D03*
X194810000Y-178500000D03*
X194810000Y-175960000D03*
X194810000Y-173420000D03*
X194810000Y-170880000D03*
%TD*%
M02*
