%TF.GenerationSoftware,KiCad,Pcbnew,9.0.7*%
%TF.CreationDate,2026-03-19T00:19:46+11:00*%
%TF.ProjectId,SolarSystem,536f6c61-7253-4797-9374-656d2e6b6963,0*%
%TF.SameCoordinates,Original*%
%TF.FileFunction,Soldermask,Bot*%
%TF.FilePolarity,Negative*%
%FSLAX46Y46*%
G04 Gerber Fmt 4.6, Leading zero omitted, Abs format (unit mm)*
G04 Created by KiCad (PCBNEW 9.0.7) date 2026-03-19 00:19:46*
%MOMM*%
%LPD*%
G01*
G04 APERTURE LIST*
G04 Aperture macros list*
%AMRoundRect*
0 Rectangle with rounded corners*
0 $1 Rounding radius*
0 $2 $3 $4 $5 $6 $7 $8 $9 X,Y pos of 4 corners*
0 Add a 4 corners polygon primitive as box body*
4,1,4,$2,$3,$4,$5,$6,$7,$8,$9,$2,$3,0*
0 Add four circle primitives for the rounded corners*
1,1,$1+$1,$2,$3*
1,1,$1+$1,$4,$5*
1,1,$1+$1,$6,$7*
1,1,$1+$1,$8,$9*
0 Add four rect primitives between the rounded corners*
20,1,$1+$1,$2,$3,$4,$5,0*
20,1,$1+$1,$4,$5,$6,$7,0*
20,1,$1+$1,$6,$7,$8,$9,0*
20,1,$1+$1,$8,$9,$2,$3,0*%
G04 Aperture macros list end*
%ADD10C,10.160000*%
%ADD11RoundRect,0.250000X0.550000X-0.550000X0.550000X0.550000X-0.550000X0.550000X-0.550000X-0.550000X0*%
%ADD12C,1.600000*%
%ADD13C,3.000000*%
%ADD14RoundRect,0.102000X-0.802500X-0.802500X0.802500X-0.802500X0.802500X0.802500X-0.802500X0.802500X0*%
%ADD15C,1.809000*%
%ADD16RoundRect,0.102000X-0.765000X-0.765000X0.765000X-0.765000X0.765000X0.765000X-0.765000X0.765000X0*%
%ADD17C,1.734000*%
%ADD18RoundRect,0.250000X-0.550000X-0.550000X0.550000X-0.550000X0.550000X0.550000X-0.550000X0.550000X0*%
%ADD19R,1.498600X1.498600*%
%ADD20C,1.498600*%
G04 APERTURE END LIST*
D10*
%TO.C,J_PV+1*%
X58300000Y-95300000D03*
%TD*%
%TO.C,J_BAT+1*%
X254000000Y-98450000D03*
%TD*%
%TO.C,J_PV-1*%
X58300000Y-107850000D03*
%TD*%
%TO.C,J_M3+1*%
X254000000Y-170350000D03*
%TD*%
D11*
%TO.C,D9*%
X112580000Y-105960000D03*
D12*
X112580000Y-98340000D03*
%TD*%
D10*
%TO.C,J_VDD1-1*%
X61000000Y-47750000D03*
%TD*%
%TO.C,J_M1+1*%
X101850000Y-47750000D03*
%TD*%
D11*
%TO.C,D5*%
X160180000Y-105960000D03*
D12*
X160180000Y-98340000D03*
%TD*%
D10*
%TO.C,J_M2+1*%
X163320000Y-47750000D03*
%TD*%
D13*
%TO.C,U1*%
X84740000Y-171580000D03*
X117760000Y-223650000D03*
X133000000Y-172850000D03*
D14*
X133000000Y-199270000D03*
D15*
X133000000Y-196730000D03*
X133000000Y-194190000D03*
X133000000Y-191650000D03*
X133000000Y-189110000D03*
X133000000Y-186570000D03*
X133000000Y-184030000D03*
X133000000Y-181490000D03*
X133000000Y-178950000D03*
X133000000Y-176410000D03*
D14*
X84740000Y-185550000D03*
D15*
X84740000Y-188090000D03*
X84740000Y-190630000D03*
X84740000Y-193170000D03*
X84740000Y-195710000D03*
X84740000Y-198250000D03*
X84740000Y-200790000D03*
X84740000Y-203330000D03*
D16*
X77120000Y-175390000D03*
D17*
X79660000Y-175390000D03*
X77120000Y-177930000D03*
X79660000Y-177930000D03*
X77120000Y-180470000D03*
X79660000Y-180470000D03*
X77120000Y-183010000D03*
X79660000Y-183010000D03*
X77120000Y-185550000D03*
X79660000Y-185550000D03*
X77120000Y-188090000D03*
X79660000Y-188090000D03*
X77120000Y-190630000D03*
X79660000Y-190630000D03*
X77120000Y-193170000D03*
X79660000Y-193170000D03*
X77120000Y-195710000D03*
X79660000Y-195710000D03*
X77120000Y-198250000D03*
X79660000Y-198250000D03*
X77120000Y-200790000D03*
X79660000Y-200790000D03*
X77120000Y-203330000D03*
X79660000Y-203330000D03*
X77120000Y-205870000D03*
X79660000Y-205870000D03*
X77120000Y-208410000D03*
X79660000Y-208410000D03*
X77120000Y-210950000D03*
X79660000Y-210950000D03*
X77120000Y-213490000D03*
X79660000Y-213490000D03*
X77120000Y-216030000D03*
X79660000Y-216030000D03*
X77120000Y-218570000D03*
X79660000Y-218570000D03*
X77120000Y-221110000D03*
X79660000Y-221110000D03*
D14*
X84740000Y-208410000D03*
D15*
X84740000Y-210950000D03*
X84740000Y-213490000D03*
X84740000Y-216030000D03*
X84740000Y-218570000D03*
X84740000Y-221110000D03*
D14*
X133000000Y-221110000D03*
D15*
X133000000Y-218570000D03*
X133000000Y-216030000D03*
X133000000Y-213490000D03*
X133000000Y-210950000D03*
X133000000Y-208410000D03*
X133000000Y-205870000D03*
X133000000Y-203330000D03*
D16*
X138080000Y-175390000D03*
D17*
X140620000Y-175390000D03*
X138080000Y-177930000D03*
X140620000Y-177930000D03*
X138080000Y-180470000D03*
X140620000Y-180470000D03*
X138080000Y-183010000D03*
X140620000Y-183010000D03*
X138080000Y-185550000D03*
X140620000Y-185550000D03*
X138080000Y-188090000D03*
X140620000Y-188090000D03*
X138080000Y-190630000D03*
X140620000Y-190630000D03*
X138080000Y-193170000D03*
X140620000Y-193170000D03*
X138080000Y-195710000D03*
X140620000Y-195710000D03*
X138080000Y-198250000D03*
X140620000Y-198250000D03*
X138080000Y-200790000D03*
X140620000Y-200790000D03*
X138080000Y-203330000D03*
X140620000Y-203330000D03*
X138080000Y-205870000D03*
X140620000Y-205870000D03*
X138080000Y-208410000D03*
X140620000Y-208410000D03*
X138080000Y-210950000D03*
X140620000Y-210950000D03*
X138080000Y-213490000D03*
X140620000Y-213490000D03*
X138080000Y-216030000D03*
X140620000Y-216030000D03*
X138080000Y-218570000D03*
X140620000Y-218570000D03*
X138080000Y-221110000D03*
X140620000Y-221110000D03*
%TD*%
D10*
%TO.C,J_VDD1+1*%
X74500000Y-47750000D03*
%TD*%
D18*
%TO.C,D7*%
X198940000Y-171160000D03*
D12*
X206560000Y-171160000D03*
%TD*%
D19*
%TO.C,U8*%
X112475000Y-117060000D03*
D20*
X115015000Y-117060000D03*
X117555000Y-117060000D03*
X120095000Y-117060000D03*
X120095000Y-109440000D03*
X117555000Y-109440000D03*
X115015000Y-109440000D03*
X112475000Y-109440000D03*
%TD*%
D10*
%TO.C,J_BAT-1*%
X254000000Y-85900000D03*
%TD*%
%TO.C,J_M2-1*%
X176120000Y-47750000D03*
%TD*%
%TO.C,J_Pump+1*%
X254000000Y-208300000D03*
%TD*%
%TO.C,J_M1-1*%
X114400000Y-47750000D03*
%TD*%
%TO.C,J_Pump-1*%
X254000000Y-195750000D03*
%TD*%
D19*
%TO.C,U4*%
X160080000Y-117060000D03*
D20*
X162620000Y-117060000D03*
X165160000Y-117060000D03*
X167700000Y-117060000D03*
X167700000Y-109440000D03*
X165160000Y-109440000D03*
X162620000Y-109440000D03*
X160080000Y-109440000D03*
%TD*%
D10*
%TO.C,J_M3-1*%
X254000000Y-182900000D03*
%TD*%
D19*
%TO.C,U6*%
X187190000Y-170880000D03*
D20*
X187190000Y-173420000D03*
X187190000Y-175960000D03*
X187190000Y-178500000D03*
X194810000Y-178500000D03*
X194810000Y-175960000D03*
X194810000Y-173420000D03*
X194810000Y-170880000D03*
%TD*%
M02*
