%TF.GenerationSoftware,KiCad,Pcbnew,9.0.7*%
%TF.CreationDate,2026-03-21T02:29:10+11:00*%
%TF.ProjectId,SolarSystem,536f6c61-7253-4797-9374-656d2e6b6963,0*%
%TF.SameCoordinates,Original*%
%TF.FileFunction,Copper,L1,Top*%
%TF.FilePolarity,Positive*%
%FSLAX46Y46*%
G04 Gerber Fmt 4.6, Leading zero omitted, Abs format (unit mm)*
G04 Created by KiCad (PCBNEW 9.0.7) date 2026-03-21 02:29:10*
%MOMM*%
%LPD*%
G01*
G04 APERTURE LIST*
G04 Aperture macros list*
%AMRoundRect*
0 Rectangle with rounded corners*
0 $1 Rounding radius*
0 $2 $3 $4 $5 $6 $7 $8 $9 X,Y pos of 4 corners*
0 Add a 4 corners polygon primitive as box body*
4,1,4,$2,$3,$4,$5,$6,$7,$8,$9,$2,$3,0*
0 Add four circle primitives for the rounded corners*
1,1,$1+$1,$2,$3*
1,1,$1+$1,$4,$5*
1,1,$1+$1,$6,$7*
1,1,$1+$1,$8,$9*
0 Add four rect primitives between the rounded corners*
20,1,$1+$1,$2,$3,$4,$5,0*
20,1,$1+$1,$4,$5,$6,$7,0*
20,1,$1+$1,$6,$7,$8,$9,0*
20,1,$1+$1,$8,$9,$2,$3,0*%
G04 Aperture macros list end*
%TA.AperFunction,ComponentPad*%
%ADD10C,2.209800*%
%TD*%
%TA.AperFunction,SMDPad,CuDef*%
%ADD11R,1.016000X0.457200*%
%TD*%
%TA.AperFunction,SMDPad,CuDef*%
%ADD12R,0.965200X1.397000*%
%TD*%
%TA.AperFunction,SMDPad,CuDef*%
%ADD13R,0.760000X0.400000*%
%TD*%
%TA.AperFunction,SMDPad,CuDef*%
%ADD14R,1.600000X2.600000*%
%TD*%
%TA.AperFunction,SMDPad,CuDef*%
%ADD15R,1.430000X2.820000*%
%TD*%
%TA.AperFunction,SMDPad,CuDef*%
%ADD16R,2.820000X1.430000*%
%TD*%
%TA.AperFunction,ComponentPad*%
%ADD17RoundRect,0.250000X0.550000X-0.550000X0.550000X0.550000X-0.550000X0.550000X-0.550000X-0.550000X0*%
%TD*%
%TA.AperFunction,ComponentPad*%
%ADD18C,1.600000*%
%TD*%
%TA.AperFunction,SMDPad,CuDef*%
%ADD19R,0.460000X0.420000*%
%TD*%
%TA.AperFunction,SMDPad,CuDef*%
%ADD20O,0.600000X1.800000*%
%TD*%
%TA.AperFunction,SMDPad,CuDef*%
%ADD21R,8.500000X8.000000*%
%TD*%
%TA.AperFunction,SMDPad,CuDef*%
%ADD22R,0.600000X0.540000*%
%TD*%
%TA.AperFunction,SMDPad,CuDef*%
%ADD23R,2.000000X1.550000*%
%TD*%
%TA.AperFunction,SMDPad,CuDef*%
%ADD24R,1.470000X1.040000*%
%TD*%
%TA.AperFunction,SMDPad,CuDef*%
%ADD25R,5.308600X2.794000*%
%TD*%
%TA.AperFunction,SMDPad,CuDef*%
%ADD26R,1.041400X3.505200*%
%TD*%
%TA.AperFunction,SMDPad,CuDef*%
%ADD27R,10.718800X7.696200*%
%TD*%
%TA.AperFunction,SMDPad,CuDef*%
%ADD28R,0.558800X1.981200*%
%TD*%
%TA.AperFunction,SMDPad,CuDef*%
%ADD29R,1.040000X1.470000*%
%TD*%
%TA.AperFunction,SMDPad,CuDef*%
%ADD30R,1.470000X0.960000*%
%TD*%
%TA.AperFunction,ComponentPad*%
%ADD31R,1.605000X1.605000*%
%TD*%
%TA.AperFunction,ComponentPad*%
%ADD32C,1.605000*%
%TD*%
%TA.AperFunction,ComponentPad*%
%ADD33R,1.530000X1.530000*%
%TD*%
%TA.AperFunction,ComponentPad*%
%ADD34C,1.530000*%
%TD*%
%TA.AperFunction,SMDPad,CuDef*%
%ADD35R,1.380000X0.920000*%
%TD*%
%TA.AperFunction,SMDPad,CuDef*%
%ADD36R,0.400000X0.760000*%
%TD*%
%TA.AperFunction,SMDPad,CuDef*%
%ADD37R,0.457200X1.016000*%
%TD*%
%TA.AperFunction,ComponentPad*%
%ADD38RoundRect,0.250000X-0.550000X-0.550000X0.550000X-0.550000X0.550000X0.550000X-0.550000X0.550000X0*%
%TD*%
%TA.AperFunction,ComponentPad*%
%ADD39R,1.498600X1.498600*%
%TD*%
%TA.AperFunction,ComponentPad*%
%ADD40C,1.498600*%
%TD*%
%TA.AperFunction,SMDPad,CuDef*%
%ADD41R,0.800000X0.940000*%
%TD*%
%TA.AperFunction,SMDPad,CuDef*%
%ADD42R,0.920000X1.380000*%
%TD*%
%TA.AperFunction,SMDPad,CuDef*%
%ADD43R,3.505200X1.041400*%
%TD*%
%TA.AperFunction,SMDPad,CuDef*%
%ADD44R,7.696200X10.718800*%
%TD*%
%TA.AperFunction,SMDPad,CuDef*%
%ADD45RoundRect,0.150000X-0.150000X0.825000X-0.150000X-0.825000X0.150000X-0.825000X0.150000X0.825000X0*%
%TD*%
%TA.AperFunction,SMDPad,CuDef*%
%ADD46R,0.420000X0.460000*%
%TD*%
%TA.AperFunction,SMDPad,CuDef*%
%ADD47R,1.800000X3.400000*%
%TD*%
%TA.AperFunction,SMDPad,CuDef*%
%ADD48R,0.960000X1.470000*%
%TD*%
%TA.AperFunction,SMDPad,CuDef*%
%ADD49R,1.420000X1.000000*%
%TD*%
%TA.AperFunction,SMDPad,CuDef*%
%ADD50R,1.000000X1.420000*%
%TD*%
%TA.AperFunction,SMDPad,CuDef*%
%ADD51R,0.940000X0.800000*%
%TD*%
%TA.AperFunction,SMDPad,CuDef*%
%ADD52R,0.540000X0.600000*%
%TD*%
%TA.AperFunction,ViaPad*%
%ADD53C,0.600000*%
%TD*%
%TA.AperFunction,ViaPad*%
%ADD54C,0.700000*%
%TD*%
%TA.AperFunction,ViaPad*%
%ADD55C,0.500000*%
%TD*%
%TA.AperFunction,Conductor*%
%ADD56C,0.200000*%
%TD*%
%TA.AperFunction,Conductor*%
%ADD57C,0.300000*%
%TD*%
%TA.AperFunction,Conductor*%
%ADD58C,1.367000*%
%TD*%
G04 APERTURE END LIST*
D10*
%TO.P,J_PV+1,1,1*%
%TO.N,PV+*%
X58300000Y-95300000D03*
%TO.P,J_PV+1,2,2*%
X63075200Y-95300000D03*
%TO.P,J_PV+1,3,3*%
X60687600Y-92912400D03*
%TO.P,J_PV+1,4,4*%
X60687600Y-97687600D03*
%TD*%
%TO.P,J_BAT+1,1,1*%
%TO.N,BAT+*%
X257700000Y-100100000D03*
%TO.P,J_BAT+1,2,2*%
X252924800Y-100100000D03*
%TO.P,J_BAT+1,3,3*%
X255312400Y-102487600D03*
%TO.P,J_BAT+1,4,4*%
X255312400Y-97712400D03*
%TD*%
D11*
%TO.P,U5,1,NC*%
%TO.N,unconnected-(U5-NC-Pad1)*%
X168130400Y-173090000D03*
%TO.P,U5,2,ANODE*%
%TO.N,Net-(U5-ANODE)*%
X168130400Y-174360000D03*
%TO.P,U5,3,CATHODE*%
%TO.N,AGND*%
X168130400Y-175630000D03*
%TO.P,U5,4,NC*%
%TO.N,unconnected-(U5-NC-Pad4)*%
X168130400Y-176900000D03*
%TO.P,U5,5,GND*%
%TO.N,/M3_Source*%
X173820000Y-176900000D03*
%TO.P,U5,6,NC*%
%TO.N,unconnected-(U5-NC-Pad6)*%
X173820000Y-175630000D03*
%TO.P,U5,7,VO*%
%TO.N,Net-(U5-VO)*%
X173820000Y-174360000D03*
%TO.P,U5,8,VCC*%
%TO.N,/V_M3+*%
X173820000Y-173090000D03*
%TD*%
D12*
%TO.P,R1,1*%
%TO.N,PV+*%
X82887100Y-114150000D03*
%TO.P,R1,2*%
%TO.N,Net-(IC1-VIN)*%
X81032900Y-114150000D03*
%TD*%
D13*
%TO.P,D10,1*%
%TO.N,/M1_Gate*%
X116010000Y-97950000D03*
%TO.P,D10,2*%
%TO.N,/M1_Source*%
X117380000Y-97950000D03*
%TD*%
D14*
%TO.P,C2,1*%
%TO.N,/Pump_Voltage*%
X223600000Y-194250000D03*
%TO.P,C2,2*%
%TO.N,PGND*%
X223600000Y-190650000D03*
%TD*%
D10*
%TO.P,J_PV-1,1,1*%
%TO.N,PGND*%
X58300000Y-109387600D03*
%TO.P,J_PV-1,2,2*%
X63075200Y-109387600D03*
%TO.P,J_PV-1,3,3*%
X60687600Y-107000000D03*
%TO.P,J_PV-1,4,4*%
X60687600Y-111775200D03*
%TD*%
%TO.P,J_M3+1,1,1*%
%TO.N,/V_M3+*%
X252924800Y-165287600D03*
%TO.P,J_M3+1,2,2*%
X257700000Y-165287600D03*
%TO.P,J_M3+1,3,3*%
X255312400Y-162900000D03*
%TO.P,J_M3+1,4,4*%
X255312400Y-167675200D03*
%TD*%
D15*
%TO.P,Cd3,1,1*%
%TO.N,/V_M1+*%
X104210000Y-115500000D03*
%TO.P,Cd3,2,2*%
%TO.N,/M1_Source*%
X106790000Y-115500000D03*
%TD*%
D13*
%TO.P,D6,1*%
%TO.N,/M2_Gate*%
X163195000Y-97940000D03*
%TO.P,D6,2*%
%TO.N,PGND*%
X164565000Y-97940000D03*
%TD*%
D16*
%TO.P,Cpv1,1,1*%
%TO.N,/PV_IN*%
X107320000Y-83500000D03*
%TO.P,Cpv1,2,2*%
%TO.N,PGND*%
X107320000Y-86080000D03*
%TD*%
D17*
%TO.P,D9,1,K*%
%TO.N,/GateDriver_M1/SU1+*%
X112580000Y-105960000D03*
D18*
%TO.P,D9,2,A*%
%TO.N,/M1_Gate*%
X112580000Y-98340000D03*
%TD*%
D19*
%TO.P,Cd4,1,1*%
%TO.N,/V_M1+*%
X105260000Y-112500000D03*
%TO.P,Cd4,2,2*%
%TO.N,/M1_Source*%
X105920000Y-112500000D03*
%TD*%
D20*
%TO.P,IC1,1,VDD1*%
%TO.N,/VDD1*%
X80538000Y-118800000D03*
%TO.P,IC1,2,VIN*%
%TO.N,Net-(IC1-VIN)*%
X79268000Y-118800000D03*
%TO.P,IC1,3,SDHN*%
%TO.N,PGND*%
X77998000Y-118800000D03*
%TO.P,IC1,4,GND1*%
X76728000Y-118800000D03*
%TO.P,IC1,5,GND2*%
%TO.N,AGND*%
X76728000Y-129500000D03*
%TO.P,IC1,6,VOUT-*%
%TO.N,/Voltage_Sensor/VOUT-*%
X77998000Y-129500000D03*
%TO.P,IC1,7,VOUT+*%
%TO.N,/Voltage_Sensor/VOUT+*%
X79268000Y-129500000D03*
%TO.P,IC1,8,VDD2*%
%TO.N,/VDD2*%
X80538000Y-129500000D03*
%TD*%
D21*
%TO.P,L1,1*%
%TO.N,/M1_Source*%
X131785000Y-63500000D03*
%TO.P,L1,2*%
%TO.N,Net-(D2-A)*%
X148785000Y-63500000D03*
%TD*%
D10*
%TO.P,J_VDD1-1,1,1*%
%TO.N,PGND*%
X66775200Y-47750000D03*
%TO.P,J_VDD1-1,2,2*%
X66775200Y-52525200D03*
%TO.P,J_VDD1-1,3,3*%
X69162800Y-50137600D03*
%TO.P,J_VDD1-1,4,4*%
X64387600Y-50137600D03*
%TD*%
D19*
%TO.P,Cvs1,1,1*%
%TO.N,Net-(IC1-VIN)*%
X79052000Y-116550000D03*
%TO.P,Cvs1,2,2*%
%TO.N,PGND*%
X78392000Y-116550000D03*
%TD*%
D16*
%TO.P,Cpv3,1,1*%
%TO.N,/V_M3+*%
X182050000Y-168929000D03*
%TO.P,Cpv3,2,2*%
%TO.N,/M3_Source*%
X182050000Y-171509000D03*
%TD*%
D22*
%TO.P,C_opamp1,1*%
%TO.N,/VDD2*%
X74500000Y-144864000D03*
%TO.P,C_opamp1,2*%
%TO.N,AGND*%
X74500000Y-144000000D03*
%TD*%
D23*
%TO.P,D1,1,K*%
%TO.N,/M1_Source*%
X124230000Y-93850000D03*
%TO.P,D1,2,A*%
%TO.N,PGND*%
X128430000Y-93850000D03*
%TD*%
D24*
%TO.P,Rd7,1*%
%TO.N,/M3_Source*%
X198950000Y-175600000D03*
%TO.P,Rd7,2*%
%TO.N,/GateDriver_M3/SU3+*%
X198950000Y-173720000D03*
%TD*%
D25*
%TO.P,L2,1,1*%
%TO.N,/M3_Source*%
X210800000Y-187416200D03*
%TO.P,L2,2,2*%
%TO.N,/Pump_Voltage*%
X210800000Y-197500000D03*
%TD*%
D26*
%TO.P,M2,1,G*%
%TO.N,/M2_Gate*%
X161350000Y-93852000D03*
D27*
%TO.P,M2,2,D*%
%TO.N,Net-(D2-A)*%
X163890000Y-82689700D03*
D26*
%TO.P,M2,3,S*%
%TO.N,PGND*%
X166430000Y-93852000D03*
%TD*%
D10*
%TO.P,J_M1+1,1,1*%
%TO.N,/V_M1+*%
X100000000Y-47824800D03*
%TO.P,J_M1+1,2,2*%
X100000000Y-52600000D03*
%TO.P,J_M1+1,3,3*%
X102387600Y-50212400D03*
%TO.P,J_M1+1,4,4*%
X97612400Y-50212400D03*
%TD*%
D17*
%TO.P,D5,1,K*%
%TO.N,/GateDriver_M2/SU2+*%
X160180000Y-105960000D03*
D18*
%TO.P,D5,2,A*%
%TO.N,/M2_Gate*%
X160180000Y-98340000D03*
%TD*%
D10*
%TO.P,J_M2+1,1,1*%
%TO.N,/V_M2+*%
X167337600Y-47824800D03*
%TO.P,J_M2+1,2,2*%
X167337600Y-52600000D03*
%TO.P,J_M2+1,3,3*%
X169725200Y-50212400D03*
%TO.P,J_M2+1,4,4*%
X164950000Y-50212400D03*
%TD*%
D23*
%TO.P,D2,1,K*%
%TO.N,Net-(C1-+)*%
X169030000Y-74350000D03*
%TO.P,D2,2,A*%
%TO.N,Net-(D2-A)*%
X164830000Y-74350000D03*
%TD*%
D28*
%TO.P,U9,1,NC*%
%TO.N,unconnected-(U9-NC-Pad1)*%
X80670000Y-139800000D03*
%TO.P,U9,2,IN-*%
%TO.N,Net-(U9-IN-)*%
X79400000Y-139800000D03*
%TO.P,U9,3,IN+*%
%TO.N,Net-(U9-IN+)*%
X78130000Y-139800000D03*
%TO.P,U9,4,V-*%
%TO.N,AGND*%
X76860000Y-139800000D03*
%TO.P,U9,5,NC*%
%TO.N,unconnected-(U9-NC-Pad5)*%
X76860000Y-144727600D03*
%TO.P,U9,6,OUTPUT*%
%TO.N,/PV_Voltage_Out*%
X78130000Y-144727600D03*
%TO.P,U9,7,V+*%
%TO.N,/VDD2*%
X79400000Y-144727600D03*
%TO.P,U9,8,NC*%
%TO.N,unconnected-(U9-NC-Pad8)*%
X80670000Y-144727600D03*
%TD*%
D29*
%TO.P,Rd3,1*%
%TO.N,PGND*%
X164820000Y-105950000D03*
%TO.P,Rd3,2*%
%TO.N,/GateDriver_M2/SU2+*%
X162940000Y-105950000D03*
%TD*%
D30*
%TO.P,Rd1,1*%
%TO.N,/M2_Sig*%
X160480000Y-133506000D03*
%TO.P,Rd1,2*%
%TO.N,Net-(U3-ANODE)*%
X160480000Y-131550000D03*
%TD*%
D31*
%TO.P,U1,CN5_1,D8*%
%TO.N,unconnected-(U1F-D8-PadCN5_1)*%
X133000000Y-209430000D03*
D32*
%TO.P,U1,CN5_2,D9*%
%TO.N,unconnected-(U1F-D9-PadCN5_2)*%
X133000000Y-206890000D03*
%TO.P,U1,CN5_3,D10*%
%TO.N,unconnected-(U1F-D10-PadCN5_3)*%
X133000000Y-204350000D03*
%TO.P,U1,CN5_4,D11*%
%TO.N,unconnected-(U1F-D11-PadCN5_4)*%
X133000000Y-201810000D03*
%TO.P,U1,CN5_5,D12*%
%TO.N,unconnected-(U1F-D12-PadCN5_5)*%
X133000000Y-199270000D03*
%TO.P,U1,CN5_6,D13*%
%TO.N,unconnected-(U1F-D13-PadCN5_6)*%
X133000000Y-196730000D03*
%TO.P,U1,CN5_7,CN5_GND*%
%TO.N,unconnected-(U1F-CN5_GND-PadCN5_7)*%
X133000000Y-194190000D03*
%TO.P,U1,CN5_8,AREF*%
%TO.N,unconnected-(U1F-AREF-PadCN5_8)*%
X133000000Y-191650000D03*
%TO.P,U1,CN5_9,D14*%
%TO.N,unconnected-(U1F-D14-PadCN5_9)*%
X133000000Y-189110000D03*
%TO.P,U1,CN5_10,D15*%
%TO.N,unconnected-(U1F-D15-PadCN5_10)*%
X133000000Y-186570000D03*
D31*
%TO.P,U1,CN6_1*%
%TO.N,N/C*%
X84740000Y-195710000D03*
D32*
%TO.P,U1,CN6_2,CN6_IOREF*%
%TO.N,unconnected-(U1C-CN6_IOREF-PadCN6_2)*%
X84740000Y-198250000D03*
%TO.P,U1,CN6_3,CN6_RESET*%
%TO.N,unconnected-(U1C-CN6_RESET-PadCN6_3)*%
X84740000Y-200790000D03*
%TO.P,U1,CN6_4,CN6_+3V3*%
%TO.N,unconnected-(U1C-CN6_+3V3-PadCN6_4)*%
X84740000Y-203330000D03*
%TO.P,U1,CN6_5,CN6_+5V*%
%TO.N,unconnected-(U1C-CN6_+5V-PadCN6_5)*%
X84740000Y-205870000D03*
%TO.P,U1,CN6_6,CN6_GND*%
%TO.N,CN6_GND*%
X84740000Y-208410000D03*
%TO.P,U1,CN6_7,CN6_GND*%
%TO.N,CN6_GND_1*%
X84740000Y-210950000D03*
%TO.P,U1,CN6_8,CN6_VIN*%
%TO.N,unconnected-(U1C-CN6_VIN-PadCN6_8)*%
X84740000Y-213490000D03*
D33*
%TO.P,U1,CN7_1,PC10*%
%TO.N,unconnected-(U1A-PC10-PadCN7_1)*%
X77120000Y-185550000D03*
D34*
%TO.P,U1,CN7_2,PC11*%
%TO.N,unconnected-(U1A-PC11-PadCN7_2)*%
X79660000Y-185550000D03*
%TO.P,U1,CN7_3,PC12*%
%TO.N,unconnected-(U1A-PC12-PadCN7_3)*%
X77120000Y-188090000D03*
%TO.P,U1,CN7_4,PD2*%
%TO.N,unconnected-(U1A-PD2-PadCN7_4)*%
X79660000Y-188090000D03*
%TO.P,U1,CN7_5,VDD*%
%TO.N,unconnected-(U1A-VDD-PadCN7_5)*%
X77120000Y-190630000D03*
%TO.P,U1,CN7_6,E5V*%
%TO.N,unconnected-(U1A-E5V-PadCN7_6)*%
X79660000Y-190630000D03*
%TO.P,U1,CN7_7,BOOT0*%
%TO.N,unconnected-(U1A-BOOT0-PadCN7_7)*%
X77120000Y-193170000D03*
%TO.P,U1,CN7_8,CN7_GND*%
%TO.N,CN7_GND_1*%
X79660000Y-193170000D03*
%TO.P,U1,CN7_9*%
%TO.N,N/C*%
X77120000Y-195710000D03*
%TO.P,U1,CN7_10*%
X79660000Y-195710000D03*
%TO.P,U1,CN7_11*%
X77120000Y-198250000D03*
%TO.P,U1,CN7_12,CN7_IOREF*%
%TO.N,unconnected-(U1A-CN7_IOREF-PadCN7_12)*%
X79660000Y-198250000D03*
%TO.P,U1,CN7_13,PA13*%
%TO.N,unconnected-(U1A-PA13-PadCN7_13)*%
X77120000Y-200790000D03*
%TO.P,U1,CN7_14,CN7_RESET*%
%TO.N,unconnected-(U1A-CN7_RESET-PadCN7_14)*%
X79660000Y-200790000D03*
%TO.P,U1,CN7_15,PA14*%
%TO.N,unconnected-(U1A-PA14-PadCN7_15)*%
X77120000Y-203330000D03*
%TO.P,U1,CN7_16,CN7_+3V3*%
%TO.N,/VCC*%
X79660000Y-203330000D03*
%TO.P,U1,CN7_17,PA15*%
%TO.N,unconnected-(U1A-PA15-PadCN7_17)*%
X77120000Y-205870000D03*
%TO.P,U1,CN7_18,CN7_+5V*%
%TO.N,/VDD2*%
X79660000Y-205870000D03*
%TO.P,U1,CN7_19,CN7_GND*%
%TO.N,CN7_GND*%
X77120000Y-208410000D03*
%TO.P,U1,CN7_20,CN7_GND*%
%TO.N,CN7_GND_2*%
X79660000Y-208410000D03*
%TO.P,U1,CN7_21,PB7*%
%TO.N,unconnected-(U1A-PB7-PadCN7_21)*%
X77120000Y-210950000D03*
%TO.P,U1,CN7_22,CN7_GND*%
%TO.N,CN7_GND_3*%
X79660000Y-210950000D03*
%TO.P,U1,CN7_23,PC13*%
%TO.N,unconnected-(U1A-PC13-PadCN7_23)*%
X77120000Y-213490000D03*
%TO.P,U1,CN7_24,CN7_VIN*%
%TO.N,unconnected-(U1A-CN7_VIN-PadCN7_24)*%
X79660000Y-213490000D03*
%TO.P,U1,CN7_25,PC14*%
%TO.N,unconnected-(U1A-PC14-PadCN7_25)*%
X77120000Y-216030000D03*
%TO.P,U1,CN7_26*%
%TO.N,N/C*%
X79660000Y-216030000D03*
%TO.P,U1,CN7_27,PC15*%
%TO.N,unconnected-(U1A-PC15-PadCN7_27)*%
X77120000Y-218570000D03*
%TO.P,U1,CN7_28,PA0*%
%TO.N,/PV_Voltage_Out*%
X79660000Y-218570000D03*
%TO.P,U1,CN7_29,PH0*%
%TO.N,unconnected-(U1A-PH0-PadCN7_29)*%
X77120000Y-221110000D03*
%TO.P,U1,CN7_30,PA1*%
%TO.N,/PV_Current*%
X79660000Y-221110000D03*
%TO.P,U1,CN7_31,PH1*%
%TO.N,unconnected-(U1A-PH1-PadCN7_31)*%
X77120000Y-223650000D03*
%TO.P,U1,CN7_32,PA4*%
%TO.N,unconnected-(U1A-PA4-PadCN7_32)*%
X79660000Y-223650000D03*
%TO.P,U1,CN7_33,VBAT*%
%TO.N,unconnected-(U1A-VBAT-PadCN7_33)*%
X77120000Y-226190000D03*
%TO.P,U1,CN7_34,PB0*%
%TO.N,unconnected-(U1A-PB0-PadCN7_34)*%
X79660000Y-226190000D03*
%TO.P,U1,CN7_35,PC2*%
%TO.N,unconnected-(U1A-PC2-PadCN7_35)*%
X77120000Y-228730000D03*
%TO.P,U1,CN7_36,PC1/PB9*%
%TO.N,unconnected-(U1A-PC1{slash}PB9-PadCN7_36)*%
X79660000Y-228730000D03*
%TO.P,U1,CN7_37,PC3*%
%TO.N,unconnected-(U1A-PC3-PadCN7_37)*%
X77120000Y-231270000D03*
%TO.P,U1,CN7_38,PC0/PB8*%
%TO.N,unconnected-(U1A-PC0{slash}PB8-PadCN7_38)*%
X79660000Y-231270000D03*
D31*
%TO.P,U1,CN8_1,A0*%
%TO.N,unconnected-(U1E-A0-PadCN8_1)*%
X84740000Y-218570000D03*
D32*
%TO.P,U1,CN8_2,A1*%
%TO.N,unconnected-(U1E-A1-PadCN8_2)*%
X84740000Y-221110000D03*
%TO.P,U1,CN8_3,A2*%
%TO.N,unconnected-(U1E-A2-PadCN8_3)*%
X84740000Y-223650000D03*
%TO.P,U1,CN8_4,A3*%
%TO.N,unconnected-(U1E-A3-PadCN8_4)*%
X84740000Y-226190000D03*
%TO.P,U1,CN8_5,A4*%
%TO.N,unconnected-(U1E-A4-PadCN8_5)*%
X84740000Y-228730000D03*
%TO.P,U1,CN8_6,A5*%
%TO.N,unconnected-(U1E-A5-PadCN8_6)*%
X84740000Y-231270000D03*
D31*
%TO.P,U1,CN9_1,D0*%
%TO.N,unconnected-(U1D-D0-PadCN9_1)*%
X133000000Y-231270000D03*
D32*
%TO.P,U1,CN9_2,D1*%
%TO.N,unconnected-(U1D-D1-PadCN9_2)*%
X133000000Y-228730000D03*
%TO.P,U1,CN9_3,D2*%
%TO.N,unconnected-(U1D-D2-PadCN9_3)*%
X133000000Y-226190000D03*
%TO.P,U1,CN9_4,D3*%
%TO.N,unconnected-(U1D-D3-PadCN9_4)*%
X133000000Y-223650000D03*
%TO.P,U1,CN9_5,D4*%
%TO.N,unconnected-(U1D-D4-PadCN9_5)*%
X133000000Y-221110000D03*
%TO.P,U1,CN9_6,D5*%
%TO.N,unconnected-(U1D-D5-PadCN9_6)*%
X133000000Y-218570000D03*
%TO.P,U1,CN9_7,D6*%
%TO.N,unconnected-(U1D-D6-PadCN9_7)*%
X133000000Y-216030000D03*
%TO.P,U1,CN9_8,D7*%
%TO.N,unconnected-(U1D-D7-PadCN9_8)*%
X133000000Y-213490000D03*
D33*
%TO.P,U1,CN10_1,PC9*%
%TO.N,unconnected-(U1B-PC9-PadCN10_1)*%
X138080000Y-185550000D03*
D34*
%TO.P,U1,CN10_2,PC8*%
%TO.N,unconnected-(U1B-PC8-PadCN10_2)*%
X140620000Y-185550000D03*
%TO.P,U1,CN10_3,PB8*%
%TO.N,unconnected-(U1B-PB8-PadCN10_3)*%
X138080000Y-188090000D03*
%TO.P,U1,CN10_4,PC6*%
%TO.N,unconnected-(U1B-PC6-PadCN10_4)*%
X140620000Y-188090000D03*
%TO.P,U1,CN10_5,PB9*%
%TO.N,unconnected-(U1B-PB9-PadCN10_5)*%
X138080000Y-190630000D03*
%TO.P,U1,CN10_6,PC5*%
%TO.N,unconnected-(U1B-PC5-PadCN10_6)*%
X140620000Y-190630000D03*
%TO.P,U1,CN10_7,AVDD*%
%TO.N,unconnected-(U1B-AVDD-PadCN10_7)*%
X138080000Y-193170000D03*
%TO.P,U1,CN10_8,U5V*%
%TO.N,unconnected-(U1B-U5V-PadCN10_8)*%
X140620000Y-193170000D03*
%TO.P,U1,CN10_9,CN10_GND*%
%TO.N,AGND*%
X138080000Y-195710000D03*
%TO.P,U1,CN10_10*%
%TO.N,N/C*%
X140620000Y-195710000D03*
%TO.P,U1,CN10_11,PA5*%
%TO.N,unconnected-(U1B-PA5-PadCN10_11)*%
X138080000Y-198250000D03*
%TO.P,U1,CN10_12,PA12*%
%TO.N,unconnected-(U1B-PA12-PadCN10_12)*%
X140620000Y-198250000D03*
%TO.P,U1,CN10_13,PA6*%
%TO.N,unconnected-(U1B-PA6-PadCN10_13)*%
X138080000Y-200790000D03*
%TO.P,U1,CN10_14,PA11*%
%TO.N,unconnected-(U1B-PA11-PadCN10_14)*%
X140620000Y-200790000D03*
%TO.P,U1,CN10_15,PA7*%
%TO.N,unconnected-(U1B-PA7-PadCN10_15)*%
X138080000Y-203330000D03*
%TO.P,U1,CN10_16,PB12*%
%TO.N,unconnected-(U1B-PB12-PadCN10_16)*%
X140620000Y-203330000D03*
%TO.P,U1,CN10_17,PB6*%
%TO.N,unconnected-(U1B-PB6-PadCN10_17)*%
X138080000Y-205870000D03*
%TO.P,U1,CN10_18*%
%TO.N,N/C*%
X140620000Y-205870000D03*
%TO.P,U1,CN10_19,PC7*%
%TO.N,unconnected-(U1B-PC7-PadCN10_19)*%
X138080000Y-208410000D03*
%TO.P,U1,CN10_20,CN10_GND*%
%TO.N,AGND*%
X140620000Y-208410000D03*
%TO.P,U1,CN10_21,PA9*%
%TO.N,/M2_Sig*%
X138080000Y-210950000D03*
%TO.P,U1,CN10_22,PB2*%
%TO.N,unconnected-(U1B-PB2-PadCN10_22)*%
X140620000Y-210950000D03*
%TO.P,U1,CN10_23,PA8*%
%TO.N,/M1_Sig*%
X138080000Y-213490000D03*
%TO.P,U1,CN10_24,PB1*%
%TO.N,unconnected-(U1B-PB1-PadCN10_24)*%
X140620000Y-213490000D03*
%TO.P,U1,CN10_25,PB10*%
%TO.N,unconnected-(U1B-PB10-PadCN10_25)*%
X138080000Y-216030000D03*
%TO.P,U1,CN10_26,PB15*%
%TO.N,unconnected-(U1B-PB15-PadCN10_26)*%
X140620000Y-216030000D03*
%TO.P,U1,CN10_27,PB4*%
%TO.N,unconnected-(U1B-PB4-PadCN10_27)*%
X138080000Y-218570000D03*
%TO.P,U1,CN10_28,PB14*%
%TO.N,unconnected-(U1B-PB14-PadCN10_28)*%
X140620000Y-218570000D03*
%TO.P,U1,CN10_29,PB5*%
%TO.N,unconnected-(U1B-PB5-PadCN10_29)*%
X138080000Y-221110000D03*
%TO.P,U1,CN10_30,PB13*%
%TO.N,unconnected-(U1B-PB13-PadCN10_30)*%
X140620000Y-221110000D03*
%TO.P,U1,CN10_31,PB3*%
%TO.N,unconnected-(U1B-PB3-PadCN10_31)*%
X138080000Y-223650000D03*
%TO.P,U1,CN10_32,AGND*%
%TO.N,AGND*%
X140620000Y-223650000D03*
%TO.P,U1,CN10_33,PA10*%
%TO.N,/M3_Sig*%
X138080000Y-226190000D03*
%TO.P,U1,CN10_34,PC4*%
%TO.N,unconnected-(U1B-PC4-PadCN10_34)*%
X140620000Y-226190000D03*
%TO.P,U1,CN10_35,PA2*%
%TO.N,unconnected-(U1B-PA2-PadCN10_35)*%
X138080000Y-228730000D03*
%TO.P,U1,CN10_36*%
%TO.N,N/C*%
X140620000Y-228730000D03*
%TO.P,U1,CN10_37,PA3*%
%TO.N,unconnected-(U1B-PA3-PadCN10_37)*%
X138080000Y-231270000D03*
%TO.P,U1,CN10_38*%
%TO.N,N/C*%
X140620000Y-231270000D03*
%TD*%
D35*
%TO.P,Rd6,1*%
%TO.N,Net-(U5-ANODE)*%
X163177400Y-174317800D03*
%TO.P,Rd6,2*%
%TO.N,AGND*%
X163177400Y-176227800D03*
%TD*%
D19*
%TO.P,Cb1,1,1*%
%TO.N,/PV_IN*%
X124170000Y-87500000D03*
%TO.P,Cb1,2,2*%
%TO.N,PGND*%
X124830000Y-87500000D03*
%TD*%
%TO.P,Cvs4,1,1*%
%TO.N,Net-(U9-IN+)*%
X74549000Y-135250000D03*
%TO.P,Cvs4,2,2*%
%TO.N,AGND*%
X73889000Y-135250000D03*
%TD*%
D30*
%TO.P,R6,1*%
%TO.N,Net-(U9-IN-)*%
X83750000Y-141794000D03*
%TO.P,R6,2*%
%TO.N,/PV_Voltage_Out*%
X83750000Y-143750000D03*
%TD*%
D10*
%TO.P,J_VDD1+1,1,1*%
%TO.N,/VDD1*%
X80987600Y-47750000D03*
%TO.P,J_VDD1+1,2,2*%
X80987600Y-52525200D03*
%TO.P,J_VDD1+1,3,3*%
X83375200Y-50137600D03*
%TO.P,J_VDD1+1,4,4*%
X78600000Y-50137600D03*
%TD*%
D36*
%TO.P,D8,1*%
%TO.N,/M3_Gate*%
X206860000Y-174125000D03*
%TO.P,D8,2*%
%TO.N,/M3_Source*%
X206860000Y-175495000D03*
%TD*%
D37*
%TO.P,U7,1,NC*%
%TO.N,unconnected-(U7-NC-Pad1)*%
X114270000Y-126836800D03*
%TO.P,U7,2,ANODE*%
%TO.N,Net-(U7-ANODE)*%
X115540000Y-126836800D03*
%TO.P,U7,3,CATHODE*%
%TO.N,AGND*%
X116810000Y-126836800D03*
%TO.P,U7,4,NC*%
%TO.N,unconnected-(U7-NC-Pad4)*%
X118080000Y-126836800D03*
%TO.P,U7,5,GND*%
%TO.N,/M1_Source*%
X118080000Y-121147200D03*
%TO.P,U7,6,NC*%
%TO.N,unconnected-(U7-NC-Pad6)*%
X116810000Y-121147200D03*
%TO.P,U7,7,VO*%
%TO.N,Net-(U7-VO)*%
X115540000Y-121147200D03*
%TO.P,U7,8,VCC*%
%TO.N,/V_M1+*%
X114270000Y-121147200D03*
%TD*%
D23*
%TO.P,D4,1,K*%
%TO.N,/M3_Source*%
X218150000Y-182750000D03*
%TO.P,D4,2,A*%
%TO.N,PGND*%
X222350000Y-182750000D03*
%TD*%
D29*
%TO.P,Rd11,1*%
%TO.N,/M1_Source*%
X117520000Y-105650000D03*
%TO.P,Rd11,2*%
%TO.N,/GateDriver_M1/SU1+*%
X115640000Y-105650000D03*
%TD*%
D38*
%TO.P,D7,1,K*%
%TO.N,/GateDriver_M3/SU3+*%
X198940000Y-171160000D03*
D18*
%TO.P,D7,2,A*%
%TO.N,/M3_Gate*%
X206560000Y-171160000D03*
%TD*%
D15*
%TO.P,Cd1,1,1*%
%TO.N,/V_M2+*%
X152420000Y-114500000D03*
%TO.P,Cd1,2,2*%
%TO.N,PGND*%
X155000000Y-114500000D03*
%TD*%
D39*
%TO.P,U8,1,VDD*%
%TO.N,/V_M1+*%
X112475000Y-117060000D03*
D40*
%TO.P,U8,2,INPUT*%
%TO.N,Net-(U7-VO)*%
X115015000Y-117060000D03*
%TO.P,U8,3,NC*%
%TO.N,unconnected-(U8-NC-Pad3)*%
X117555000Y-117060000D03*
%TO.P,U8,4,GND*%
%TO.N,/M1_Source*%
X120095000Y-117060000D03*
%TO.P,U8,5,GND*%
X120095000Y-109440000D03*
%TO.P,U8,6,OUTPUT*%
%TO.N,/GateDriver_M1/SU1+*%
X117555000Y-109440000D03*
%TO.P,U8,7,OUTPUT*%
X115015000Y-109440000D03*
%TO.P,U8,8,VDD*%
%TO.N,/V_M1+*%
X112475000Y-109440000D03*
%TD*%
D30*
%TO.P,R3,1*%
%TO.N,/Voltage_Sensor/VOUT-*%
X80266000Y-134794000D03*
%TO.P,R3,2*%
%TO.N,Net-(U9-IN-)*%
X80266000Y-136750000D03*
%TD*%
D19*
%TO.P,Cd2,1,1*%
%TO.N,/V_M2+*%
X153380000Y-111700000D03*
%TO.P,Cd2,2,2*%
%TO.N,PGND*%
X154040000Y-111700000D03*
%TD*%
%TO.P,Cvs2,1,1*%
%TO.N,/VDD1*%
X80652000Y-116550000D03*
%TO.P,Cvs2,2,2*%
%TO.N,PGND*%
X79992000Y-116550000D03*
%TD*%
D41*
%TO.P,Cb2,1,1*%
%TO.N,/PV_IN*%
X124231000Y-89982000D03*
%TO.P,Cb2,2,2*%
%TO.N,PGND*%
X125571000Y-89982000D03*
%TD*%
D42*
%TO.P,Rd10,1*%
%TO.N,Net-(U7-ANODE)*%
X115170000Y-131750000D03*
%TO.P,Rd10,2*%
%TO.N,AGND*%
X117080000Y-131750000D03*
%TD*%
D10*
%TO.P,J_BAT-1,1,1*%
%TO.N,PGND*%
X257700000Y-85900000D03*
%TO.P,J_BAT-1,2,2*%
X252924800Y-85900000D03*
%TO.P,J_BAT-1,3,3*%
X255312400Y-88287600D03*
%TO.P,J_BAT-1,4,4*%
X255312400Y-83512400D03*
%TD*%
D43*
%TO.P,M3,1,G*%
%TO.N,/M3_Gate*%
X210948000Y-172120000D03*
D44*
%TO.P,M3,2,D*%
%TO.N,BAT+*%
X222110300Y-174660000D03*
D43*
%TO.P,M3,3,S*%
%TO.N,/M3_Source*%
X210948000Y-177200000D03*
%TD*%
D45*
%TO.P,U2,1,IP+*%
%TO.N,PV+*%
X93843000Y-121475000D03*
%TO.P,U2,2,IP+*%
X92573000Y-121475000D03*
%TO.P,U2,3,IP-*%
%TO.N,/PV_IN*%
X91303000Y-121475000D03*
%TO.P,U2,4,IP-*%
X90033000Y-121475000D03*
%TO.P,U2,5,GND*%
%TO.N,AGND*%
X90033000Y-126425000D03*
%TO.P,U2,6,BW_SEL*%
X91303000Y-126425000D03*
%TO.P,U2,7,VIOUT*%
%TO.N,/PV_Current*%
X92573000Y-126425000D03*
%TO.P,U2,8,VCC*%
%TO.N,/VCC*%
X93843000Y-126425000D03*
%TD*%
D23*
%TO.P,D3,1,K*%
%TO.N,BAT+*%
X178780000Y-74350000D03*
%TO.P,D3,2,A*%
%TO.N,Net-(C1-+)*%
X174580000Y-74350000D03*
%TD*%
D10*
%TO.P,J_M2-1,1,1*%
%TO.N,PGND*%
X181650000Y-47824800D03*
%TO.P,J_M2-1,2,2*%
X181650000Y-52600000D03*
%TO.P,J_M2-1,3,3*%
X184037600Y-50212400D03*
%TO.P,J_M2-1,4,4*%
X179262400Y-50212400D03*
%TD*%
D19*
%TO.P,Cvs3,1,1*%
%TO.N,/VDD2*%
X81549000Y-132000000D03*
%TO.P,Cvs3,2,2*%
%TO.N,AGND*%
X80889000Y-132000000D03*
%TD*%
D46*
%TO.P,Cb6,1,1*%
%TO.N,/V_M3+*%
X191750000Y-166920000D03*
%TO.P,Cb6,2,2*%
%TO.N,/M3_Source*%
X191750000Y-167580000D03*
%TD*%
%TO.P,Cvs5,1,1*%
%TO.N,Net-(U9-IN-)*%
X86000000Y-142451000D03*
%TO.P,Cvs5,2,2*%
%TO.N,/PV_Voltage_Out*%
X86000000Y-143111000D03*
%TD*%
D47*
%TO.P,C1,1,+*%
%TO.N,Net-(C1-+)*%
X175500000Y-81850000D03*
%TO.P,C1,2,-*%
%TO.N,PGND*%
X175500000Y-87850000D03*
%TD*%
D46*
%TO.P,Cb4,1,1*%
%TO.N,BAT+*%
X227600000Y-177250000D03*
%TO.P,Cb4,2,2*%
%TO.N,PGND*%
X227600000Y-177910000D03*
%TD*%
D10*
%TO.P,J_Pump+1,1,1*%
%TO.N,/Pump_Voltage*%
X257700000Y-212687600D03*
%TO.P,J_Pump+1,2,2*%
X252924800Y-212687600D03*
%TO.P,J_Pump+1,3,3*%
X255312400Y-215075200D03*
%TO.P,J_Pump+1,4,4*%
X255312400Y-210300000D03*
%TD*%
D42*
%TO.P,Rd2,1*%
%TO.N,Net-(U3-ANODE)*%
X162935000Y-131750000D03*
%TO.P,Rd2,2*%
%TO.N,AGND*%
X164845000Y-131750000D03*
%TD*%
D48*
%TO.P,Rd5,1*%
%TO.N,/M3_Sig*%
X156987200Y-175372800D03*
%TO.P,Rd5,2*%
%TO.N,Net-(U5-ANODE)*%
X158943200Y-175372800D03*
%TD*%
D49*
%TO.P,Rd12,1*%
%TO.N,/GateDriver_M1/SU1+*%
X116000000Y-102585000D03*
%TO.P,Rd12,2*%
%TO.N,/M1_Gate*%
X116000000Y-100715000D03*
%TD*%
D50*
%TO.P,Rd8,1*%
%TO.N,/GateDriver_M3/SU3+*%
X202130000Y-174000000D03*
%TO.P,Rd8,2*%
%TO.N,/M3_Gate*%
X204000000Y-174000000D03*
%TD*%
D46*
%TO.P,Cb5,1,1*%
%TO.N,/VCC*%
X94250000Y-128701000D03*
%TO.P,Cb5,2,2*%
%TO.N,AGND*%
X94250000Y-129361000D03*
%TD*%
D10*
%TO.P,J_M1-1,1,1*%
%TO.N,/M1_Source*%
X114200000Y-47824800D03*
%TO.P,J_M1-1,2,2*%
X114200000Y-52600000D03*
%TO.P,J_M1-1,3,3*%
X116587600Y-50212400D03*
%TO.P,J_M1-1,4,4*%
X111812400Y-50212400D03*
%TD*%
D51*
%TO.P,Cb3,1,1*%
%TO.N,BAT+*%
X230000000Y-176910000D03*
%TO.P,Cb3,2,2*%
%TO.N,PGND*%
X230000000Y-178250000D03*
%TD*%
D48*
%TO.P,R5,1*%
%TO.N,Net-(U9-IN+)*%
X74456000Y-137250000D03*
%TO.P,R5,2*%
%TO.N,AGND*%
X72500000Y-137250000D03*
%TD*%
D30*
%TO.P,R4,1*%
%TO.N,/Voltage_Sensor/VOUT+*%
X77250000Y-134794000D03*
%TO.P,R4,2*%
%TO.N,Net-(U9-IN+)*%
X77250000Y-136750000D03*
%TD*%
D10*
%TO.P,J_Pump-1,1,1*%
%TO.N,PGND*%
X257700000Y-198587600D03*
%TO.P,J_Pump-1,2,2*%
X252924800Y-198587600D03*
%TO.P,J_Pump-1,3,3*%
X255312400Y-200975200D03*
%TO.P,J_Pump-1,4,4*%
X255312400Y-196200000D03*
%TD*%
D48*
%TO.P,R2,1*%
%TO.N,Net-(IC1-VIN)*%
X78894000Y-114150000D03*
%TO.P,R2,2*%
%TO.N,PGND*%
X76938000Y-114150000D03*
%TD*%
D37*
%TO.P,U3,1,NC*%
%TO.N,unconnected-(U3-NC-Pad1)*%
X161985000Y-126836800D03*
%TO.P,U3,2,ANODE*%
%TO.N,Net-(U3-ANODE)*%
X163255000Y-126836800D03*
%TO.P,U3,3,CATHODE*%
%TO.N,AGND*%
X164525000Y-126836800D03*
%TO.P,U3,4,NC*%
%TO.N,unconnected-(U3-NC-Pad4)*%
X165795000Y-126836800D03*
%TO.P,U3,5,GND*%
%TO.N,PGND*%
X165795000Y-121147200D03*
%TO.P,U3,6,NC*%
%TO.N,unconnected-(U3-NC-Pad6)*%
X164525000Y-121147200D03*
%TO.P,U3,7,VO*%
%TO.N,Net-(U3-VO)*%
X163255000Y-121147200D03*
%TO.P,U3,8,VCC*%
%TO.N,/V_M2+*%
X161985000Y-121147200D03*
%TD*%
D30*
%TO.P,Rd9,1*%
%TO.N,/M1_Sig*%
X112580000Y-133350000D03*
%TO.P,Rd9,2*%
%TO.N,Net-(U7-ANODE)*%
X112580000Y-131394000D03*
%TD*%
D52*
%TO.P,CL1,1*%
%TO.N,/PV_Current*%
X91570000Y-129250000D03*
%TO.P,CL1,2*%
%TO.N,AGND*%
X90706000Y-129250000D03*
%TD*%
D49*
%TO.P,Rd4,1*%
%TO.N,/GateDriver_M2/SU2+*%
X163000000Y-102500000D03*
%TO.P,Rd4,2*%
%TO.N,/M2_Gate*%
X163000000Y-100630000D03*
%TD*%
D39*
%TO.P,U4,1,VDD*%
%TO.N,/V_M2+*%
X160080000Y-117060000D03*
D40*
%TO.P,U4,2,INPUT*%
%TO.N,Net-(U3-VO)*%
X162620000Y-117060000D03*
%TO.P,U4,3,NC*%
%TO.N,unconnected-(U4-NC-Pad3)*%
X165160000Y-117060000D03*
%TO.P,U4,4,GND*%
%TO.N,PGND*%
X167700000Y-117060000D03*
%TO.P,U4,5,GND*%
X167700000Y-109440000D03*
%TO.P,U4,6,OUTPUT*%
%TO.N,/GateDriver_M2/SU2+*%
X165160000Y-109440000D03*
%TO.P,U4,7,OUTPUT*%
X162620000Y-109440000D03*
%TO.P,U4,8,VDD*%
%TO.N,/V_M2+*%
X160080000Y-109440000D03*
%TD*%
D26*
%TO.P,M1,1,G*%
%TO.N,/M1_Gate*%
X114140000Y-93852000D03*
D27*
%TO.P,M1,2,D*%
%TO.N,/PV_IN*%
X116680000Y-82689700D03*
D26*
%TO.P,M1,3,S*%
%TO.N,/M1_Source*%
X119220000Y-93852000D03*
%TD*%
D10*
%TO.P,J_M3-1,1,1*%
%TO.N,/M3_Source*%
X252924800Y-182887600D03*
%TO.P,J_M3-1,2,2*%
X257700000Y-182887600D03*
%TO.P,J_M3-1,3,3*%
X255312400Y-180500000D03*
%TO.P,J_M3-1,4,4*%
X255312400Y-185275200D03*
%TD*%
D16*
%TO.P,Cpv2,1,1*%
%TO.N,/PV_IN*%
X103150000Y-83500000D03*
%TO.P,Cpv2,2,2*%
%TO.N,PGND*%
X103150000Y-86080000D03*
%TD*%
D39*
%TO.P,U6,1,VDD*%
%TO.N,/V_M3+*%
X187190000Y-170880000D03*
D40*
%TO.P,U6,2,INPUT*%
%TO.N,Net-(U5-VO)*%
X187190000Y-173420000D03*
%TO.P,U6,3,NC*%
%TO.N,unconnected-(U6-NC-Pad3)*%
X187190000Y-175960000D03*
%TO.P,U6,4,GND*%
%TO.N,/M3_Source*%
X187190000Y-178500000D03*
%TO.P,U6,5,GND*%
X194810000Y-178500000D03*
%TO.P,U6,6,OUTPUT*%
%TO.N,/GateDriver_M3/SU3+*%
X194810000Y-175960000D03*
%TO.P,U6,7,OUTPUT*%
X194810000Y-173420000D03*
%TO.P,U6,8,VDD*%
%TO.N,/V_M3+*%
X194810000Y-170880000D03*
%TD*%
D53*
%TO.N,PGND*%
X156300000Y-111700000D03*
D54*
X167500000Y-107500000D03*
D53*
X157000000Y-114500000D03*
X127750000Y-90250000D03*
X78250000Y-115500000D03*
X169250000Y-118000000D03*
X80000000Y-115500000D03*
D54*
X103250000Y-89000000D03*
D53*
X229000000Y-180000000D03*
D54*
X224500000Y-182750000D03*
X225100000Y-188200000D03*
X171900000Y-91500000D03*
X171150000Y-91150000D03*
X107500000Y-89000000D03*
X129849997Y-92450000D03*
X168550000Y-93400000D03*
X130650000Y-92450000D03*
D53*
X227400000Y-178876000D03*
X127000000Y-87500000D03*
D54*
X168050000Y-92800000D03*
D53*
X76750000Y-112500000D03*
D54*
%TO.N,/PV_IN*%
X95700000Y-80250000D03*
X96450000Y-80250000D03*
X88750000Y-116750000D03*
X89300000Y-117250000D03*
D53*
%TO.N,/VCC*%
X95750000Y-128000000D03*
%TO.N,AGND*%
X79750000Y-131750000D03*
D55*
X117250000Y-130250000D03*
D53*
X75100000Y-140700000D03*
X117500000Y-133500000D03*
X89700000Y-128400000D03*
X164750000Y-130250000D03*
X161500000Y-176750000D03*
X164750000Y-133250000D03*
X166750000Y-175750000D03*
X164750000Y-176250000D03*
X117000000Y-128250000D03*
X94000000Y-130250000D03*
X76750000Y-131250000D03*
X72500000Y-138700000D03*
X164750000Y-128000000D03*
X89700000Y-129100000D03*
%TO.N,/V_M3+*%
X187750000Y-165250000D03*
%TO.N,/M3_Source*%
X192000000Y-168500000D03*
X186250000Y-182000000D03*
X182750000Y-173250000D03*
X192000000Y-180750000D03*
X182750000Y-177250000D03*
D54*
%TO.N,/V_M2+*%
X151750000Y-111250000D03*
%TO.N,/M1_Source*%
X120600000Y-93500000D03*
X125250000Y-66650000D03*
X122350000Y-93850000D03*
D53*
X108500000Y-115000000D03*
X108500000Y-112500000D03*
D54*
X126000000Y-67450000D03*
D53*
X125250000Y-110000000D03*
X123000000Y-112500000D03*
X123000000Y-115000000D03*
%TO.N,/PV_Current*%
X92500000Y-129300000D03*
%TO.N,/VDD1*%
X82500000Y-116500000D03*
%TO.N,/VDD2*%
X74500000Y-145900000D03*
X79400000Y-146600000D03*
X81500000Y-133000000D03*
%TO.N,/M2_Sig*%
X160500000Y-135250000D03*
%TO.N,/M3_Sig*%
X157000000Y-177750000D03*
%TO.N,/M1_Sig*%
X112750000Y-134750000D03*
%TO.N,/PV_Voltage_Out*%
X78100000Y-148100000D03*
%TO.N,/Voltage_Sensor/VOUT-*%
X78000000Y-131250000D03*
X80250000Y-133500000D03*
%TD*%
D56*
%TO.N,PGND*%
X167700000Y-107700000D02*
X167500000Y-107500000D01*
D57*
X76728000Y-118800000D02*
X77998000Y-118800000D01*
D56*
X164565000Y-97940000D02*
X164565000Y-98065000D01*
X76938000Y-114938000D02*
X76938000Y-114150000D01*
X78250000Y-115500000D02*
X77500000Y-115500000D01*
D58*
X129150000Y-93850000D02*
X128430000Y-93850000D01*
D56*
X168640000Y-118000000D02*
X167700000Y-117060000D01*
X164565000Y-97940000D02*
X164565000Y-95717000D01*
X164820000Y-105950000D02*
X165950000Y-105950000D01*
X166102800Y-121147200D02*
X169250000Y-118000000D01*
D58*
X166882000Y-93400000D02*
X166430000Y-93852000D01*
D56*
X153991000Y-111700000D02*
X156300000Y-111700000D01*
D58*
X172250000Y-91150000D02*
X171900000Y-91500000D01*
D56*
X230000000Y-178250000D02*
X230000000Y-179000000D01*
D58*
X107320000Y-88820000D02*
X107500000Y-89000000D01*
X223600000Y-189700000D02*
X225100000Y-188200000D01*
D56*
X77998000Y-116993000D02*
X78441000Y-116550000D01*
D58*
X171150000Y-91150000D02*
X172250000Y-91150000D01*
D56*
X164565000Y-95717000D02*
X166430000Y-93852000D01*
D58*
X168050000Y-92800000D02*
X167482000Y-92800000D01*
D56*
X77500000Y-115500000D02*
X76938000Y-114938000D01*
X77998000Y-118800000D02*
X77998000Y-116993000D01*
D58*
X168550000Y-93400000D02*
X166882000Y-93400000D01*
X223600000Y-190650000D02*
X223600000Y-189700000D01*
D56*
X165950000Y-105950000D02*
X167500000Y-107500000D01*
X230000000Y-179000000D02*
X229000000Y-180000000D01*
D58*
X167482000Y-92800000D02*
X166882000Y-93400000D01*
D56*
X165795000Y-121147200D02*
X166102800Y-121147200D01*
D58*
X130550000Y-92450000D02*
X129150000Y-93850000D01*
X129849997Y-92450000D02*
X130650000Y-92450000D01*
D56*
X164820000Y-98195000D02*
X164565000Y-97940000D01*
X127482000Y-89982000D02*
X127750000Y-90250000D01*
X164820000Y-106560000D02*
X164820000Y-105950000D01*
X164820000Y-105950000D02*
X164820000Y-98195000D01*
X76938000Y-112688000D02*
X76750000Y-112500000D01*
D57*
X80041000Y-115541000D02*
X80000000Y-115500000D01*
D56*
X124781000Y-87500000D02*
X127000000Y-87500000D01*
D58*
X175500000Y-87850000D02*
X175500000Y-87900000D01*
X130650000Y-92450000D02*
X130550000Y-92450000D01*
D56*
X125571000Y-89982000D02*
X127482000Y-89982000D01*
X227600000Y-178676000D02*
X227400000Y-178876000D01*
X78441000Y-116550000D02*
X78441000Y-115691000D01*
X227600000Y-177861000D02*
X227600000Y-178676000D01*
X76938000Y-114150000D02*
X76938000Y-112688000D01*
D58*
X103150000Y-88900000D02*
X103250000Y-89000000D01*
X222350000Y-182750000D02*
X224500000Y-182750000D01*
D56*
X155000000Y-114500000D02*
X157000000Y-114500000D01*
D58*
X107320000Y-86080000D02*
X107320000Y-88820000D01*
X103150000Y-86080000D02*
X103150000Y-88900000D01*
D56*
X169250000Y-118000000D02*
X168640000Y-118000000D01*
D57*
X80041000Y-116550000D02*
X80041000Y-115541000D01*
D58*
X175500000Y-87900000D02*
X172250000Y-91150000D01*
D56*
X167700000Y-109440000D02*
X167700000Y-107700000D01*
X78441000Y-115691000D02*
X78250000Y-115500000D01*
D58*
%TO.N,Net-(C1-+)*%
X175500000Y-80000000D02*
X169850000Y-74350000D01*
X169850000Y-74350000D02*
X169030000Y-74350000D01*
X169030000Y-74350000D02*
X174580000Y-74350000D01*
X175500000Y-81850000D02*
X175500000Y-80000000D01*
%TO.N,/Pump_Voltage*%
X237737200Y-197500000D02*
X252924800Y-212687600D01*
X210800000Y-197500000D02*
X220350000Y-197500000D01*
X210800000Y-197500000D02*
X226850000Y-197500000D01*
X220350000Y-197500000D02*
X223600000Y-194250000D01*
X223600000Y-194250000D02*
X226850000Y-197500000D01*
X226850000Y-197500000D02*
X237737200Y-197500000D01*
%TO.N,/PV_IN*%
X90033000Y-121475000D02*
X90033000Y-118033000D01*
X116680000Y-82689700D02*
X116680000Y-80680000D01*
D56*
X124219000Y-86469000D02*
X120439700Y-82689700D01*
D58*
X107320000Y-83500000D02*
X107320000Y-80320000D01*
X107320000Y-80320000D02*
X107250000Y-80250000D01*
D56*
X124219000Y-87500000D02*
X124219000Y-86469000D01*
D58*
X114240300Y-80250000D02*
X116680000Y-82689700D01*
X103150000Y-83500000D02*
X103150000Y-80350000D01*
X90033000Y-121475000D02*
X90955000Y-121475000D01*
X95700000Y-80250000D02*
X103250000Y-80250000D01*
X103150000Y-83500000D02*
X107320000Y-83500000D01*
X115869700Y-83500000D02*
X116680000Y-82689700D01*
X103250000Y-80250000D02*
X107250000Y-80250000D01*
X102900000Y-83750000D02*
X103150000Y-83500000D01*
D56*
X120439700Y-82689700D02*
X116680000Y-82689700D01*
D58*
X103150000Y-80350000D02*
X103250000Y-80250000D01*
D56*
X124231000Y-87512000D02*
X124219000Y-87500000D01*
D58*
X107250000Y-80250000D02*
X114240300Y-80250000D01*
D56*
X124231000Y-89982000D02*
X124231000Y-87512000D01*
D58*
X90033000Y-118033000D02*
X88750000Y-116750000D01*
%TO.N,BAT+*%
X243524800Y-109500000D02*
X252924800Y-100100000D01*
D56*
X230000000Y-176910000D02*
X230000000Y-174660000D01*
D58*
X222250000Y-109500000D02*
X243524800Y-109500000D01*
X227500000Y-174660000D02*
X222110300Y-174660000D01*
D56*
X227600000Y-174760000D02*
X227500000Y-174660000D01*
X225250000Y-177799700D02*
X222110300Y-174660000D01*
X222850000Y-175399700D02*
X222110300Y-174660000D01*
D58*
X230000000Y-174660000D02*
X227500000Y-174660000D01*
X222250000Y-154000000D02*
X222250000Y-125750000D01*
X222250000Y-109500000D02*
X187100000Y-74350000D01*
X232250000Y-164000000D02*
X222250000Y-154000000D01*
X230000000Y-174660000D02*
X232250000Y-174660000D01*
D56*
X227600000Y-177299000D02*
X227600000Y-174760000D01*
D58*
X232250000Y-174660000D02*
X232250000Y-164000000D01*
X222250000Y-125750000D02*
X222250000Y-109500000D01*
X187100000Y-74350000D02*
X178780000Y-74350000D01*
D56*
%TO.N,/VCC*%
X93843000Y-127843000D02*
X93843000Y-126425000D01*
X94250000Y-128250000D02*
X93843000Y-127843000D01*
X94500000Y-128000000D02*
X95750000Y-128000000D01*
X94250000Y-128250000D02*
X94500000Y-128000000D01*
X94250000Y-128750000D02*
X94250000Y-128250000D01*
%TO.N,AGND*%
X117080000Y-131750000D02*
X117080000Y-133080000D01*
X80938000Y-132000000D02*
X80000000Y-132000000D01*
X117080000Y-133080000D02*
X117500000Y-133500000D01*
X162022200Y-176227800D02*
X161500000Y-176750000D01*
X90033000Y-128067000D02*
X90033000Y-127695000D01*
X164845000Y-130345000D02*
X164750000Y-130250000D01*
X76750000Y-129522000D02*
X76728000Y-129500000D01*
X76860000Y-139800000D02*
X76000000Y-139800000D01*
X91303000Y-126425000D02*
X90033000Y-126425000D01*
X72500000Y-137250000D02*
X72500000Y-138700000D01*
X116810000Y-128060000D02*
X117000000Y-128250000D01*
X163177400Y-176227800D02*
X164727800Y-176227800D01*
X164525000Y-127775000D02*
X164750000Y-128000000D01*
X74500000Y-144000000D02*
X74500000Y-141300000D01*
X76000000Y-139800000D02*
X75100000Y-140700000D01*
X164845000Y-133155000D02*
X164750000Y-133250000D01*
X76750000Y-131250000D02*
X76750000Y-129522000D01*
X116810000Y-126836800D02*
X116810000Y-128060000D01*
X90033000Y-127695000D02*
X90033000Y-126425000D01*
X164727800Y-176227800D02*
X164750000Y-176250000D01*
X89850000Y-129250000D02*
X89700000Y-129100000D01*
X73938000Y-135250000D02*
X73550000Y-135250000D01*
X73000000Y-136750000D02*
X72500000Y-137250000D01*
X80000000Y-132000000D02*
X79750000Y-131750000D01*
X164525000Y-126836800D02*
X164525000Y-127775000D01*
X164845000Y-131750000D02*
X164845000Y-130345000D01*
X74500000Y-141300000D02*
X75100000Y-140700000D01*
X166750000Y-175750000D02*
X168010400Y-175750000D01*
X163177400Y-176227800D02*
X162022200Y-176227800D01*
X73000000Y-135800000D02*
X73000000Y-136750000D01*
X94250000Y-129312000D02*
X94250000Y-130000000D01*
X164845000Y-131750000D02*
X164845000Y-133155000D01*
X73550000Y-135250000D02*
X73000000Y-135800000D01*
X168010400Y-175750000D02*
X168130400Y-175630000D01*
X117080000Y-130420000D02*
X117250000Y-130250000D01*
X90706000Y-129250000D02*
X89850000Y-129250000D01*
X89700000Y-128400000D02*
X90033000Y-128067000D01*
X94250000Y-130000000D02*
X94000000Y-130250000D01*
X117080000Y-131750000D02*
X117080000Y-130420000D01*
D57*
%TO.N,/V_M3+*%
X193969000Y-166969000D02*
X195690000Y-168690000D01*
X187750000Y-166969000D02*
X191750000Y-166969000D01*
X191750000Y-166969000D02*
X193969000Y-166969000D01*
X187190000Y-170880000D02*
X185750000Y-169440000D01*
D56*
X187190000Y-170880000D02*
X186630000Y-170880000D01*
D57*
X173820000Y-173090000D02*
X177981000Y-168929000D01*
X183364500Y-167614500D02*
X184010000Y-166969000D01*
X185750000Y-169440000D02*
X185750000Y-166969000D01*
X177981000Y-168929000D02*
X182050000Y-168929000D01*
X182050000Y-168929000D02*
X183364500Y-167614500D01*
X184010000Y-166969000D02*
X185750000Y-166969000D01*
X185750000Y-166969000D02*
X187500000Y-166969000D01*
X187500000Y-166969000D02*
X187750000Y-166969000D01*
X187750000Y-165250000D02*
X187750000Y-166969000D01*
X195690000Y-170000000D02*
X194810000Y-170880000D01*
X195690000Y-168690000D02*
X195690000Y-170000000D01*
D58*
%TO.N,/M3_Source*%
X215466200Y-182750000D02*
X210800000Y-187416200D01*
D57*
X182750000Y-177250000D02*
X182400000Y-176900000D01*
X196500000Y-179000000D02*
X196000000Y-178500000D01*
X198950000Y-177050000D02*
X198950000Y-175600000D01*
X182750000Y-173250000D02*
X182050000Y-172550000D01*
X191750000Y-167531000D02*
X191750000Y-168250000D01*
X197000000Y-179500000D02*
X195750000Y-180750000D01*
D58*
X218150000Y-182750000D02*
X215466200Y-182750000D01*
D57*
X197000000Y-179000000D02*
X196500000Y-179000000D01*
D58*
X210800000Y-187416200D02*
X211079800Y-187416200D01*
D57*
X192000000Y-180750000D02*
X186250000Y-180750000D01*
X196000000Y-178500000D02*
X194810000Y-178500000D01*
X191750000Y-168250000D02*
X192000000Y-168500000D01*
D58*
X210800000Y-177348000D02*
X210948000Y-177200000D01*
D57*
X209243000Y-175495000D02*
X210948000Y-177200000D01*
D56*
X192000000Y-168500000D02*
X192140000Y-168360000D01*
D57*
X184125000Y-178625000D02*
X182750000Y-177250000D01*
X182400000Y-176900000D02*
X173820000Y-176900000D01*
D58*
X216202000Y-182750000D02*
X210800000Y-177348000D01*
D57*
X195750000Y-180750000D02*
X192000000Y-180750000D01*
D58*
X210800000Y-187416200D02*
X210800000Y-177348000D01*
D57*
X186250000Y-180750000D02*
X184125000Y-178625000D01*
X184250000Y-178500000D02*
X184125000Y-178625000D01*
X187190000Y-178500000D02*
X184250000Y-178500000D01*
X186250000Y-180750000D02*
X186250000Y-182000000D01*
D58*
X218150000Y-182750000D02*
X216202000Y-182750000D01*
D57*
X206860000Y-175495000D02*
X209243000Y-175495000D01*
X197000000Y-179000000D02*
X198950000Y-177050000D01*
X182050000Y-172550000D02*
X182050000Y-171509000D01*
X197000000Y-179000000D02*
X197000000Y-179500000D01*
D56*
X206755000Y-175600000D02*
X206860000Y-175495000D01*
D57*
X198950000Y-175600000D02*
X206755000Y-175600000D01*
D56*
%TO.N,/V_M2+*%
X158372200Y-121147200D02*
X158372200Y-121127800D01*
X158372200Y-121127800D02*
X160080000Y-119420000D01*
X151750000Y-111250000D02*
X152814500Y-112314500D01*
X152814500Y-112314500D02*
X153429000Y-111700000D01*
X152420000Y-114500000D02*
X152420000Y-112709000D01*
X161985000Y-121147200D02*
X158372200Y-121147200D01*
X156099000Y-108500000D02*
X159140000Y-108500000D01*
X159140000Y-108500000D02*
X160080000Y-109440000D01*
X153429000Y-111700000D02*
X153429000Y-111170000D01*
X152420000Y-112709000D02*
X152814500Y-112314500D01*
X153429000Y-111170000D02*
X156099000Y-108500000D01*
X152420000Y-115195000D02*
X152420000Y-114500000D01*
X158372200Y-121147200D02*
X152420000Y-115195000D01*
X160080000Y-119420000D02*
X160080000Y-117060000D01*
D57*
%TO.N,/V_M1+*%
X109162200Y-121147200D02*
X108757500Y-120742500D01*
D56*
X112475000Y-117060000D02*
X112440000Y-117060000D01*
D57*
X111940000Y-109440000D02*
X111500000Y-109000000D01*
X104210000Y-113599000D02*
X91500000Y-100889000D01*
X104210000Y-113599000D02*
X105309000Y-112500000D01*
X91500000Y-100889000D02*
X91500000Y-61100000D01*
X105309000Y-111220000D02*
X107529000Y-109000000D01*
X105309000Y-112500000D02*
X105309000Y-111220000D01*
D56*
X112475000Y-109440000D02*
X111940000Y-109440000D01*
D57*
X111500000Y-109000000D02*
X107529000Y-109000000D01*
X108757500Y-120742500D02*
X104210000Y-116195000D01*
X91500000Y-61100000D02*
X100000000Y-52600000D01*
X114270000Y-121147200D02*
X109162200Y-121147200D01*
X112440000Y-117060000D02*
X108757500Y-120742500D01*
D56*
X104210000Y-116195000D02*
X104210000Y-115500000D01*
D57*
X104210000Y-115500000D02*
X104210000Y-113599000D01*
%TO.N,/M1_Source*%
X117520000Y-105650000D02*
X117520000Y-98090000D01*
X120095000Y-108225000D02*
X117520000Y-105650000D01*
X108500000Y-112500000D02*
X105871000Y-112500000D01*
D58*
X125250000Y-66650000D02*
X126800000Y-66650000D01*
X126000000Y-67450000D02*
X126000000Y-67400000D01*
D57*
X120095000Y-109440000D02*
X120095000Y-108225000D01*
D58*
X120600000Y-93500000D02*
X122000000Y-93500000D01*
X122000000Y-93500000D02*
X122350000Y-93850000D01*
X126000000Y-67450000D02*
X126800000Y-66650000D01*
D56*
X120560000Y-109440000D02*
X120095000Y-109440000D01*
D57*
X117380000Y-95692000D02*
X119220000Y-93852000D01*
X123000000Y-112500000D02*
X125250000Y-110250000D01*
X123000000Y-115000000D02*
X123000000Y-112500000D01*
D58*
X130585000Y-64700000D02*
X131785000Y-63500000D01*
D57*
X118080000Y-121147200D02*
X118080000Y-119075000D01*
D58*
X128800000Y-64700000D02*
X130585000Y-64700000D01*
X120600000Y-93500000D02*
X119572000Y-93500000D01*
D56*
X107290000Y-115000000D02*
X106790000Y-115500000D01*
D58*
X126800000Y-66650000D02*
X128635000Y-66650000D01*
X128635000Y-66650000D02*
X131785000Y-63500000D01*
D57*
X117380000Y-97950000D02*
X117380000Y-95692000D01*
D58*
X124230000Y-93850000D02*
X122350000Y-93850000D01*
D57*
X118080000Y-119075000D02*
X120095000Y-117060000D01*
D58*
X126000000Y-67400000D02*
X125250000Y-66650000D01*
D56*
X125250000Y-110250000D02*
X125250000Y-110000000D01*
D57*
X108500000Y-115000000D02*
X107290000Y-115000000D01*
D56*
X117520000Y-98090000D02*
X117380000Y-97950000D01*
D58*
X124228000Y-93852000D02*
X124230000Y-93850000D01*
D56*
%TO.N,/PV_Current*%
X92500000Y-129300000D02*
X92573000Y-129227000D01*
X91620000Y-129300000D02*
X91570000Y-129250000D01*
X92370000Y-126628000D02*
X92573000Y-126425000D01*
X92500000Y-129300000D02*
X91620000Y-129300000D01*
X92573000Y-129227000D02*
X92573000Y-126425000D01*
X91570000Y-129250000D02*
X91570000Y-129030000D01*
%TO.N,Net-(IC1-VIN)*%
X79003000Y-116697000D02*
X79268000Y-116962000D01*
X79003000Y-116550000D02*
X79003000Y-114259000D01*
X79268000Y-116962000D02*
X79268000Y-118800000D01*
X79003000Y-114259000D02*
X78894000Y-114150000D01*
X79003000Y-116550000D02*
X79003000Y-116697000D01*
D57*
X80982000Y-114150000D02*
X78894000Y-114150000D01*
D56*
%TO.N,/VDD1*%
X80603000Y-118735000D02*
X80538000Y-118800000D01*
X82450000Y-116550000D02*
X82500000Y-116500000D01*
X80603000Y-116550000D02*
X80603000Y-118735000D01*
X80603000Y-116550000D02*
X82450000Y-116550000D01*
X80653000Y-116500000D02*
X80603000Y-116550000D01*
D58*
%TO.N,Net-(D2-A)*%
X163890000Y-82689700D02*
X163890000Y-77890000D01*
X163890000Y-77890000D02*
X162250000Y-76250000D01*
X159215000Y-73930000D02*
X164410000Y-73930000D01*
X159215000Y-72115000D02*
X150600000Y-63500000D01*
X162250000Y-76250000D02*
X162250000Y-73930000D01*
X150600000Y-63500000D02*
X148785000Y-63500000D01*
X159215000Y-73930000D02*
X159215000Y-72115000D01*
X164410000Y-73930000D02*
X164830000Y-74350000D01*
X162250000Y-73930000D02*
X159215000Y-73930000D01*
D56*
%TO.N,/GateDriver_M2/SU2+*%
X162620000Y-106270000D02*
X162940000Y-105950000D01*
X163000000Y-105500000D02*
X163000000Y-102500000D01*
X165160000Y-108660000D02*
X164500000Y-108000000D01*
X162940000Y-105950000D02*
X162940000Y-105560000D01*
X162940000Y-105950000D02*
X160190000Y-105950000D01*
X162940000Y-105560000D02*
X163000000Y-105500000D01*
X162620000Y-108000000D02*
X162620000Y-106270000D01*
X162620000Y-109440000D02*
X162620000Y-108000000D01*
X164500000Y-108000000D02*
X162620000Y-108000000D01*
X160190000Y-105950000D02*
X160180000Y-105960000D01*
X165160000Y-109440000D02*
X165160000Y-108660000D01*
%TO.N,/M2_Gate*%
X160180000Y-98340000D02*
X162795000Y-98340000D01*
X163000000Y-100630000D02*
X163000000Y-98135000D01*
X163195000Y-95697000D02*
X161350000Y-93852000D01*
X163000000Y-98135000D02*
X163195000Y-97940000D01*
X162795000Y-98340000D02*
X163195000Y-97940000D01*
X163195000Y-97940000D02*
X163195000Y-95697000D01*
D57*
%TO.N,/GateDriver_M3/SU3+*%
X198950000Y-173720000D02*
X198950000Y-173050000D01*
D56*
X198950000Y-173050000D02*
X198940000Y-173040000D01*
D57*
X196500000Y-174270000D02*
X196500000Y-173420000D01*
D56*
X198650000Y-173420000D02*
X198950000Y-173720000D01*
D57*
X194810000Y-173420000D02*
X196500000Y-173420000D01*
X194810000Y-175960000D02*
X196500000Y-174270000D01*
X202130000Y-174000000D02*
X199230000Y-174000000D01*
X196500000Y-173420000D02*
X198650000Y-173420000D01*
X198940000Y-173040000D02*
X198940000Y-171160000D01*
D56*
X199230000Y-174000000D02*
X198950000Y-173720000D01*
D57*
%TO.N,/M3_Gate*%
X206860000Y-174125000D02*
X208943000Y-174125000D01*
D56*
X206560000Y-173825000D02*
X206860000Y-174125000D01*
D57*
X208943000Y-174125000D02*
X210948000Y-172120000D01*
D56*
X204125000Y-174125000D02*
X204000000Y-174000000D01*
D57*
X206860000Y-174125000D02*
X204125000Y-174125000D01*
X206560000Y-171160000D02*
X206560000Y-173825000D01*
%TO.N,/M1_Gate*%
X113050000Y-97950000D02*
X116010000Y-97950000D01*
X116010000Y-97950000D02*
X116010000Y-95722000D01*
X116000000Y-100715000D02*
X116000000Y-97960000D01*
D56*
X116000000Y-97960000D02*
X116010000Y-97950000D01*
X112660000Y-98340000D02*
X113050000Y-97950000D01*
D57*
X116010000Y-95722000D02*
X114140000Y-93852000D01*
D56*
X112580000Y-98340000D02*
X112660000Y-98340000D01*
%TO.N,/GateDriver_M1/SU1+*%
X115640000Y-102945000D02*
X116000000Y-102585000D01*
D57*
X115015000Y-109440000D02*
X115015000Y-108000000D01*
D56*
X112580000Y-105960000D02*
X112355000Y-105960000D01*
D57*
X115640000Y-105650000D02*
X115640000Y-102945000D01*
X117555000Y-109440000D02*
X116115000Y-108000000D01*
X115015000Y-108000000D02*
X115015000Y-106275000D01*
X112580000Y-105960000D02*
X115330000Y-105960000D01*
X116115000Y-108000000D02*
X115015000Y-108000000D01*
D56*
X115330000Y-105960000D02*
X115640000Y-105650000D01*
D57*
X115015000Y-106275000D02*
X115640000Y-105650000D01*
D56*
%TO.N,/VDD2*%
X79400000Y-144727600D02*
X79400000Y-146600000D01*
X81500000Y-132000000D02*
X81500000Y-133000000D01*
X74500000Y-144864000D02*
X74500000Y-145900000D01*
X81500000Y-130462000D02*
X80538000Y-129500000D01*
X81500000Y-132000000D02*
X81500000Y-130462000D01*
%TO.N,Net-(U9-IN+)*%
X78130000Y-139800000D02*
X78130000Y-137630000D01*
X78130000Y-137630000D02*
X77250000Y-136750000D01*
X74500000Y-135250000D02*
X74500000Y-137206000D01*
X77250000Y-136750000D02*
X74956000Y-136750000D01*
X74956000Y-136750000D02*
X74456000Y-137250000D01*
X74500000Y-137206000D02*
X74456000Y-137250000D01*
D58*
%TO.N,PV+*%
X92573000Y-121475000D02*
X93843000Y-121475000D01*
X58500000Y-95500000D02*
X58300000Y-95300000D01*
D57*
X82938000Y-114150000D02*
X82938000Y-113062000D01*
D58*
X75050000Y-95300000D02*
X87875000Y-108125000D01*
X92573000Y-112823000D02*
X92573000Y-121475000D01*
X75050000Y-95300000D02*
X63075200Y-95300000D01*
X87875000Y-108125000D02*
X92573000Y-112823000D01*
D57*
X82938000Y-113062000D02*
X87875000Y-108125000D01*
D56*
%TO.N,Net-(U3-ANODE)*%
X160480000Y-131550000D02*
X162735000Y-131550000D01*
X162935000Y-131750000D02*
X162935000Y-127156800D01*
X162935000Y-127156800D02*
X163255000Y-126836800D01*
X162735000Y-131550000D02*
X162935000Y-131750000D01*
%TO.N,/M2_Sig*%
X160480000Y-133506000D02*
X160480000Y-135230000D01*
X160480000Y-135230000D02*
X160500000Y-135250000D01*
%TO.N,Net-(U5-ANODE)*%
X160127200Y-175372800D02*
X161182200Y-174317800D01*
X163219600Y-174360000D02*
X163177400Y-174317800D01*
X161182200Y-174317800D02*
X163177400Y-174317800D01*
X158943200Y-175372800D02*
X160127200Y-175372800D01*
X168130400Y-174360000D02*
X163219600Y-174360000D01*
%TO.N,/M3_Sig*%
X156987200Y-175372800D02*
X156987200Y-177737200D01*
X156987200Y-177737200D02*
X157000000Y-177750000D01*
%TO.N,Net-(U7-ANODE)*%
X112580000Y-131394000D02*
X114814000Y-131394000D01*
X115170000Y-131750000D02*
X115170000Y-127206800D01*
X114814000Y-131394000D02*
X115170000Y-131750000D01*
X115170000Y-127206800D02*
X115540000Y-126836800D01*
%TO.N,/M1_Sig*%
X112580000Y-134580000D02*
X112750000Y-134750000D01*
X112580000Y-133350000D02*
X112580000Y-134580000D01*
%TO.N,Net-(U9-IN-)*%
X79400000Y-138200000D02*
X79400000Y-137616000D01*
X79400000Y-137616000D02*
X80266000Y-136750000D01*
X83750000Y-141794000D02*
X83750000Y-141008000D01*
X85300000Y-141800000D02*
X83756000Y-141800000D01*
X86000000Y-142500000D02*
X85300000Y-141800000D01*
X83756000Y-141800000D02*
X83750000Y-141794000D01*
X83750000Y-141008000D02*
X80942000Y-138200000D01*
X79400000Y-139800000D02*
X79400000Y-138200000D01*
X80942000Y-138200000D02*
X79400000Y-138200000D01*
%TO.N,/PV_Voltage_Out*%
X85312000Y-143750000D02*
X86000000Y-143062000D01*
X78130000Y-148070000D02*
X78100000Y-148100000D01*
X83750000Y-143750000D02*
X79400000Y-148100000D01*
X79400000Y-148100000D02*
X78100000Y-148100000D01*
X78130000Y-144727600D02*
X78130000Y-148070000D01*
X83750000Y-143750000D02*
X85312000Y-143750000D01*
%TO.N,/Voltage_Sensor/VOUT-*%
X80250000Y-134778000D02*
X80266000Y-134794000D01*
X80250000Y-133500000D02*
X80250000Y-134778000D01*
X77998000Y-129500000D02*
X77998000Y-131248000D01*
X77998000Y-131248000D02*
X78000000Y-131250000D01*
%TO.N,/Voltage_Sensor/VOUT+*%
X77250000Y-133500000D02*
X79268000Y-131482000D01*
X77250000Y-134794000D02*
X77250000Y-133500000D01*
X79268000Y-131482000D02*
X79268000Y-129500000D01*
%TO.N,Net-(U3-VO)*%
X163255000Y-117695000D02*
X162620000Y-117060000D01*
X163255000Y-121147200D02*
X163255000Y-117695000D01*
D57*
%TO.N,Net-(U5-VO)*%
X186250000Y-174360000D02*
X187190000Y-173420000D01*
X173820000Y-174360000D02*
X186250000Y-174360000D01*
%TO.N,Net-(U7-VO)*%
X115540000Y-121147200D02*
X115540000Y-117585000D01*
D56*
X115540000Y-117585000D02*
X115015000Y-117060000D01*
%TD*%
%TA.AperFunction,Conductor*%
%TO.N,/Pump_Voltage*%
G36*
X260843039Y-207019685D02*
G01*
X260888794Y-207072489D01*
X260900000Y-207124000D01*
X260900000Y-218576000D01*
X260880315Y-218643039D01*
X260827511Y-218688794D01*
X260776000Y-218700000D01*
X249924000Y-218700000D01*
X249856961Y-218680315D01*
X249811206Y-218627511D01*
X249800000Y-218576000D01*
X249800000Y-214948892D01*
X253707500Y-214948892D01*
X253707500Y-215201507D01*
X253747018Y-215451015D01*
X253825083Y-215691272D01*
X253939766Y-215916351D01*
X254014640Y-216019405D01*
X254014640Y-216019406D01*
X254557595Y-215476450D01*
X254558342Y-215478252D01*
X254651463Y-215617617D01*
X254769983Y-215736137D01*
X254909348Y-215829258D01*
X254911148Y-215830003D01*
X254368192Y-216372958D01*
X254471248Y-216447833D01*
X254696327Y-216562516D01*
X254936584Y-216640581D01*
X255186093Y-216680100D01*
X255438707Y-216680100D01*
X255688215Y-216640581D01*
X255928472Y-216562516D01*
X256153543Y-216447837D01*
X256153549Y-216447833D01*
X256256605Y-216372958D01*
X256256606Y-216372958D01*
X255713651Y-215830003D01*
X255715452Y-215829258D01*
X255854817Y-215736137D01*
X255973337Y-215617617D01*
X256066458Y-215478252D01*
X256067203Y-215476451D01*
X256610158Y-216019406D01*
X256610158Y-216019405D01*
X256685033Y-215916349D01*
X256685037Y-215916343D01*
X256799716Y-215691272D01*
X256877781Y-215451015D01*
X256917300Y-215201507D01*
X256917300Y-214948892D01*
X256877781Y-214699384D01*
X256799716Y-214459127D01*
X256686640Y-214237202D01*
X256595294Y-214145856D01*
X256067203Y-214673947D01*
X256066458Y-214672148D01*
X255973337Y-214532783D01*
X255854817Y-214414263D01*
X255715452Y-214321142D01*
X255713649Y-214320395D01*
X256241742Y-213792304D01*
X256150397Y-213700959D01*
X255928472Y-213587883D01*
X255688215Y-213509818D01*
X255438707Y-213470300D01*
X255186093Y-213470300D01*
X254936584Y-213509818D01*
X254696327Y-213587883D01*
X254474398Y-213700961D01*
X254383056Y-213792303D01*
X254911149Y-214320396D01*
X254909348Y-214321142D01*
X254769983Y-214414263D01*
X254651463Y-214532783D01*
X254558342Y-214672148D01*
X254557596Y-214673949D01*
X254029503Y-214145856D01*
X253938161Y-214237198D01*
X253825083Y-214459127D01*
X253747018Y-214699384D01*
X253707500Y-214948892D01*
X249800000Y-214948892D01*
X249800000Y-212561292D01*
X251319900Y-212561292D01*
X251319900Y-212813907D01*
X251359418Y-213063415D01*
X251437483Y-213303672D01*
X251552166Y-213528751D01*
X251627040Y-213631805D01*
X251627040Y-213631806D01*
X252169995Y-213088850D01*
X252170742Y-213090652D01*
X252263863Y-213230017D01*
X252382383Y-213348537D01*
X252521748Y-213441658D01*
X252523548Y-213442403D01*
X251980592Y-213985358D01*
X252083648Y-214060233D01*
X252308727Y-214174916D01*
X252548984Y-214252981D01*
X252798493Y-214292500D01*
X253051107Y-214292500D01*
X253300615Y-214252981D01*
X253540872Y-214174916D01*
X253762793Y-214061842D01*
X253854141Y-213970494D01*
X253326050Y-213442403D01*
X253327852Y-213441658D01*
X253467217Y-213348537D01*
X253585737Y-213230017D01*
X253678858Y-213090652D01*
X253679603Y-213088851D01*
X254207694Y-213616942D01*
X254299042Y-213525593D01*
X254412116Y-213303672D01*
X254490181Y-213063415D01*
X254529700Y-212813907D01*
X254529700Y-212561292D01*
X256095100Y-212561292D01*
X256095100Y-212813907D01*
X256134618Y-213063415D01*
X256212683Y-213303672D01*
X256325759Y-213525597D01*
X256417104Y-213616942D01*
X256945195Y-213088850D01*
X256945942Y-213090652D01*
X257039063Y-213230017D01*
X257157583Y-213348537D01*
X257296948Y-213441658D01*
X257298748Y-213442403D01*
X256770656Y-213970494D01*
X256862002Y-214061840D01*
X257083927Y-214174916D01*
X257324184Y-214252981D01*
X257573693Y-214292500D01*
X257826307Y-214292500D01*
X258075815Y-214252981D01*
X258316072Y-214174916D01*
X258541143Y-214060237D01*
X258541149Y-214060233D01*
X258644205Y-213985358D01*
X258644206Y-213985358D01*
X258101251Y-213442403D01*
X258103052Y-213441658D01*
X258242417Y-213348537D01*
X258360937Y-213230017D01*
X258454058Y-213090652D01*
X258454803Y-213088851D01*
X258997758Y-213631806D01*
X258997758Y-213631805D01*
X259072633Y-213528749D01*
X259072637Y-213528743D01*
X259187316Y-213303672D01*
X259265381Y-213063415D01*
X259304900Y-212813907D01*
X259304900Y-212561292D01*
X259265381Y-212311784D01*
X259187316Y-212071527D01*
X259072633Y-211846448D01*
X258997758Y-211743393D01*
X258997758Y-211743392D01*
X258454803Y-212286347D01*
X258454058Y-212284548D01*
X258360937Y-212145183D01*
X258242417Y-212026663D01*
X258103052Y-211933542D01*
X258101249Y-211932795D01*
X258644206Y-211389840D01*
X258541151Y-211314966D01*
X258316072Y-211200283D01*
X258075815Y-211122218D01*
X257826307Y-211082700D01*
X257573693Y-211082700D01*
X257324184Y-211122218D01*
X257083927Y-211200283D01*
X256861998Y-211313361D01*
X256770656Y-211404703D01*
X257298749Y-211932796D01*
X257296948Y-211933542D01*
X257157583Y-212026663D01*
X257039063Y-212145183D01*
X256945942Y-212284548D01*
X256945196Y-212286349D01*
X256417103Y-211758256D01*
X256325761Y-211849598D01*
X256212683Y-212071527D01*
X256134618Y-212311784D01*
X256095100Y-212561292D01*
X254529700Y-212561292D01*
X254490181Y-212311784D01*
X254412116Y-212071527D01*
X254299040Y-211849602D01*
X254207694Y-211758256D01*
X253679603Y-212286347D01*
X253678858Y-212284548D01*
X253585737Y-212145183D01*
X253467217Y-212026663D01*
X253327852Y-211933542D01*
X253326049Y-211932795D01*
X253854142Y-211404704D01*
X253762797Y-211313359D01*
X253540872Y-211200283D01*
X253300615Y-211122218D01*
X253051107Y-211082700D01*
X252798493Y-211082700D01*
X252548984Y-211122218D01*
X252308727Y-211200283D01*
X252083644Y-211314968D01*
X251980593Y-211389839D01*
X251980592Y-211389840D01*
X252523548Y-211932796D01*
X252521748Y-211933542D01*
X252382383Y-212026663D01*
X252263863Y-212145183D01*
X252170742Y-212284548D01*
X252169996Y-212286348D01*
X251627040Y-211743392D01*
X251627039Y-211743393D01*
X251552168Y-211846444D01*
X251437483Y-212071527D01*
X251359418Y-212311784D01*
X251319900Y-212561292D01*
X249800000Y-212561292D01*
X249800000Y-210173692D01*
X253707500Y-210173692D01*
X253707500Y-210426307D01*
X253747018Y-210675815D01*
X253825083Y-210916072D01*
X253938159Y-211137997D01*
X254029504Y-211229342D01*
X254557595Y-210701250D01*
X254558342Y-210703052D01*
X254651463Y-210842417D01*
X254769983Y-210960937D01*
X254909348Y-211054058D01*
X254911148Y-211054803D01*
X254383056Y-211582894D01*
X254474402Y-211674240D01*
X254696327Y-211787316D01*
X254936584Y-211865381D01*
X255186093Y-211904900D01*
X255438707Y-211904900D01*
X255688215Y-211865381D01*
X255928472Y-211787316D01*
X256150393Y-211674242D01*
X256241741Y-211582894D01*
X255713650Y-211054803D01*
X255715452Y-211054058D01*
X255854817Y-210960937D01*
X255973337Y-210842417D01*
X256066458Y-210703052D01*
X256067203Y-210701250D01*
X256595294Y-211229341D01*
X256686642Y-211137993D01*
X256799716Y-210916072D01*
X256877781Y-210675815D01*
X256917300Y-210426307D01*
X256917300Y-210173692D01*
X256877781Y-209924184D01*
X256799716Y-209683927D01*
X256685033Y-209458848D01*
X256610158Y-209355793D01*
X256610158Y-209355792D01*
X256067203Y-209898747D01*
X256066458Y-209896948D01*
X255973337Y-209757583D01*
X255854817Y-209639063D01*
X255715452Y-209545942D01*
X255713649Y-209545195D01*
X256256606Y-209002240D01*
X256153551Y-208927366D01*
X255928472Y-208812683D01*
X255688215Y-208734618D01*
X255438707Y-208695100D01*
X255186093Y-208695100D01*
X254936584Y-208734618D01*
X254696327Y-208812683D01*
X254471244Y-208927368D01*
X254368193Y-209002239D01*
X254368192Y-209002240D01*
X254911148Y-209545196D01*
X254909348Y-209545942D01*
X254769983Y-209639063D01*
X254651463Y-209757583D01*
X254558342Y-209896948D01*
X254557596Y-209898748D01*
X254014640Y-209355792D01*
X254014639Y-209355793D01*
X253939768Y-209458844D01*
X253825083Y-209683927D01*
X253747018Y-209924184D01*
X253707500Y-210173692D01*
X249800000Y-210173692D01*
X249800000Y-207124000D01*
X249819685Y-207056961D01*
X249872489Y-207011206D01*
X249924000Y-207000000D01*
X260776000Y-207000000D01*
X260843039Y-207019685D01*
G37*
%TD.AperFunction*%
%TD*%
%TA.AperFunction,Conductor*%
%TO.N,BAT+*%
G36*
X261143039Y-94219685D02*
G01*
X261188794Y-94272489D01*
X261200000Y-94324000D01*
X261200000Y-106076000D01*
X261180315Y-106143039D01*
X261127511Y-106188794D01*
X261076000Y-106200000D01*
X249624000Y-106200000D01*
X249556961Y-106180315D01*
X249511206Y-106127511D01*
X249500000Y-106076000D01*
X249500000Y-102361292D01*
X253707500Y-102361292D01*
X253707500Y-102613907D01*
X253747018Y-102863415D01*
X253825083Y-103103672D01*
X253939766Y-103328751D01*
X254014640Y-103431805D01*
X254014640Y-103431806D01*
X254557595Y-102888850D01*
X254558342Y-102890652D01*
X254651463Y-103030017D01*
X254769983Y-103148537D01*
X254909348Y-103241658D01*
X254911148Y-103242403D01*
X254368192Y-103785358D01*
X254471248Y-103860233D01*
X254696327Y-103974916D01*
X254936584Y-104052981D01*
X255186093Y-104092500D01*
X255438707Y-104092500D01*
X255688215Y-104052981D01*
X255928472Y-103974916D01*
X256153543Y-103860237D01*
X256153549Y-103860233D01*
X256256605Y-103785358D01*
X256256606Y-103785358D01*
X255713651Y-103242403D01*
X255715452Y-103241658D01*
X255854817Y-103148537D01*
X255973337Y-103030017D01*
X256066458Y-102890652D01*
X256067203Y-102888851D01*
X256610158Y-103431806D01*
X256610158Y-103431805D01*
X256685033Y-103328749D01*
X256685037Y-103328743D01*
X256799716Y-103103672D01*
X256877781Y-102863415D01*
X256917300Y-102613907D01*
X256917300Y-102361292D01*
X256877781Y-102111784D01*
X256799716Y-101871527D01*
X256686640Y-101649602D01*
X256595294Y-101558256D01*
X256067203Y-102086347D01*
X256066458Y-102084548D01*
X255973337Y-101945183D01*
X255854817Y-101826663D01*
X255715452Y-101733542D01*
X255713649Y-101732795D01*
X256241742Y-101204704D01*
X256150397Y-101113359D01*
X255928472Y-101000283D01*
X255688215Y-100922218D01*
X255438707Y-100882700D01*
X255186093Y-100882700D01*
X254936584Y-100922218D01*
X254696327Y-101000283D01*
X254474398Y-101113361D01*
X254383056Y-101204703D01*
X254911149Y-101732796D01*
X254909348Y-101733542D01*
X254769983Y-101826663D01*
X254651463Y-101945183D01*
X254558342Y-102084548D01*
X254557596Y-102086349D01*
X254029503Y-101558256D01*
X253938161Y-101649598D01*
X253825083Y-101871527D01*
X253747018Y-102111784D01*
X253707500Y-102361292D01*
X249500000Y-102361292D01*
X249500000Y-99973692D01*
X251319900Y-99973692D01*
X251319900Y-100226307D01*
X251359418Y-100475815D01*
X251437483Y-100716072D01*
X251552166Y-100941151D01*
X251627040Y-101044205D01*
X251627040Y-101044206D01*
X252169995Y-100501250D01*
X252170742Y-100503052D01*
X252263863Y-100642417D01*
X252382383Y-100760937D01*
X252521748Y-100854058D01*
X252523548Y-100854803D01*
X251980592Y-101397758D01*
X252083648Y-101472633D01*
X252308727Y-101587316D01*
X252548984Y-101665381D01*
X252798493Y-101704900D01*
X253051107Y-101704900D01*
X253300615Y-101665381D01*
X253540872Y-101587316D01*
X253762793Y-101474242D01*
X253854141Y-101382894D01*
X253326050Y-100854803D01*
X253327852Y-100854058D01*
X253467217Y-100760937D01*
X253585737Y-100642417D01*
X253678858Y-100503052D01*
X253679603Y-100501251D01*
X254207694Y-101029342D01*
X254299042Y-100937993D01*
X254412116Y-100716072D01*
X254490181Y-100475815D01*
X254529700Y-100226307D01*
X254529700Y-99973692D01*
X256095100Y-99973692D01*
X256095100Y-100226307D01*
X256134618Y-100475815D01*
X256212683Y-100716072D01*
X256325759Y-100937997D01*
X256417104Y-101029342D01*
X256945195Y-100501250D01*
X256945942Y-100503052D01*
X257039063Y-100642417D01*
X257157583Y-100760937D01*
X257296948Y-100854058D01*
X257298748Y-100854803D01*
X256770656Y-101382894D01*
X256862002Y-101474240D01*
X257083927Y-101587316D01*
X257324184Y-101665381D01*
X257573693Y-101704900D01*
X257826307Y-101704900D01*
X258075815Y-101665381D01*
X258316072Y-101587316D01*
X258541143Y-101472637D01*
X258541149Y-101472633D01*
X258644205Y-101397758D01*
X258644206Y-101397758D01*
X258101251Y-100854803D01*
X258103052Y-100854058D01*
X258242417Y-100760937D01*
X258360937Y-100642417D01*
X258454058Y-100503052D01*
X258454803Y-100501251D01*
X258997758Y-101044206D01*
X258997758Y-101044205D01*
X259072633Y-100941149D01*
X259072637Y-100941143D01*
X259187316Y-100716072D01*
X259265381Y-100475815D01*
X259304900Y-100226307D01*
X259304900Y-99973692D01*
X259265381Y-99724184D01*
X259187316Y-99483927D01*
X259072633Y-99258848D01*
X258997758Y-99155793D01*
X258997758Y-99155792D01*
X258454803Y-99698747D01*
X258454058Y-99696948D01*
X258360937Y-99557583D01*
X258242417Y-99439063D01*
X258103052Y-99345942D01*
X258101249Y-99345195D01*
X258644206Y-98802240D01*
X258541151Y-98727366D01*
X258316072Y-98612683D01*
X258075815Y-98534618D01*
X257826307Y-98495100D01*
X257573693Y-98495100D01*
X257324184Y-98534618D01*
X257083927Y-98612683D01*
X256861998Y-98725761D01*
X256770656Y-98817103D01*
X257298749Y-99345196D01*
X257296948Y-99345942D01*
X257157583Y-99439063D01*
X257039063Y-99557583D01*
X256945942Y-99696948D01*
X256945196Y-99698749D01*
X256417103Y-99170656D01*
X256325761Y-99261998D01*
X256212683Y-99483927D01*
X256134618Y-99724184D01*
X256095100Y-99973692D01*
X254529700Y-99973692D01*
X254490181Y-99724184D01*
X254412116Y-99483927D01*
X254299040Y-99262002D01*
X254207694Y-99170656D01*
X253679603Y-99698747D01*
X253678858Y-99696948D01*
X253585737Y-99557583D01*
X253467217Y-99439063D01*
X253327852Y-99345942D01*
X253326049Y-99345195D01*
X253854142Y-98817104D01*
X253762797Y-98725759D01*
X253540872Y-98612683D01*
X253300615Y-98534618D01*
X253051107Y-98495100D01*
X252798493Y-98495100D01*
X252548984Y-98534618D01*
X252308727Y-98612683D01*
X252083644Y-98727368D01*
X251980593Y-98802239D01*
X251980592Y-98802240D01*
X252523548Y-99345196D01*
X252521748Y-99345942D01*
X252382383Y-99439063D01*
X252263863Y-99557583D01*
X252170742Y-99696948D01*
X252169996Y-99698748D01*
X251627040Y-99155792D01*
X251627039Y-99155793D01*
X251552168Y-99258844D01*
X251437483Y-99483927D01*
X251359418Y-99724184D01*
X251319900Y-99973692D01*
X249500000Y-99973692D01*
X249500000Y-97586092D01*
X253707500Y-97586092D01*
X253707500Y-97838707D01*
X253747018Y-98088215D01*
X253825083Y-98328472D01*
X253938159Y-98550397D01*
X254029504Y-98641742D01*
X254557595Y-98113650D01*
X254558342Y-98115452D01*
X254651463Y-98254817D01*
X254769983Y-98373337D01*
X254909348Y-98466458D01*
X254911148Y-98467203D01*
X254383056Y-98995294D01*
X254474402Y-99086640D01*
X254696327Y-99199716D01*
X254936584Y-99277781D01*
X255186093Y-99317300D01*
X255438707Y-99317300D01*
X255688215Y-99277781D01*
X255928472Y-99199716D01*
X256150393Y-99086642D01*
X256241741Y-98995294D01*
X255713650Y-98467203D01*
X255715452Y-98466458D01*
X255854817Y-98373337D01*
X255973337Y-98254817D01*
X256066458Y-98115452D01*
X256067203Y-98113650D01*
X256595294Y-98641741D01*
X256686642Y-98550393D01*
X256799716Y-98328472D01*
X256877781Y-98088215D01*
X256917300Y-97838707D01*
X256917300Y-97586092D01*
X256877781Y-97336584D01*
X256799716Y-97096327D01*
X256685033Y-96871248D01*
X256610158Y-96768193D01*
X256610158Y-96768192D01*
X256067203Y-97311147D01*
X256066458Y-97309348D01*
X255973337Y-97169983D01*
X255854817Y-97051463D01*
X255715452Y-96958342D01*
X255713649Y-96957595D01*
X256256606Y-96414640D01*
X256153551Y-96339766D01*
X255928472Y-96225083D01*
X255688215Y-96147018D01*
X255438707Y-96107500D01*
X255186093Y-96107500D01*
X254936584Y-96147018D01*
X254696327Y-96225083D01*
X254471244Y-96339768D01*
X254368193Y-96414639D01*
X254368192Y-96414640D01*
X254911148Y-96957596D01*
X254909348Y-96958342D01*
X254769983Y-97051463D01*
X254651463Y-97169983D01*
X254558342Y-97309348D01*
X254557596Y-97311148D01*
X254014640Y-96768192D01*
X254014639Y-96768193D01*
X253939768Y-96871244D01*
X253825083Y-97096327D01*
X253747018Y-97336584D01*
X253707500Y-97586092D01*
X249500000Y-97586092D01*
X249500000Y-94324000D01*
X249519685Y-94256961D01*
X249572489Y-94211206D01*
X249624000Y-94200000D01*
X261076000Y-94200000D01*
X261143039Y-94219685D01*
G37*
%TD.AperFunction*%
%TD*%
%TA.AperFunction,Conductor*%
%TO.N,PV+*%
G36*
X66543039Y-89219685D02*
G01*
X66588794Y-89272489D01*
X66600000Y-89324000D01*
X66600000Y-101076000D01*
X66580315Y-101143039D01*
X66527511Y-101188794D01*
X66476000Y-101200000D01*
X54924000Y-101200000D01*
X54856961Y-101180315D01*
X54811206Y-101127511D01*
X54800000Y-101076000D01*
X54800000Y-97561292D01*
X59082700Y-97561292D01*
X59082700Y-97813907D01*
X59122218Y-98063415D01*
X59200283Y-98303672D01*
X59314966Y-98528751D01*
X59389840Y-98631805D01*
X59389840Y-98631806D01*
X59932795Y-98088850D01*
X59933542Y-98090652D01*
X60026663Y-98230017D01*
X60145183Y-98348537D01*
X60284548Y-98441658D01*
X60286348Y-98442403D01*
X59743392Y-98985358D01*
X59846448Y-99060233D01*
X60071527Y-99174916D01*
X60311784Y-99252981D01*
X60561293Y-99292500D01*
X60813907Y-99292500D01*
X61063415Y-99252981D01*
X61303672Y-99174916D01*
X61528743Y-99060237D01*
X61528749Y-99060233D01*
X61631805Y-98985358D01*
X61631806Y-98985358D01*
X61088851Y-98442403D01*
X61090652Y-98441658D01*
X61230017Y-98348537D01*
X61348537Y-98230017D01*
X61441658Y-98090652D01*
X61442403Y-98088851D01*
X61985358Y-98631806D01*
X61985358Y-98631805D01*
X62060233Y-98528749D01*
X62060237Y-98528743D01*
X62174916Y-98303672D01*
X62252981Y-98063415D01*
X62292500Y-97813907D01*
X62292500Y-97561292D01*
X62252981Y-97311784D01*
X62174916Y-97071527D01*
X62061840Y-96849602D01*
X61970494Y-96758256D01*
X61442403Y-97286347D01*
X61441658Y-97284548D01*
X61348537Y-97145183D01*
X61230017Y-97026663D01*
X61090652Y-96933542D01*
X61088849Y-96932795D01*
X61616942Y-96404704D01*
X61525597Y-96313359D01*
X61303672Y-96200283D01*
X61063415Y-96122218D01*
X60813907Y-96082700D01*
X60561293Y-96082700D01*
X60311784Y-96122218D01*
X60071527Y-96200283D01*
X59849598Y-96313361D01*
X59758256Y-96404703D01*
X60286349Y-96932796D01*
X60284548Y-96933542D01*
X60145183Y-97026663D01*
X60026663Y-97145183D01*
X59933542Y-97284548D01*
X59932796Y-97286349D01*
X59404703Y-96758256D01*
X59313361Y-96849598D01*
X59200283Y-97071527D01*
X59122218Y-97311784D01*
X59082700Y-97561292D01*
X54800000Y-97561292D01*
X54800000Y-95173692D01*
X56695100Y-95173692D01*
X56695100Y-95426307D01*
X56734618Y-95675815D01*
X56812683Y-95916072D01*
X56927366Y-96141151D01*
X57002240Y-96244205D01*
X57002240Y-96244206D01*
X57545195Y-95701250D01*
X57545942Y-95703052D01*
X57639063Y-95842417D01*
X57757583Y-95960937D01*
X57896948Y-96054058D01*
X57898748Y-96054803D01*
X57355792Y-96597758D01*
X57458848Y-96672633D01*
X57683927Y-96787316D01*
X57924184Y-96865381D01*
X58173693Y-96904900D01*
X58426307Y-96904900D01*
X58675815Y-96865381D01*
X58916072Y-96787316D01*
X59137993Y-96674242D01*
X59229341Y-96582894D01*
X58701250Y-96054803D01*
X58703052Y-96054058D01*
X58842417Y-95960937D01*
X58960937Y-95842417D01*
X59054058Y-95703052D01*
X59054803Y-95701251D01*
X59582894Y-96229342D01*
X59674242Y-96137993D01*
X59787316Y-95916072D01*
X59865381Y-95675815D01*
X59904900Y-95426307D01*
X59904900Y-95173692D01*
X61470300Y-95173692D01*
X61470300Y-95426307D01*
X61509818Y-95675815D01*
X61587883Y-95916072D01*
X61700959Y-96137997D01*
X61792304Y-96229342D01*
X62320395Y-95701250D01*
X62321142Y-95703052D01*
X62414263Y-95842417D01*
X62532783Y-95960937D01*
X62672148Y-96054058D01*
X62673948Y-96054803D01*
X62145856Y-96582894D01*
X62237202Y-96674240D01*
X62459127Y-96787316D01*
X62699384Y-96865381D01*
X62948893Y-96904900D01*
X63201507Y-96904900D01*
X63451015Y-96865381D01*
X63691272Y-96787316D01*
X63916343Y-96672637D01*
X63916349Y-96672633D01*
X64019405Y-96597758D01*
X64019406Y-96597758D01*
X63476451Y-96054803D01*
X63478252Y-96054058D01*
X63617617Y-95960937D01*
X63736137Y-95842417D01*
X63829258Y-95703052D01*
X63830003Y-95701251D01*
X64372958Y-96244206D01*
X64372958Y-96244205D01*
X64447833Y-96141149D01*
X64447837Y-96141143D01*
X64562516Y-95916072D01*
X64640581Y-95675815D01*
X64680100Y-95426307D01*
X64680100Y-95173692D01*
X64640581Y-94924184D01*
X64562516Y-94683927D01*
X64447833Y-94458848D01*
X64372958Y-94355793D01*
X64372958Y-94355792D01*
X63830003Y-94898747D01*
X63829258Y-94896948D01*
X63736137Y-94757583D01*
X63617617Y-94639063D01*
X63478252Y-94545942D01*
X63476449Y-94545195D01*
X64019406Y-94002240D01*
X63916351Y-93927366D01*
X63691272Y-93812683D01*
X63451015Y-93734618D01*
X63201507Y-93695100D01*
X62948893Y-93695100D01*
X62699384Y-93734618D01*
X62459127Y-93812683D01*
X62237198Y-93925761D01*
X62145856Y-94017103D01*
X62673949Y-94545196D01*
X62672148Y-94545942D01*
X62532783Y-94639063D01*
X62414263Y-94757583D01*
X62321142Y-94896948D01*
X62320396Y-94898749D01*
X61792303Y-94370656D01*
X61700961Y-94461998D01*
X61587883Y-94683927D01*
X61509818Y-94924184D01*
X61470300Y-95173692D01*
X59904900Y-95173692D01*
X59865381Y-94924184D01*
X59787316Y-94683927D01*
X59674240Y-94462002D01*
X59582894Y-94370656D01*
X59054803Y-94898747D01*
X59054058Y-94896948D01*
X58960937Y-94757583D01*
X58842417Y-94639063D01*
X58703052Y-94545942D01*
X58701249Y-94545195D01*
X59229342Y-94017104D01*
X59137997Y-93925759D01*
X58916072Y-93812683D01*
X58675815Y-93734618D01*
X58426307Y-93695100D01*
X58173693Y-93695100D01*
X57924184Y-93734618D01*
X57683927Y-93812683D01*
X57458844Y-93927368D01*
X57355793Y-94002239D01*
X57355792Y-94002240D01*
X57898748Y-94545196D01*
X57896948Y-94545942D01*
X57757583Y-94639063D01*
X57639063Y-94757583D01*
X57545942Y-94896948D01*
X57545196Y-94898748D01*
X57002240Y-94355792D01*
X57002239Y-94355793D01*
X56927368Y-94458844D01*
X56812683Y-94683927D01*
X56734618Y-94924184D01*
X56695100Y-95173692D01*
X54800000Y-95173692D01*
X54800000Y-92786092D01*
X59082700Y-92786092D01*
X59082700Y-93038707D01*
X59122218Y-93288215D01*
X59200283Y-93528472D01*
X59313359Y-93750397D01*
X59404704Y-93841742D01*
X59932795Y-93313650D01*
X59933542Y-93315452D01*
X60026663Y-93454817D01*
X60145183Y-93573337D01*
X60284548Y-93666458D01*
X60286348Y-93667203D01*
X59758256Y-94195294D01*
X59849602Y-94286640D01*
X60071527Y-94399716D01*
X60311784Y-94477781D01*
X60561293Y-94517300D01*
X60813907Y-94517300D01*
X61063415Y-94477781D01*
X61303672Y-94399716D01*
X61525593Y-94286642D01*
X61616941Y-94195294D01*
X61088850Y-93667203D01*
X61090652Y-93666458D01*
X61230017Y-93573337D01*
X61348537Y-93454817D01*
X61441658Y-93315452D01*
X61442403Y-93313650D01*
X61970494Y-93841741D01*
X62061842Y-93750393D01*
X62174916Y-93528472D01*
X62252981Y-93288215D01*
X62292500Y-93038707D01*
X62292500Y-92786092D01*
X62252981Y-92536584D01*
X62174916Y-92296327D01*
X62060233Y-92071248D01*
X61985358Y-91968193D01*
X61985358Y-91968192D01*
X61442403Y-92511147D01*
X61441658Y-92509348D01*
X61348537Y-92369983D01*
X61230017Y-92251463D01*
X61090652Y-92158342D01*
X61088849Y-92157595D01*
X61631806Y-91614640D01*
X61528751Y-91539766D01*
X61303672Y-91425083D01*
X61063415Y-91347018D01*
X60813907Y-91307500D01*
X60561293Y-91307500D01*
X60311784Y-91347018D01*
X60071527Y-91425083D01*
X59846444Y-91539768D01*
X59743393Y-91614639D01*
X59743392Y-91614640D01*
X60286348Y-92157596D01*
X60284548Y-92158342D01*
X60145183Y-92251463D01*
X60026663Y-92369983D01*
X59933542Y-92509348D01*
X59932796Y-92511148D01*
X59389840Y-91968192D01*
X59389839Y-91968193D01*
X59314968Y-92071244D01*
X59200283Y-92296327D01*
X59122218Y-92536584D01*
X59082700Y-92786092D01*
X54800000Y-92786092D01*
X54800000Y-89324000D01*
X54819685Y-89256961D01*
X54872489Y-89211206D01*
X54924000Y-89200000D01*
X66476000Y-89200000D01*
X66543039Y-89219685D01*
G37*
%TD.AperFunction*%
%TD*%
%TA.AperFunction,Conductor*%
%TO.N,/V_M1+*%
G36*
X105843039Y-44319685D02*
G01*
X105888794Y-44372489D01*
X105900000Y-44424000D01*
X105900000Y-55676000D01*
X105880315Y-55743039D01*
X105827511Y-55788794D01*
X105776000Y-55800000D01*
X94224000Y-55800000D01*
X94156961Y-55780315D01*
X94111206Y-55727511D01*
X94100000Y-55676000D01*
X94100000Y-52473692D01*
X98395100Y-52473692D01*
X98395100Y-52726307D01*
X98434618Y-52975815D01*
X98512683Y-53216072D01*
X98627366Y-53441151D01*
X98702240Y-53544205D01*
X98702240Y-53544206D01*
X99245195Y-53001250D01*
X99245942Y-53003052D01*
X99339063Y-53142417D01*
X99457583Y-53260937D01*
X99596948Y-53354058D01*
X99598748Y-53354803D01*
X99055792Y-53897758D01*
X99158848Y-53972633D01*
X99383927Y-54087316D01*
X99624184Y-54165381D01*
X99873693Y-54204900D01*
X100126307Y-54204900D01*
X100375815Y-54165381D01*
X100616072Y-54087316D01*
X100841143Y-53972637D01*
X100841149Y-53972633D01*
X100944205Y-53897758D01*
X100944206Y-53897758D01*
X100401251Y-53354803D01*
X100403052Y-53354058D01*
X100542417Y-53260937D01*
X100660937Y-53142417D01*
X100754058Y-53003052D01*
X100754803Y-53001251D01*
X101297758Y-53544206D01*
X101297758Y-53544205D01*
X101372633Y-53441149D01*
X101372637Y-53441143D01*
X101487316Y-53216072D01*
X101565381Y-52975815D01*
X101604900Y-52726307D01*
X101604900Y-52473692D01*
X101565381Y-52224184D01*
X101487316Y-51983927D01*
X101374240Y-51762002D01*
X101282894Y-51670656D01*
X100754803Y-52198747D01*
X100754058Y-52196948D01*
X100660937Y-52057583D01*
X100542417Y-51939063D01*
X100403052Y-51845942D01*
X100401249Y-51845195D01*
X100929342Y-51317104D01*
X100837997Y-51225759D01*
X100616072Y-51112683D01*
X100375815Y-51034618D01*
X100126307Y-50995100D01*
X99873693Y-50995100D01*
X99624184Y-51034618D01*
X99383927Y-51112683D01*
X99161998Y-51225761D01*
X99070656Y-51317103D01*
X99598749Y-51845196D01*
X99596948Y-51845942D01*
X99457583Y-51939063D01*
X99339063Y-52057583D01*
X99245942Y-52196948D01*
X99245196Y-52198749D01*
X98717103Y-51670656D01*
X98625761Y-51761998D01*
X98512683Y-51983927D01*
X98434618Y-52224184D01*
X98395100Y-52473692D01*
X94100000Y-52473692D01*
X94100000Y-50086092D01*
X96007500Y-50086092D01*
X96007500Y-50338707D01*
X96047018Y-50588215D01*
X96125083Y-50828472D01*
X96239766Y-51053551D01*
X96314640Y-51156605D01*
X96314640Y-51156606D01*
X96857595Y-50613650D01*
X96858342Y-50615452D01*
X96951463Y-50754817D01*
X97069983Y-50873337D01*
X97209348Y-50966458D01*
X97211148Y-50967203D01*
X96668192Y-51510158D01*
X96771248Y-51585033D01*
X96996327Y-51699716D01*
X97236584Y-51777781D01*
X97486093Y-51817300D01*
X97738707Y-51817300D01*
X97988215Y-51777781D01*
X98228472Y-51699716D01*
X98450393Y-51586642D01*
X98541741Y-51495294D01*
X98013650Y-50967203D01*
X98015452Y-50966458D01*
X98154817Y-50873337D01*
X98273337Y-50754817D01*
X98366458Y-50615452D01*
X98367203Y-50613650D01*
X98895294Y-51141741D01*
X98986642Y-51050393D01*
X99099716Y-50828472D01*
X99177781Y-50588215D01*
X99217300Y-50338707D01*
X99217300Y-50086092D01*
X100782700Y-50086092D01*
X100782700Y-50338707D01*
X100822218Y-50588215D01*
X100900283Y-50828472D01*
X101013359Y-51050397D01*
X101104704Y-51141742D01*
X101632795Y-50613650D01*
X101633542Y-50615452D01*
X101726663Y-50754817D01*
X101845183Y-50873337D01*
X101984548Y-50966458D01*
X101986348Y-50967203D01*
X101458256Y-51495294D01*
X101549602Y-51586640D01*
X101771527Y-51699716D01*
X102011784Y-51777781D01*
X102261293Y-51817300D01*
X102513907Y-51817300D01*
X102763415Y-51777781D01*
X103003672Y-51699716D01*
X103228743Y-51585037D01*
X103228749Y-51585033D01*
X103331805Y-51510158D01*
X103331806Y-51510158D01*
X102788851Y-50967203D01*
X102790652Y-50966458D01*
X102930017Y-50873337D01*
X103048537Y-50754817D01*
X103141658Y-50615452D01*
X103142403Y-50613651D01*
X103685358Y-51156606D01*
X103685358Y-51156605D01*
X103760233Y-51053549D01*
X103760237Y-51053543D01*
X103874916Y-50828472D01*
X103952981Y-50588215D01*
X103992500Y-50338707D01*
X103992500Y-50086092D01*
X103952981Y-49836584D01*
X103874916Y-49596327D01*
X103760233Y-49371248D01*
X103685358Y-49268193D01*
X103685358Y-49268192D01*
X103142403Y-49811147D01*
X103141658Y-49809348D01*
X103048537Y-49669983D01*
X102930017Y-49551463D01*
X102790652Y-49458342D01*
X102788849Y-49457595D01*
X103331806Y-48914640D01*
X103228751Y-48839766D01*
X103003672Y-48725083D01*
X102763415Y-48647018D01*
X102513907Y-48607500D01*
X102261293Y-48607500D01*
X102011784Y-48647018D01*
X101771527Y-48725083D01*
X101549598Y-48838161D01*
X101458256Y-48929503D01*
X101986349Y-49457596D01*
X101984548Y-49458342D01*
X101845183Y-49551463D01*
X101726663Y-49669983D01*
X101633542Y-49809348D01*
X101632796Y-49811149D01*
X101104703Y-49283056D01*
X101013361Y-49374398D01*
X100900283Y-49596327D01*
X100822218Y-49836584D01*
X100782700Y-50086092D01*
X99217300Y-50086092D01*
X99177781Y-49836584D01*
X99099716Y-49596327D01*
X98986640Y-49374402D01*
X98895294Y-49283056D01*
X98367203Y-49811147D01*
X98366458Y-49809348D01*
X98273337Y-49669983D01*
X98154817Y-49551463D01*
X98015452Y-49458342D01*
X98013649Y-49457595D01*
X98541742Y-48929504D01*
X98450397Y-48838159D01*
X98228472Y-48725083D01*
X97988215Y-48647018D01*
X97738707Y-48607500D01*
X97486093Y-48607500D01*
X97236584Y-48647018D01*
X96996327Y-48725083D01*
X96771244Y-48839768D01*
X96668193Y-48914639D01*
X96668192Y-48914640D01*
X97211148Y-49457596D01*
X97209348Y-49458342D01*
X97069983Y-49551463D01*
X96951463Y-49669983D01*
X96858342Y-49809348D01*
X96857596Y-49811148D01*
X96314640Y-49268192D01*
X96314639Y-49268193D01*
X96239768Y-49371244D01*
X96125083Y-49596327D01*
X96047018Y-49836584D01*
X96007500Y-50086092D01*
X94100000Y-50086092D01*
X94100000Y-47698492D01*
X98395100Y-47698492D01*
X98395100Y-47951107D01*
X98434618Y-48200615D01*
X98512683Y-48440872D01*
X98625759Y-48662797D01*
X98717104Y-48754142D01*
X99245195Y-48226050D01*
X99245942Y-48227852D01*
X99339063Y-48367217D01*
X99457583Y-48485737D01*
X99596948Y-48578858D01*
X99598748Y-48579603D01*
X99070656Y-49107694D01*
X99162002Y-49199040D01*
X99383927Y-49312116D01*
X99624184Y-49390181D01*
X99873693Y-49429700D01*
X100126307Y-49429700D01*
X100375815Y-49390181D01*
X100616072Y-49312116D01*
X100837993Y-49199042D01*
X100929341Y-49107694D01*
X100401250Y-48579603D01*
X100403052Y-48578858D01*
X100542417Y-48485737D01*
X100660937Y-48367217D01*
X100754058Y-48227852D01*
X100754803Y-48226051D01*
X101282894Y-48754142D01*
X101374242Y-48662793D01*
X101487316Y-48440872D01*
X101565381Y-48200615D01*
X101604900Y-47951107D01*
X101604900Y-47698492D01*
X101565381Y-47448984D01*
X101487316Y-47208727D01*
X101372633Y-46983648D01*
X101297758Y-46880593D01*
X101297758Y-46880592D01*
X100754803Y-47423547D01*
X100754058Y-47421748D01*
X100660937Y-47282383D01*
X100542417Y-47163863D01*
X100403052Y-47070742D01*
X100401249Y-47069995D01*
X100944206Y-46527040D01*
X100841151Y-46452166D01*
X100616072Y-46337483D01*
X100375815Y-46259418D01*
X100126307Y-46219900D01*
X99873693Y-46219900D01*
X99624184Y-46259418D01*
X99383927Y-46337483D01*
X99158844Y-46452168D01*
X99055793Y-46527039D01*
X99055792Y-46527040D01*
X99598748Y-47069996D01*
X99596948Y-47070742D01*
X99457583Y-47163863D01*
X99339063Y-47282383D01*
X99245942Y-47421748D01*
X99245196Y-47423548D01*
X98702240Y-46880592D01*
X98702239Y-46880593D01*
X98627368Y-46983644D01*
X98512683Y-47208727D01*
X98434618Y-47448984D01*
X98395100Y-47698492D01*
X94100000Y-47698492D01*
X94100000Y-44424000D01*
X94119685Y-44356961D01*
X94172489Y-44311206D01*
X94224000Y-44300000D01*
X105776000Y-44300000D01*
X105843039Y-44319685D01*
G37*
%TD.AperFunction*%
%TD*%
M02*
