%TF.GenerationSoftware,KiCad,Pcbnew,9.0.7*%
%TF.CreationDate,2026-03-21T02:29:11+11:00*%
%TF.ProjectId,SolarSystem,536f6c61-7253-4797-9374-656d2e6b6963,0*%
%TF.SameCoordinates,Original*%
%TF.FileFunction,Legend,Bot*%
%TF.FilePolarity,Positive*%
%FSLAX46Y46*%
G04 Gerber Fmt 4.6, Leading zero omitted, Abs format (unit mm)*
G04 Created by KiCad (PCBNEW 9.0.7) date 2026-03-21 02:29:11*
%MOMM*%
%LPD*%
G01*
G04 APERTURE LIST*
%ADD10C,0.508000*%
G04 APERTURE END LIST*
D10*
%TO.C,J_PV+1*%
X52178600Y-95300000D02*
G75*
G02*
X51416600Y-95300000I-381000J0D01*
G01*
X51416600Y-95300000D02*
G75*
G02*
X52178600Y-95300000I381000J0D01*
G01*
%TO.C,J_BAT+1*%
X264583400Y-100100000D02*
G75*
G02*
X263821400Y-100100000I-381000J0D01*
G01*
X263821400Y-100100000D02*
G75*
G02*
X264583400Y-100100000I381000J0D01*
G01*
%TO.C,J_PV-1*%
X52178600Y-109387600D02*
G75*
G02*
X51416600Y-109387600I-381000J0D01*
G01*
X51416600Y-109387600D02*
G75*
G02*
X52178600Y-109387600I381000J0D01*
G01*
%TO.C,J_M3+1*%
X246803400Y-165287600D02*
G75*
G02*
X246041400Y-165287600I-381000J0D01*
G01*
X246041400Y-165287600D02*
G75*
G02*
X246803400Y-165287600I381000J0D01*
G01*
%TO.C,J_VDD1-1*%
X67156200Y-41247600D02*
G75*
G02*
X66394200Y-41247600I-381000J0D01*
G01*
X66394200Y-41247600D02*
G75*
G02*
X67156200Y-41247600I381000J0D01*
G01*
%TO.C,J_M1+1*%
X100381000Y-41322400D02*
G75*
G02*
X99619000Y-41322400I-381000J0D01*
G01*
X99619000Y-41322400D02*
G75*
G02*
X100381000Y-41322400I381000J0D01*
G01*
%TO.C,J_M2+1*%
X167718600Y-41322400D02*
G75*
G02*
X166956600Y-41322400I-381000J0D01*
G01*
X166956600Y-41322400D02*
G75*
G02*
X167718600Y-41322400I381000J0D01*
G01*
%TO.C,J_VDD1+1*%
X81368600Y-41247600D02*
G75*
G02*
X80606600Y-41247600I-381000J0D01*
G01*
X80606600Y-41247600D02*
G75*
G02*
X81368600Y-41247600I381000J0D01*
G01*
%TO.C,J_BAT-1*%
X264583400Y-85900000D02*
G75*
G02*
X263821400Y-85900000I-381000J0D01*
G01*
X263821400Y-85900000D02*
G75*
G02*
X264583400Y-85900000I381000J0D01*
G01*
%TO.C,J_M2-1*%
X182031000Y-41322400D02*
G75*
G02*
X181269000Y-41322400I-381000J0D01*
G01*
X181269000Y-41322400D02*
G75*
G02*
X182031000Y-41322400I381000J0D01*
G01*
%TO.C,J_Pump+1*%
X264583400Y-212687600D02*
G75*
G02*
X263821400Y-212687600I-381000J0D01*
G01*
X263821400Y-212687600D02*
G75*
G02*
X264583400Y-212687600I381000J0D01*
G01*
%TO.C,J_M1-1*%
X114581000Y-41322400D02*
G75*
G02*
X113819000Y-41322400I-381000J0D01*
G01*
X113819000Y-41322400D02*
G75*
G02*
X114581000Y-41322400I381000J0D01*
G01*
%TO.C,J_Pump-1*%
X264583400Y-198587600D02*
G75*
G02*
X263821400Y-198587600I-381000J0D01*
G01*
X263821400Y-198587600D02*
G75*
G02*
X264583400Y-198587600I381000J0D01*
G01*
%TO.C,J_M3-1*%
X246803400Y-182887600D02*
G75*
G02*
X246041400Y-182887600I-381000J0D01*
G01*
X246041400Y-182887600D02*
G75*
G02*
X246803400Y-182887600I381000J0D01*
G01*
%TD*%
M02*
