%TF.GenerationSoftware,KiCad,Pcbnew,9.0.7*%
%TF.CreationDate,2026-03-21T02:29:11+11:00*%
%TF.ProjectId,SolarSystem,536f6c61-7253-4797-9374-656d2e6b6963,0*%
%TF.SameCoordinates,Original*%
%TF.FileFunction,Legend,Top*%
%TF.FilePolarity,Positive*%
%FSLAX46Y46*%
G04 Gerber Fmt 4.6, Leading zero omitted, Abs format (unit mm)*
G04 Created by KiCad (PCBNEW 9.0.7) date 2026-03-21 02:29:11*
%MOMM*%
%LPD*%
G01*
G04 APERTURE LIST*
%ADD10C,0.150000*%
%ADD11C,0.100000*%
G04 APERTURE END LIST*
D10*
X54338095Y-86554819D02*
X54338095Y-87269104D01*
X54338095Y-87269104D02*
X54290476Y-87411961D01*
X54290476Y-87411961D02*
X54195238Y-87507200D01*
X54195238Y-87507200D02*
X54052381Y-87554819D01*
X54052381Y-87554819D02*
X53957143Y-87554819D01*
X54576191Y-87650057D02*
X55338095Y-87650057D01*
X55576191Y-87554819D02*
X55576191Y-86554819D01*
X55576191Y-86554819D02*
X55957143Y-86554819D01*
X55957143Y-86554819D02*
X56052381Y-86602438D01*
X56052381Y-86602438D02*
X56100000Y-86650057D01*
X56100000Y-86650057D02*
X56147619Y-86745295D01*
X56147619Y-86745295D02*
X56147619Y-86888152D01*
X56147619Y-86888152D02*
X56100000Y-86983390D01*
X56100000Y-86983390D02*
X56052381Y-87031009D01*
X56052381Y-87031009D02*
X55957143Y-87078628D01*
X55957143Y-87078628D02*
X55576191Y-87078628D01*
X56433334Y-86554819D02*
X56766667Y-87554819D01*
X56766667Y-87554819D02*
X57100000Y-86554819D01*
X57433334Y-87173866D02*
X58195239Y-87173866D01*
X57814286Y-87554819D02*
X57814286Y-86792914D01*
X59195238Y-87554819D02*
X58623810Y-87554819D01*
X58909524Y-87554819D02*
X58909524Y-86554819D01*
X58909524Y-86554819D02*
X58814286Y-86697676D01*
X58814286Y-86697676D02*
X58719048Y-86792914D01*
X58719048Y-86792914D02*
X58623810Y-86840533D01*
X242057142Y-99554819D02*
X242057142Y-100269104D01*
X242057142Y-100269104D02*
X242009523Y-100411961D01*
X242009523Y-100411961D02*
X241914285Y-100507200D01*
X241914285Y-100507200D02*
X241771428Y-100554819D01*
X241771428Y-100554819D02*
X241676190Y-100554819D01*
X242295238Y-100650057D02*
X243057142Y-100650057D01*
X243628571Y-100031009D02*
X243771428Y-100078628D01*
X243771428Y-100078628D02*
X243819047Y-100126247D01*
X243819047Y-100126247D02*
X243866666Y-100221485D01*
X243866666Y-100221485D02*
X243866666Y-100364342D01*
X243866666Y-100364342D02*
X243819047Y-100459580D01*
X243819047Y-100459580D02*
X243771428Y-100507200D01*
X243771428Y-100507200D02*
X243676190Y-100554819D01*
X243676190Y-100554819D02*
X243295238Y-100554819D01*
X243295238Y-100554819D02*
X243295238Y-99554819D01*
X243295238Y-99554819D02*
X243628571Y-99554819D01*
X243628571Y-99554819D02*
X243723809Y-99602438D01*
X243723809Y-99602438D02*
X243771428Y-99650057D01*
X243771428Y-99650057D02*
X243819047Y-99745295D01*
X243819047Y-99745295D02*
X243819047Y-99840533D01*
X243819047Y-99840533D02*
X243771428Y-99935771D01*
X243771428Y-99935771D02*
X243723809Y-99983390D01*
X243723809Y-99983390D02*
X243628571Y-100031009D01*
X243628571Y-100031009D02*
X243295238Y-100031009D01*
X244247619Y-100269104D02*
X244723809Y-100269104D01*
X244152381Y-100554819D02*
X244485714Y-99554819D01*
X244485714Y-99554819D02*
X244819047Y-100554819D01*
X245009524Y-99554819D02*
X245580952Y-99554819D01*
X245295238Y-100554819D02*
X245295238Y-99554819D01*
X245914286Y-100173866D02*
X246676191Y-100173866D01*
X246295238Y-100554819D02*
X246295238Y-99792914D01*
X247676190Y-100554819D02*
X247104762Y-100554819D01*
X247390476Y-100554819D02*
X247390476Y-99554819D01*
X247390476Y-99554819D02*
X247295238Y-99697676D01*
X247295238Y-99697676D02*
X247200000Y-99792914D01*
X247200000Y-99792914D02*
X247104762Y-99840533D01*
X170213295Y-174449819D02*
X170213295Y-175259342D01*
X170213295Y-175259342D02*
X170260914Y-175354580D01*
X170260914Y-175354580D02*
X170308533Y-175402200D01*
X170308533Y-175402200D02*
X170403771Y-175449819D01*
X170403771Y-175449819D02*
X170594247Y-175449819D01*
X170594247Y-175449819D02*
X170689485Y-175402200D01*
X170689485Y-175402200D02*
X170737104Y-175354580D01*
X170737104Y-175354580D02*
X170784723Y-175259342D01*
X170784723Y-175259342D02*
X170784723Y-174449819D01*
X171737104Y-174449819D02*
X171260914Y-174449819D01*
X171260914Y-174449819D02*
X171213295Y-174926009D01*
X171213295Y-174926009D02*
X171260914Y-174878390D01*
X171260914Y-174878390D02*
X171356152Y-174830771D01*
X171356152Y-174830771D02*
X171594247Y-174830771D01*
X171594247Y-174830771D02*
X171689485Y-174878390D01*
X171689485Y-174878390D02*
X171737104Y-174926009D01*
X171737104Y-174926009D02*
X171784723Y-175021247D01*
X171784723Y-175021247D02*
X171784723Y-175259342D01*
X171784723Y-175259342D02*
X171737104Y-175354580D01*
X171737104Y-175354580D02*
X171689485Y-175402200D01*
X171689485Y-175402200D02*
X171594247Y-175449819D01*
X171594247Y-175449819D02*
X171356152Y-175449819D01*
X171356152Y-175449819D02*
X171260914Y-175402200D01*
X171260914Y-175402200D02*
X171213295Y-175354580D01*
X167876400Y-170944619D02*
X167876400Y-171182714D01*
X167638305Y-171087476D02*
X167876400Y-171182714D01*
X167876400Y-171182714D02*
X168114495Y-171087476D01*
X167733543Y-171373190D02*
X167876400Y-171182714D01*
X167876400Y-171182714D02*
X168019257Y-171373190D01*
X84533333Y-114604819D02*
X84200000Y-114128628D01*
X83961905Y-114604819D02*
X83961905Y-113604819D01*
X83961905Y-113604819D02*
X84342857Y-113604819D01*
X84342857Y-113604819D02*
X84438095Y-113652438D01*
X84438095Y-113652438D02*
X84485714Y-113700057D01*
X84485714Y-113700057D02*
X84533333Y-113795295D01*
X84533333Y-113795295D02*
X84533333Y-113938152D01*
X84533333Y-113938152D02*
X84485714Y-114033390D01*
X84485714Y-114033390D02*
X84438095Y-114081009D01*
X84438095Y-114081009D02*
X84342857Y-114128628D01*
X84342857Y-114128628D02*
X83961905Y-114128628D01*
X85485714Y-114604819D02*
X84914286Y-114604819D01*
X85200000Y-114604819D02*
X85200000Y-113604819D01*
X85200000Y-113604819D02*
X85104762Y-113747676D01*
X85104762Y-113747676D02*
X85009524Y-113842914D01*
X85009524Y-113842914D02*
X84914286Y-113890533D01*
X118435714Y-98354819D02*
X118435714Y-97354819D01*
X118435714Y-97354819D02*
X118673809Y-97354819D01*
X118673809Y-97354819D02*
X118816666Y-97402438D01*
X118816666Y-97402438D02*
X118911904Y-97497676D01*
X118911904Y-97497676D02*
X118959523Y-97592914D01*
X118959523Y-97592914D02*
X119007142Y-97783390D01*
X119007142Y-97783390D02*
X119007142Y-97926247D01*
X119007142Y-97926247D02*
X118959523Y-98116723D01*
X118959523Y-98116723D02*
X118911904Y-98211961D01*
X118911904Y-98211961D02*
X118816666Y-98307200D01*
X118816666Y-98307200D02*
X118673809Y-98354819D01*
X118673809Y-98354819D02*
X118435714Y-98354819D01*
X119959523Y-98354819D02*
X119388095Y-98354819D01*
X119673809Y-98354819D02*
X119673809Y-97354819D01*
X119673809Y-97354819D02*
X119578571Y-97497676D01*
X119578571Y-97497676D02*
X119483333Y-97592914D01*
X119483333Y-97592914D02*
X119388095Y-97640533D01*
X120578571Y-97354819D02*
X120673809Y-97354819D01*
X120673809Y-97354819D02*
X120769047Y-97402438D01*
X120769047Y-97402438D02*
X120816666Y-97450057D01*
X120816666Y-97450057D02*
X120864285Y-97545295D01*
X120864285Y-97545295D02*
X120911904Y-97735771D01*
X120911904Y-97735771D02*
X120911904Y-97973866D01*
X120911904Y-97973866D02*
X120864285Y-98164342D01*
X120864285Y-98164342D02*
X120816666Y-98259580D01*
X120816666Y-98259580D02*
X120769047Y-98307200D01*
X120769047Y-98307200D02*
X120673809Y-98354819D01*
X120673809Y-98354819D02*
X120578571Y-98354819D01*
X120578571Y-98354819D02*
X120483333Y-98307200D01*
X120483333Y-98307200D02*
X120435714Y-98259580D01*
X120435714Y-98259580D02*
X120388095Y-98164342D01*
X120388095Y-98164342D02*
X120340476Y-97973866D01*
X120340476Y-97973866D02*
X120340476Y-97735771D01*
X120340476Y-97735771D02*
X120388095Y-97545295D01*
X120388095Y-97545295D02*
X120435714Y-97450057D01*
X120435714Y-97450057D02*
X120483333Y-97402438D01*
X120483333Y-97402438D02*
X120578571Y-97354819D01*
X227465980Y-192316666D02*
X227513600Y-192364285D01*
X227513600Y-192364285D02*
X227561219Y-192507142D01*
X227561219Y-192507142D02*
X227561219Y-192602380D01*
X227561219Y-192602380D02*
X227513600Y-192745237D01*
X227513600Y-192745237D02*
X227418361Y-192840475D01*
X227418361Y-192840475D02*
X227323123Y-192888094D01*
X227323123Y-192888094D02*
X227132647Y-192935713D01*
X227132647Y-192935713D02*
X226989790Y-192935713D01*
X226989790Y-192935713D02*
X226799314Y-192888094D01*
X226799314Y-192888094D02*
X226704076Y-192840475D01*
X226704076Y-192840475D02*
X226608838Y-192745237D01*
X226608838Y-192745237D02*
X226561219Y-192602380D01*
X226561219Y-192602380D02*
X226561219Y-192507142D01*
X226561219Y-192507142D02*
X226608838Y-192364285D01*
X226608838Y-192364285D02*
X226656457Y-192316666D01*
X226656457Y-191935713D02*
X226608838Y-191888094D01*
X226608838Y-191888094D02*
X226561219Y-191792856D01*
X226561219Y-191792856D02*
X226561219Y-191554761D01*
X226561219Y-191554761D02*
X226608838Y-191459523D01*
X226608838Y-191459523D02*
X226656457Y-191411904D01*
X226656457Y-191411904D02*
X226751695Y-191364285D01*
X226751695Y-191364285D02*
X226846933Y-191364285D01*
X226846933Y-191364285D02*
X226989790Y-191411904D01*
X226989790Y-191411904D02*
X227561219Y-191983332D01*
X227561219Y-191983332D02*
X227561219Y-191364285D01*
X221573866Y-195730951D02*
X221573866Y-194969047D01*
X221954819Y-195349999D02*
X221192914Y-195349999D01*
X54238095Y-117192419D02*
X54238095Y-117906704D01*
X54238095Y-117906704D02*
X54190476Y-118049561D01*
X54190476Y-118049561D02*
X54095238Y-118144800D01*
X54095238Y-118144800D02*
X53952381Y-118192419D01*
X53952381Y-118192419D02*
X53857143Y-118192419D01*
X54476191Y-118287657D02*
X55238095Y-118287657D01*
X55476191Y-118192419D02*
X55476191Y-117192419D01*
X55476191Y-117192419D02*
X55857143Y-117192419D01*
X55857143Y-117192419D02*
X55952381Y-117240038D01*
X55952381Y-117240038D02*
X56000000Y-117287657D01*
X56000000Y-117287657D02*
X56047619Y-117382895D01*
X56047619Y-117382895D02*
X56047619Y-117525752D01*
X56047619Y-117525752D02*
X56000000Y-117620990D01*
X56000000Y-117620990D02*
X55952381Y-117668609D01*
X55952381Y-117668609D02*
X55857143Y-117716228D01*
X55857143Y-117716228D02*
X55476191Y-117716228D01*
X56333334Y-117192419D02*
X56666667Y-118192419D01*
X56666667Y-118192419D02*
X57000000Y-117192419D01*
X57333334Y-117811466D02*
X58095239Y-117811466D01*
X59095238Y-118192419D02*
X58523810Y-118192419D01*
X58809524Y-118192419D02*
X58809524Y-117192419D01*
X58809524Y-117192419D02*
X58714286Y-117335276D01*
X58714286Y-117335276D02*
X58619048Y-117430514D01*
X58619048Y-117430514D02*
X58523810Y-117478133D01*
X242619047Y-161554819D02*
X242619047Y-162269104D01*
X242619047Y-162269104D02*
X242571428Y-162411961D01*
X242571428Y-162411961D02*
X242476190Y-162507200D01*
X242476190Y-162507200D02*
X242333333Y-162554819D01*
X242333333Y-162554819D02*
X242238095Y-162554819D01*
X242857143Y-162650057D02*
X243619047Y-162650057D01*
X243857143Y-162554819D02*
X243857143Y-161554819D01*
X243857143Y-161554819D02*
X244190476Y-162269104D01*
X244190476Y-162269104D02*
X244523809Y-161554819D01*
X244523809Y-161554819D02*
X244523809Y-162554819D01*
X244904762Y-161554819D02*
X245523809Y-161554819D01*
X245523809Y-161554819D02*
X245190476Y-161935771D01*
X245190476Y-161935771D02*
X245333333Y-161935771D01*
X245333333Y-161935771D02*
X245428571Y-161983390D01*
X245428571Y-161983390D02*
X245476190Y-162031009D01*
X245476190Y-162031009D02*
X245523809Y-162126247D01*
X245523809Y-162126247D02*
X245523809Y-162364342D01*
X245523809Y-162364342D02*
X245476190Y-162459580D01*
X245476190Y-162459580D02*
X245428571Y-162507200D01*
X245428571Y-162507200D02*
X245333333Y-162554819D01*
X245333333Y-162554819D02*
X245047619Y-162554819D01*
X245047619Y-162554819D02*
X244952381Y-162507200D01*
X244952381Y-162507200D02*
X244904762Y-162459580D01*
X245952381Y-162173866D02*
X246714286Y-162173866D01*
X246333333Y-162554819D02*
X246333333Y-161792914D01*
X247714285Y-162554819D02*
X247142857Y-162554819D01*
X247428571Y-162554819D02*
X247428571Y-161554819D01*
X247428571Y-161554819D02*
X247333333Y-161697676D01*
X247333333Y-161697676D02*
X247238095Y-161792914D01*
X247238095Y-161792914D02*
X247142857Y-161840533D01*
X100630952Y-115859580D02*
X100583333Y-115907200D01*
X100583333Y-115907200D02*
X100440476Y-115954819D01*
X100440476Y-115954819D02*
X100345238Y-115954819D01*
X100345238Y-115954819D02*
X100202381Y-115907200D01*
X100202381Y-115907200D02*
X100107143Y-115811961D01*
X100107143Y-115811961D02*
X100059524Y-115716723D01*
X100059524Y-115716723D02*
X100011905Y-115526247D01*
X100011905Y-115526247D02*
X100011905Y-115383390D01*
X100011905Y-115383390D02*
X100059524Y-115192914D01*
X100059524Y-115192914D02*
X100107143Y-115097676D01*
X100107143Y-115097676D02*
X100202381Y-115002438D01*
X100202381Y-115002438D02*
X100345238Y-114954819D01*
X100345238Y-114954819D02*
X100440476Y-114954819D01*
X100440476Y-114954819D02*
X100583333Y-115002438D01*
X100583333Y-115002438D02*
X100630952Y-115050057D01*
X101488095Y-115954819D02*
X101488095Y-114954819D01*
X101488095Y-115907200D02*
X101392857Y-115954819D01*
X101392857Y-115954819D02*
X101202381Y-115954819D01*
X101202381Y-115954819D02*
X101107143Y-115907200D01*
X101107143Y-115907200D02*
X101059524Y-115859580D01*
X101059524Y-115859580D02*
X101011905Y-115764342D01*
X101011905Y-115764342D02*
X101011905Y-115478628D01*
X101011905Y-115478628D02*
X101059524Y-115383390D01*
X101059524Y-115383390D02*
X101107143Y-115335771D01*
X101107143Y-115335771D02*
X101202381Y-115288152D01*
X101202381Y-115288152D02*
X101392857Y-115288152D01*
X101392857Y-115288152D02*
X101488095Y-115335771D01*
X101869048Y-114954819D02*
X102488095Y-114954819D01*
X102488095Y-114954819D02*
X102154762Y-115335771D01*
X102154762Y-115335771D02*
X102297619Y-115335771D01*
X102297619Y-115335771D02*
X102392857Y-115383390D01*
X102392857Y-115383390D02*
X102440476Y-115431009D01*
X102440476Y-115431009D02*
X102488095Y-115526247D01*
X102488095Y-115526247D02*
X102488095Y-115764342D01*
X102488095Y-115764342D02*
X102440476Y-115859580D01*
X102440476Y-115859580D02*
X102392857Y-115907200D01*
X102392857Y-115907200D02*
X102297619Y-115954819D01*
X102297619Y-115954819D02*
X102011905Y-115954819D01*
X102011905Y-115954819D02*
X101916667Y-115907200D01*
X101916667Y-115907200D02*
X101869048Y-115859580D01*
X165761905Y-97881319D02*
X165761905Y-96881319D01*
X165761905Y-96881319D02*
X166000000Y-96881319D01*
X166000000Y-96881319D02*
X166142857Y-96928938D01*
X166142857Y-96928938D02*
X166238095Y-97024176D01*
X166238095Y-97024176D02*
X166285714Y-97119414D01*
X166285714Y-97119414D02*
X166333333Y-97309890D01*
X166333333Y-97309890D02*
X166333333Y-97452747D01*
X166333333Y-97452747D02*
X166285714Y-97643223D01*
X166285714Y-97643223D02*
X166238095Y-97738461D01*
X166238095Y-97738461D02*
X166142857Y-97833700D01*
X166142857Y-97833700D02*
X166000000Y-97881319D01*
X166000000Y-97881319D02*
X165761905Y-97881319D01*
X167190476Y-96881319D02*
X167000000Y-96881319D01*
X167000000Y-96881319D02*
X166904762Y-96928938D01*
X166904762Y-96928938D02*
X166857143Y-96976557D01*
X166857143Y-96976557D02*
X166761905Y-97119414D01*
X166761905Y-97119414D02*
X166714286Y-97309890D01*
X166714286Y-97309890D02*
X166714286Y-97690842D01*
X166714286Y-97690842D02*
X166761905Y-97786080D01*
X166761905Y-97786080D02*
X166809524Y-97833700D01*
X166809524Y-97833700D02*
X166904762Y-97881319D01*
X166904762Y-97881319D02*
X167095238Y-97881319D01*
X167095238Y-97881319D02*
X167190476Y-97833700D01*
X167190476Y-97833700D02*
X167238095Y-97786080D01*
X167238095Y-97786080D02*
X167285714Y-97690842D01*
X167285714Y-97690842D02*
X167285714Y-97452747D01*
X167285714Y-97452747D02*
X167238095Y-97357509D01*
X167238095Y-97357509D02*
X167190476Y-97309890D01*
X167190476Y-97309890D02*
X167095238Y-97262271D01*
X167095238Y-97262271D02*
X166904762Y-97262271D01*
X166904762Y-97262271D02*
X166809524Y-97309890D01*
X166809524Y-97309890D02*
X166761905Y-97357509D01*
X166761905Y-97357509D02*
X166714286Y-97452747D01*
X110109580Y-85790000D02*
X110157200Y-85837619D01*
X110157200Y-85837619D02*
X110204819Y-85980476D01*
X110204819Y-85980476D02*
X110204819Y-86075714D01*
X110204819Y-86075714D02*
X110157200Y-86218571D01*
X110157200Y-86218571D02*
X110061961Y-86313809D01*
X110061961Y-86313809D02*
X109966723Y-86361428D01*
X109966723Y-86361428D02*
X109776247Y-86409047D01*
X109776247Y-86409047D02*
X109633390Y-86409047D01*
X109633390Y-86409047D02*
X109442914Y-86361428D01*
X109442914Y-86361428D02*
X109347676Y-86313809D01*
X109347676Y-86313809D02*
X109252438Y-86218571D01*
X109252438Y-86218571D02*
X109204819Y-86075714D01*
X109204819Y-86075714D02*
X109204819Y-85980476D01*
X109204819Y-85980476D02*
X109252438Y-85837619D01*
X109252438Y-85837619D02*
X109300057Y-85790000D01*
X109538152Y-85361428D02*
X110538152Y-85361428D01*
X109585771Y-85361428D02*
X109538152Y-85266190D01*
X109538152Y-85266190D02*
X109538152Y-85075714D01*
X109538152Y-85075714D02*
X109585771Y-84980476D01*
X109585771Y-84980476D02*
X109633390Y-84932857D01*
X109633390Y-84932857D02*
X109728628Y-84885238D01*
X109728628Y-84885238D02*
X110014342Y-84885238D01*
X110014342Y-84885238D02*
X110109580Y-84932857D01*
X110109580Y-84932857D02*
X110157200Y-84980476D01*
X110157200Y-84980476D02*
X110204819Y-85075714D01*
X110204819Y-85075714D02*
X110204819Y-85266190D01*
X110204819Y-85266190D02*
X110157200Y-85361428D01*
X109538152Y-84551904D02*
X110204819Y-84313809D01*
X110204819Y-84313809D02*
X109538152Y-84075714D01*
X110204819Y-83170952D02*
X110204819Y-83742380D01*
X110204819Y-83456666D02*
X109204819Y-83456666D01*
X109204819Y-83456666D02*
X109347676Y-83551904D01*
X109347676Y-83551904D02*
X109442914Y-83647142D01*
X109442914Y-83647142D02*
X109490533Y-83742380D01*
X110854819Y-102638094D02*
X109854819Y-102638094D01*
X109854819Y-102638094D02*
X109854819Y-102399999D01*
X109854819Y-102399999D02*
X109902438Y-102257142D01*
X109902438Y-102257142D02*
X109997676Y-102161904D01*
X109997676Y-102161904D02*
X110092914Y-102114285D01*
X110092914Y-102114285D02*
X110283390Y-102066666D01*
X110283390Y-102066666D02*
X110426247Y-102066666D01*
X110426247Y-102066666D02*
X110616723Y-102114285D01*
X110616723Y-102114285D02*
X110711961Y-102161904D01*
X110711961Y-102161904D02*
X110807200Y-102257142D01*
X110807200Y-102257142D02*
X110854819Y-102399999D01*
X110854819Y-102399999D02*
X110854819Y-102638094D01*
X110854819Y-101590475D02*
X110854819Y-101399999D01*
X110854819Y-101399999D02*
X110807200Y-101304761D01*
X110807200Y-101304761D02*
X110759580Y-101257142D01*
X110759580Y-101257142D02*
X110616723Y-101161904D01*
X110616723Y-101161904D02*
X110426247Y-101114285D01*
X110426247Y-101114285D02*
X110045295Y-101114285D01*
X110045295Y-101114285D02*
X109950057Y-101161904D01*
X109950057Y-101161904D02*
X109902438Y-101209523D01*
X109902438Y-101209523D02*
X109854819Y-101304761D01*
X109854819Y-101304761D02*
X109854819Y-101495237D01*
X109854819Y-101495237D02*
X109902438Y-101590475D01*
X109902438Y-101590475D02*
X109950057Y-101638094D01*
X109950057Y-101638094D02*
X110045295Y-101685713D01*
X110045295Y-101685713D02*
X110283390Y-101685713D01*
X110283390Y-101685713D02*
X110378628Y-101638094D01*
X110378628Y-101638094D02*
X110426247Y-101590475D01*
X110426247Y-101590475D02*
X110473866Y-101495237D01*
X110473866Y-101495237D02*
X110473866Y-101304761D01*
X110473866Y-101304761D02*
X110426247Y-101209523D01*
X110426247Y-101209523D02*
X110378628Y-101161904D01*
X110378628Y-101161904D02*
X110283390Y-101114285D01*
X111154819Y-106221904D02*
X110154819Y-106221904D01*
X111154819Y-105650476D02*
X110583390Y-106079047D01*
X110154819Y-105650476D02*
X110726247Y-106221904D01*
X107380952Y-111659580D02*
X107333333Y-111707200D01*
X107333333Y-111707200D02*
X107190476Y-111754819D01*
X107190476Y-111754819D02*
X107095238Y-111754819D01*
X107095238Y-111754819D02*
X106952381Y-111707200D01*
X106952381Y-111707200D02*
X106857143Y-111611961D01*
X106857143Y-111611961D02*
X106809524Y-111516723D01*
X106809524Y-111516723D02*
X106761905Y-111326247D01*
X106761905Y-111326247D02*
X106761905Y-111183390D01*
X106761905Y-111183390D02*
X106809524Y-110992914D01*
X106809524Y-110992914D02*
X106857143Y-110897676D01*
X106857143Y-110897676D02*
X106952381Y-110802438D01*
X106952381Y-110802438D02*
X107095238Y-110754819D01*
X107095238Y-110754819D02*
X107190476Y-110754819D01*
X107190476Y-110754819D02*
X107333333Y-110802438D01*
X107333333Y-110802438D02*
X107380952Y-110850057D01*
X108238095Y-111754819D02*
X108238095Y-110754819D01*
X108238095Y-111707200D02*
X108142857Y-111754819D01*
X108142857Y-111754819D02*
X107952381Y-111754819D01*
X107952381Y-111754819D02*
X107857143Y-111707200D01*
X107857143Y-111707200D02*
X107809524Y-111659580D01*
X107809524Y-111659580D02*
X107761905Y-111564342D01*
X107761905Y-111564342D02*
X107761905Y-111278628D01*
X107761905Y-111278628D02*
X107809524Y-111183390D01*
X107809524Y-111183390D02*
X107857143Y-111135771D01*
X107857143Y-111135771D02*
X107952381Y-111088152D01*
X107952381Y-111088152D02*
X108142857Y-111088152D01*
X108142857Y-111088152D02*
X108238095Y-111135771D01*
X109142857Y-111088152D02*
X109142857Y-111754819D01*
X108904762Y-110707200D02*
X108666667Y-111421485D01*
X108666667Y-111421485D02*
X109285714Y-111421485D01*
X77623810Y-124604819D02*
X77623810Y-123604819D01*
X78671428Y-124509580D02*
X78623809Y-124557200D01*
X78623809Y-124557200D02*
X78480952Y-124604819D01*
X78480952Y-124604819D02*
X78385714Y-124604819D01*
X78385714Y-124604819D02*
X78242857Y-124557200D01*
X78242857Y-124557200D02*
X78147619Y-124461961D01*
X78147619Y-124461961D02*
X78100000Y-124366723D01*
X78100000Y-124366723D02*
X78052381Y-124176247D01*
X78052381Y-124176247D02*
X78052381Y-124033390D01*
X78052381Y-124033390D02*
X78100000Y-123842914D01*
X78100000Y-123842914D02*
X78147619Y-123747676D01*
X78147619Y-123747676D02*
X78242857Y-123652438D01*
X78242857Y-123652438D02*
X78385714Y-123604819D01*
X78385714Y-123604819D02*
X78480952Y-123604819D01*
X78480952Y-123604819D02*
X78623809Y-123652438D01*
X78623809Y-123652438D02*
X78671428Y-123700057D01*
X79623809Y-124604819D02*
X79052381Y-124604819D01*
X79338095Y-124604819D02*
X79338095Y-123604819D01*
X79338095Y-123604819D02*
X79242857Y-123747676D01*
X79242857Y-123747676D02*
X79147619Y-123842914D01*
X79147619Y-123842914D02*
X79052381Y-123890533D01*
X126604819Y-63666666D02*
X126604819Y-64142856D01*
X126604819Y-64142856D02*
X125604819Y-64142856D01*
X126604819Y-62809523D02*
X126604819Y-63380951D01*
X126604819Y-63095237D02*
X125604819Y-63095237D01*
X125604819Y-63095237D02*
X125747676Y-63190475D01*
X125747676Y-63190475D02*
X125842914Y-63285713D01*
X125842914Y-63285713D02*
X125890533Y-63380951D01*
X60261904Y-58254819D02*
X60261904Y-58969104D01*
X60261904Y-58969104D02*
X60214285Y-59111961D01*
X60214285Y-59111961D02*
X60119047Y-59207200D01*
X60119047Y-59207200D02*
X59976190Y-59254819D01*
X59976190Y-59254819D02*
X59880952Y-59254819D01*
X60500000Y-59350057D02*
X61261904Y-59350057D01*
X61357143Y-58254819D02*
X61690476Y-59254819D01*
X61690476Y-59254819D02*
X62023809Y-58254819D01*
X62357143Y-59254819D02*
X62357143Y-58254819D01*
X62357143Y-58254819D02*
X62595238Y-58254819D01*
X62595238Y-58254819D02*
X62738095Y-58302438D01*
X62738095Y-58302438D02*
X62833333Y-58397676D01*
X62833333Y-58397676D02*
X62880952Y-58492914D01*
X62880952Y-58492914D02*
X62928571Y-58683390D01*
X62928571Y-58683390D02*
X62928571Y-58826247D01*
X62928571Y-58826247D02*
X62880952Y-59016723D01*
X62880952Y-59016723D02*
X62833333Y-59111961D01*
X62833333Y-59111961D02*
X62738095Y-59207200D01*
X62738095Y-59207200D02*
X62595238Y-59254819D01*
X62595238Y-59254819D02*
X62357143Y-59254819D01*
X63357143Y-59254819D02*
X63357143Y-58254819D01*
X63357143Y-58254819D02*
X63595238Y-58254819D01*
X63595238Y-58254819D02*
X63738095Y-58302438D01*
X63738095Y-58302438D02*
X63833333Y-58397676D01*
X63833333Y-58397676D02*
X63880952Y-58492914D01*
X63880952Y-58492914D02*
X63928571Y-58683390D01*
X63928571Y-58683390D02*
X63928571Y-58826247D01*
X63928571Y-58826247D02*
X63880952Y-59016723D01*
X63880952Y-59016723D02*
X63833333Y-59111961D01*
X63833333Y-59111961D02*
X63738095Y-59207200D01*
X63738095Y-59207200D02*
X63595238Y-59254819D01*
X63595238Y-59254819D02*
X63357143Y-59254819D01*
X64880952Y-59254819D02*
X64309524Y-59254819D01*
X64595238Y-59254819D02*
X64595238Y-58254819D01*
X64595238Y-58254819D02*
X64500000Y-58397676D01*
X64500000Y-58397676D02*
X64404762Y-58492914D01*
X64404762Y-58492914D02*
X64309524Y-58540533D01*
X65309524Y-58873866D02*
X66071429Y-58873866D01*
X67071428Y-59254819D02*
X66500000Y-59254819D01*
X66785714Y-59254819D02*
X66785714Y-58254819D01*
X66785714Y-58254819D02*
X66690476Y-58397676D01*
X66690476Y-58397676D02*
X66595238Y-58492914D01*
X66595238Y-58492914D02*
X66500000Y-58540533D01*
X75197618Y-116709580D02*
X75149999Y-116757200D01*
X75149999Y-116757200D02*
X75007142Y-116804819D01*
X75007142Y-116804819D02*
X74911904Y-116804819D01*
X74911904Y-116804819D02*
X74769047Y-116757200D01*
X74769047Y-116757200D02*
X74673809Y-116661961D01*
X74673809Y-116661961D02*
X74626190Y-116566723D01*
X74626190Y-116566723D02*
X74578571Y-116376247D01*
X74578571Y-116376247D02*
X74578571Y-116233390D01*
X74578571Y-116233390D02*
X74626190Y-116042914D01*
X74626190Y-116042914D02*
X74673809Y-115947676D01*
X74673809Y-115947676D02*
X74769047Y-115852438D01*
X74769047Y-115852438D02*
X74911904Y-115804819D01*
X74911904Y-115804819D02*
X75007142Y-115804819D01*
X75007142Y-115804819D02*
X75149999Y-115852438D01*
X75149999Y-115852438D02*
X75197618Y-115900057D01*
X75530952Y-116138152D02*
X75769047Y-116804819D01*
X75769047Y-116804819D02*
X76007142Y-116138152D01*
X76340476Y-116757200D02*
X76435714Y-116804819D01*
X76435714Y-116804819D02*
X76626190Y-116804819D01*
X76626190Y-116804819D02*
X76721428Y-116757200D01*
X76721428Y-116757200D02*
X76769047Y-116661961D01*
X76769047Y-116661961D02*
X76769047Y-116614342D01*
X76769047Y-116614342D02*
X76721428Y-116519104D01*
X76721428Y-116519104D02*
X76626190Y-116471485D01*
X76626190Y-116471485D02*
X76483333Y-116471485D01*
X76483333Y-116471485D02*
X76388095Y-116423866D01*
X76388095Y-116423866D02*
X76340476Y-116328628D01*
X76340476Y-116328628D02*
X76340476Y-116281009D01*
X76340476Y-116281009D02*
X76388095Y-116185771D01*
X76388095Y-116185771D02*
X76483333Y-116138152D01*
X76483333Y-116138152D02*
X76626190Y-116138152D01*
X76626190Y-116138152D02*
X76721428Y-116185771D01*
X77721428Y-116804819D02*
X77150000Y-116804819D01*
X77435714Y-116804819D02*
X77435714Y-115804819D01*
X77435714Y-115804819D02*
X77340476Y-115947676D01*
X77340476Y-115947676D02*
X77245238Y-116042914D01*
X77245238Y-116042914D02*
X77150000Y-116090533D01*
X179499999Y-167359580D02*
X179452380Y-167407200D01*
X179452380Y-167407200D02*
X179309523Y-167454819D01*
X179309523Y-167454819D02*
X179214285Y-167454819D01*
X179214285Y-167454819D02*
X179071428Y-167407200D01*
X179071428Y-167407200D02*
X178976190Y-167311961D01*
X178976190Y-167311961D02*
X178928571Y-167216723D01*
X178928571Y-167216723D02*
X178880952Y-167026247D01*
X178880952Y-167026247D02*
X178880952Y-166883390D01*
X178880952Y-166883390D02*
X178928571Y-166692914D01*
X178928571Y-166692914D02*
X178976190Y-166597676D01*
X178976190Y-166597676D02*
X179071428Y-166502438D01*
X179071428Y-166502438D02*
X179214285Y-166454819D01*
X179214285Y-166454819D02*
X179309523Y-166454819D01*
X179309523Y-166454819D02*
X179452380Y-166502438D01*
X179452380Y-166502438D02*
X179499999Y-166550057D01*
X179928571Y-166788152D02*
X179928571Y-167788152D01*
X179928571Y-166835771D02*
X180023809Y-166788152D01*
X180023809Y-166788152D02*
X180214285Y-166788152D01*
X180214285Y-166788152D02*
X180309523Y-166835771D01*
X180309523Y-166835771D02*
X180357142Y-166883390D01*
X180357142Y-166883390D02*
X180404761Y-166978628D01*
X180404761Y-166978628D02*
X180404761Y-167264342D01*
X180404761Y-167264342D02*
X180357142Y-167359580D01*
X180357142Y-167359580D02*
X180309523Y-167407200D01*
X180309523Y-167407200D02*
X180214285Y-167454819D01*
X180214285Y-167454819D02*
X180023809Y-167454819D01*
X180023809Y-167454819D02*
X179928571Y-167407200D01*
X180738095Y-166788152D02*
X180976190Y-167454819D01*
X180976190Y-167454819D02*
X181214285Y-166788152D01*
X181500000Y-166454819D02*
X182119047Y-166454819D01*
X182119047Y-166454819D02*
X181785714Y-166835771D01*
X181785714Y-166835771D02*
X181928571Y-166835771D01*
X181928571Y-166835771D02*
X182023809Y-166883390D01*
X182023809Y-166883390D02*
X182071428Y-166931009D01*
X182071428Y-166931009D02*
X182119047Y-167026247D01*
X182119047Y-167026247D02*
X182119047Y-167264342D01*
X182119047Y-167264342D02*
X182071428Y-167359580D01*
X182071428Y-167359580D02*
X182023809Y-167407200D01*
X182023809Y-167407200D02*
X181928571Y-167454819D01*
X181928571Y-167454819D02*
X181642857Y-167454819D01*
X181642857Y-167454819D02*
X181547619Y-167407200D01*
X181547619Y-167407200D02*
X181500000Y-167359580D01*
X66526190Y-144491580D02*
X66478571Y-144539200D01*
X66478571Y-144539200D02*
X66335714Y-144586819D01*
X66335714Y-144586819D02*
X66240476Y-144586819D01*
X66240476Y-144586819D02*
X66097619Y-144539200D01*
X66097619Y-144539200D02*
X66002381Y-144443961D01*
X66002381Y-144443961D02*
X65954762Y-144348723D01*
X65954762Y-144348723D02*
X65907143Y-144158247D01*
X65907143Y-144158247D02*
X65907143Y-144015390D01*
X65907143Y-144015390D02*
X65954762Y-143824914D01*
X65954762Y-143824914D02*
X66002381Y-143729676D01*
X66002381Y-143729676D02*
X66097619Y-143634438D01*
X66097619Y-143634438D02*
X66240476Y-143586819D01*
X66240476Y-143586819D02*
X66335714Y-143586819D01*
X66335714Y-143586819D02*
X66478571Y-143634438D01*
X66478571Y-143634438D02*
X66526190Y-143682057D01*
X66716667Y-144682057D02*
X67478571Y-144682057D01*
X67859524Y-144586819D02*
X67764286Y-144539200D01*
X67764286Y-144539200D02*
X67716667Y-144491580D01*
X67716667Y-144491580D02*
X67669048Y-144396342D01*
X67669048Y-144396342D02*
X67669048Y-144110628D01*
X67669048Y-144110628D02*
X67716667Y-144015390D01*
X67716667Y-144015390D02*
X67764286Y-143967771D01*
X67764286Y-143967771D02*
X67859524Y-143920152D01*
X67859524Y-143920152D02*
X68002381Y-143920152D01*
X68002381Y-143920152D02*
X68097619Y-143967771D01*
X68097619Y-143967771D02*
X68145238Y-144015390D01*
X68145238Y-144015390D02*
X68192857Y-144110628D01*
X68192857Y-144110628D02*
X68192857Y-144396342D01*
X68192857Y-144396342D02*
X68145238Y-144491580D01*
X68145238Y-144491580D02*
X68097619Y-144539200D01*
X68097619Y-144539200D02*
X68002381Y-144586819D01*
X68002381Y-144586819D02*
X67859524Y-144586819D01*
X68621429Y-143920152D02*
X68621429Y-144920152D01*
X68621429Y-143967771D02*
X68716667Y-143920152D01*
X68716667Y-143920152D02*
X68907143Y-143920152D01*
X68907143Y-143920152D02*
X69002381Y-143967771D01*
X69002381Y-143967771D02*
X69050000Y-144015390D01*
X69050000Y-144015390D02*
X69097619Y-144110628D01*
X69097619Y-144110628D02*
X69097619Y-144396342D01*
X69097619Y-144396342D02*
X69050000Y-144491580D01*
X69050000Y-144491580D02*
X69002381Y-144539200D01*
X69002381Y-144539200D02*
X68907143Y-144586819D01*
X68907143Y-144586819D02*
X68716667Y-144586819D01*
X68716667Y-144586819D02*
X68621429Y-144539200D01*
X69954762Y-144586819D02*
X69954762Y-144063009D01*
X69954762Y-144063009D02*
X69907143Y-143967771D01*
X69907143Y-143967771D02*
X69811905Y-143920152D01*
X69811905Y-143920152D02*
X69621429Y-143920152D01*
X69621429Y-143920152D02*
X69526191Y-143967771D01*
X69954762Y-144539200D02*
X69859524Y-144586819D01*
X69859524Y-144586819D02*
X69621429Y-144586819D01*
X69621429Y-144586819D02*
X69526191Y-144539200D01*
X69526191Y-144539200D02*
X69478572Y-144443961D01*
X69478572Y-144443961D02*
X69478572Y-144348723D01*
X69478572Y-144348723D02*
X69526191Y-144253485D01*
X69526191Y-144253485D02*
X69621429Y-144205866D01*
X69621429Y-144205866D02*
X69859524Y-144205866D01*
X69859524Y-144205866D02*
X69954762Y-144158247D01*
X70430953Y-144586819D02*
X70430953Y-143920152D01*
X70430953Y-144015390D02*
X70478572Y-143967771D01*
X70478572Y-143967771D02*
X70573810Y-143920152D01*
X70573810Y-143920152D02*
X70716667Y-143920152D01*
X70716667Y-143920152D02*
X70811905Y-143967771D01*
X70811905Y-143967771D02*
X70859524Y-144063009D01*
X70859524Y-144063009D02*
X70859524Y-144586819D01*
X70859524Y-144063009D02*
X70907143Y-143967771D01*
X70907143Y-143967771D02*
X71002381Y-143920152D01*
X71002381Y-143920152D02*
X71145238Y-143920152D01*
X71145238Y-143920152D02*
X71240477Y-143967771D01*
X71240477Y-143967771D02*
X71288096Y-144063009D01*
X71288096Y-144063009D02*
X71288096Y-144586819D01*
X71764286Y-143920152D02*
X71764286Y-144920152D01*
X71764286Y-143967771D02*
X71859524Y-143920152D01*
X71859524Y-143920152D02*
X72050000Y-143920152D01*
X72050000Y-143920152D02*
X72145238Y-143967771D01*
X72145238Y-143967771D02*
X72192857Y-144015390D01*
X72192857Y-144015390D02*
X72240476Y-144110628D01*
X72240476Y-144110628D02*
X72240476Y-144396342D01*
X72240476Y-144396342D02*
X72192857Y-144491580D01*
X72192857Y-144491580D02*
X72145238Y-144539200D01*
X72145238Y-144539200D02*
X72050000Y-144586819D01*
X72050000Y-144586819D02*
X71859524Y-144586819D01*
X71859524Y-144586819D02*
X71764286Y-144539200D01*
X73192857Y-144586819D02*
X72621429Y-144586819D01*
X72907143Y-144586819D02*
X72907143Y-143586819D01*
X72907143Y-143586819D02*
X72811905Y-143729676D01*
X72811905Y-143729676D02*
X72716667Y-143824914D01*
X72716667Y-143824914D02*
X72621429Y-143872533D01*
X125591905Y-96954819D02*
X125591905Y-95954819D01*
X125591905Y-95954819D02*
X125830000Y-95954819D01*
X125830000Y-95954819D02*
X125972857Y-96002438D01*
X125972857Y-96002438D02*
X126068095Y-96097676D01*
X126068095Y-96097676D02*
X126115714Y-96192914D01*
X126115714Y-96192914D02*
X126163333Y-96383390D01*
X126163333Y-96383390D02*
X126163333Y-96526247D01*
X126163333Y-96526247D02*
X126115714Y-96716723D01*
X126115714Y-96716723D02*
X126068095Y-96811961D01*
X126068095Y-96811961D02*
X125972857Y-96907200D01*
X125972857Y-96907200D02*
X125830000Y-96954819D01*
X125830000Y-96954819D02*
X125591905Y-96954819D01*
X127115714Y-96954819D02*
X126544286Y-96954819D01*
X126830000Y-96954819D02*
X126830000Y-95954819D01*
X126830000Y-95954819D02*
X126734762Y-96097676D01*
X126734762Y-96097676D02*
X126639524Y-96192914D01*
X126639524Y-96192914D02*
X126544286Y-96240533D01*
X197604819Y-176819047D02*
X197128628Y-177152380D01*
X197604819Y-177390475D02*
X196604819Y-177390475D01*
X196604819Y-177390475D02*
X196604819Y-177009523D01*
X196604819Y-177009523D02*
X196652438Y-176914285D01*
X196652438Y-176914285D02*
X196700057Y-176866666D01*
X196700057Y-176866666D02*
X196795295Y-176819047D01*
X196795295Y-176819047D02*
X196938152Y-176819047D01*
X196938152Y-176819047D02*
X197033390Y-176866666D01*
X197033390Y-176866666D02*
X197081009Y-176914285D01*
X197081009Y-176914285D02*
X197128628Y-177009523D01*
X197128628Y-177009523D02*
X197128628Y-177390475D01*
X197604819Y-175961904D02*
X196604819Y-175961904D01*
X197557200Y-175961904D02*
X197604819Y-176057142D01*
X197604819Y-176057142D02*
X197604819Y-176247618D01*
X197604819Y-176247618D02*
X197557200Y-176342856D01*
X197557200Y-176342856D02*
X197509580Y-176390475D01*
X197509580Y-176390475D02*
X197414342Y-176438094D01*
X197414342Y-176438094D02*
X197128628Y-176438094D01*
X197128628Y-176438094D02*
X197033390Y-176390475D01*
X197033390Y-176390475D02*
X196985771Y-176342856D01*
X196985771Y-176342856D02*
X196938152Y-176247618D01*
X196938152Y-176247618D02*
X196938152Y-176057142D01*
X196938152Y-176057142D02*
X196985771Y-175961904D01*
X196604819Y-175580951D02*
X196604819Y-174914285D01*
X196604819Y-174914285D02*
X197604819Y-175342856D01*
X210633333Y-192912919D02*
X210157143Y-192912919D01*
X210157143Y-192912919D02*
X210157143Y-191912919D01*
X210919048Y-192008157D02*
X210966667Y-191960538D01*
X210966667Y-191960538D02*
X211061905Y-191912919D01*
X211061905Y-191912919D02*
X211300000Y-191912919D01*
X211300000Y-191912919D02*
X211395238Y-191960538D01*
X211395238Y-191960538D02*
X211442857Y-192008157D01*
X211442857Y-192008157D02*
X211490476Y-192103395D01*
X211490476Y-192103395D02*
X211490476Y-192198633D01*
X211490476Y-192198633D02*
X211442857Y-192341490D01*
X211442857Y-192341490D02*
X210871429Y-192912919D01*
X210871429Y-192912919D02*
X211490476Y-192912919D01*
X163080476Y-88704819D02*
X163080476Y-87704819D01*
X163080476Y-87704819D02*
X163413809Y-88419104D01*
X163413809Y-88419104D02*
X163747142Y-87704819D01*
X163747142Y-87704819D02*
X163747142Y-88704819D01*
X164175714Y-87800057D02*
X164223333Y-87752438D01*
X164223333Y-87752438D02*
X164318571Y-87704819D01*
X164318571Y-87704819D02*
X164556666Y-87704819D01*
X164556666Y-87704819D02*
X164651904Y-87752438D01*
X164651904Y-87752438D02*
X164699523Y-87800057D01*
X164699523Y-87800057D02*
X164747142Y-87895295D01*
X164747142Y-87895295D02*
X164747142Y-87990533D01*
X164747142Y-87990533D02*
X164699523Y-88133390D01*
X164699523Y-88133390D02*
X164128095Y-88704819D01*
X164128095Y-88704819D02*
X164747142Y-88704819D01*
X160080000Y-93306819D02*
X160080000Y-93544914D01*
X159841905Y-93449676D02*
X160080000Y-93544914D01*
X160080000Y-93544914D02*
X160318095Y-93449676D01*
X159937143Y-93735390D02*
X160080000Y-93544914D01*
X160080000Y-93544914D02*
X160222857Y-93735390D01*
X97619047Y-58054819D02*
X97619047Y-58769104D01*
X97619047Y-58769104D02*
X97571428Y-58911961D01*
X97571428Y-58911961D02*
X97476190Y-59007200D01*
X97476190Y-59007200D02*
X97333333Y-59054819D01*
X97333333Y-59054819D02*
X97238095Y-59054819D01*
X97857143Y-59150057D02*
X98619047Y-59150057D01*
X98857143Y-59054819D02*
X98857143Y-58054819D01*
X98857143Y-58054819D02*
X99190476Y-58769104D01*
X99190476Y-58769104D02*
X99523809Y-58054819D01*
X99523809Y-58054819D02*
X99523809Y-59054819D01*
X100523809Y-59054819D02*
X99952381Y-59054819D01*
X100238095Y-59054819D02*
X100238095Y-58054819D01*
X100238095Y-58054819D02*
X100142857Y-58197676D01*
X100142857Y-58197676D02*
X100047619Y-58292914D01*
X100047619Y-58292914D02*
X99952381Y-58340533D01*
X100952381Y-58673866D02*
X101714286Y-58673866D01*
X101333333Y-59054819D02*
X101333333Y-58292914D01*
X102714285Y-59054819D02*
X102142857Y-59054819D01*
X102428571Y-59054819D02*
X102428571Y-58054819D01*
X102428571Y-58054819D02*
X102333333Y-58197676D01*
X102333333Y-58197676D02*
X102238095Y-58292914D01*
X102238095Y-58292914D02*
X102142857Y-58340533D01*
X158514819Y-102888094D02*
X157514819Y-102888094D01*
X157514819Y-102888094D02*
X157514819Y-102649999D01*
X157514819Y-102649999D02*
X157562438Y-102507142D01*
X157562438Y-102507142D02*
X157657676Y-102411904D01*
X157657676Y-102411904D02*
X157752914Y-102364285D01*
X157752914Y-102364285D02*
X157943390Y-102316666D01*
X157943390Y-102316666D02*
X158086247Y-102316666D01*
X158086247Y-102316666D02*
X158276723Y-102364285D01*
X158276723Y-102364285D02*
X158371961Y-102411904D01*
X158371961Y-102411904D02*
X158467200Y-102507142D01*
X158467200Y-102507142D02*
X158514819Y-102649999D01*
X158514819Y-102649999D02*
X158514819Y-102888094D01*
X157514819Y-101411904D02*
X157514819Y-101888094D01*
X157514819Y-101888094D02*
X157991009Y-101935713D01*
X157991009Y-101935713D02*
X157943390Y-101888094D01*
X157943390Y-101888094D02*
X157895771Y-101792856D01*
X157895771Y-101792856D02*
X157895771Y-101554761D01*
X157895771Y-101554761D02*
X157943390Y-101459523D01*
X157943390Y-101459523D02*
X157991009Y-101411904D01*
X157991009Y-101411904D02*
X158086247Y-101364285D01*
X158086247Y-101364285D02*
X158324342Y-101364285D01*
X158324342Y-101364285D02*
X158419580Y-101411904D01*
X158419580Y-101411904D02*
X158467200Y-101459523D01*
X158467200Y-101459523D02*
X158514819Y-101554761D01*
X158514819Y-101554761D02*
X158514819Y-101792856D01*
X158514819Y-101792856D02*
X158467200Y-101888094D01*
X158467200Y-101888094D02*
X158419580Y-101935713D01*
X158834819Y-106221904D02*
X157834819Y-106221904D01*
X158834819Y-105650476D02*
X158263390Y-106079047D01*
X157834819Y-105650476D02*
X158406247Y-106221904D01*
X164956647Y-58254819D02*
X164956647Y-58969104D01*
X164956647Y-58969104D02*
X164909028Y-59111961D01*
X164909028Y-59111961D02*
X164813790Y-59207200D01*
X164813790Y-59207200D02*
X164670933Y-59254819D01*
X164670933Y-59254819D02*
X164575695Y-59254819D01*
X165194743Y-59350057D02*
X165956647Y-59350057D01*
X166194743Y-59254819D02*
X166194743Y-58254819D01*
X166194743Y-58254819D02*
X166528076Y-58969104D01*
X166528076Y-58969104D02*
X166861409Y-58254819D01*
X166861409Y-58254819D02*
X166861409Y-59254819D01*
X167289981Y-58350057D02*
X167337600Y-58302438D01*
X167337600Y-58302438D02*
X167432838Y-58254819D01*
X167432838Y-58254819D02*
X167670933Y-58254819D01*
X167670933Y-58254819D02*
X167766171Y-58302438D01*
X167766171Y-58302438D02*
X167813790Y-58350057D01*
X167813790Y-58350057D02*
X167861409Y-58445295D01*
X167861409Y-58445295D02*
X167861409Y-58540533D01*
X167861409Y-58540533D02*
X167813790Y-58683390D01*
X167813790Y-58683390D02*
X167242362Y-59254819D01*
X167242362Y-59254819D02*
X167861409Y-59254819D01*
X168289981Y-58873866D02*
X169051886Y-58873866D01*
X168670933Y-59254819D02*
X168670933Y-58492914D01*
X170051885Y-59254819D02*
X169480457Y-59254819D01*
X169766171Y-59254819D02*
X169766171Y-58254819D01*
X169766171Y-58254819D02*
X169670933Y-58397676D01*
X169670933Y-58397676D02*
X169575695Y-58492914D01*
X169575695Y-58492914D02*
X169480457Y-58540533D01*
X166191905Y-72204819D02*
X166191905Y-71204819D01*
X166191905Y-71204819D02*
X166430000Y-71204819D01*
X166430000Y-71204819D02*
X166572857Y-71252438D01*
X166572857Y-71252438D02*
X166668095Y-71347676D01*
X166668095Y-71347676D02*
X166715714Y-71442914D01*
X166715714Y-71442914D02*
X166763333Y-71633390D01*
X166763333Y-71633390D02*
X166763333Y-71776247D01*
X166763333Y-71776247D02*
X166715714Y-71966723D01*
X166715714Y-71966723D02*
X166668095Y-72061961D01*
X166668095Y-72061961D02*
X166572857Y-72157200D01*
X166572857Y-72157200D02*
X166430000Y-72204819D01*
X166430000Y-72204819D02*
X166191905Y-72204819D01*
X167144286Y-71300057D02*
X167191905Y-71252438D01*
X167191905Y-71252438D02*
X167287143Y-71204819D01*
X167287143Y-71204819D02*
X167525238Y-71204819D01*
X167525238Y-71204819D02*
X167620476Y-71252438D01*
X167620476Y-71252438D02*
X167668095Y-71300057D01*
X167668095Y-71300057D02*
X167715714Y-71395295D01*
X167715714Y-71395295D02*
X167715714Y-71490533D01*
X167715714Y-71490533D02*
X167668095Y-71633390D01*
X167668095Y-71633390D02*
X167096667Y-72204819D01*
X167096667Y-72204819D02*
X167715714Y-72204819D01*
X78003095Y-141718619D02*
X78003095Y-142528142D01*
X78003095Y-142528142D02*
X78050714Y-142623380D01*
X78050714Y-142623380D02*
X78098333Y-142671000D01*
X78098333Y-142671000D02*
X78193571Y-142718619D01*
X78193571Y-142718619D02*
X78384047Y-142718619D01*
X78384047Y-142718619D02*
X78479285Y-142671000D01*
X78479285Y-142671000D02*
X78526904Y-142623380D01*
X78526904Y-142623380D02*
X78574523Y-142528142D01*
X78574523Y-142528142D02*
X78574523Y-141718619D01*
X79098333Y-142718619D02*
X79288809Y-142718619D01*
X79288809Y-142718619D02*
X79384047Y-142671000D01*
X79384047Y-142671000D02*
X79431666Y-142623380D01*
X79431666Y-142623380D02*
X79526904Y-142480523D01*
X79526904Y-142480523D02*
X79574523Y-142290047D01*
X79574523Y-142290047D02*
X79574523Y-141909095D01*
X79574523Y-141909095D02*
X79526904Y-141813857D01*
X79526904Y-141813857D02*
X79479285Y-141766238D01*
X79479285Y-141766238D02*
X79384047Y-141718619D01*
X79384047Y-141718619D02*
X79193571Y-141718619D01*
X79193571Y-141718619D02*
X79098333Y-141766238D01*
X79098333Y-141766238D02*
X79050714Y-141813857D01*
X79050714Y-141813857D02*
X79003095Y-141909095D01*
X79003095Y-141909095D02*
X79003095Y-142147190D01*
X79003095Y-142147190D02*
X79050714Y-142242428D01*
X79050714Y-142242428D02*
X79098333Y-142290047D01*
X79098333Y-142290047D02*
X79193571Y-142337666D01*
X79193571Y-142337666D02*
X79384047Y-142337666D01*
X79384047Y-142337666D02*
X79479285Y-142290047D01*
X79479285Y-142290047D02*
X79526904Y-142242428D01*
X79526904Y-142242428D02*
X79574523Y-142147190D01*
X81754819Y-138299999D02*
X81992914Y-138299999D01*
X81897676Y-138538094D02*
X81992914Y-138299999D01*
X81992914Y-138299999D02*
X81897676Y-138061904D01*
X82183390Y-138442856D02*
X81992914Y-138299999D01*
X81992914Y-138299999D02*
X82183390Y-138157142D01*
X166380952Y-105654819D02*
X166047619Y-105178628D01*
X165809524Y-105654819D02*
X165809524Y-104654819D01*
X165809524Y-104654819D02*
X166190476Y-104654819D01*
X166190476Y-104654819D02*
X166285714Y-104702438D01*
X166285714Y-104702438D02*
X166333333Y-104750057D01*
X166333333Y-104750057D02*
X166380952Y-104845295D01*
X166380952Y-104845295D02*
X166380952Y-104988152D01*
X166380952Y-104988152D02*
X166333333Y-105083390D01*
X166333333Y-105083390D02*
X166285714Y-105131009D01*
X166285714Y-105131009D02*
X166190476Y-105178628D01*
X166190476Y-105178628D02*
X165809524Y-105178628D01*
X167238095Y-105654819D02*
X167238095Y-104654819D01*
X167238095Y-105607200D02*
X167142857Y-105654819D01*
X167142857Y-105654819D02*
X166952381Y-105654819D01*
X166952381Y-105654819D02*
X166857143Y-105607200D01*
X166857143Y-105607200D02*
X166809524Y-105559580D01*
X166809524Y-105559580D02*
X166761905Y-105464342D01*
X166761905Y-105464342D02*
X166761905Y-105178628D01*
X166761905Y-105178628D02*
X166809524Y-105083390D01*
X166809524Y-105083390D02*
X166857143Y-105035771D01*
X166857143Y-105035771D02*
X166952381Y-104988152D01*
X166952381Y-104988152D02*
X167142857Y-104988152D01*
X167142857Y-104988152D02*
X167238095Y-105035771D01*
X167619048Y-104654819D02*
X168238095Y-104654819D01*
X168238095Y-104654819D02*
X167904762Y-105035771D01*
X167904762Y-105035771D02*
X168047619Y-105035771D01*
X168047619Y-105035771D02*
X168142857Y-105083390D01*
X168142857Y-105083390D02*
X168190476Y-105131009D01*
X168190476Y-105131009D02*
X168238095Y-105226247D01*
X168238095Y-105226247D02*
X168238095Y-105464342D01*
X168238095Y-105464342D02*
X168190476Y-105559580D01*
X168190476Y-105559580D02*
X168142857Y-105607200D01*
X168142857Y-105607200D02*
X168047619Y-105654819D01*
X168047619Y-105654819D02*
X167761905Y-105654819D01*
X167761905Y-105654819D02*
X167666667Y-105607200D01*
X167666667Y-105607200D02*
X167619048Y-105559580D01*
X159054819Y-133607047D02*
X158578628Y-133940380D01*
X159054819Y-134178475D02*
X158054819Y-134178475D01*
X158054819Y-134178475D02*
X158054819Y-133797523D01*
X158054819Y-133797523D02*
X158102438Y-133702285D01*
X158102438Y-133702285D02*
X158150057Y-133654666D01*
X158150057Y-133654666D02*
X158245295Y-133607047D01*
X158245295Y-133607047D02*
X158388152Y-133607047D01*
X158388152Y-133607047D02*
X158483390Y-133654666D01*
X158483390Y-133654666D02*
X158531009Y-133702285D01*
X158531009Y-133702285D02*
X158578628Y-133797523D01*
X158578628Y-133797523D02*
X158578628Y-134178475D01*
X159054819Y-132749904D02*
X158054819Y-132749904D01*
X159007200Y-132749904D02*
X159054819Y-132845142D01*
X159054819Y-132845142D02*
X159054819Y-133035618D01*
X159054819Y-133035618D02*
X159007200Y-133130856D01*
X159007200Y-133130856D02*
X158959580Y-133178475D01*
X158959580Y-133178475D02*
X158864342Y-133226094D01*
X158864342Y-133226094D02*
X158578628Y-133226094D01*
X158578628Y-133226094D02*
X158483390Y-133178475D01*
X158483390Y-133178475D02*
X158435771Y-133130856D01*
X158435771Y-133130856D02*
X158388152Y-133035618D01*
X158388152Y-133035618D02*
X158388152Y-132845142D01*
X158388152Y-132845142D02*
X158435771Y-132749904D01*
X159054819Y-131749904D02*
X159054819Y-132321332D01*
X159054819Y-132035618D02*
X158054819Y-132035618D01*
X158054819Y-132035618D02*
X158197676Y-132130856D01*
X158197676Y-132130856D02*
X158292914Y-132226094D01*
X158292914Y-132226094D02*
X158340533Y-132321332D01*
X76283095Y-151879819D02*
X76283095Y-152689342D01*
X76283095Y-152689342D02*
X76330714Y-152784580D01*
X76330714Y-152784580D02*
X76378333Y-152832200D01*
X76378333Y-152832200D02*
X76473571Y-152879819D01*
X76473571Y-152879819D02*
X76664047Y-152879819D01*
X76664047Y-152879819D02*
X76759285Y-152832200D01*
X76759285Y-152832200D02*
X76806904Y-152784580D01*
X76806904Y-152784580D02*
X76854523Y-152689342D01*
X76854523Y-152689342D02*
X76854523Y-151879819D01*
X77854523Y-152879819D02*
X77283095Y-152879819D01*
X77568809Y-152879819D02*
X77568809Y-151879819D01*
X77568809Y-151879819D02*
X77473571Y-152022676D01*
X77473571Y-152022676D02*
X77378333Y-152117914D01*
X77378333Y-152117914D02*
X77283095Y-152165533D01*
X162680952Y-172954819D02*
X162347619Y-172478628D01*
X162109524Y-172954819D02*
X162109524Y-171954819D01*
X162109524Y-171954819D02*
X162490476Y-171954819D01*
X162490476Y-171954819D02*
X162585714Y-172002438D01*
X162585714Y-172002438D02*
X162633333Y-172050057D01*
X162633333Y-172050057D02*
X162680952Y-172145295D01*
X162680952Y-172145295D02*
X162680952Y-172288152D01*
X162680952Y-172288152D02*
X162633333Y-172383390D01*
X162633333Y-172383390D02*
X162585714Y-172431009D01*
X162585714Y-172431009D02*
X162490476Y-172478628D01*
X162490476Y-172478628D02*
X162109524Y-172478628D01*
X163538095Y-172954819D02*
X163538095Y-171954819D01*
X163538095Y-172907200D02*
X163442857Y-172954819D01*
X163442857Y-172954819D02*
X163252381Y-172954819D01*
X163252381Y-172954819D02*
X163157143Y-172907200D01*
X163157143Y-172907200D02*
X163109524Y-172859580D01*
X163109524Y-172859580D02*
X163061905Y-172764342D01*
X163061905Y-172764342D02*
X163061905Y-172478628D01*
X163061905Y-172478628D02*
X163109524Y-172383390D01*
X163109524Y-172383390D02*
X163157143Y-172335771D01*
X163157143Y-172335771D02*
X163252381Y-172288152D01*
X163252381Y-172288152D02*
X163442857Y-172288152D01*
X163442857Y-172288152D02*
X163538095Y-172335771D01*
X164442857Y-171954819D02*
X164252381Y-171954819D01*
X164252381Y-171954819D02*
X164157143Y-172002438D01*
X164157143Y-172002438D02*
X164109524Y-172050057D01*
X164109524Y-172050057D02*
X164014286Y-172192914D01*
X164014286Y-172192914D02*
X163966667Y-172383390D01*
X163966667Y-172383390D02*
X163966667Y-172764342D01*
X163966667Y-172764342D02*
X164014286Y-172859580D01*
X164014286Y-172859580D02*
X164061905Y-172907200D01*
X164061905Y-172907200D02*
X164157143Y-172954819D01*
X164157143Y-172954819D02*
X164347619Y-172954819D01*
X164347619Y-172954819D02*
X164442857Y-172907200D01*
X164442857Y-172907200D02*
X164490476Y-172859580D01*
X164490476Y-172859580D02*
X164538095Y-172764342D01*
X164538095Y-172764342D02*
X164538095Y-172526247D01*
X164538095Y-172526247D02*
X164490476Y-172431009D01*
X164490476Y-172431009D02*
X164442857Y-172383390D01*
X164442857Y-172383390D02*
X164347619Y-172335771D01*
X164347619Y-172335771D02*
X164157143Y-172335771D01*
X164157143Y-172335771D02*
X164061905Y-172383390D01*
X164061905Y-172383390D02*
X164014286Y-172431009D01*
X164014286Y-172431009D02*
X163966667Y-172526247D01*
X125680952Y-86659580D02*
X125633333Y-86707200D01*
X125633333Y-86707200D02*
X125490476Y-86754819D01*
X125490476Y-86754819D02*
X125395238Y-86754819D01*
X125395238Y-86754819D02*
X125252381Y-86707200D01*
X125252381Y-86707200D02*
X125157143Y-86611961D01*
X125157143Y-86611961D02*
X125109524Y-86516723D01*
X125109524Y-86516723D02*
X125061905Y-86326247D01*
X125061905Y-86326247D02*
X125061905Y-86183390D01*
X125061905Y-86183390D02*
X125109524Y-85992914D01*
X125109524Y-85992914D02*
X125157143Y-85897676D01*
X125157143Y-85897676D02*
X125252381Y-85802438D01*
X125252381Y-85802438D02*
X125395238Y-85754819D01*
X125395238Y-85754819D02*
X125490476Y-85754819D01*
X125490476Y-85754819D02*
X125633333Y-85802438D01*
X125633333Y-85802438D02*
X125680952Y-85850057D01*
X126109524Y-86754819D02*
X126109524Y-85754819D01*
X126109524Y-86135771D02*
X126204762Y-86088152D01*
X126204762Y-86088152D02*
X126395238Y-86088152D01*
X126395238Y-86088152D02*
X126490476Y-86135771D01*
X126490476Y-86135771D02*
X126538095Y-86183390D01*
X126538095Y-86183390D02*
X126585714Y-86278628D01*
X126585714Y-86278628D02*
X126585714Y-86564342D01*
X126585714Y-86564342D02*
X126538095Y-86659580D01*
X126538095Y-86659580D02*
X126490476Y-86707200D01*
X126490476Y-86707200D02*
X126395238Y-86754819D01*
X126395238Y-86754819D02*
X126204762Y-86754819D01*
X126204762Y-86754819D02*
X126109524Y-86707200D01*
X127538095Y-86754819D02*
X126966667Y-86754819D01*
X127252381Y-86754819D02*
X127252381Y-85754819D01*
X127252381Y-85754819D02*
X127157143Y-85897676D01*
X127157143Y-85897676D02*
X127061905Y-85992914D01*
X127061905Y-85992914D02*
X126966667Y-86040533D01*
X70447618Y-135259580D02*
X70399999Y-135307200D01*
X70399999Y-135307200D02*
X70257142Y-135354819D01*
X70257142Y-135354819D02*
X70161904Y-135354819D01*
X70161904Y-135354819D02*
X70019047Y-135307200D01*
X70019047Y-135307200D02*
X69923809Y-135211961D01*
X69923809Y-135211961D02*
X69876190Y-135116723D01*
X69876190Y-135116723D02*
X69828571Y-134926247D01*
X69828571Y-134926247D02*
X69828571Y-134783390D01*
X69828571Y-134783390D02*
X69876190Y-134592914D01*
X69876190Y-134592914D02*
X69923809Y-134497676D01*
X69923809Y-134497676D02*
X70019047Y-134402438D01*
X70019047Y-134402438D02*
X70161904Y-134354819D01*
X70161904Y-134354819D02*
X70257142Y-134354819D01*
X70257142Y-134354819D02*
X70399999Y-134402438D01*
X70399999Y-134402438D02*
X70447618Y-134450057D01*
X70780952Y-134688152D02*
X71019047Y-135354819D01*
X71019047Y-135354819D02*
X71257142Y-134688152D01*
X71590476Y-135307200D02*
X71685714Y-135354819D01*
X71685714Y-135354819D02*
X71876190Y-135354819D01*
X71876190Y-135354819D02*
X71971428Y-135307200D01*
X71971428Y-135307200D02*
X72019047Y-135211961D01*
X72019047Y-135211961D02*
X72019047Y-135164342D01*
X72019047Y-135164342D02*
X71971428Y-135069104D01*
X71971428Y-135069104D02*
X71876190Y-135021485D01*
X71876190Y-135021485D02*
X71733333Y-135021485D01*
X71733333Y-135021485D02*
X71638095Y-134973866D01*
X71638095Y-134973866D02*
X71590476Y-134878628D01*
X71590476Y-134878628D02*
X71590476Y-134831009D01*
X71590476Y-134831009D02*
X71638095Y-134735771D01*
X71638095Y-134735771D02*
X71733333Y-134688152D01*
X71733333Y-134688152D02*
X71876190Y-134688152D01*
X71876190Y-134688152D02*
X71971428Y-134735771D01*
X72876190Y-134688152D02*
X72876190Y-135354819D01*
X72638095Y-134307200D02*
X72400000Y-135021485D01*
X72400000Y-135021485D02*
X73019047Y-135021485D01*
X83733333Y-145854819D02*
X83400000Y-145378628D01*
X83161905Y-145854819D02*
X83161905Y-144854819D01*
X83161905Y-144854819D02*
X83542857Y-144854819D01*
X83542857Y-144854819D02*
X83638095Y-144902438D01*
X83638095Y-144902438D02*
X83685714Y-144950057D01*
X83685714Y-144950057D02*
X83733333Y-145045295D01*
X83733333Y-145045295D02*
X83733333Y-145188152D01*
X83733333Y-145188152D02*
X83685714Y-145283390D01*
X83685714Y-145283390D02*
X83638095Y-145331009D01*
X83638095Y-145331009D02*
X83542857Y-145378628D01*
X83542857Y-145378628D02*
X83161905Y-145378628D01*
X84590476Y-144854819D02*
X84400000Y-144854819D01*
X84400000Y-144854819D02*
X84304762Y-144902438D01*
X84304762Y-144902438D02*
X84257143Y-144950057D01*
X84257143Y-144950057D02*
X84161905Y-145092914D01*
X84161905Y-145092914D02*
X84114286Y-145283390D01*
X84114286Y-145283390D02*
X84114286Y-145664342D01*
X84114286Y-145664342D02*
X84161905Y-145759580D01*
X84161905Y-145759580D02*
X84209524Y-145807200D01*
X84209524Y-145807200D02*
X84304762Y-145854819D01*
X84304762Y-145854819D02*
X84495238Y-145854819D01*
X84495238Y-145854819D02*
X84590476Y-145807200D01*
X84590476Y-145807200D02*
X84638095Y-145759580D01*
X84638095Y-145759580D02*
X84685714Y-145664342D01*
X84685714Y-145664342D02*
X84685714Y-145426247D01*
X84685714Y-145426247D02*
X84638095Y-145331009D01*
X84638095Y-145331009D02*
X84590476Y-145283390D01*
X84590476Y-145283390D02*
X84495238Y-145235771D01*
X84495238Y-145235771D02*
X84304762Y-145235771D01*
X84304762Y-145235771D02*
X84209524Y-145283390D01*
X84209524Y-145283390D02*
X84161905Y-145331009D01*
X84161905Y-145331009D02*
X84114286Y-145426247D01*
X74761904Y-58354819D02*
X74761904Y-59069104D01*
X74761904Y-59069104D02*
X74714285Y-59211961D01*
X74714285Y-59211961D02*
X74619047Y-59307200D01*
X74619047Y-59307200D02*
X74476190Y-59354819D01*
X74476190Y-59354819D02*
X74380952Y-59354819D01*
X75000000Y-59450057D02*
X75761904Y-59450057D01*
X75857143Y-58354819D02*
X76190476Y-59354819D01*
X76190476Y-59354819D02*
X76523809Y-58354819D01*
X76857143Y-59354819D02*
X76857143Y-58354819D01*
X76857143Y-58354819D02*
X77095238Y-58354819D01*
X77095238Y-58354819D02*
X77238095Y-58402438D01*
X77238095Y-58402438D02*
X77333333Y-58497676D01*
X77333333Y-58497676D02*
X77380952Y-58592914D01*
X77380952Y-58592914D02*
X77428571Y-58783390D01*
X77428571Y-58783390D02*
X77428571Y-58926247D01*
X77428571Y-58926247D02*
X77380952Y-59116723D01*
X77380952Y-59116723D02*
X77333333Y-59211961D01*
X77333333Y-59211961D02*
X77238095Y-59307200D01*
X77238095Y-59307200D02*
X77095238Y-59354819D01*
X77095238Y-59354819D02*
X76857143Y-59354819D01*
X77857143Y-59354819D02*
X77857143Y-58354819D01*
X77857143Y-58354819D02*
X78095238Y-58354819D01*
X78095238Y-58354819D02*
X78238095Y-58402438D01*
X78238095Y-58402438D02*
X78333333Y-58497676D01*
X78333333Y-58497676D02*
X78380952Y-58592914D01*
X78380952Y-58592914D02*
X78428571Y-58783390D01*
X78428571Y-58783390D02*
X78428571Y-58926247D01*
X78428571Y-58926247D02*
X78380952Y-59116723D01*
X78380952Y-59116723D02*
X78333333Y-59211961D01*
X78333333Y-59211961D02*
X78238095Y-59307200D01*
X78238095Y-59307200D02*
X78095238Y-59354819D01*
X78095238Y-59354819D02*
X77857143Y-59354819D01*
X79380952Y-59354819D02*
X78809524Y-59354819D01*
X79095238Y-59354819D02*
X79095238Y-58354819D01*
X79095238Y-58354819D02*
X79000000Y-58497676D01*
X79000000Y-58497676D02*
X78904762Y-58592914D01*
X78904762Y-58592914D02*
X78809524Y-58640533D01*
X79809524Y-58973866D02*
X80571429Y-58973866D01*
X80190476Y-59354819D02*
X80190476Y-58592914D01*
X81571428Y-59354819D02*
X81000000Y-59354819D01*
X81285714Y-59354819D02*
X81285714Y-58354819D01*
X81285714Y-58354819D02*
X81190476Y-58497676D01*
X81190476Y-58497676D02*
X81095238Y-58592914D01*
X81095238Y-58592914D02*
X81000000Y-58640533D01*
X206161905Y-177804819D02*
X206161905Y-176804819D01*
X206161905Y-176804819D02*
X206400000Y-176804819D01*
X206400000Y-176804819D02*
X206542857Y-176852438D01*
X206542857Y-176852438D02*
X206638095Y-176947676D01*
X206638095Y-176947676D02*
X206685714Y-177042914D01*
X206685714Y-177042914D02*
X206733333Y-177233390D01*
X206733333Y-177233390D02*
X206733333Y-177376247D01*
X206733333Y-177376247D02*
X206685714Y-177566723D01*
X206685714Y-177566723D02*
X206638095Y-177661961D01*
X206638095Y-177661961D02*
X206542857Y-177757200D01*
X206542857Y-177757200D02*
X206400000Y-177804819D01*
X206400000Y-177804819D02*
X206161905Y-177804819D01*
X207304762Y-177233390D02*
X207209524Y-177185771D01*
X207209524Y-177185771D02*
X207161905Y-177138152D01*
X207161905Y-177138152D02*
X207114286Y-177042914D01*
X207114286Y-177042914D02*
X207114286Y-176995295D01*
X207114286Y-176995295D02*
X207161905Y-176900057D01*
X207161905Y-176900057D02*
X207209524Y-176852438D01*
X207209524Y-176852438D02*
X207304762Y-176804819D01*
X207304762Y-176804819D02*
X207495238Y-176804819D01*
X207495238Y-176804819D02*
X207590476Y-176852438D01*
X207590476Y-176852438D02*
X207638095Y-176900057D01*
X207638095Y-176900057D02*
X207685714Y-176995295D01*
X207685714Y-176995295D02*
X207685714Y-177042914D01*
X207685714Y-177042914D02*
X207638095Y-177138152D01*
X207638095Y-177138152D02*
X207590476Y-177185771D01*
X207590476Y-177185771D02*
X207495238Y-177233390D01*
X207495238Y-177233390D02*
X207304762Y-177233390D01*
X207304762Y-177233390D02*
X207209524Y-177281009D01*
X207209524Y-177281009D02*
X207161905Y-177328628D01*
X207161905Y-177328628D02*
X207114286Y-177423866D01*
X207114286Y-177423866D02*
X207114286Y-177614342D01*
X207114286Y-177614342D02*
X207161905Y-177709580D01*
X207161905Y-177709580D02*
X207209524Y-177757200D01*
X207209524Y-177757200D02*
X207304762Y-177804819D01*
X207304762Y-177804819D02*
X207495238Y-177804819D01*
X207495238Y-177804819D02*
X207590476Y-177757200D01*
X207590476Y-177757200D02*
X207638095Y-177709580D01*
X207638095Y-177709580D02*
X207685714Y-177614342D01*
X207685714Y-177614342D02*
X207685714Y-177423866D01*
X207685714Y-177423866D02*
X207638095Y-177328628D01*
X207638095Y-177328628D02*
X207590476Y-177281009D01*
X207590476Y-177281009D02*
X207495238Y-177233390D01*
X115413095Y-123446819D02*
X115413095Y-124256342D01*
X115413095Y-124256342D02*
X115460714Y-124351580D01*
X115460714Y-124351580D02*
X115508333Y-124399200D01*
X115508333Y-124399200D02*
X115603571Y-124446819D01*
X115603571Y-124446819D02*
X115794047Y-124446819D01*
X115794047Y-124446819D02*
X115889285Y-124399200D01*
X115889285Y-124399200D02*
X115936904Y-124351580D01*
X115936904Y-124351580D02*
X115984523Y-124256342D01*
X115984523Y-124256342D02*
X115984523Y-123446819D01*
X116365476Y-123446819D02*
X117032142Y-123446819D01*
X117032142Y-123446819D02*
X116603571Y-124446819D01*
X112124619Y-127090799D02*
X112362714Y-127090799D01*
X112267476Y-127328894D02*
X112362714Y-127090799D01*
X112362714Y-127090799D02*
X112267476Y-126852704D01*
X112553190Y-127233656D02*
X112362714Y-127090799D01*
X112362714Y-127090799D02*
X112553190Y-126947942D01*
X219511905Y-185954819D02*
X219511905Y-184954819D01*
X219511905Y-184954819D02*
X219750000Y-184954819D01*
X219750000Y-184954819D02*
X219892857Y-185002438D01*
X219892857Y-185002438D02*
X219988095Y-185097676D01*
X219988095Y-185097676D02*
X220035714Y-185192914D01*
X220035714Y-185192914D02*
X220083333Y-185383390D01*
X220083333Y-185383390D02*
X220083333Y-185526247D01*
X220083333Y-185526247D02*
X220035714Y-185716723D01*
X220035714Y-185716723D02*
X219988095Y-185811961D01*
X219988095Y-185811961D02*
X219892857Y-185907200D01*
X219892857Y-185907200D02*
X219750000Y-185954819D01*
X219750000Y-185954819D02*
X219511905Y-185954819D01*
X220940476Y-185288152D02*
X220940476Y-185954819D01*
X220702381Y-184907200D02*
X220464286Y-185621485D01*
X220464286Y-185621485D02*
X221083333Y-185621485D01*
X119304761Y-106004819D02*
X118971428Y-105528628D01*
X118733333Y-106004819D02*
X118733333Y-105004819D01*
X118733333Y-105004819D02*
X119114285Y-105004819D01*
X119114285Y-105004819D02*
X119209523Y-105052438D01*
X119209523Y-105052438D02*
X119257142Y-105100057D01*
X119257142Y-105100057D02*
X119304761Y-105195295D01*
X119304761Y-105195295D02*
X119304761Y-105338152D01*
X119304761Y-105338152D02*
X119257142Y-105433390D01*
X119257142Y-105433390D02*
X119209523Y-105481009D01*
X119209523Y-105481009D02*
X119114285Y-105528628D01*
X119114285Y-105528628D02*
X118733333Y-105528628D01*
X120161904Y-106004819D02*
X120161904Y-105004819D01*
X120161904Y-105957200D02*
X120066666Y-106004819D01*
X120066666Y-106004819D02*
X119876190Y-106004819D01*
X119876190Y-106004819D02*
X119780952Y-105957200D01*
X119780952Y-105957200D02*
X119733333Y-105909580D01*
X119733333Y-105909580D02*
X119685714Y-105814342D01*
X119685714Y-105814342D02*
X119685714Y-105528628D01*
X119685714Y-105528628D02*
X119733333Y-105433390D01*
X119733333Y-105433390D02*
X119780952Y-105385771D01*
X119780952Y-105385771D02*
X119876190Y-105338152D01*
X119876190Y-105338152D02*
X120066666Y-105338152D01*
X120066666Y-105338152D02*
X120161904Y-105385771D01*
X121161904Y-106004819D02*
X120590476Y-106004819D01*
X120876190Y-106004819D02*
X120876190Y-105004819D01*
X120876190Y-105004819D02*
X120780952Y-105147676D01*
X120780952Y-105147676D02*
X120685714Y-105242914D01*
X120685714Y-105242914D02*
X120590476Y-105290533D01*
X122114285Y-106004819D02*
X121542857Y-106004819D01*
X121828571Y-106004819D02*
X121828571Y-105004819D01*
X121828571Y-105004819D02*
X121733333Y-105147676D01*
X121733333Y-105147676D02*
X121638095Y-105242914D01*
X121638095Y-105242914D02*
X121542857Y-105290533D01*
X202011905Y-169494819D02*
X202011905Y-168494819D01*
X202011905Y-168494819D02*
X202250000Y-168494819D01*
X202250000Y-168494819D02*
X202392857Y-168542438D01*
X202392857Y-168542438D02*
X202488095Y-168637676D01*
X202488095Y-168637676D02*
X202535714Y-168732914D01*
X202535714Y-168732914D02*
X202583333Y-168923390D01*
X202583333Y-168923390D02*
X202583333Y-169066247D01*
X202583333Y-169066247D02*
X202535714Y-169256723D01*
X202535714Y-169256723D02*
X202488095Y-169351961D01*
X202488095Y-169351961D02*
X202392857Y-169447200D01*
X202392857Y-169447200D02*
X202250000Y-169494819D01*
X202250000Y-169494819D02*
X202011905Y-169494819D01*
X202916667Y-168494819D02*
X203583333Y-168494819D01*
X203583333Y-168494819D02*
X203154762Y-169494819D01*
X198838095Y-169654819D02*
X198838095Y-168654819D01*
X199409523Y-169654819D02*
X198980952Y-169083390D01*
X199409523Y-168654819D02*
X198838095Y-169226247D01*
X149130952Y-114859580D02*
X149083333Y-114907200D01*
X149083333Y-114907200D02*
X148940476Y-114954819D01*
X148940476Y-114954819D02*
X148845238Y-114954819D01*
X148845238Y-114954819D02*
X148702381Y-114907200D01*
X148702381Y-114907200D02*
X148607143Y-114811961D01*
X148607143Y-114811961D02*
X148559524Y-114716723D01*
X148559524Y-114716723D02*
X148511905Y-114526247D01*
X148511905Y-114526247D02*
X148511905Y-114383390D01*
X148511905Y-114383390D02*
X148559524Y-114192914D01*
X148559524Y-114192914D02*
X148607143Y-114097676D01*
X148607143Y-114097676D02*
X148702381Y-114002438D01*
X148702381Y-114002438D02*
X148845238Y-113954819D01*
X148845238Y-113954819D02*
X148940476Y-113954819D01*
X148940476Y-113954819D02*
X149083333Y-114002438D01*
X149083333Y-114002438D02*
X149130952Y-114050057D01*
X149988095Y-114954819D02*
X149988095Y-113954819D01*
X149988095Y-114907200D02*
X149892857Y-114954819D01*
X149892857Y-114954819D02*
X149702381Y-114954819D01*
X149702381Y-114954819D02*
X149607143Y-114907200D01*
X149607143Y-114907200D02*
X149559524Y-114859580D01*
X149559524Y-114859580D02*
X149511905Y-114764342D01*
X149511905Y-114764342D02*
X149511905Y-114478628D01*
X149511905Y-114478628D02*
X149559524Y-114383390D01*
X149559524Y-114383390D02*
X149607143Y-114335771D01*
X149607143Y-114335771D02*
X149702381Y-114288152D01*
X149702381Y-114288152D02*
X149892857Y-114288152D01*
X149892857Y-114288152D02*
X149988095Y-114335771D01*
X150988095Y-114954819D02*
X150416667Y-114954819D01*
X150702381Y-114954819D02*
X150702381Y-113954819D01*
X150702381Y-113954819D02*
X150607143Y-114097676D01*
X150607143Y-114097676D02*
X150511905Y-114192914D01*
X150511905Y-114192914D02*
X150416667Y-114240533D01*
X115739819Y-114011904D02*
X116549342Y-114011904D01*
X116549342Y-114011904D02*
X116644580Y-113964285D01*
X116644580Y-113964285D02*
X116692200Y-113916666D01*
X116692200Y-113916666D02*
X116739819Y-113821428D01*
X116739819Y-113821428D02*
X116739819Y-113630952D01*
X116739819Y-113630952D02*
X116692200Y-113535714D01*
X116692200Y-113535714D02*
X116644580Y-113488095D01*
X116644580Y-113488095D02*
X116549342Y-113440476D01*
X116549342Y-113440476D02*
X115739819Y-113440476D01*
X116168390Y-112821428D02*
X116120771Y-112916666D01*
X116120771Y-112916666D02*
X116073152Y-112964285D01*
X116073152Y-112964285D02*
X115977914Y-113011904D01*
X115977914Y-113011904D02*
X115930295Y-113011904D01*
X115930295Y-113011904D02*
X115835057Y-112964285D01*
X115835057Y-112964285D02*
X115787438Y-112916666D01*
X115787438Y-112916666D02*
X115739819Y-112821428D01*
X115739819Y-112821428D02*
X115739819Y-112630952D01*
X115739819Y-112630952D02*
X115787438Y-112535714D01*
X115787438Y-112535714D02*
X115835057Y-112488095D01*
X115835057Y-112488095D02*
X115930295Y-112440476D01*
X115930295Y-112440476D02*
X115977914Y-112440476D01*
X115977914Y-112440476D02*
X116073152Y-112488095D01*
X116073152Y-112488095D02*
X116120771Y-112535714D01*
X116120771Y-112535714D02*
X116168390Y-112630952D01*
X116168390Y-112630952D02*
X116168390Y-112821428D01*
X116168390Y-112821428D02*
X116216009Y-112916666D01*
X116216009Y-112916666D02*
X116263628Y-112964285D01*
X116263628Y-112964285D02*
X116358866Y-113011904D01*
X116358866Y-113011904D02*
X116549342Y-113011904D01*
X116549342Y-113011904D02*
X116644580Y-112964285D01*
X116644580Y-112964285D02*
X116692200Y-112916666D01*
X116692200Y-112916666D02*
X116739819Y-112821428D01*
X116739819Y-112821428D02*
X116739819Y-112630952D01*
X116739819Y-112630952D02*
X116692200Y-112535714D01*
X116692200Y-112535714D02*
X116644580Y-112488095D01*
X116644580Y-112488095D02*
X116549342Y-112440476D01*
X116549342Y-112440476D02*
X116358866Y-112440476D01*
X116358866Y-112440476D02*
X116263628Y-112488095D01*
X116263628Y-112488095D02*
X116216009Y-112535714D01*
X116216009Y-112535714D02*
X116168390Y-112630952D01*
X82033333Y-136354819D02*
X81700000Y-135878628D01*
X81461905Y-136354819D02*
X81461905Y-135354819D01*
X81461905Y-135354819D02*
X81842857Y-135354819D01*
X81842857Y-135354819D02*
X81938095Y-135402438D01*
X81938095Y-135402438D02*
X81985714Y-135450057D01*
X81985714Y-135450057D02*
X82033333Y-135545295D01*
X82033333Y-135545295D02*
X82033333Y-135688152D01*
X82033333Y-135688152D02*
X81985714Y-135783390D01*
X81985714Y-135783390D02*
X81938095Y-135831009D01*
X81938095Y-135831009D02*
X81842857Y-135878628D01*
X81842857Y-135878628D02*
X81461905Y-135878628D01*
X82366667Y-135354819D02*
X82985714Y-135354819D01*
X82985714Y-135354819D02*
X82652381Y-135735771D01*
X82652381Y-135735771D02*
X82795238Y-135735771D01*
X82795238Y-135735771D02*
X82890476Y-135783390D01*
X82890476Y-135783390D02*
X82938095Y-135831009D01*
X82938095Y-135831009D02*
X82985714Y-135926247D01*
X82985714Y-135926247D02*
X82985714Y-136164342D01*
X82985714Y-136164342D02*
X82938095Y-136259580D01*
X82938095Y-136259580D02*
X82890476Y-136307200D01*
X82890476Y-136307200D02*
X82795238Y-136354819D01*
X82795238Y-136354819D02*
X82509524Y-136354819D01*
X82509524Y-136354819D02*
X82414286Y-136307200D01*
X82414286Y-136307200D02*
X82366667Y-136259580D01*
X155880952Y-110959580D02*
X155833333Y-111007200D01*
X155833333Y-111007200D02*
X155690476Y-111054819D01*
X155690476Y-111054819D02*
X155595238Y-111054819D01*
X155595238Y-111054819D02*
X155452381Y-111007200D01*
X155452381Y-111007200D02*
X155357143Y-110911961D01*
X155357143Y-110911961D02*
X155309524Y-110816723D01*
X155309524Y-110816723D02*
X155261905Y-110626247D01*
X155261905Y-110626247D02*
X155261905Y-110483390D01*
X155261905Y-110483390D02*
X155309524Y-110292914D01*
X155309524Y-110292914D02*
X155357143Y-110197676D01*
X155357143Y-110197676D02*
X155452381Y-110102438D01*
X155452381Y-110102438D02*
X155595238Y-110054819D01*
X155595238Y-110054819D02*
X155690476Y-110054819D01*
X155690476Y-110054819D02*
X155833333Y-110102438D01*
X155833333Y-110102438D02*
X155880952Y-110150057D01*
X156738095Y-111054819D02*
X156738095Y-110054819D01*
X156738095Y-111007200D02*
X156642857Y-111054819D01*
X156642857Y-111054819D02*
X156452381Y-111054819D01*
X156452381Y-111054819D02*
X156357143Y-111007200D01*
X156357143Y-111007200D02*
X156309524Y-110959580D01*
X156309524Y-110959580D02*
X156261905Y-110864342D01*
X156261905Y-110864342D02*
X156261905Y-110578628D01*
X156261905Y-110578628D02*
X156309524Y-110483390D01*
X156309524Y-110483390D02*
X156357143Y-110435771D01*
X156357143Y-110435771D02*
X156452381Y-110388152D01*
X156452381Y-110388152D02*
X156642857Y-110388152D01*
X156642857Y-110388152D02*
X156738095Y-110435771D01*
X157166667Y-110150057D02*
X157214286Y-110102438D01*
X157214286Y-110102438D02*
X157309524Y-110054819D01*
X157309524Y-110054819D02*
X157547619Y-110054819D01*
X157547619Y-110054819D02*
X157642857Y-110102438D01*
X157642857Y-110102438D02*
X157690476Y-110150057D01*
X157690476Y-110150057D02*
X157738095Y-110245295D01*
X157738095Y-110245295D02*
X157738095Y-110340533D01*
X157738095Y-110340533D02*
X157690476Y-110483390D01*
X157690476Y-110483390D02*
X157119048Y-111054819D01*
X157119048Y-111054819D02*
X157738095Y-111054819D01*
X84247618Y-116909580D02*
X84199999Y-116957200D01*
X84199999Y-116957200D02*
X84057142Y-117004819D01*
X84057142Y-117004819D02*
X83961904Y-117004819D01*
X83961904Y-117004819D02*
X83819047Y-116957200D01*
X83819047Y-116957200D02*
X83723809Y-116861961D01*
X83723809Y-116861961D02*
X83676190Y-116766723D01*
X83676190Y-116766723D02*
X83628571Y-116576247D01*
X83628571Y-116576247D02*
X83628571Y-116433390D01*
X83628571Y-116433390D02*
X83676190Y-116242914D01*
X83676190Y-116242914D02*
X83723809Y-116147676D01*
X83723809Y-116147676D02*
X83819047Y-116052438D01*
X83819047Y-116052438D02*
X83961904Y-116004819D01*
X83961904Y-116004819D02*
X84057142Y-116004819D01*
X84057142Y-116004819D02*
X84199999Y-116052438D01*
X84199999Y-116052438D02*
X84247618Y-116100057D01*
X84580952Y-116338152D02*
X84819047Y-117004819D01*
X84819047Y-117004819D02*
X85057142Y-116338152D01*
X85390476Y-116957200D02*
X85485714Y-117004819D01*
X85485714Y-117004819D02*
X85676190Y-117004819D01*
X85676190Y-117004819D02*
X85771428Y-116957200D01*
X85771428Y-116957200D02*
X85819047Y-116861961D01*
X85819047Y-116861961D02*
X85819047Y-116814342D01*
X85819047Y-116814342D02*
X85771428Y-116719104D01*
X85771428Y-116719104D02*
X85676190Y-116671485D01*
X85676190Y-116671485D02*
X85533333Y-116671485D01*
X85533333Y-116671485D02*
X85438095Y-116623866D01*
X85438095Y-116623866D02*
X85390476Y-116528628D01*
X85390476Y-116528628D02*
X85390476Y-116481009D01*
X85390476Y-116481009D02*
X85438095Y-116385771D01*
X85438095Y-116385771D02*
X85533333Y-116338152D01*
X85533333Y-116338152D02*
X85676190Y-116338152D01*
X85676190Y-116338152D02*
X85771428Y-116385771D01*
X86200000Y-116100057D02*
X86247619Y-116052438D01*
X86247619Y-116052438D02*
X86342857Y-116004819D01*
X86342857Y-116004819D02*
X86580952Y-116004819D01*
X86580952Y-116004819D02*
X86676190Y-116052438D01*
X86676190Y-116052438D02*
X86723809Y-116100057D01*
X86723809Y-116100057D02*
X86771428Y-116195295D01*
X86771428Y-116195295D02*
X86771428Y-116290533D01*
X86771428Y-116290533D02*
X86723809Y-116433390D01*
X86723809Y-116433390D02*
X86152381Y-117004819D01*
X86152381Y-117004819D02*
X86771428Y-117004819D01*
X127380952Y-89359580D02*
X127333333Y-89407200D01*
X127333333Y-89407200D02*
X127190476Y-89454819D01*
X127190476Y-89454819D02*
X127095238Y-89454819D01*
X127095238Y-89454819D02*
X126952381Y-89407200D01*
X126952381Y-89407200D02*
X126857143Y-89311961D01*
X126857143Y-89311961D02*
X126809524Y-89216723D01*
X126809524Y-89216723D02*
X126761905Y-89026247D01*
X126761905Y-89026247D02*
X126761905Y-88883390D01*
X126761905Y-88883390D02*
X126809524Y-88692914D01*
X126809524Y-88692914D02*
X126857143Y-88597676D01*
X126857143Y-88597676D02*
X126952381Y-88502438D01*
X126952381Y-88502438D02*
X127095238Y-88454819D01*
X127095238Y-88454819D02*
X127190476Y-88454819D01*
X127190476Y-88454819D02*
X127333333Y-88502438D01*
X127333333Y-88502438D02*
X127380952Y-88550057D01*
X127809524Y-89454819D02*
X127809524Y-88454819D01*
X127809524Y-88835771D02*
X127904762Y-88788152D01*
X127904762Y-88788152D02*
X128095238Y-88788152D01*
X128095238Y-88788152D02*
X128190476Y-88835771D01*
X128190476Y-88835771D02*
X128238095Y-88883390D01*
X128238095Y-88883390D02*
X128285714Y-88978628D01*
X128285714Y-88978628D02*
X128285714Y-89264342D01*
X128285714Y-89264342D02*
X128238095Y-89359580D01*
X128238095Y-89359580D02*
X128190476Y-89407200D01*
X128190476Y-89407200D02*
X128095238Y-89454819D01*
X128095238Y-89454819D02*
X127904762Y-89454819D01*
X127904762Y-89454819D02*
X127809524Y-89407200D01*
X128666667Y-88550057D02*
X128714286Y-88502438D01*
X128714286Y-88502438D02*
X128809524Y-88454819D01*
X128809524Y-88454819D02*
X129047619Y-88454819D01*
X129047619Y-88454819D02*
X129142857Y-88502438D01*
X129142857Y-88502438D02*
X129190476Y-88550057D01*
X129190476Y-88550057D02*
X129238095Y-88645295D01*
X129238095Y-88645295D02*
X129238095Y-88740533D01*
X129238095Y-88740533D02*
X129190476Y-88883390D01*
X129190476Y-88883390D02*
X128619048Y-89454819D01*
X128619048Y-89454819D02*
X129238095Y-89454819D01*
X118704761Y-132104819D02*
X118371428Y-131628628D01*
X118133333Y-132104819D02*
X118133333Y-131104819D01*
X118133333Y-131104819D02*
X118514285Y-131104819D01*
X118514285Y-131104819D02*
X118609523Y-131152438D01*
X118609523Y-131152438D02*
X118657142Y-131200057D01*
X118657142Y-131200057D02*
X118704761Y-131295295D01*
X118704761Y-131295295D02*
X118704761Y-131438152D01*
X118704761Y-131438152D02*
X118657142Y-131533390D01*
X118657142Y-131533390D02*
X118609523Y-131581009D01*
X118609523Y-131581009D02*
X118514285Y-131628628D01*
X118514285Y-131628628D02*
X118133333Y-131628628D01*
X119561904Y-132104819D02*
X119561904Y-131104819D01*
X119561904Y-132057200D02*
X119466666Y-132104819D01*
X119466666Y-132104819D02*
X119276190Y-132104819D01*
X119276190Y-132104819D02*
X119180952Y-132057200D01*
X119180952Y-132057200D02*
X119133333Y-132009580D01*
X119133333Y-132009580D02*
X119085714Y-131914342D01*
X119085714Y-131914342D02*
X119085714Y-131628628D01*
X119085714Y-131628628D02*
X119133333Y-131533390D01*
X119133333Y-131533390D02*
X119180952Y-131485771D01*
X119180952Y-131485771D02*
X119276190Y-131438152D01*
X119276190Y-131438152D02*
X119466666Y-131438152D01*
X119466666Y-131438152D02*
X119561904Y-131485771D01*
X120561904Y-132104819D02*
X119990476Y-132104819D01*
X120276190Y-132104819D02*
X120276190Y-131104819D01*
X120276190Y-131104819D02*
X120180952Y-131247676D01*
X120180952Y-131247676D02*
X120085714Y-131342914D01*
X120085714Y-131342914D02*
X119990476Y-131390533D01*
X121180952Y-131104819D02*
X121276190Y-131104819D01*
X121276190Y-131104819D02*
X121371428Y-131152438D01*
X121371428Y-131152438D02*
X121419047Y-131200057D01*
X121419047Y-131200057D02*
X121466666Y-131295295D01*
X121466666Y-131295295D02*
X121514285Y-131485771D01*
X121514285Y-131485771D02*
X121514285Y-131723866D01*
X121514285Y-131723866D02*
X121466666Y-131914342D01*
X121466666Y-131914342D02*
X121419047Y-132009580D01*
X121419047Y-132009580D02*
X121371428Y-132057200D01*
X121371428Y-132057200D02*
X121276190Y-132104819D01*
X121276190Y-132104819D02*
X121180952Y-132104819D01*
X121180952Y-132104819D02*
X121085714Y-132057200D01*
X121085714Y-132057200D02*
X121038095Y-132009580D01*
X121038095Y-132009580D02*
X120990476Y-131914342D01*
X120990476Y-131914342D02*
X120942857Y-131723866D01*
X120942857Y-131723866D02*
X120942857Y-131485771D01*
X120942857Y-131485771D02*
X120990476Y-131295295D01*
X120990476Y-131295295D02*
X121038095Y-131200057D01*
X121038095Y-131200057D02*
X121085714Y-131152438D01*
X121085714Y-131152438D02*
X121180952Y-131104819D01*
X242057142Y-85354819D02*
X242057142Y-86069104D01*
X242057142Y-86069104D02*
X242009523Y-86211961D01*
X242009523Y-86211961D02*
X241914285Y-86307200D01*
X241914285Y-86307200D02*
X241771428Y-86354819D01*
X241771428Y-86354819D02*
X241676190Y-86354819D01*
X242295238Y-86450057D02*
X243057142Y-86450057D01*
X243628571Y-85831009D02*
X243771428Y-85878628D01*
X243771428Y-85878628D02*
X243819047Y-85926247D01*
X243819047Y-85926247D02*
X243866666Y-86021485D01*
X243866666Y-86021485D02*
X243866666Y-86164342D01*
X243866666Y-86164342D02*
X243819047Y-86259580D01*
X243819047Y-86259580D02*
X243771428Y-86307200D01*
X243771428Y-86307200D02*
X243676190Y-86354819D01*
X243676190Y-86354819D02*
X243295238Y-86354819D01*
X243295238Y-86354819D02*
X243295238Y-85354819D01*
X243295238Y-85354819D02*
X243628571Y-85354819D01*
X243628571Y-85354819D02*
X243723809Y-85402438D01*
X243723809Y-85402438D02*
X243771428Y-85450057D01*
X243771428Y-85450057D02*
X243819047Y-85545295D01*
X243819047Y-85545295D02*
X243819047Y-85640533D01*
X243819047Y-85640533D02*
X243771428Y-85735771D01*
X243771428Y-85735771D02*
X243723809Y-85783390D01*
X243723809Y-85783390D02*
X243628571Y-85831009D01*
X243628571Y-85831009D02*
X243295238Y-85831009D01*
X244247619Y-86069104D02*
X244723809Y-86069104D01*
X244152381Y-86354819D02*
X244485714Y-85354819D01*
X244485714Y-85354819D02*
X244819047Y-86354819D01*
X245009524Y-85354819D02*
X245580952Y-85354819D01*
X245295238Y-86354819D02*
X245295238Y-85354819D01*
X245914286Y-85973866D02*
X246676191Y-85973866D01*
X247676190Y-86354819D02*
X247104762Y-86354819D01*
X247390476Y-86354819D02*
X247390476Y-85354819D01*
X247390476Y-85354819D02*
X247295238Y-85497676D01*
X247295238Y-85497676D02*
X247200000Y-85592914D01*
X247200000Y-85592914D02*
X247104762Y-85640533D01*
X216795180Y-173850476D02*
X217795180Y-173850476D01*
X217795180Y-173850476D02*
X217080895Y-174183809D01*
X217080895Y-174183809D02*
X217795180Y-174517142D01*
X217795180Y-174517142D02*
X216795180Y-174517142D01*
X217795180Y-174898095D02*
X217795180Y-175517142D01*
X217795180Y-175517142D02*
X217414228Y-175183809D01*
X217414228Y-175183809D02*
X217414228Y-175326666D01*
X217414228Y-175326666D02*
X217366609Y-175421904D01*
X217366609Y-175421904D02*
X217318990Y-175469523D01*
X217318990Y-175469523D02*
X217223752Y-175517142D01*
X217223752Y-175517142D02*
X216985657Y-175517142D01*
X216985657Y-175517142D02*
X216890419Y-175469523D01*
X216890419Y-175469523D02*
X216842800Y-175421904D01*
X216842800Y-175421904D02*
X216795180Y-175326666D01*
X216795180Y-175326666D02*
X216795180Y-175040952D01*
X216795180Y-175040952D02*
X216842800Y-174945714D01*
X216842800Y-174945714D02*
X216890419Y-174898095D01*
X211493180Y-170850000D02*
X211255085Y-170850000D01*
X211350323Y-170611905D02*
X211255085Y-170850000D01*
X211255085Y-170850000D02*
X211350323Y-171088095D01*
X211064609Y-170707143D02*
X211255085Y-170850000D01*
X211255085Y-170850000D02*
X211064609Y-170992857D01*
X91088095Y-123404819D02*
X91088095Y-124214342D01*
X91088095Y-124214342D02*
X91135714Y-124309580D01*
X91135714Y-124309580D02*
X91183333Y-124357200D01*
X91183333Y-124357200D02*
X91278571Y-124404819D01*
X91278571Y-124404819D02*
X91469047Y-124404819D01*
X91469047Y-124404819D02*
X91564285Y-124357200D01*
X91564285Y-124357200D02*
X91611904Y-124309580D01*
X91611904Y-124309580D02*
X91659523Y-124214342D01*
X91659523Y-124214342D02*
X91659523Y-123404819D01*
X92088095Y-123500057D02*
X92135714Y-123452438D01*
X92135714Y-123452438D02*
X92230952Y-123404819D01*
X92230952Y-123404819D02*
X92469047Y-123404819D01*
X92469047Y-123404819D02*
X92564285Y-123452438D01*
X92564285Y-123452438D02*
X92611904Y-123500057D01*
X92611904Y-123500057D02*
X92659523Y-123595295D01*
X92659523Y-123595295D02*
X92659523Y-123690533D01*
X92659523Y-123690533D02*
X92611904Y-123833390D01*
X92611904Y-123833390D02*
X92040476Y-124404819D01*
X92040476Y-124404819D02*
X92659523Y-124404819D01*
X175941905Y-72204819D02*
X175941905Y-71204819D01*
X175941905Y-71204819D02*
X176180000Y-71204819D01*
X176180000Y-71204819D02*
X176322857Y-71252438D01*
X176322857Y-71252438D02*
X176418095Y-71347676D01*
X176418095Y-71347676D02*
X176465714Y-71442914D01*
X176465714Y-71442914D02*
X176513333Y-71633390D01*
X176513333Y-71633390D02*
X176513333Y-71776247D01*
X176513333Y-71776247D02*
X176465714Y-71966723D01*
X176465714Y-71966723D02*
X176418095Y-72061961D01*
X176418095Y-72061961D02*
X176322857Y-72157200D01*
X176322857Y-72157200D02*
X176180000Y-72204819D01*
X176180000Y-72204819D02*
X175941905Y-72204819D01*
X176846667Y-71204819D02*
X177465714Y-71204819D01*
X177465714Y-71204819D02*
X177132381Y-71585771D01*
X177132381Y-71585771D02*
X177275238Y-71585771D01*
X177275238Y-71585771D02*
X177370476Y-71633390D01*
X177370476Y-71633390D02*
X177418095Y-71681009D01*
X177418095Y-71681009D02*
X177465714Y-71776247D01*
X177465714Y-71776247D02*
X177465714Y-72014342D01*
X177465714Y-72014342D02*
X177418095Y-72109580D01*
X177418095Y-72109580D02*
X177370476Y-72157200D01*
X177370476Y-72157200D02*
X177275238Y-72204819D01*
X177275238Y-72204819D02*
X176989524Y-72204819D01*
X176989524Y-72204819D02*
X176894286Y-72157200D01*
X176894286Y-72157200D02*
X176846667Y-72109580D01*
X179269047Y-58054819D02*
X179269047Y-58769104D01*
X179269047Y-58769104D02*
X179221428Y-58911961D01*
X179221428Y-58911961D02*
X179126190Y-59007200D01*
X179126190Y-59007200D02*
X178983333Y-59054819D01*
X178983333Y-59054819D02*
X178888095Y-59054819D01*
X179507143Y-59150057D02*
X180269047Y-59150057D01*
X180507143Y-59054819D02*
X180507143Y-58054819D01*
X180507143Y-58054819D02*
X180840476Y-58769104D01*
X180840476Y-58769104D02*
X181173809Y-58054819D01*
X181173809Y-58054819D02*
X181173809Y-59054819D01*
X181602381Y-58150057D02*
X181650000Y-58102438D01*
X181650000Y-58102438D02*
X181745238Y-58054819D01*
X181745238Y-58054819D02*
X181983333Y-58054819D01*
X181983333Y-58054819D02*
X182078571Y-58102438D01*
X182078571Y-58102438D02*
X182126190Y-58150057D01*
X182126190Y-58150057D02*
X182173809Y-58245295D01*
X182173809Y-58245295D02*
X182173809Y-58340533D01*
X182173809Y-58340533D02*
X182126190Y-58483390D01*
X182126190Y-58483390D02*
X181554762Y-59054819D01*
X181554762Y-59054819D02*
X182173809Y-59054819D01*
X182602381Y-58673866D02*
X183364286Y-58673866D01*
X184364285Y-59054819D02*
X183792857Y-59054819D01*
X184078571Y-59054819D02*
X184078571Y-58054819D01*
X184078571Y-58054819D02*
X183983333Y-58197676D01*
X183983333Y-58197676D02*
X183888095Y-58292914D01*
X183888095Y-58292914D02*
X183792857Y-58340533D01*
X83347618Y-132149580D02*
X83299999Y-132197200D01*
X83299999Y-132197200D02*
X83157142Y-132244819D01*
X83157142Y-132244819D02*
X83061904Y-132244819D01*
X83061904Y-132244819D02*
X82919047Y-132197200D01*
X82919047Y-132197200D02*
X82823809Y-132101961D01*
X82823809Y-132101961D02*
X82776190Y-132006723D01*
X82776190Y-132006723D02*
X82728571Y-131816247D01*
X82728571Y-131816247D02*
X82728571Y-131673390D01*
X82728571Y-131673390D02*
X82776190Y-131482914D01*
X82776190Y-131482914D02*
X82823809Y-131387676D01*
X82823809Y-131387676D02*
X82919047Y-131292438D01*
X82919047Y-131292438D02*
X83061904Y-131244819D01*
X83061904Y-131244819D02*
X83157142Y-131244819D01*
X83157142Y-131244819D02*
X83299999Y-131292438D01*
X83299999Y-131292438D02*
X83347618Y-131340057D01*
X83680952Y-131578152D02*
X83919047Y-132244819D01*
X83919047Y-132244819D02*
X84157142Y-131578152D01*
X84490476Y-132197200D02*
X84585714Y-132244819D01*
X84585714Y-132244819D02*
X84776190Y-132244819D01*
X84776190Y-132244819D02*
X84871428Y-132197200D01*
X84871428Y-132197200D02*
X84919047Y-132101961D01*
X84919047Y-132101961D02*
X84919047Y-132054342D01*
X84919047Y-132054342D02*
X84871428Y-131959104D01*
X84871428Y-131959104D02*
X84776190Y-131911485D01*
X84776190Y-131911485D02*
X84633333Y-131911485D01*
X84633333Y-131911485D02*
X84538095Y-131863866D01*
X84538095Y-131863866D02*
X84490476Y-131768628D01*
X84490476Y-131768628D02*
X84490476Y-131721009D01*
X84490476Y-131721009D02*
X84538095Y-131625771D01*
X84538095Y-131625771D02*
X84633333Y-131578152D01*
X84633333Y-131578152D02*
X84776190Y-131578152D01*
X84776190Y-131578152D02*
X84871428Y-131625771D01*
X85252381Y-131244819D02*
X85871428Y-131244819D01*
X85871428Y-131244819D02*
X85538095Y-131625771D01*
X85538095Y-131625771D02*
X85680952Y-131625771D01*
X85680952Y-131625771D02*
X85776190Y-131673390D01*
X85776190Y-131673390D02*
X85823809Y-131721009D01*
X85823809Y-131721009D02*
X85871428Y-131816247D01*
X85871428Y-131816247D02*
X85871428Y-132054342D01*
X85871428Y-132054342D02*
X85823809Y-132149580D01*
X85823809Y-132149580D02*
X85776190Y-132197200D01*
X85776190Y-132197200D02*
X85680952Y-132244819D01*
X85680952Y-132244819D02*
X85395238Y-132244819D01*
X85395238Y-132244819D02*
X85300000Y-132197200D01*
X85300000Y-132197200D02*
X85252381Y-132149580D01*
X188980952Y-168459580D02*
X188933333Y-168507200D01*
X188933333Y-168507200D02*
X188790476Y-168554819D01*
X188790476Y-168554819D02*
X188695238Y-168554819D01*
X188695238Y-168554819D02*
X188552381Y-168507200D01*
X188552381Y-168507200D02*
X188457143Y-168411961D01*
X188457143Y-168411961D02*
X188409524Y-168316723D01*
X188409524Y-168316723D02*
X188361905Y-168126247D01*
X188361905Y-168126247D02*
X188361905Y-167983390D01*
X188361905Y-167983390D02*
X188409524Y-167792914D01*
X188409524Y-167792914D02*
X188457143Y-167697676D01*
X188457143Y-167697676D02*
X188552381Y-167602438D01*
X188552381Y-167602438D02*
X188695238Y-167554819D01*
X188695238Y-167554819D02*
X188790476Y-167554819D01*
X188790476Y-167554819D02*
X188933333Y-167602438D01*
X188933333Y-167602438D02*
X188980952Y-167650057D01*
X189409524Y-168554819D02*
X189409524Y-167554819D01*
X189409524Y-167935771D02*
X189504762Y-167888152D01*
X189504762Y-167888152D02*
X189695238Y-167888152D01*
X189695238Y-167888152D02*
X189790476Y-167935771D01*
X189790476Y-167935771D02*
X189838095Y-167983390D01*
X189838095Y-167983390D02*
X189885714Y-168078628D01*
X189885714Y-168078628D02*
X189885714Y-168364342D01*
X189885714Y-168364342D02*
X189838095Y-168459580D01*
X189838095Y-168459580D02*
X189790476Y-168507200D01*
X189790476Y-168507200D02*
X189695238Y-168554819D01*
X189695238Y-168554819D02*
X189504762Y-168554819D01*
X189504762Y-168554819D02*
X189409524Y-168507200D01*
X190742857Y-167554819D02*
X190552381Y-167554819D01*
X190552381Y-167554819D02*
X190457143Y-167602438D01*
X190457143Y-167602438D02*
X190409524Y-167650057D01*
X190409524Y-167650057D02*
X190314286Y-167792914D01*
X190314286Y-167792914D02*
X190266667Y-167983390D01*
X190266667Y-167983390D02*
X190266667Y-168364342D01*
X190266667Y-168364342D02*
X190314286Y-168459580D01*
X190314286Y-168459580D02*
X190361905Y-168507200D01*
X190361905Y-168507200D02*
X190457143Y-168554819D01*
X190457143Y-168554819D02*
X190647619Y-168554819D01*
X190647619Y-168554819D02*
X190742857Y-168507200D01*
X190742857Y-168507200D02*
X190790476Y-168459580D01*
X190790476Y-168459580D02*
X190838095Y-168364342D01*
X190838095Y-168364342D02*
X190838095Y-168126247D01*
X190838095Y-168126247D02*
X190790476Y-168031009D01*
X190790476Y-168031009D02*
X190742857Y-167983390D01*
X190742857Y-167983390D02*
X190647619Y-167935771D01*
X190647619Y-167935771D02*
X190457143Y-167935771D01*
X190457143Y-167935771D02*
X190361905Y-167983390D01*
X190361905Y-167983390D02*
X190314286Y-168031009D01*
X190314286Y-168031009D02*
X190266667Y-168126247D01*
X87447618Y-143209580D02*
X87399999Y-143257200D01*
X87399999Y-143257200D02*
X87257142Y-143304819D01*
X87257142Y-143304819D02*
X87161904Y-143304819D01*
X87161904Y-143304819D02*
X87019047Y-143257200D01*
X87019047Y-143257200D02*
X86923809Y-143161961D01*
X86923809Y-143161961D02*
X86876190Y-143066723D01*
X86876190Y-143066723D02*
X86828571Y-142876247D01*
X86828571Y-142876247D02*
X86828571Y-142733390D01*
X86828571Y-142733390D02*
X86876190Y-142542914D01*
X86876190Y-142542914D02*
X86923809Y-142447676D01*
X86923809Y-142447676D02*
X87019047Y-142352438D01*
X87019047Y-142352438D02*
X87161904Y-142304819D01*
X87161904Y-142304819D02*
X87257142Y-142304819D01*
X87257142Y-142304819D02*
X87399999Y-142352438D01*
X87399999Y-142352438D02*
X87447618Y-142400057D01*
X87780952Y-142638152D02*
X88019047Y-143304819D01*
X88019047Y-143304819D02*
X88257142Y-142638152D01*
X88590476Y-143257200D02*
X88685714Y-143304819D01*
X88685714Y-143304819D02*
X88876190Y-143304819D01*
X88876190Y-143304819D02*
X88971428Y-143257200D01*
X88971428Y-143257200D02*
X89019047Y-143161961D01*
X89019047Y-143161961D02*
X89019047Y-143114342D01*
X89019047Y-143114342D02*
X88971428Y-143019104D01*
X88971428Y-143019104D02*
X88876190Y-142971485D01*
X88876190Y-142971485D02*
X88733333Y-142971485D01*
X88733333Y-142971485D02*
X88638095Y-142923866D01*
X88638095Y-142923866D02*
X88590476Y-142828628D01*
X88590476Y-142828628D02*
X88590476Y-142781009D01*
X88590476Y-142781009D02*
X88638095Y-142685771D01*
X88638095Y-142685771D02*
X88733333Y-142638152D01*
X88733333Y-142638152D02*
X88876190Y-142638152D01*
X88876190Y-142638152D02*
X88971428Y-142685771D01*
X89923809Y-142304819D02*
X89447619Y-142304819D01*
X89447619Y-142304819D02*
X89400000Y-142781009D01*
X89400000Y-142781009D02*
X89447619Y-142733390D01*
X89447619Y-142733390D02*
X89542857Y-142685771D01*
X89542857Y-142685771D02*
X89780952Y-142685771D01*
X89780952Y-142685771D02*
X89876190Y-142733390D01*
X89876190Y-142733390D02*
X89923809Y-142781009D01*
X89923809Y-142781009D02*
X89971428Y-142876247D01*
X89971428Y-142876247D02*
X89971428Y-143114342D01*
X89971428Y-143114342D02*
X89923809Y-143209580D01*
X89923809Y-143209580D02*
X89876190Y-143257200D01*
X89876190Y-143257200D02*
X89780952Y-143304819D01*
X89780952Y-143304819D02*
X89542857Y-143304819D01*
X89542857Y-143304819D02*
X89447619Y-143257200D01*
X89447619Y-143257200D02*
X89400000Y-143209580D01*
X175859580Y-85016666D02*
X175907200Y-85064285D01*
X175907200Y-85064285D02*
X175954819Y-85207142D01*
X175954819Y-85207142D02*
X175954819Y-85302380D01*
X175954819Y-85302380D02*
X175907200Y-85445237D01*
X175907200Y-85445237D02*
X175811961Y-85540475D01*
X175811961Y-85540475D02*
X175716723Y-85588094D01*
X175716723Y-85588094D02*
X175526247Y-85635713D01*
X175526247Y-85635713D02*
X175383390Y-85635713D01*
X175383390Y-85635713D02*
X175192914Y-85588094D01*
X175192914Y-85588094D02*
X175097676Y-85540475D01*
X175097676Y-85540475D02*
X175002438Y-85445237D01*
X175002438Y-85445237D02*
X174954819Y-85302380D01*
X174954819Y-85302380D02*
X174954819Y-85207142D01*
X174954819Y-85207142D02*
X175002438Y-85064285D01*
X175002438Y-85064285D02*
X175050057Y-85016666D01*
X175954819Y-84064285D02*
X175954819Y-84635713D01*
X175954819Y-84349999D02*
X174954819Y-84349999D01*
X174954819Y-84349999D02*
X175097676Y-84445237D01*
X175097676Y-84445237D02*
X175192914Y-84540475D01*
X175192914Y-84540475D02*
X175240533Y-84635713D01*
X227450419Y-180280952D02*
X227402800Y-180233333D01*
X227402800Y-180233333D02*
X227355180Y-180090476D01*
X227355180Y-180090476D02*
X227355180Y-179995238D01*
X227355180Y-179995238D02*
X227402800Y-179852381D01*
X227402800Y-179852381D02*
X227498038Y-179757143D01*
X227498038Y-179757143D02*
X227593276Y-179709524D01*
X227593276Y-179709524D02*
X227783752Y-179661905D01*
X227783752Y-179661905D02*
X227926609Y-179661905D01*
X227926609Y-179661905D02*
X228117085Y-179709524D01*
X228117085Y-179709524D02*
X228212323Y-179757143D01*
X228212323Y-179757143D02*
X228307561Y-179852381D01*
X228307561Y-179852381D02*
X228355180Y-179995238D01*
X228355180Y-179995238D02*
X228355180Y-180090476D01*
X228355180Y-180090476D02*
X228307561Y-180233333D01*
X228307561Y-180233333D02*
X228259942Y-180280952D01*
X227355180Y-180709524D02*
X228355180Y-180709524D01*
X227974228Y-180709524D02*
X228021847Y-180804762D01*
X228021847Y-180804762D02*
X228021847Y-180995238D01*
X228021847Y-180995238D02*
X227974228Y-181090476D01*
X227974228Y-181090476D02*
X227926609Y-181138095D01*
X227926609Y-181138095D02*
X227831371Y-181185714D01*
X227831371Y-181185714D02*
X227545657Y-181185714D01*
X227545657Y-181185714D02*
X227450419Y-181138095D01*
X227450419Y-181138095D02*
X227402800Y-181090476D01*
X227402800Y-181090476D02*
X227355180Y-180995238D01*
X227355180Y-180995238D02*
X227355180Y-180804762D01*
X227355180Y-180804762D02*
X227402800Y-180709524D01*
X228021847Y-182042857D02*
X227355180Y-182042857D01*
X228402800Y-181804762D02*
X227688514Y-181566667D01*
X227688514Y-181566667D02*
X227688514Y-182185714D01*
X240395238Y-217354819D02*
X240395238Y-218069104D01*
X240395238Y-218069104D02*
X240347619Y-218211961D01*
X240347619Y-218211961D02*
X240252381Y-218307200D01*
X240252381Y-218307200D02*
X240109524Y-218354819D01*
X240109524Y-218354819D02*
X240014286Y-218354819D01*
X240633334Y-218450057D02*
X241395238Y-218450057D01*
X241633334Y-218354819D02*
X241633334Y-217354819D01*
X241633334Y-217354819D02*
X242014286Y-217354819D01*
X242014286Y-217354819D02*
X242109524Y-217402438D01*
X242109524Y-217402438D02*
X242157143Y-217450057D01*
X242157143Y-217450057D02*
X242204762Y-217545295D01*
X242204762Y-217545295D02*
X242204762Y-217688152D01*
X242204762Y-217688152D02*
X242157143Y-217783390D01*
X242157143Y-217783390D02*
X242109524Y-217831009D01*
X242109524Y-217831009D02*
X242014286Y-217878628D01*
X242014286Y-217878628D02*
X241633334Y-217878628D01*
X243061905Y-217688152D02*
X243061905Y-218354819D01*
X242633334Y-217688152D02*
X242633334Y-218211961D01*
X242633334Y-218211961D02*
X242680953Y-218307200D01*
X242680953Y-218307200D02*
X242776191Y-218354819D01*
X242776191Y-218354819D02*
X242919048Y-218354819D01*
X242919048Y-218354819D02*
X243014286Y-218307200D01*
X243014286Y-218307200D02*
X243061905Y-218259580D01*
X243538096Y-218354819D02*
X243538096Y-217688152D01*
X243538096Y-217783390D02*
X243585715Y-217735771D01*
X243585715Y-217735771D02*
X243680953Y-217688152D01*
X243680953Y-217688152D02*
X243823810Y-217688152D01*
X243823810Y-217688152D02*
X243919048Y-217735771D01*
X243919048Y-217735771D02*
X243966667Y-217831009D01*
X243966667Y-217831009D02*
X243966667Y-218354819D01*
X243966667Y-217831009D02*
X244014286Y-217735771D01*
X244014286Y-217735771D02*
X244109524Y-217688152D01*
X244109524Y-217688152D02*
X244252381Y-217688152D01*
X244252381Y-217688152D02*
X244347620Y-217735771D01*
X244347620Y-217735771D02*
X244395239Y-217831009D01*
X244395239Y-217831009D02*
X244395239Y-218354819D01*
X244871429Y-217688152D02*
X244871429Y-218688152D01*
X244871429Y-217735771D02*
X244966667Y-217688152D01*
X244966667Y-217688152D02*
X245157143Y-217688152D01*
X245157143Y-217688152D02*
X245252381Y-217735771D01*
X245252381Y-217735771D02*
X245300000Y-217783390D01*
X245300000Y-217783390D02*
X245347619Y-217878628D01*
X245347619Y-217878628D02*
X245347619Y-218164342D01*
X245347619Y-218164342D02*
X245300000Y-218259580D01*
X245300000Y-218259580D02*
X245252381Y-218307200D01*
X245252381Y-218307200D02*
X245157143Y-218354819D01*
X245157143Y-218354819D02*
X244966667Y-218354819D01*
X244966667Y-218354819D02*
X244871429Y-218307200D01*
X245776191Y-217973866D02*
X246538096Y-217973866D01*
X246157143Y-218354819D02*
X246157143Y-217592914D01*
X247538095Y-218354819D02*
X246966667Y-218354819D01*
X247252381Y-218354819D02*
X247252381Y-217354819D01*
X247252381Y-217354819D02*
X247157143Y-217497676D01*
X247157143Y-217497676D02*
X247061905Y-217592914D01*
X247061905Y-217592914D02*
X246966667Y-217640533D01*
X166380952Y-132254819D02*
X166047619Y-131778628D01*
X165809524Y-132254819D02*
X165809524Y-131254819D01*
X165809524Y-131254819D02*
X166190476Y-131254819D01*
X166190476Y-131254819D02*
X166285714Y-131302438D01*
X166285714Y-131302438D02*
X166333333Y-131350057D01*
X166333333Y-131350057D02*
X166380952Y-131445295D01*
X166380952Y-131445295D02*
X166380952Y-131588152D01*
X166380952Y-131588152D02*
X166333333Y-131683390D01*
X166333333Y-131683390D02*
X166285714Y-131731009D01*
X166285714Y-131731009D02*
X166190476Y-131778628D01*
X166190476Y-131778628D02*
X165809524Y-131778628D01*
X167238095Y-132254819D02*
X167238095Y-131254819D01*
X167238095Y-132207200D02*
X167142857Y-132254819D01*
X167142857Y-132254819D02*
X166952381Y-132254819D01*
X166952381Y-132254819D02*
X166857143Y-132207200D01*
X166857143Y-132207200D02*
X166809524Y-132159580D01*
X166809524Y-132159580D02*
X166761905Y-132064342D01*
X166761905Y-132064342D02*
X166761905Y-131778628D01*
X166761905Y-131778628D02*
X166809524Y-131683390D01*
X166809524Y-131683390D02*
X166857143Y-131635771D01*
X166857143Y-131635771D02*
X166952381Y-131588152D01*
X166952381Y-131588152D02*
X167142857Y-131588152D01*
X167142857Y-131588152D02*
X167238095Y-131635771D01*
X167666667Y-131350057D02*
X167714286Y-131302438D01*
X167714286Y-131302438D02*
X167809524Y-131254819D01*
X167809524Y-131254819D02*
X168047619Y-131254819D01*
X168047619Y-131254819D02*
X168142857Y-131302438D01*
X168142857Y-131302438D02*
X168190476Y-131350057D01*
X168190476Y-131350057D02*
X168238095Y-131445295D01*
X168238095Y-131445295D02*
X168238095Y-131540533D01*
X168238095Y-131540533D02*
X168190476Y-131683390D01*
X168190476Y-131683390D02*
X167619048Y-132254819D01*
X167619048Y-132254819D02*
X168238095Y-132254819D01*
X157380952Y-173954819D02*
X157047619Y-173478628D01*
X156809524Y-173954819D02*
X156809524Y-172954819D01*
X156809524Y-172954819D02*
X157190476Y-172954819D01*
X157190476Y-172954819D02*
X157285714Y-173002438D01*
X157285714Y-173002438D02*
X157333333Y-173050057D01*
X157333333Y-173050057D02*
X157380952Y-173145295D01*
X157380952Y-173145295D02*
X157380952Y-173288152D01*
X157380952Y-173288152D02*
X157333333Y-173383390D01*
X157333333Y-173383390D02*
X157285714Y-173431009D01*
X157285714Y-173431009D02*
X157190476Y-173478628D01*
X157190476Y-173478628D02*
X156809524Y-173478628D01*
X158238095Y-173954819D02*
X158238095Y-172954819D01*
X158238095Y-173907200D02*
X158142857Y-173954819D01*
X158142857Y-173954819D02*
X157952381Y-173954819D01*
X157952381Y-173954819D02*
X157857143Y-173907200D01*
X157857143Y-173907200D02*
X157809524Y-173859580D01*
X157809524Y-173859580D02*
X157761905Y-173764342D01*
X157761905Y-173764342D02*
X157761905Y-173478628D01*
X157761905Y-173478628D02*
X157809524Y-173383390D01*
X157809524Y-173383390D02*
X157857143Y-173335771D01*
X157857143Y-173335771D02*
X157952381Y-173288152D01*
X157952381Y-173288152D02*
X158142857Y-173288152D01*
X158142857Y-173288152D02*
X158238095Y-173335771D01*
X159190476Y-172954819D02*
X158714286Y-172954819D01*
X158714286Y-172954819D02*
X158666667Y-173431009D01*
X158666667Y-173431009D02*
X158714286Y-173383390D01*
X158714286Y-173383390D02*
X158809524Y-173335771D01*
X158809524Y-173335771D02*
X159047619Y-173335771D01*
X159047619Y-173335771D02*
X159142857Y-173383390D01*
X159142857Y-173383390D02*
X159190476Y-173431009D01*
X159190476Y-173431009D02*
X159238095Y-173526247D01*
X159238095Y-173526247D02*
X159238095Y-173764342D01*
X159238095Y-173764342D02*
X159190476Y-173859580D01*
X159190476Y-173859580D02*
X159142857Y-173907200D01*
X159142857Y-173907200D02*
X159047619Y-173954819D01*
X159047619Y-173954819D02*
X158809524Y-173954819D01*
X158809524Y-173954819D02*
X158714286Y-173907200D01*
X158714286Y-173907200D02*
X158666667Y-173859580D01*
X118145180Y-100674761D02*
X118621371Y-100341428D01*
X118145180Y-100103333D02*
X119145180Y-100103333D01*
X119145180Y-100103333D02*
X119145180Y-100484285D01*
X119145180Y-100484285D02*
X119097561Y-100579523D01*
X119097561Y-100579523D02*
X119049942Y-100627142D01*
X119049942Y-100627142D02*
X118954704Y-100674761D01*
X118954704Y-100674761D02*
X118811847Y-100674761D01*
X118811847Y-100674761D02*
X118716609Y-100627142D01*
X118716609Y-100627142D02*
X118668990Y-100579523D01*
X118668990Y-100579523D02*
X118621371Y-100484285D01*
X118621371Y-100484285D02*
X118621371Y-100103333D01*
X118145180Y-101531904D02*
X119145180Y-101531904D01*
X118192800Y-101531904D02*
X118145180Y-101436666D01*
X118145180Y-101436666D02*
X118145180Y-101246190D01*
X118145180Y-101246190D02*
X118192800Y-101150952D01*
X118192800Y-101150952D02*
X118240419Y-101103333D01*
X118240419Y-101103333D02*
X118335657Y-101055714D01*
X118335657Y-101055714D02*
X118621371Y-101055714D01*
X118621371Y-101055714D02*
X118716609Y-101103333D01*
X118716609Y-101103333D02*
X118764228Y-101150952D01*
X118764228Y-101150952D02*
X118811847Y-101246190D01*
X118811847Y-101246190D02*
X118811847Y-101436666D01*
X118811847Y-101436666D02*
X118764228Y-101531904D01*
X118145180Y-102531904D02*
X118145180Y-101960476D01*
X118145180Y-102246190D02*
X119145180Y-102246190D01*
X119145180Y-102246190D02*
X119002323Y-102150952D01*
X119002323Y-102150952D02*
X118907085Y-102055714D01*
X118907085Y-102055714D02*
X118859466Y-101960476D01*
X119049942Y-102912857D02*
X119097561Y-102960476D01*
X119097561Y-102960476D02*
X119145180Y-103055714D01*
X119145180Y-103055714D02*
X119145180Y-103293809D01*
X119145180Y-103293809D02*
X119097561Y-103389047D01*
X119097561Y-103389047D02*
X119049942Y-103436666D01*
X119049942Y-103436666D02*
X118954704Y-103484285D01*
X118954704Y-103484285D02*
X118859466Y-103484285D01*
X118859466Y-103484285D02*
X118716609Y-103436666D01*
X118716609Y-103436666D02*
X118145180Y-102865238D01*
X118145180Y-102865238D02*
X118145180Y-103484285D01*
X202380952Y-177254819D02*
X202047619Y-176778628D01*
X201809524Y-177254819D02*
X201809524Y-176254819D01*
X201809524Y-176254819D02*
X202190476Y-176254819D01*
X202190476Y-176254819D02*
X202285714Y-176302438D01*
X202285714Y-176302438D02*
X202333333Y-176350057D01*
X202333333Y-176350057D02*
X202380952Y-176445295D01*
X202380952Y-176445295D02*
X202380952Y-176588152D01*
X202380952Y-176588152D02*
X202333333Y-176683390D01*
X202333333Y-176683390D02*
X202285714Y-176731009D01*
X202285714Y-176731009D02*
X202190476Y-176778628D01*
X202190476Y-176778628D02*
X201809524Y-176778628D01*
X203238095Y-177254819D02*
X203238095Y-176254819D01*
X203238095Y-177207200D02*
X203142857Y-177254819D01*
X203142857Y-177254819D02*
X202952381Y-177254819D01*
X202952381Y-177254819D02*
X202857143Y-177207200D01*
X202857143Y-177207200D02*
X202809524Y-177159580D01*
X202809524Y-177159580D02*
X202761905Y-177064342D01*
X202761905Y-177064342D02*
X202761905Y-176778628D01*
X202761905Y-176778628D02*
X202809524Y-176683390D01*
X202809524Y-176683390D02*
X202857143Y-176635771D01*
X202857143Y-176635771D02*
X202952381Y-176588152D01*
X202952381Y-176588152D02*
X203142857Y-176588152D01*
X203142857Y-176588152D02*
X203238095Y-176635771D01*
X203857143Y-176683390D02*
X203761905Y-176635771D01*
X203761905Y-176635771D02*
X203714286Y-176588152D01*
X203714286Y-176588152D02*
X203666667Y-176492914D01*
X203666667Y-176492914D02*
X203666667Y-176445295D01*
X203666667Y-176445295D02*
X203714286Y-176350057D01*
X203714286Y-176350057D02*
X203761905Y-176302438D01*
X203761905Y-176302438D02*
X203857143Y-176254819D01*
X203857143Y-176254819D02*
X204047619Y-176254819D01*
X204047619Y-176254819D02*
X204142857Y-176302438D01*
X204142857Y-176302438D02*
X204190476Y-176350057D01*
X204190476Y-176350057D02*
X204238095Y-176445295D01*
X204238095Y-176445295D02*
X204238095Y-176492914D01*
X204238095Y-176492914D02*
X204190476Y-176588152D01*
X204190476Y-176588152D02*
X204142857Y-176635771D01*
X204142857Y-176635771D02*
X204047619Y-176683390D01*
X204047619Y-176683390D02*
X203857143Y-176683390D01*
X203857143Y-176683390D02*
X203761905Y-176731009D01*
X203761905Y-176731009D02*
X203714286Y-176778628D01*
X203714286Y-176778628D02*
X203666667Y-176873866D01*
X203666667Y-176873866D02*
X203666667Y-177064342D01*
X203666667Y-177064342D02*
X203714286Y-177159580D01*
X203714286Y-177159580D02*
X203761905Y-177207200D01*
X203761905Y-177207200D02*
X203857143Y-177254819D01*
X203857143Y-177254819D02*
X204047619Y-177254819D01*
X204047619Y-177254819D02*
X204142857Y-177207200D01*
X204142857Y-177207200D02*
X204190476Y-177159580D01*
X204190476Y-177159580D02*
X204238095Y-177064342D01*
X204238095Y-177064342D02*
X204238095Y-176873866D01*
X204238095Y-176873866D02*
X204190476Y-176778628D01*
X204190476Y-176778628D02*
X204142857Y-176731009D01*
X204142857Y-176731009D02*
X204047619Y-176683390D01*
X95580952Y-129709580D02*
X95533333Y-129757200D01*
X95533333Y-129757200D02*
X95390476Y-129804819D01*
X95390476Y-129804819D02*
X95295238Y-129804819D01*
X95295238Y-129804819D02*
X95152381Y-129757200D01*
X95152381Y-129757200D02*
X95057143Y-129661961D01*
X95057143Y-129661961D02*
X95009524Y-129566723D01*
X95009524Y-129566723D02*
X94961905Y-129376247D01*
X94961905Y-129376247D02*
X94961905Y-129233390D01*
X94961905Y-129233390D02*
X95009524Y-129042914D01*
X95009524Y-129042914D02*
X95057143Y-128947676D01*
X95057143Y-128947676D02*
X95152381Y-128852438D01*
X95152381Y-128852438D02*
X95295238Y-128804819D01*
X95295238Y-128804819D02*
X95390476Y-128804819D01*
X95390476Y-128804819D02*
X95533333Y-128852438D01*
X95533333Y-128852438D02*
X95580952Y-128900057D01*
X96009524Y-129804819D02*
X96009524Y-128804819D01*
X96009524Y-129185771D02*
X96104762Y-129138152D01*
X96104762Y-129138152D02*
X96295238Y-129138152D01*
X96295238Y-129138152D02*
X96390476Y-129185771D01*
X96390476Y-129185771D02*
X96438095Y-129233390D01*
X96438095Y-129233390D02*
X96485714Y-129328628D01*
X96485714Y-129328628D02*
X96485714Y-129614342D01*
X96485714Y-129614342D02*
X96438095Y-129709580D01*
X96438095Y-129709580D02*
X96390476Y-129757200D01*
X96390476Y-129757200D02*
X96295238Y-129804819D01*
X96295238Y-129804819D02*
X96104762Y-129804819D01*
X96104762Y-129804819D02*
X96009524Y-129757200D01*
X97390476Y-128804819D02*
X96914286Y-128804819D01*
X96914286Y-128804819D02*
X96866667Y-129281009D01*
X96866667Y-129281009D02*
X96914286Y-129233390D01*
X96914286Y-129233390D02*
X97009524Y-129185771D01*
X97009524Y-129185771D02*
X97247619Y-129185771D01*
X97247619Y-129185771D02*
X97342857Y-129233390D01*
X97342857Y-129233390D02*
X97390476Y-129281009D01*
X97390476Y-129281009D02*
X97438095Y-129376247D01*
X97438095Y-129376247D02*
X97438095Y-129614342D01*
X97438095Y-129614342D02*
X97390476Y-129709580D01*
X97390476Y-129709580D02*
X97342857Y-129757200D01*
X97342857Y-129757200D02*
X97247619Y-129804819D01*
X97247619Y-129804819D02*
X97009524Y-129804819D01*
X97009524Y-129804819D02*
X96914286Y-129757200D01*
X96914286Y-129757200D02*
X96866667Y-129709580D01*
X111819047Y-58054819D02*
X111819047Y-58769104D01*
X111819047Y-58769104D02*
X111771428Y-58911961D01*
X111771428Y-58911961D02*
X111676190Y-59007200D01*
X111676190Y-59007200D02*
X111533333Y-59054819D01*
X111533333Y-59054819D02*
X111438095Y-59054819D01*
X112057143Y-59150057D02*
X112819047Y-59150057D01*
X113057143Y-59054819D02*
X113057143Y-58054819D01*
X113057143Y-58054819D02*
X113390476Y-58769104D01*
X113390476Y-58769104D02*
X113723809Y-58054819D01*
X113723809Y-58054819D02*
X113723809Y-59054819D01*
X114723809Y-59054819D02*
X114152381Y-59054819D01*
X114438095Y-59054819D02*
X114438095Y-58054819D01*
X114438095Y-58054819D02*
X114342857Y-58197676D01*
X114342857Y-58197676D02*
X114247619Y-58292914D01*
X114247619Y-58292914D02*
X114152381Y-58340533D01*
X115152381Y-58673866D02*
X115914286Y-58673866D01*
X116914285Y-59054819D02*
X116342857Y-59054819D01*
X116628571Y-59054819D02*
X116628571Y-58054819D01*
X116628571Y-58054819D02*
X116533333Y-58197676D01*
X116533333Y-58197676D02*
X116438095Y-58292914D01*
X116438095Y-58292914D02*
X116342857Y-58340533D01*
X232359580Y-178199047D02*
X232407200Y-178246666D01*
X232407200Y-178246666D02*
X232454819Y-178389523D01*
X232454819Y-178389523D02*
X232454819Y-178484761D01*
X232454819Y-178484761D02*
X232407200Y-178627618D01*
X232407200Y-178627618D02*
X232311961Y-178722856D01*
X232311961Y-178722856D02*
X232216723Y-178770475D01*
X232216723Y-178770475D02*
X232026247Y-178818094D01*
X232026247Y-178818094D02*
X231883390Y-178818094D01*
X231883390Y-178818094D02*
X231692914Y-178770475D01*
X231692914Y-178770475D02*
X231597676Y-178722856D01*
X231597676Y-178722856D02*
X231502438Y-178627618D01*
X231502438Y-178627618D02*
X231454819Y-178484761D01*
X231454819Y-178484761D02*
X231454819Y-178389523D01*
X231454819Y-178389523D02*
X231502438Y-178246666D01*
X231502438Y-178246666D02*
X231550057Y-178199047D01*
X232454819Y-177770475D02*
X231454819Y-177770475D01*
X231835771Y-177770475D02*
X231788152Y-177675237D01*
X231788152Y-177675237D02*
X231788152Y-177484761D01*
X231788152Y-177484761D02*
X231835771Y-177389523D01*
X231835771Y-177389523D02*
X231883390Y-177341904D01*
X231883390Y-177341904D02*
X231978628Y-177294285D01*
X231978628Y-177294285D02*
X232264342Y-177294285D01*
X232264342Y-177294285D02*
X232359580Y-177341904D01*
X232359580Y-177341904D02*
X232407200Y-177389523D01*
X232407200Y-177389523D02*
X232454819Y-177484761D01*
X232454819Y-177484761D02*
X232454819Y-177675237D01*
X232454819Y-177675237D02*
X232407200Y-177770475D01*
X231454819Y-176960951D02*
X231454819Y-176341904D01*
X231454819Y-176341904D02*
X231835771Y-176675237D01*
X231835771Y-176675237D02*
X231835771Y-176532380D01*
X231835771Y-176532380D02*
X231883390Y-176437142D01*
X231883390Y-176437142D02*
X231931009Y-176389523D01*
X231931009Y-176389523D02*
X232026247Y-176341904D01*
X232026247Y-176341904D02*
X232264342Y-176341904D01*
X232264342Y-176341904D02*
X232359580Y-176389523D01*
X232359580Y-176389523D02*
X232407200Y-176437142D01*
X232407200Y-176437142D02*
X232454819Y-176532380D01*
X232454819Y-176532380D02*
X232454819Y-176818094D01*
X232454819Y-176818094D02*
X232407200Y-176913332D01*
X232407200Y-176913332D02*
X232359580Y-176960951D01*
X73771333Y-139704819D02*
X73438000Y-139228628D01*
X73199905Y-139704819D02*
X73199905Y-138704819D01*
X73199905Y-138704819D02*
X73580857Y-138704819D01*
X73580857Y-138704819D02*
X73676095Y-138752438D01*
X73676095Y-138752438D02*
X73723714Y-138800057D01*
X73723714Y-138800057D02*
X73771333Y-138895295D01*
X73771333Y-138895295D02*
X73771333Y-139038152D01*
X73771333Y-139038152D02*
X73723714Y-139133390D01*
X73723714Y-139133390D02*
X73676095Y-139181009D01*
X73676095Y-139181009D02*
X73580857Y-139228628D01*
X73580857Y-139228628D02*
X73199905Y-139228628D01*
X74676095Y-138704819D02*
X74199905Y-138704819D01*
X74199905Y-138704819D02*
X74152286Y-139181009D01*
X74152286Y-139181009D02*
X74199905Y-139133390D01*
X74199905Y-139133390D02*
X74295143Y-139085771D01*
X74295143Y-139085771D02*
X74533238Y-139085771D01*
X74533238Y-139085771D02*
X74628476Y-139133390D01*
X74628476Y-139133390D02*
X74676095Y-139181009D01*
X74676095Y-139181009D02*
X74723714Y-139276247D01*
X74723714Y-139276247D02*
X74723714Y-139514342D01*
X74723714Y-139514342D02*
X74676095Y-139609580D01*
X74676095Y-139609580D02*
X74628476Y-139657200D01*
X74628476Y-139657200D02*
X74533238Y-139704819D01*
X74533238Y-139704819D02*
X74295143Y-139704819D01*
X74295143Y-139704819D02*
X74199905Y-139657200D01*
X74199905Y-139657200D02*
X74152286Y-139609580D01*
X75583333Y-133854819D02*
X75250000Y-133378628D01*
X75011905Y-133854819D02*
X75011905Y-132854819D01*
X75011905Y-132854819D02*
X75392857Y-132854819D01*
X75392857Y-132854819D02*
X75488095Y-132902438D01*
X75488095Y-132902438D02*
X75535714Y-132950057D01*
X75535714Y-132950057D02*
X75583333Y-133045295D01*
X75583333Y-133045295D02*
X75583333Y-133188152D01*
X75583333Y-133188152D02*
X75535714Y-133283390D01*
X75535714Y-133283390D02*
X75488095Y-133331009D01*
X75488095Y-133331009D02*
X75392857Y-133378628D01*
X75392857Y-133378628D02*
X75011905Y-133378628D01*
X76440476Y-133188152D02*
X76440476Y-133854819D01*
X76202381Y-132807200D02*
X75964286Y-133521485D01*
X75964286Y-133521485D02*
X76583333Y-133521485D01*
X239895238Y-195804819D02*
X239895238Y-196519104D01*
X239895238Y-196519104D02*
X239847619Y-196661961D01*
X239847619Y-196661961D02*
X239752381Y-196757200D01*
X239752381Y-196757200D02*
X239609524Y-196804819D01*
X239609524Y-196804819D02*
X239514286Y-196804819D01*
X240133334Y-196900057D02*
X240895238Y-196900057D01*
X241133334Y-196804819D02*
X241133334Y-195804819D01*
X241133334Y-195804819D02*
X241514286Y-195804819D01*
X241514286Y-195804819D02*
X241609524Y-195852438D01*
X241609524Y-195852438D02*
X241657143Y-195900057D01*
X241657143Y-195900057D02*
X241704762Y-195995295D01*
X241704762Y-195995295D02*
X241704762Y-196138152D01*
X241704762Y-196138152D02*
X241657143Y-196233390D01*
X241657143Y-196233390D02*
X241609524Y-196281009D01*
X241609524Y-196281009D02*
X241514286Y-196328628D01*
X241514286Y-196328628D02*
X241133334Y-196328628D01*
X242561905Y-196138152D02*
X242561905Y-196804819D01*
X242133334Y-196138152D02*
X242133334Y-196661961D01*
X242133334Y-196661961D02*
X242180953Y-196757200D01*
X242180953Y-196757200D02*
X242276191Y-196804819D01*
X242276191Y-196804819D02*
X242419048Y-196804819D01*
X242419048Y-196804819D02*
X242514286Y-196757200D01*
X242514286Y-196757200D02*
X242561905Y-196709580D01*
X243038096Y-196804819D02*
X243038096Y-196138152D01*
X243038096Y-196233390D02*
X243085715Y-196185771D01*
X243085715Y-196185771D02*
X243180953Y-196138152D01*
X243180953Y-196138152D02*
X243323810Y-196138152D01*
X243323810Y-196138152D02*
X243419048Y-196185771D01*
X243419048Y-196185771D02*
X243466667Y-196281009D01*
X243466667Y-196281009D02*
X243466667Y-196804819D01*
X243466667Y-196281009D02*
X243514286Y-196185771D01*
X243514286Y-196185771D02*
X243609524Y-196138152D01*
X243609524Y-196138152D02*
X243752381Y-196138152D01*
X243752381Y-196138152D02*
X243847620Y-196185771D01*
X243847620Y-196185771D02*
X243895239Y-196281009D01*
X243895239Y-196281009D02*
X243895239Y-196804819D01*
X244371429Y-196138152D02*
X244371429Y-197138152D01*
X244371429Y-196185771D02*
X244466667Y-196138152D01*
X244466667Y-196138152D02*
X244657143Y-196138152D01*
X244657143Y-196138152D02*
X244752381Y-196185771D01*
X244752381Y-196185771D02*
X244800000Y-196233390D01*
X244800000Y-196233390D02*
X244847619Y-196328628D01*
X244847619Y-196328628D02*
X244847619Y-196614342D01*
X244847619Y-196614342D02*
X244800000Y-196709580D01*
X244800000Y-196709580D02*
X244752381Y-196757200D01*
X244752381Y-196757200D02*
X244657143Y-196804819D01*
X244657143Y-196804819D02*
X244466667Y-196804819D01*
X244466667Y-196804819D02*
X244371429Y-196757200D01*
X245276191Y-196423866D02*
X246038096Y-196423866D01*
X247038095Y-196804819D02*
X246466667Y-196804819D01*
X246752381Y-196804819D02*
X246752381Y-195804819D01*
X246752381Y-195804819D02*
X246657143Y-195947676D01*
X246657143Y-195947676D02*
X246561905Y-196042914D01*
X246561905Y-196042914D02*
X246466667Y-196090533D01*
X75033333Y-114604819D02*
X74700000Y-114128628D01*
X74461905Y-114604819D02*
X74461905Y-113604819D01*
X74461905Y-113604819D02*
X74842857Y-113604819D01*
X74842857Y-113604819D02*
X74938095Y-113652438D01*
X74938095Y-113652438D02*
X74985714Y-113700057D01*
X74985714Y-113700057D02*
X75033333Y-113795295D01*
X75033333Y-113795295D02*
X75033333Y-113938152D01*
X75033333Y-113938152D02*
X74985714Y-114033390D01*
X74985714Y-114033390D02*
X74938095Y-114081009D01*
X74938095Y-114081009D02*
X74842857Y-114128628D01*
X74842857Y-114128628D02*
X74461905Y-114128628D01*
X75414286Y-113700057D02*
X75461905Y-113652438D01*
X75461905Y-113652438D02*
X75557143Y-113604819D01*
X75557143Y-113604819D02*
X75795238Y-113604819D01*
X75795238Y-113604819D02*
X75890476Y-113652438D01*
X75890476Y-113652438D02*
X75938095Y-113700057D01*
X75938095Y-113700057D02*
X75985714Y-113795295D01*
X75985714Y-113795295D02*
X75985714Y-113890533D01*
X75985714Y-113890533D02*
X75938095Y-114033390D01*
X75938095Y-114033390D02*
X75366667Y-114604819D01*
X75366667Y-114604819D02*
X75985714Y-114604819D01*
X163344819Y-124753904D02*
X164154342Y-124753904D01*
X164154342Y-124753904D02*
X164249580Y-124706285D01*
X164249580Y-124706285D02*
X164297200Y-124658666D01*
X164297200Y-124658666D02*
X164344819Y-124563428D01*
X164344819Y-124563428D02*
X164344819Y-124372952D01*
X164344819Y-124372952D02*
X164297200Y-124277714D01*
X164297200Y-124277714D02*
X164249580Y-124230095D01*
X164249580Y-124230095D02*
X164154342Y-124182476D01*
X164154342Y-124182476D02*
X163344819Y-124182476D01*
X163344819Y-123801523D02*
X163344819Y-123182476D01*
X163344819Y-123182476D02*
X163725771Y-123515809D01*
X163725771Y-123515809D02*
X163725771Y-123372952D01*
X163725771Y-123372952D02*
X163773390Y-123277714D01*
X163773390Y-123277714D02*
X163821009Y-123230095D01*
X163821009Y-123230095D02*
X163916247Y-123182476D01*
X163916247Y-123182476D02*
X164154342Y-123182476D01*
X164154342Y-123182476D02*
X164249580Y-123230095D01*
X164249580Y-123230095D02*
X164297200Y-123277714D01*
X164297200Y-123277714D02*
X164344819Y-123372952D01*
X164344819Y-123372952D02*
X164344819Y-123658666D01*
X164344819Y-123658666D02*
X164297200Y-123753904D01*
X164297200Y-123753904D02*
X164249580Y-123801523D01*
X159839619Y-127090799D02*
X160077714Y-127090799D01*
X159982476Y-127328894D02*
X160077714Y-127090799D01*
X160077714Y-127090799D02*
X159982476Y-126852704D01*
X160268190Y-127233656D02*
X160077714Y-127090799D01*
X160077714Y-127090799D02*
X160268190Y-126947942D01*
X109180952Y-132854819D02*
X108847619Y-132378628D01*
X108609524Y-132854819D02*
X108609524Y-131854819D01*
X108609524Y-131854819D02*
X108990476Y-131854819D01*
X108990476Y-131854819D02*
X109085714Y-131902438D01*
X109085714Y-131902438D02*
X109133333Y-131950057D01*
X109133333Y-131950057D02*
X109180952Y-132045295D01*
X109180952Y-132045295D02*
X109180952Y-132188152D01*
X109180952Y-132188152D02*
X109133333Y-132283390D01*
X109133333Y-132283390D02*
X109085714Y-132331009D01*
X109085714Y-132331009D02*
X108990476Y-132378628D01*
X108990476Y-132378628D02*
X108609524Y-132378628D01*
X110038095Y-132854819D02*
X110038095Y-131854819D01*
X110038095Y-132807200D02*
X109942857Y-132854819D01*
X109942857Y-132854819D02*
X109752381Y-132854819D01*
X109752381Y-132854819D02*
X109657143Y-132807200D01*
X109657143Y-132807200D02*
X109609524Y-132759580D01*
X109609524Y-132759580D02*
X109561905Y-132664342D01*
X109561905Y-132664342D02*
X109561905Y-132378628D01*
X109561905Y-132378628D02*
X109609524Y-132283390D01*
X109609524Y-132283390D02*
X109657143Y-132235771D01*
X109657143Y-132235771D02*
X109752381Y-132188152D01*
X109752381Y-132188152D02*
X109942857Y-132188152D01*
X109942857Y-132188152D02*
X110038095Y-132235771D01*
X110561905Y-132854819D02*
X110752381Y-132854819D01*
X110752381Y-132854819D02*
X110847619Y-132807200D01*
X110847619Y-132807200D02*
X110895238Y-132759580D01*
X110895238Y-132759580D02*
X110990476Y-132616723D01*
X110990476Y-132616723D02*
X111038095Y-132426247D01*
X111038095Y-132426247D02*
X111038095Y-132045295D01*
X111038095Y-132045295D02*
X110990476Y-131950057D01*
X110990476Y-131950057D02*
X110942857Y-131902438D01*
X110942857Y-131902438D02*
X110847619Y-131854819D01*
X110847619Y-131854819D02*
X110657143Y-131854819D01*
X110657143Y-131854819D02*
X110561905Y-131902438D01*
X110561905Y-131902438D02*
X110514286Y-131950057D01*
X110514286Y-131950057D02*
X110466667Y-132045295D01*
X110466667Y-132045295D02*
X110466667Y-132283390D01*
X110466667Y-132283390D02*
X110514286Y-132378628D01*
X110514286Y-132378628D02*
X110561905Y-132426247D01*
X110561905Y-132426247D02*
X110657143Y-132473866D01*
X110657143Y-132473866D02*
X110847619Y-132473866D01*
X110847619Y-132473866D02*
X110942857Y-132426247D01*
X110942857Y-132426247D02*
X110990476Y-132378628D01*
X110990476Y-132378628D02*
X111038095Y-132283390D01*
X90266571Y-131059580D02*
X90218952Y-131107200D01*
X90218952Y-131107200D02*
X90076095Y-131154819D01*
X90076095Y-131154819D02*
X89980857Y-131154819D01*
X89980857Y-131154819D02*
X89838000Y-131107200D01*
X89838000Y-131107200D02*
X89742762Y-131011961D01*
X89742762Y-131011961D02*
X89695143Y-130916723D01*
X89695143Y-130916723D02*
X89647524Y-130726247D01*
X89647524Y-130726247D02*
X89647524Y-130583390D01*
X89647524Y-130583390D02*
X89695143Y-130392914D01*
X89695143Y-130392914D02*
X89742762Y-130297676D01*
X89742762Y-130297676D02*
X89838000Y-130202438D01*
X89838000Y-130202438D02*
X89980857Y-130154819D01*
X89980857Y-130154819D02*
X90076095Y-130154819D01*
X90076095Y-130154819D02*
X90218952Y-130202438D01*
X90218952Y-130202438D02*
X90266571Y-130250057D01*
X91171333Y-131154819D02*
X90695143Y-131154819D01*
X90695143Y-131154819D02*
X90695143Y-130154819D01*
X92028476Y-131154819D02*
X91457048Y-131154819D01*
X91742762Y-131154819D02*
X91742762Y-130154819D01*
X91742762Y-130154819D02*
X91647524Y-130297676D01*
X91647524Y-130297676D02*
X91552286Y-130392914D01*
X91552286Y-130392914D02*
X91457048Y-130440533D01*
X166554819Y-102304047D02*
X166078628Y-102637380D01*
X166554819Y-102875475D02*
X165554819Y-102875475D01*
X165554819Y-102875475D02*
X165554819Y-102494523D01*
X165554819Y-102494523D02*
X165602438Y-102399285D01*
X165602438Y-102399285D02*
X165650057Y-102351666D01*
X165650057Y-102351666D02*
X165745295Y-102304047D01*
X165745295Y-102304047D02*
X165888152Y-102304047D01*
X165888152Y-102304047D02*
X165983390Y-102351666D01*
X165983390Y-102351666D02*
X166031009Y-102399285D01*
X166031009Y-102399285D02*
X166078628Y-102494523D01*
X166078628Y-102494523D02*
X166078628Y-102875475D01*
X166554819Y-101446904D02*
X165554819Y-101446904D01*
X166507200Y-101446904D02*
X166554819Y-101542142D01*
X166554819Y-101542142D02*
X166554819Y-101732618D01*
X166554819Y-101732618D02*
X166507200Y-101827856D01*
X166507200Y-101827856D02*
X166459580Y-101875475D01*
X166459580Y-101875475D02*
X166364342Y-101923094D01*
X166364342Y-101923094D02*
X166078628Y-101923094D01*
X166078628Y-101923094D02*
X165983390Y-101875475D01*
X165983390Y-101875475D02*
X165935771Y-101827856D01*
X165935771Y-101827856D02*
X165888152Y-101732618D01*
X165888152Y-101732618D02*
X165888152Y-101542142D01*
X165888152Y-101542142D02*
X165935771Y-101446904D01*
X165888152Y-100542142D02*
X166554819Y-100542142D01*
X165507200Y-100780237D02*
X166221485Y-101018332D01*
X166221485Y-101018332D02*
X166221485Y-100399285D01*
X163344819Y-114011904D02*
X164154342Y-114011904D01*
X164154342Y-114011904D02*
X164249580Y-113964285D01*
X164249580Y-113964285D02*
X164297200Y-113916666D01*
X164297200Y-113916666D02*
X164344819Y-113821428D01*
X164344819Y-113821428D02*
X164344819Y-113630952D01*
X164344819Y-113630952D02*
X164297200Y-113535714D01*
X164297200Y-113535714D02*
X164249580Y-113488095D01*
X164249580Y-113488095D02*
X164154342Y-113440476D01*
X164154342Y-113440476D02*
X163344819Y-113440476D01*
X163678152Y-112535714D02*
X164344819Y-112535714D01*
X163297200Y-112773809D02*
X164011485Y-113011904D01*
X164011485Y-113011904D02*
X164011485Y-112392857D01*
X115870476Y-88454819D02*
X115870476Y-87454819D01*
X115870476Y-87454819D02*
X116203809Y-88169104D01*
X116203809Y-88169104D02*
X116537142Y-87454819D01*
X116537142Y-87454819D02*
X116537142Y-88454819D01*
X117537142Y-88454819D02*
X116965714Y-88454819D01*
X117251428Y-88454819D02*
X117251428Y-87454819D01*
X117251428Y-87454819D02*
X117156190Y-87597676D01*
X117156190Y-87597676D02*
X117060952Y-87692914D01*
X117060952Y-87692914D02*
X116965714Y-87740533D01*
X112870000Y-93306819D02*
X112870000Y-93544914D01*
X112631905Y-93449676D02*
X112870000Y-93544914D01*
X112870000Y-93544914D02*
X113108095Y-93449676D01*
X112727143Y-93735390D02*
X112870000Y-93544914D01*
X112870000Y-93544914D02*
X113012857Y-93735390D01*
X242419047Y-179254819D02*
X242419047Y-179969104D01*
X242419047Y-179969104D02*
X242371428Y-180111961D01*
X242371428Y-180111961D02*
X242276190Y-180207200D01*
X242276190Y-180207200D02*
X242133333Y-180254819D01*
X242133333Y-180254819D02*
X242038095Y-180254819D01*
X242657143Y-180350057D02*
X243419047Y-180350057D01*
X243657143Y-180254819D02*
X243657143Y-179254819D01*
X243657143Y-179254819D02*
X243990476Y-179969104D01*
X243990476Y-179969104D02*
X244323809Y-179254819D01*
X244323809Y-179254819D02*
X244323809Y-180254819D01*
X244704762Y-179254819D02*
X245323809Y-179254819D01*
X245323809Y-179254819D02*
X244990476Y-179635771D01*
X244990476Y-179635771D02*
X245133333Y-179635771D01*
X245133333Y-179635771D02*
X245228571Y-179683390D01*
X245228571Y-179683390D02*
X245276190Y-179731009D01*
X245276190Y-179731009D02*
X245323809Y-179826247D01*
X245323809Y-179826247D02*
X245323809Y-180064342D01*
X245323809Y-180064342D02*
X245276190Y-180159580D01*
X245276190Y-180159580D02*
X245228571Y-180207200D01*
X245228571Y-180207200D02*
X245133333Y-180254819D01*
X245133333Y-180254819D02*
X244847619Y-180254819D01*
X244847619Y-180254819D02*
X244752381Y-180207200D01*
X244752381Y-180207200D02*
X244704762Y-180159580D01*
X245752381Y-179873866D02*
X246514286Y-179873866D01*
X247514285Y-180254819D02*
X246942857Y-180254819D01*
X247228571Y-180254819D02*
X247228571Y-179254819D01*
X247228571Y-179254819D02*
X247133333Y-179397676D01*
X247133333Y-179397676D02*
X247038095Y-179492914D01*
X247038095Y-179492914D02*
X246942857Y-179540533D01*
X100609580Y-85790000D02*
X100657200Y-85837619D01*
X100657200Y-85837619D02*
X100704819Y-85980476D01*
X100704819Y-85980476D02*
X100704819Y-86075714D01*
X100704819Y-86075714D02*
X100657200Y-86218571D01*
X100657200Y-86218571D02*
X100561961Y-86313809D01*
X100561961Y-86313809D02*
X100466723Y-86361428D01*
X100466723Y-86361428D02*
X100276247Y-86409047D01*
X100276247Y-86409047D02*
X100133390Y-86409047D01*
X100133390Y-86409047D02*
X99942914Y-86361428D01*
X99942914Y-86361428D02*
X99847676Y-86313809D01*
X99847676Y-86313809D02*
X99752438Y-86218571D01*
X99752438Y-86218571D02*
X99704819Y-86075714D01*
X99704819Y-86075714D02*
X99704819Y-85980476D01*
X99704819Y-85980476D02*
X99752438Y-85837619D01*
X99752438Y-85837619D02*
X99800057Y-85790000D01*
X100038152Y-85361428D02*
X101038152Y-85361428D01*
X100085771Y-85361428D02*
X100038152Y-85266190D01*
X100038152Y-85266190D02*
X100038152Y-85075714D01*
X100038152Y-85075714D02*
X100085771Y-84980476D01*
X100085771Y-84980476D02*
X100133390Y-84932857D01*
X100133390Y-84932857D02*
X100228628Y-84885238D01*
X100228628Y-84885238D02*
X100514342Y-84885238D01*
X100514342Y-84885238D02*
X100609580Y-84932857D01*
X100609580Y-84932857D02*
X100657200Y-84980476D01*
X100657200Y-84980476D02*
X100704819Y-85075714D01*
X100704819Y-85075714D02*
X100704819Y-85266190D01*
X100704819Y-85266190D02*
X100657200Y-85361428D01*
X100038152Y-84551904D02*
X100704819Y-84313809D01*
X100704819Y-84313809D02*
X100038152Y-84075714D01*
X99800057Y-83742380D02*
X99752438Y-83694761D01*
X99752438Y-83694761D02*
X99704819Y-83599523D01*
X99704819Y-83599523D02*
X99704819Y-83361428D01*
X99704819Y-83361428D02*
X99752438Y-83266190D01*
X99752438Y-83266190D02*
X99800057Y-83218571D01*
X99800057Y-83218571D02*
X99895295Y-83170952D01*
X99895295Y-83170952D02*
X99990533Y-83170952D01*
X99990533Y-83170952D02*
X100133390Y-83218571D01*
X100133390Y-83218571D02*
X100704819Y-83789999D01*
X100704819Y-83789999D02*
X100704819Y-83170952D01*
X190238095Y-174144819D02*
X190238095Y-174954342D01*
X190238095Y-174954342D02*
X190285714Y-175049580D01*
X190285714Y-175049580D02*
X190333333Y-175097200D01*
X190333333Y-175097200D02*
X190428571Y-175144819D01*
X190428571Y-175144819D02*
X190619047Y-175144819D01*
X190619047Y-175144819D02*
X190714285Y-175097200D01*
X190714285Y-175097200D02*
X190761904Y-175049580D01*
X190761904Y-175049580D02*
X190809523Y-174954342D01*
X190809523Y-174954342D02*
X190809523Y-174144819D01*
X191714285Y-174144819D02*
X191523809Y-174144819D01*
X191523809Y-174144819D02*
X191428571Y-174192438D01*
X191428571Y-174192438D02*
X191380952Y-174240057D01*
X191380952Y-174240057D02*
X191285714Y-174382914D01*
X191285714Y-174382914D02*
X191238095Y-174573390D01*
X191238095Y-174573390D02*
X191238095Y-174954342D01*
X191238095Y-174954342D02*
X191285714Y-175049580D01*
X191285714Y-175049580D02*
X191333333Y-175097200D01*
X191333333Y-175097200D02*
X191428571Y-175144819D01*
X191428571Y-175144819D02*
X191619047Y-175144819D01*
X191619047Y-175144819D02*
X191714285Y-175097200D01*
X191714285Y-175097200D02*
X191761904Y-175049580D01*
X191761904Y-175049580D02*
X191809523Y-174954342D01*
X191809523Y-174954342D02*
X191809523Y-174716247D01*
X191809523Y-174716247D02*
X191761904Y-174621009D01*
X191761904Y-174621009D02*
X191714285Y-174573390D01*
X191714285Y-174573390D02*
X191619047Y-174525771D01*
X191619047Y-174525771D02*
X191428571Y-174525771D01*
X191428571Y-174525771D02*
X191333333Y-174573390D01*
X191333333Y-174573390D02*
X191285714Y-174621009D01*
X191285714Y-174621009D02*
X191238095Y-174716247D01*
X187190000Y-168823519D02*
X187190000Y-169061614D01*
X186951905Y-168966376D02*
X187190000Y-169061614D01*
X187190000Y-169061614D02*
X187428095Y-168966376D01*
X187047143Y-169252090D02*
X187190000Y-169061614D01*
X187190000Y-169061614D02*
X187332857Y-169252090D01*
D11*
%TO.C,J_PV+1*%
X53829600Y-88442000D02*
X53829600Y-102158000D01*
X53829600Y-102158000D02*
X67545600Y-102158000D01*
X67545600Y-88442000D02*
X53829600Y-88442000D01*
X67545600Y-102158000D02*
X67545600Y-88442000D01*
X52178600Y-95300000D02*
G75*
G02*
X51416600Y-95300000I-381000J0D01*
G01*
X51416600Y-95300000D02*
G75*
G02*
X52178600Y-95300000I381000J0D01*
G01*
%TO.C,J_BAT+1*%
X248454400Y-93242000D02*
X248454400Y-106958000D01*
X248454400Y-106958000D02*
X262170400Y-106958000D01*
X262170400Y-93242000D02*
X248454400Y-93242000D01*
X262170400Y-106958000D02*
X262170400Y-93242000D01*
X264583400Y-100100000D02*
G75*
G02*
X263821400Y-100100000I-381000J0D01*
G01*
X263821400Y-100100000D02*
G75*
G02*
X264583400Y-100100000I381000J0D01*
G01*
%TO.C,U5*%
X168879700Y-172328000D02*
X168879700Y-172632293D01*
X168879700Y-173547707D02*
X168879700Y-173902293D01*
X168879700Y-174817707D02*
X168879700Y-175172293D01*
X168879700Y-176087707D02*
X168879700Y-176442293D01*
X168879700Y-177357707D02*
X168879700Y-177662000D01*
X168879700Y-177662000D02*
X173070700Y-177662000D01*
X173070700Y-172328000D02*
X168879700Y-172328000D01*
X173070700Y-172632293D02*
X173070700Y-172328000D01*
X173070700Y-173902293D02*
X173070700Y-173547707D01*
X173070700Y-175172293D02*
X173070700Y-174817707D01*
X173070700Y-176442293D02*
X173070700Y-176087707D01*
X173070700Y-177662000D02*
X173070700Y-177357707D01*
%TO.C,R1*%
X81823050Y-114975500D02*
X82096950Y-114975500D01*
X82096950Y-113324500D02*
X81823050Y-113324500D01*
%TO.C,D10*%
X116095000Y-97436500D02*
X117295000Y-97436500D01*
X116095000Y-98463500D02*
X117295000Y-98463500D01*
X115235000Y-97950000D02*
G75*
G02*
X115115000Y-97950000I-60000J0D01*
G01*
X115115000Y-97950000D02*
G75*
G02*
X115235000Y-97950000I60000J0D01*
G01*
%TO.C,C2*%
X221350000Y-190200000D02*
X221350000Y-193850000D01*
X221350000Y-190200000D02*
X222500000Y-190200000D01*
X221350000Y-193850000D02*
X222200000Y-194700000D01*
X222200000Y-194700000D02*
X222500000Y-194700000D01*
X225000000Y-194700000D02*
X224700000Y-194700000D01*
X225850000Y-190200000D02*
X224700000Y-190200000D01*
X225850000Y-190200000D02*
X225850000Y-193850000D01*
X225850000Y-193850000D02*
X225000000Y-194700000D01*
%TO.C,J_PV-1*%
X53829600Y-102529600D02*
X53829600Y-116245600D01*
X53829600Y-116245600D02*
X67545600Y-116245600D01*
X67545600Y-102529600D02*
X53829600Y-102529600D01*
X67545600Y-116245600D02*
X67545600Y-102529600D01*
X52178600Y-109387600D02*
G75*
G02*
X51416600Y-109387600I-381000J0D01*
G01*
X51416600Y-109387600D02*
G75*
G02*
X52178600Y-109387600I381000J0D01*
G01*
%TO.C,J_M3+1*%
X248454400Y-158429600D02*
X248454400Y-172145600D01*
X248454400Y-172145600D02*
X262170400Y-172145600D01*
X262170400Y-158429600D02*
X248454400Y-158429600D01*
X262170400Y-172145600D02*
X262170400Y-158429600D01*
X246803400Y-165287600D02*
G75*
G02*
X246041400Y-165287600I-381000J0D01*
G01*
X246041400Y-165287600D02*
G75*
G02*
X246803400Y-165287600I381000J0D01*
G01*
%TO.C,Cd3*%
X105500000Y-114350000D02*
X105500000Y-116650000D01*
%TO.C,D6*%
X163280000Y-97426500D02*
X164480000Y-97426500D01*
X163280000Y-98453500D02*
X164480000Y-98453500D01*
X162420000Y-97940000D02*
G75*
G02*
X162300000Y-97940000I-60000J0D01*
G01*
X162300000Y-97940000D02*
G75*
G02*
X162420000Y-97940000I60000J0D01*
G01*
%TO.C,Cpv1*%
X108470000Y-84790000D02*
X106170000Y-84790000D01*
%TO.C,D9*%
X111460000Y-103430000D02*
X113700000Y-103430000D01*
X111460000Y-103550000D02*
X113700000Y-103550000D01*
X111460000Y-103670000D02*
X113700000Y-103670000D01*
X112580000Y-99380000D02*
X112580000Y-100030000D01*
X112580000Y-104920000D02*
X112580000Y-104270000D01*
X111460000Y-104270000D02*
X113700000Y-104270000D01*
X113700000Y-100030000D01*
X111460000Y-100030000D01*
X111460000Y-104270000D01*
%TO.C,IC1*%
X75708000Y-127553500D02*
X75708000Y-120746500D01*
X81558000Y-120746500D02*
X75708000Y-120746500D01*
X81558000Y-127553500D02*
X75708000Y-127553500D01*
X81558000Y-127553500D02*
X81558000Y-120746500D01*
X81539172Y-118780000D02*
G75*
G02*
X81192828Y-118780000I-173172J0D01*
G01*
X81192828Y-118780000D02*
G75*
G02*
X81539172Y-118780000I173172J0D01*
G01*
%TO.C,L1*%
X127685000Y-58400000D02*
X130435000Y-58400000D01*
X127685000Y-59200000D02*
X127685000Y-58400000D01*
X127685000Y-67800000D02*
X127685000Y-68600000D01*
X127685000Y-68600000D02*
X130435000Y-68600000D01*
X130435000Y-49400000D02*
X134885000Y-49400000D01*
X130435000Y-58400000D02*
X130435000Y-49400000D01*
X130435000Y-68600000D02*
X130435000Y-77600000D01*
X130435000Y-77600000D02*
X134885000Y-77600000D01*
X134885000Y-49400000D02*
X134885000Y-50200000D01*
X134885000Y-50200000D02*
X145685000Y-50200000D01*
X134885000Y-76800000D02*
X145685000Y-76800000D01*
X134885000Y-77600000D02*
X134885000Y-76800000D01*
X145685000Y-49400000D02*
X150135000Y-49400000D01*
X145685000Y-50200000D02*
X145685000Y-49400000D01*
X145685000Y-76800000D02*
X145685000Y-77600000D01*
X145685000Y-77600000D02*
X150135000Y-77600000D01*
X150135000Y-49400000D02*
X150135000Y-58400000D01*
X150135000Y-58400000D02*
X152885000Y-58400000D01*
X150135000Y-68600000D02*
X152885000Y-68600000D01*
X150135000Y-77600000D02*
X150135000Y-68600000D01*
X152885000Y-58400000D02*
X152885000Y-59200000D01*
X152885000Y-68600000D02*
X152885000Y-67800000D01*
X128585000Y-70000000D02*
G75*
G02*
X127985000Y-70000000I-300000J0D01*
G01*
X127985000Y-70000000D02*
G75*
G02*
X128585000Y-70000000I300000J0D01*
G01*
%TO.C,J_VDD1-1*%
X59917200Y-43279600D02*
X59917200Y-56995600D01*
X59917200Y-56995600D02*
X73633200Y-56995600D01*
X73633200Y-43279600D02*
X59917200Y-43279600D01*
X73633200Y-56995600D02*
X73633200Y-43279600D01*
X67156200Y-41247600D02*
G75*
G02*
X66394200Y-41247600I-381000J0D01*
G01*
X66394200Y-41247600D02*
G75*
G02*
X67156200Y-41247600I381000J0D01*
G01*
%TO.C,Cpv3*%
X183200000Y-170219000D02*
X180900000Y-170219000D01*
%TO.C,D1*%
X123830000Y-95200000D02*
X128830000Y-95200000D01*
X128830000Y-92500000D02*
X123455000Y-92500000D01*
%TO.C,Rd7*%
X198230000Y-174760000D02*
X198230000Y-174560000D01*
X199670000Y-174760000D02*
X199670000Y-174560000D01*
%TO.C,L2*%
X204424600Y-186082700D02*
X204424600Y-198833500D01*
X204424600Y-198833500D02*
X207812960Y-198833500D01*
X207812960Y-186082700D02*
X204424600Y-186082700D01*
X213787040Y-198833500D02*
X217175400Y-198833500D01*
X217175400Y-186082700D02*
X213787040Y-186082700D01*
X217175400Y-198833500D02*
X217175400Y-186082700D01*
%TO.C,M2*%
X158429000Y-86854649D02*
X158429000Y-90804000D01*
X158429000Y-90804000D02*
X163267700Y-90804000D01*
X160854700Y-91286600D02*
X160854700Y-91743800D01*
X161845300Y-91286600D02*
X161845300Y-91743800D01*
X163267700Y-90804000D02*
X163267700Y-92582000D01*
X163267700Y-92582000D02*
X164512300Y-92582000D01*
X164512300Y-90804000D02*
X169351000Y-90804000D01*
X164512300Y-92582000D02*
X164512300Y-90804000D01*
X165934700Y-91286600D02*
X165934700Y-91743800D01*
X166925300Y-91286600D02*
X166925300Y-91743800D01*
X169351000Y-90804000D02*
X169351000Y-86854649D01*
%TO.C,J_M1+1*%
X93142000Y-43354400D02*
X93142000Y-57070400D01*
X93142000Y-57070400D02*
X106858000Y-57070400D01*
X106858000Y-43354400D02*
X93142000Y-43354400D01*
X106858000Y-57070400D02*
X106858000Y-43354400D01*
X100381000Y-41322400D02*
G75*
G02*
X99619000Y-41322400I-381000J0D01*
G01*
X99619000Y-41322400D02*
G75*
G02*
X100381000Y-41322400I381000J0D01*
G01*
%TO.C,D5*%
X159060000Y-103430000D02*
X161300000Y-103430000D01*
X159060000Y-103550000D02*
X161300000Y-103550000D01*
X159060000Y-103670000D02*
X161300000Y-103670000D01*
X160180000Y-99380000D02*
X160180000Y-100030000D01*
X160180000Y-104920000D02*
X160180000Y-104270000D01*
X159060000Y-104270000D02*
X161300000Y-104270000D01*
X161300000Y-100030000D01*
X159060000Y-100030000D01*
X159060000Y-104270000D01*
%TO.C,J_M2+1*%
X160479600Y-43354400D02*
X160479600Y-57070400D01*
X160479600Y-57070400D02*
X174195600Y-57070400D01*
X174195600Y-43354400D02*
X160479600Y-43354400D01*
X174195600Y-57070400D02*
X174195600Y-43354400D01*
X167718600Y-41322400D02*
G75*
G02*
X166956600Y-41322400I-381000J0D01*
G01*
X166956600Y-41322400D02*
G75*
G02*
X167718600Y-41322400I381000J0D01*
G01*
%TO.C,D2*%
X164430000Y-75700000D02*
X169805000Y-75700000D01*
X169430000Y-73000000D02*
X164430000Y-73000000D01*
%TO.C,U9*%
X76263100Y-140890147D02*
X76263100Y-143637453D01*
X81266900Y-143637453D02*
X81266900Y-140890147D01*
X81266900Y-142568600D02*
G75*
G02*
X81266900Y-141959000I0J304800D01*
G01*
%TO.C,Rd3*%
X163980000Y-105230000D02*
X163780000Y-105230000D01*
X163980000Y-106670000D02*
X163780000Y-106670000D01*
%TO.C,Rd1*%
X159760000Y-132708000D02*
X159760000Y-132348000D01*
X161200000Y-132708000D02*
X161200000Y-132348000D01*
%TO.C,U1*%
X73870000Y-232810000D02*
X73870000Y-155310000D01*
X75370000Y-153810000D02*
X142370000Y-153810000D01*
X75890000Y-184280000D02*
X75890000Y-232540000D01*
X75890000Y-232540000D02*
X80890000Y-232540000D01*
X80890000Y-184280000D02*
X75890000Y-184280000D01*
X80890000Y-232540000D02*
X80890000Y-184280000D01*
X83490000Y-194190000D02*
X83490000Y-215010000D01*
X83490000Y-215010000D02*
X85990000Y-215010000D01*
X83490000Y-217050000D02*
X83490000Y-232790000D01*
X83490000Y-232790000D02*
X85990000Y-232790000D01*
X84870000Y-234310000D02*
X75370000Y-234310000D01*
X85990000Y-194190000D02*
X83490000Y-194190000D01*
X85990000Y-215010000D02*
X85990000Y-194190000D01*
X85990000Y-217050000D02*
X83490000Y-217050000D01*
X85990000Y-232790000D02*
X85990000Y-217050000D01*
X86870000Y-236310000D02*
X84870000Y-234310000D01*
X119870000Y-236310000D02*
X86870000Y-236310000D01*
X121870000Y-234310000D02*
X119870000Y-236310000D01*
X131750000Y-185050000D02*
X131750000Y-210950000D01*
X131750000Y-210950000D02*
X134250000Y-210950000D01*
X131750000Y-211970000D02*
X131750000Y-232790000D01*
X131750000Y-232790000D02*
X134250000Y-232790000D01*
X134250000Y-185050000D02*
X131750000Y-185050000D01*
X134250000Y-210950000D02*
X134250000Y-185050000D01*
X134250000Y-211970000D02*
X131750000Y-211970000D01*
X134250000Y-232790000D02*
X134250000Y-211970000D01*
X136850000Y-184280000D02*
X136850000Y-232540000D01*
X136850000Y-232540000D02*
X141850000Y-232540000D01*
X141850000Y-184280000D02*
X136850000Y-184280000D01*
X141850000Y-232540000D02*
X141850000Y-184280000D01*
X142370000Y-234310000D02*
X121870000Y-234310000D01*
X143870000Y-155310000D02*
X143870000Y-232810000D01*
X73870000Y-155310000D02*
G75*
G02*
X75370000Y-153810000I1500001J-1D01*
G01*
X75370000Y-234310000D02*
G75*
G02*
X73870000Y-232810000I1J1500001D01*
G01*
X142370000Y-153810000D02*
G75*
G02*
X143870000Y-155310000I0J-1500000D01*
G01*
X143870000Y-232810000D02*
G75*
G02*
X142370000Y-234310000I-1500000J0D01*
G01*
X75470000Y-185550000D02*
G75*
G02*
X75270000Y-185550000I-100000J0D01*
G01*
X75270000Y-185550000D02*
G75*
G02*
X75470000Y-185550000I100000J0D01*
G01*
X83090000Y-195710000D02*
G75*
G02*
X82890000Y-195710000I-100000J0D01*
G01*
X82890000Y-195710000D02*
G75*
G02*
X83090000Y-195710000I100000J0D01*
G01*
X83090000Y-218570000D02*
G75*
G02*
X82890000Y-218570000I-100000J0D01*
G01*
X82890000Y-218570000D02*
G75*
G02*
X83090000Y-218570000I100000J0D01*
G01*
X134850000Y-209430000D02*
G75*
G02*
X134650000Y-209430000I-100000J0D01*
G01*
X134650000Y-209430000D02*
G75*
G02*
X134850000Y-209430000I100000J0D01*
G01*
X134850000Y-231270000D02*
G75*
G02*
X134650000Y-231270000I-100000J0D01*
G01*
X134650000Y-231270000D02*
G75*
G02*
X134850000Y-231270000I100000J0D01*
G01*
X136430000Y-185550000D02*
G75*
G02*
X136230000Y-185550000I-100000J0D01*
G01*
X136230000Y-185550000D02*
G75*
G02*
X136430000Y-185550000I100000J0D01*
G01*
%TO.C,Rd6*%
X162497400Y-175102800D02*
X162497400Y-175442800D01*
X163857400Y-175102800D02*
X163857400Y-175442800D01*
%TO.C,R6*%
X83030000Y-142592000D02*
X83030000Y-142952000D01*
X84470000Y-142592000D02*
X84470000Y-142952000D01*
%TO.C,J_VDD1+1*%
X74129600Y-43279600D02*
X74129600Y-56995600D01*
X74129600Y-56995600D02*
X87845600Y-56995600D01*
X87845600Y-43279600D02*
X74129600Y-43279600D01*
X87845600Y-56995600D02*
X87845600Y-43279600D01*
X81368600Y-41247600D02*
G75*
G02*
X80606600Y-41247600I-381000J0D01*
G01*
X80606600Y-41247600D02*
G75*
G02*
X81368600Y-41247600I381000J0D01*
G01*
%TO.C,D8*%
X206346500Y-174210000D02*
X206346500Y-175410000D01*
X207373500Y-174210000D02*
X207373500Y-175410000D01*
X206920000Y-173290000D02*
G75*
G02*
X206800000Y-173290000I-60000J0D01*
G01*
X206800000Y-173290000D02*
G75*
G02*
X206920000Y-173290000I60000J0D01*
G01*
%TO.C,U7*%
X113508000Y-121896500D02*
X113508000Y-126087500D01*
X113508000Y-126087500D02*
X113812293Y-126087500D01*
X113812293Y-121896500D02*
X113508000Y-121896500D01*
X114727707Y-126087500D02*
X115082293Y-126087500D01*
X115082293Y-121896500D02*
X114727707Y-121896500D01*
X115997707Y-126087500D02*
X116352293Y-126087500D01*
X116352293Y-121896500D02*
X115997707Y-121896500D01*
X117267707Y-126087500D02*
X117622293Y-126087500D01*
X117622293Y-121896500D02*
X117267707Y-121896500D01*
X118537707Y-126087500D02*
X118842000Y-126087500D01*
X118842000Y-121896500D02*
X118537707Y-121896500D01*
X118842000Y-126087500D02*
X118842000Y-121896500D01*
%TO.C,D4*%
X217750000Y-184100000D02*
X222750000Y-184100000D01*
X222750000Y-181400000D02*
X217375000Y-181400000D01*
%TO.C,Rd11*%
X116680000Y-104930000D02*
X116480000Y-104930000D01*
X116680000Y-106370000D02*
X116480000Y-106370000D01*
%TO.C,D7*%
X199980000Y-171160000D02*
X200630000Y-171160000D01*
X201230000Y-170040000D02*
X201230000Y-172280000D01*
X201350000Y-170040000D02*
X201350000Y-172280000D01*
X201470000Y-170040000D02*
X201470000Y-172280000D01*
X205520000Y-171160000D02*
X204870000Y-171160000D01*
X200630000Y-170040000D02*
X204870000Y-170040000D01*
X204870000Y-172280000D01*
X200630000Y-172280000D01*
X200630000Y-170040000D01*
%TO.C,Cd1*%
X153710000Y-113350000D02*
X153710000Y-115650000D01*
%TO.C,U8*%
X111078000Y-109567000D02*
X111078000Y-116933000D01*
X111078000Y-116933000D02*
X111392960Y-116933000D01*
X111400439Y-109567000D02*
X111078000Y-109567000D01*
X113557040Y-116933000D02*
X113940439Y-116933000D01*
X113940439Y-109567000D02*
X113549561Y-109567000D01*
X116089561Y-116933000D02*
X116480439Y-116933000D01*
X116480439Y-109567000D02*
X116089561Y-109567000D01*
X118629561Y-116933000D02*
X119020439Y-116933000D01*
X119020439Y-109567000D02*
X118629561Y-109567000D01*
X121169561Y-116933000D02*
X121492000Y-116933000D01*
X121492000Y-109567000D02*
X121169561Y-109567000D01*
X121492000Y-116933000D02*
X121492000Y-109567000D01*
%TO.C,R3*%
X79546000Y-135592000D02*
X79546000Y-135952000D01*
X80986000Y-135592000D02*
X80986000Y-135952000D01*
%TO.C,Rd10*%
X115955000Y-131070000D02*
X116295000Y-131070000D01*
X115955000Y-132430000D02*
X116295000Y-132430000D01*
%TO.C,J_BAT-1*%
X248454400Y-79042000D02*
X248454400Y-92758000D01*
X248454400Y-92758000D02*
X262170400Y-92758000D01*
X262170400Y-79042000D02*
X248454400Y-79042000D01*
X262170400Y-92758000D02*
X262170400Y-79042000D01*
X264583400Y-85900000D02*
G75*
G02*
X263821400Y-85900000I-381000J0D01*
G01*
X263821400Y-85900000D02*
G75*
G02*
X264583400Y-85900000I381000J0D01*
G01*
%TO.C,M3*%
X212218000Y-174037700D02*
X212218000Y-175282300D01*
X212218000Y-175282300D02*
X213996000Y-175282300D01*
X213513400Y-171624700D02*
X213056200Y-171624700D01*
X213513400Y-172615300D02*
X213056200Y-172615300D01*
X213513400Y-176704700D02*
X213056200Y-176704700D01*
X213513400Y-177695300D02*
X213056200Y-177695300D01*
X213996000Y-169199000D02*
X213996000Y-174037700D01*
X213996000Y-174037700D02*
X212218000Y-174037700D01*
X213996000Y-175282300D02*
X213996000Y-180121000D01*
X213996000Y-180121000D02*
X217945351Y-180121000D01*
X217945351Y-169199000D02*
X213996000Y-169199000D01*
%TO.C,U2*%
X89378000Y-121890000D02*
X89473000Y-121890000D01*
X89378000Y-126010000D02*
X89378000Y-121890000D01*
X89473000Y-126010000D02*
X89378000Y-126010000D01*
X94403000Y-121890000D02*
X94498000Y-121890000D01*
X94498000Y-121890000D02*
X94498000Y-126010000D01*
X94498000Y-126010000D02*
X94403000Y-126010000D01*
X94738000Y-121590000D02*
X94408000Y-121350000D01*
X94738000Y-121110000D01*
X94738000Y-121590000D01*
G36*
X94738000Y-121590000D02*
G01*
X94408000Y-121350000D01*
X94738000Y-121110000D01*
X94738000Y-121590000D01*
G37*
%TO.C,D3*%
X174180000Y-75700000D02*
X179555000Y-75700000D01*
X179180000Y-73000000D02*
X174180000Y-73000000D01*
%TO.C,J_M2-1*%
X174792000Y-43354400D02*
X174792000Y-57070400D01*
X174792000Y-57070400D02*
X188508000Y-57070400D01*
X188508000Y-43354400D02*
X174792000Y-43354400D01*
X188508000Y-57070400D02*
X188508000Y-43354400D01*
X182031000Y-41322400D02*
G75*
G02*
X181269000Y-41322400I-381000J0D01*
G01*
X181269000Y-41322400D02*
G75*
G02*
X182031000Y-41322400I381000J0D01*
G01*
%TO.C,C1*%
X172200000Y-83200000D02*
X172200000Y-88150000D01*
X178800000Y-80150000D02*
X178800000Y-88150000D01*
%TO.C,J_Pump+1*%
X248454400Y-205829600D02*
X248454400Y-219545600D01*
X248454400Y-219545600D02*
X262170400Y-219545600D01*
X262170400Y-205829600D02*
X248454400Y-205829600D01*
X262170400Y-219545600D02*
X262170400Y-205829600D01*
X264583400Y-212687600D02*
G75*
G02*
X263821400Y-212687600I-381000J0D01*
G01*
X263821400Y-212687600D02*
G75*
G02*
X264583400Y-212687600I381000J0D01*
G01*
%TO.C,Rd2*%
X163720000Y-131070000D02*
X164060000Y-131070000D01*
X163720000Y-132430000D02*
X164060000Y-132430000D01*
%TO.C,Rd5*%
X157785200Y-174652800D02*
X158145200Y-174652800D01*
X157785200Y-176092800D02*
X158145200Y-176092800D01*
%TO.C,Rd12*%
X115300000Y-101770000D02*
X115300000Y-101530000D01*
X116700000Y-101770000D02*
X116700000Y-101530000D01*
%TO.C,Rd8*%
X202945000Y-173300000D02*
X203185000Y-173300000D01*
X202945000Y-174700000D02*
X203185000Y-174700000D01*
%TO.C,J_M1-1*%
X107342000Y-43354400D02*
X107342000Y-57070400D01*
X107342000Y-57070400D02*
X121058000Y-57070400D01*
X121058000Y-43354400D02*
X107342000Y-43354400D01*
X121058000Y-57070400D02*
X121058000Y-43354400D01*
X114581000Y-41322400D02*
G75*
G02*
X113819000Y-41322400I-381000J0D01*
G01*
X113819000Y-41322400D02*
G75*
G02*
X114581000Y-41322400I381000J0D01*
G01*
%TO.C,R5*%
X73658000Y-136530000D02*
X73298000Y-136530000D01*
X73658000Y-137970000D02*
X73298000Y-137970000D01*
%TO.C,R4*%
X76530000Y-135592000D02*
X76530000Y-135952000D01*
X77970000Y-135592000D02*
X77970000Y-135952000D01*
%TO.C,J_Pump-1*%
X248454400Y-191729600D02*
X248454400Y-205445600D01*
X248454400Y-205445600D02*
X262170400Y-205445600D01*
X262170400Y-191729600D02*
X248454400Y-191729600D01*
X262170400Y-205445600D02*
X262170400Y-191729600D01*
X264583400Y-198587600D02*
G75*
G02*
X263821400Y-198587600I-381000J0D01*
G01*
X263821400Y-198587600D02*
G75*
G02*
X264583400Y-198587600I381000J0D01*
G01*
%TO.C,R2*%
X78096000Y-113430000D02*
X77736000Y-113430000D01*
X78096000Y-114870000D02*
X77736000Y-114870000D01*
%TO.C,U3*%
X161223000Y-121896500D02*
X161223000Y-126087500D01*
X161223000Y-126087500D02*
X161527293Y-126087500D01*
X161527293Y-121896500D02*
X161223000Y-121896500D01*
X162442707Y-126087500D02*
X162797293Y-126087500D01*
X162797293Y-121896500D02*
X162442707Y-121896500D01*
X163712707Y-126087500D02*
X164067293Y-126087500D01*
X164067293Y-121896500D02*
X163712707Y-121896500D01*
X164982707Y-126087500D02*
X165337293Y-126087500D01*
X165337293Y-121896500D02*
X164982707Y-121896500D01*
X166252707Y-126087500D02*
X166557000Y-126087500D01*
X166557000Y-121896500D02*
X166252707Y-121896500D01*
X166557000Y-126087500D02*
X166557000Y-121896500D01*
%TO.C,Rd9*%
X111860000Y-132552000D02*
X111860000Y-132192000D01*
X113300000Y-132552000D02*
X113300000Y-132192000D01*
%TO.C,Rd4*%
X162300000Y-101685000D02*
X162300000Y-101445000D01*
X163700000Y-101685000D02*
X163700000Y-101445000D01*
%TO.C,U4*%
X158683000Y-109567000D02*
X158683000Y-116933000D01*
X158683000Y-116933000D02*
X158997960Y-116933000D01*
X159005439Y-109567000D02*
X158683000Y-109567000D01*
X161162040Y-116933000D02*
X161545439Y-116933000D01*
X161545439Y-109567000D02*
X161154561Y-109567000D01*
X163694561Y-116933000D02*
X164085439Y-116933000D01*
X164085439Y-109567000D02*
X163694561Y-109567000D01*
X166234561Y-116933000D02*
X166625439Y-116933000D01*
X166625439Y-109567000D02*
X166234561Y-109567000D01*
X168774561Y-116933000D02*
X169097000Y-116933000D01*
X169097000Y-109567000D02*
X168774561Y-109567000D01*
X169097000Y-116933000D02*
X169097000Y-109567000D01*
%TO.C,M1*%
X111219000Y-86854649D02*
X111219000Y-90804000D01*
X111219000Y-90804000D02*
X116057700Y-90804000D01*
X113644700Y-91286600D02*
X113644700Y-91743800D01*
X114635300Y-91286600D02*
X114635300Y-91743800D01*
X116057700Y-90804000D02*
X116057700Y-92582000D01*
X116057700Y-92582000D02*
X117302300Y-92582000D01*
X117302300Y-90804000D02*
X122141000Y-90804000D01*
X117302300Y-92582000D02*
X117302300Y-90804000D01*
X118724700Y-91286600D02*
X118724700Y-91743800D01*
X119715300Y-91286600D02*
X119715300Y-91743800D01*
X122141000Y-90804000D02*
X122141000Y-86854649D01*
%TO.C,J_M3-1*%
X248454400Y-176029600D02*
X248454400Y-189745600D01*
X248454400Y-189745600D02*
X262170400Y-189745600D01*
X262170400Y-176029600D02*
X248454400Y-176029600D01*
X262170400Y-189745600D02*
X262170400Y-176029600D01*
X246803400Y-182887600D02*
G75*
G02*
X246041400Y-182887600I-381000J0D01*
G01*
X246041400Y-182887600D02*
G75*
G02*
X246803400Y-182887600I381000J0D01*
G01*
%TO.C,Cpv2*%
X104300000Y-84790000D02*
X102000000Y-84790000D01*
%TO.C,U6*%
X187317000Y-169483000D02*
X187317000Y-169797960D01*
X187317000Y-171962040D02*
X187317000Y-172345439D01*
X187317000Y-174494561D02*
X187317000Y-174885439D01*
X187317000Y-177034561D02*
X187317000Y-177425439D01*
X187317000Y-179574561D02*
X187317000Y-179897000D01*
X187317000Y-179897000D02*
X194683000Y-179897000D01*
X194683000Y-169483000D02*
X187317000Y-169483000D01*
X194683000Y-169805439D02*
X194683000Y-169483000D01*
X194683000Y-172345439D02*
X194683000Y-171954561D01*
X194683000Y-174885439D02*
X194683000Y-174494561D01*
X194683000Y-177425439D02*
X194683000Y-177034561D01*
X194683000Y-179897000D02*
X194683000Y-179574561D01*
%TD*%
M02*
