%TF.GenerationSoftware,KiCad,Pcbnew,9.0.7*%
%TF.CreationDate,2026-03-21T02:29:11+11:00*%
%TF.ProjectId,SolarSystem,536f6c61-7253-4797-9374-656d2e6b6963,0*%
%TF.SameCoordinates,Original*%
%TF.FileFunction,Soldermask,Top*%
%TF.FilePolarity,Negative*%
%FSLAX46Y46*%
G04 Gerber Fmt 4.6, Leading zero omitted, Abs format (unit mm)*
G04 Created by KiCad (PCBNEW 9.0.7) date 2026-03-21 02:29:11*
%MOMM*%
%LPD*%
G01*
G04 APERTURE LIST*
G04 Aperture macros list*
%AMRoundRect*
0 Rectangle with rounded corners*
0 $1 Rounding radius*
0 $2 $3 $4 $5 $6 $7 $8 $9 X,Y pos of 4 corners*
0 Add a 4 corners polygon primitive as box body*
4,1,4,$2,$3,$4,$5,$6,$7,$8,$9,$2,$3,0*
0 Add four circle primitives for the rounded corners*
1,1,$1+$1,$2,$3*
1,1,$1+$1,$4,$5*
1,1,$1+$1,$6,$7*
1,1,$1+$1,$8,$9*
0 Add four rect primitives between the rounded corners*
20,1,$1+$1,$2,$3,$4,$5,0*
20,1,$1+$1,$4,$5,$6,$7,0*
20,1,$1+$1,$6,$7,$8,$9,0*
20,1,$1+$1,$8,$9,$2,$3,0*%
G04 Aperture macros list end*
%ADD10C,2.209800*%
%ADD11R,1.016000X0.457200*%
%ADD12R,0.965200X1.397000*%
%ADD13RoundRect,0.102000X-0.380000X-0.200000X0.380000X-0.200000X0.380000X0.200000X-0.380000X0.200000X0*%
%ADD14RoundRect,0.102000X-0.800000X1.300000X-0.800000X-1.300000X0.800000X-1.300000X0.800000X1.300000X0*%
%ADD15C,3.200000*%
%ADD16R,1.430000X2.820000*%
%ADD17R,2.820000X1.430000*%
%ADD18RoundRect,0.250000X0.550000X-0.550000X0.550000X0.550000X-0.550000X0.550000X-0.550000X-0.550000X0*%
%ADD19C,1.600000*%
%ADD20R,0.460000X0.420000*%
%ADD21O,0.804000X2.004000*%
%ADD22RoundRect,0.102000X4.250000X-4.000000X4.250000X4.000000X-4.250000X4.000000X-4.250000X-4.000000X0*%
%ADD23RoundRect,0.102000X0.300000X-0.270000X0.300000X0.270000X-0.300000X0.270000X-0.300000X-0.270000X0*%
%ADD24R,2.000000X1.550000*%
%ADD25RoundRect,0.102000X0.735000X-0.520000X0.735000X0.520000X-0.735000X0.520000X-0.735000X-0.520000X0*%
%ADD26R,5.308600X2.794000*%
%ADD27R,1.041400X3.505200*%
%ADD28R,10.718800X7.696200*%
%ADD29R,0.558800X1.981200*%
%ADD30RoundRect,0.102000X0.520000X0.735000X-0.520000X0.735000X-0.520000X-0.735000X0.520000X-0.735000X0*%
%ADD31RoundRect,0.102000X0.735000X-0.480000X0.735000X0.480000X-0.735000X0.480000X-0.735000X-0.480000X0*%
%ADD32C,3.000000*%
%ADD33RoundRect,0.102000X-0.802500X-0.802500X0.802500X-0.802500X0.802500X0.802500X-0.802500X0.802500X0*%
%ADD34C,1.809000*%
%ADD35RoundRect,0.102000X-0.765000X-0.765000X0.765000X-0.765000X0.765000X0.765000X-0.765000X0.765000X0*%
%ADD36C,1.734000*%
%ADD37RoundRect,0.102000X-0.690000X0.460000X-0.690000X-0.460000X0.690000X-0.460000X0.690000X0.460000X0*%
%ADD38RoundRect,0.102000X-0.735000X0.480000X-0.735000X-0.480000X0.735000X-0.480000X0.735000X0.480000X0*%
%ADD39RoundRect,0.102000X-0.200000X0.380000X-0.200000X-0.380000X0.200000X-0.380000X0.200000X0.380000X0*%
%ADD40R,0.457200X1.016000*%
%ADD41RoundRect,0.250000X-0.550000X-0.550000X0.550000X-0.550000X0.550000X0.550000X-0.550000X0.550000X0*%
%ADD42R,1.498600X1.498600*%
%ADD43C,1.498600*%
%ADD44R,0.800000X0.940000*%
%ADD45RoundRect,0.102000X-0.460000X-0.690000X0.460000X-0.690000X0.460000X0.690000X-0.460000X0.690000X0*%
%ADD46R,3.505200X1.041400*%
%ADD47R,7.696200X10.718800*%
%ADD48RoundRect,0.150000X-0.150000X0.825000X-0.150000X-0.825000X0.150000X-0.825000X0.150000X0.825000X0*%
%ADD49R,0.420000X0.460000*%
%ADD50R,1.800000X3.400000*%
%ADD51RoundRect,0.102000X-0.480000X-0.735000X0.480000X-0.735000X0.480000X0.735000X-0.480000X0.735000X0*%
%ADD52RoundRect,0.102000X0.710000X-0.500000X0.710000X0.500000X-0.710000X0.500000X-0.710000X-0.500000X0*%
%ADD53RoundRect,0.102000X-0.500000X-0.710000X0.500000X-0.710000X0.500000X0.710000X-0.500000X0.710000X0*%
%ADD54R,0.940000X0.800000*%
%ADD55RoundRect,0.102000X0.480000X0.735000X-0.480000X0.735000X-0.480000X-0.735000X0.480000X-0.735000X0*%
%ADD56RoundRect,0.102000X0.270000X0.300000X-0.270000X0.300000X-0.270000X-0.300000X0.270000X-0.300000X0*%
G04 APERTURE END LIST*
D10*
%TO.C,J_PV+1*%
X58300000Y-95300000D03*
X63075200Y-95300000D03*
X60687600Y-92912400D03*
X60687600Y-97687600D03*
%TD*%
%TO.C,J_BAT+1*%
X257700000Y-100100000D03*
X252924800Y-100100000D03*
X255312400Y-102487600D03*
X255312400Y-97712400D03*
%TD*%
D11*
%TO.C,U5*%
X168130400Y-173090000D03*
X168130400Y-174360000D03*
X168130400Y-175630000D03*
X168130400Y-176900000D03*
X173820000Y-176900000D03*
X173820000Y-175630000D03*
X173820000Y-174360000D03*
X173820000Y-173090000D03*
%TD*%
D12*
%TO.C,R1*%
X82887100Y-114150000D03*
X81032900Y-114150000D03*
%TD*%
D13*
%TO.C,D10*%
X116010000Y-97950000D03*
X117380000Y-97950000D03*
%TD*%
D14*
%TO.C,C2*%
X223600000Y-194250000D03*
X223600000Y-190650000D03*
%TD*%
D15*
%TO.C,REF\u002A\u002A*%
X261100000Y-235900000D03*
%TD*%
D10*
%TO.C,J_PV-1*%
X58300000Y-109387600D03*
X63075200Y-109387600D03*
X60687600Y-107000000D03*
X60687600Y-111775200D03*
%TD*%
%TO.C,J_M3+1*%
X252924800Y-165287600D03*
X257700000Y-165287600D03*
X255312400Y-162900000D03*
X255312400Y-167675200D03*
%TD*%
D16*
%TO.C,Cd3*%
X104210000Y-115500000D03*
X106790000Y-115500000D03*
%TD*%
D13*
%TO.C,D6*%
X163195000Y-97940000D03*
X164565000Y-97940000D03*
%TD*%
D17*
%TO.C,Cpv1*%
X107320000Y-83500000D03*
X107320000Y-86080000D03*
%TD*%
D18*
%TO.C,D9*%
X112580000Y-105960000D03*
D19*
X112580000Y-98340000D03*
%TD*%
D20*
%TO.C,Cd4*%
X105260000Y-112500000D03*
X105920000Y-112500000D03*
%TD*%
D21*
%TO.C,IC1*%
X80538000Y-118800000D03*
X79268000Y-118800000D03*
X77998000Y-118800000D03*
X76728000Y-118800000D03*
X76728000Y-129500000D03*
X77998000Y-129500000D03*
X79268000Y-129500000D03*
X80538000Y-129500000D03*
%TD*%
D22*
%TO.C,L1*%
X131785000Y-63500000D03*
X148785000Y-63500000D03*
%TD*%
D10*
%TO.C,J_VDD1-1*%
X66775200Y-47750000D03*
X66775200Y-52525200D03*
X69162800Y-50137600D03*
X64387600Y-50137600D03*
%TD*%
D20*
%TO.C,Cvs1*%
X79052000Y-116550000D03*
X78392000Y-116550000D03*
%TD*%
D17*
%TO.C,Cpv3*%
X182050000Y-168929000D03*
X182050000Y-171509000D03*
%TD*%
D23*
%TO.C,C_opamp1*%
X74500000Y-144864000D03*
X74500000Y-144000000D03*
%TD*%
D24*
%TO.C,D1*%
X124230000Y-93850000D03*
X128430000Y-93850000D03*
%TD*%
D25*
%TO.C,Rd7*%
X198950000Y-175600000D03*
X198950000Y-173720000D03*
%TD*%
D26*
%TO.C,L2*%
X210800000Y-187416200D03*
X210800000Y-197500000D03*
%TD*%
D27*
%TO.C,M2*%
X161350000Y-93852000D03*
D28*
X163890000Y-82689700D03*
D27*
X166430000Y-93852000D03*
%TD*%
D10*
%TO.C,J_M1+1*%
X100000000Y-47824800D03*
X100000000Y-52600000D03*
X102387600Y-50212400D03*
X97612400Y-50212400D03*
%TD*%
D18*
%TO.C,D5*%
X160180000Y-105960000D03*
D19*
X160180000Y-98340000D03*
%TD*%
D10*
%TO.C,J_M2+1*%
X167337600Y-47824800D03*
X167337600Y-52600000D03*
X169725200Y-50212400D03*
X164950000Y-50212400D03*
%TD*%
D24*
%TO.C,D2*%
X169030000Y-74350000D03*
X164830000Y-74350000D03*
%TD*%
D29*
%TO.C,U9*%
X80670000Y-139800000D03*
X79400000Y-139800000D03*
X78130000Y-139800000D03*
X76860000Y-139800000D03*
X76860000Y-144727600D03*
X78130000Y-144727600D03*
X79400000Y-144727600D03*
X80670000Y-144727600D03*
%TD*%
D30*
%TO.C,Rd3*%
X164820000Y-105950000D03*
X162940000Y-105950000D03*
%TD*%
D31*
%TO.C,Rd1*%
X160480000Y-133506000D03*
X160480000Y-131550000D03*
%TD*%
D32*
%TO.C,U1*%
X84740000Y-181740000D03*
X117760000Y-233810000D03*
X133000000Y-183010000D03*
D33*
X133000000Y-209430000D03*
D34*
X133000000Y-206890000D03*
X133000000Y-204350000D03*
X133000000Y-201810000D03*
X133000000Y-199270000D03*
X133000000Y-196730000D03*
X133000000Y-194190000D03*
X133000000Y-191650000D03*
X133000000Y-189110000D03*
X133000000Y-186570000D03*
D33*
X84740000Y-195710000D03*
D34*
X84740000Y-198250000D03*
X84740000Y-200790000D03*
X84740000Y-203330000D03*
X84740000Y-205870000D03*
X84740000Y-208410000D03*
X84740000Y-210950000D03*
X84740000Y-213490000D03*
D35*
X77120000Y-185550000D03*
D36*
X79660000Y-185550000D03*
X77120000Y-188090000D03*
X79660000Y-188090000D03*
X77120000Y-190630000D03*
X79660000Y-190630000D03*
X77120000Y-193170000D03*
X79660000Y-193170000D03*
X77120000Y-195710000D03*
X79660000Y-195710000D03*
X77120000Y-198250000D03*
X79660000Y-198250000D03*
X77120000Y-200790000D03*
X79660000Y-200790000D03*
X77120000Y-203330000D03*
X79660000Y-203330000D03*
X77120000Y-205870000D03*
X79660000Y-205870000D03*
X77120000Y-208410000D03*
X79660000Y-208410000D03*
X77120000Y-210950000D03*
X79660000Y-210950000D03*
X77120000Y-213490000D03*
X79660000Y-213490000D03*
X77120000Y-216030000D03*
X79660000Y-216030000D03*
X77120000Y-218570000D03*
X79660000Y-218570000D03*
X77120000Y-221110000D03*
X79660000Y-221110000D03*
X77120000Y-223650000D03*
X79660000Y-223650000D03*
X77120000Y-226190000D03*
X79660000Y-226190000D03*
X77120000Y-228730000D03*
X79660000Y-228730000D03*
X77120000Y-231270000D03*
X79660000Y-231270000D03*
D33*
X84740000Y-218570000D03*
D34*
X84740000Y-221110000D03*
X84740000Y-223650000D03*
X84740000Y-226190000D03*
X84740000Y-228730000D03*
X84740000Y-231270000D03*
D33*
X133000000Y-231270000D03*
D34*
X133000000Y-228730000D03*
X133000000Y-226190000D03*
X133000000Y-223650000D03*
X133000000Y-221110000D03*
X133000000Y-218570000D03*
X133000000Y-216030000D03*
X133000000Y-213490000D03*
D35*
X138080000Y-185550000D03*
D36*
X140620000Y-185550000D03*
X138080000Y-188090000D03*
X140620000Y-188090000D03*
X138080000Y-190630000D03*
X140620000Y-190630000D03*
X138080000Y-193170000D03*
X140620000Y-193170000D03*
X138080000Y-195710000D03*
X140620000Y-195710000D03*
X138080000Y-198250000D03*
X140620000Y-198250000D03*
X138080000Y-200790000D03*
X140620000Y-200790000D03*
X138080000Y-203330000D03*
X140620000Y-203330000D03*
X138080000Y-205870000D03*
X140620000Y-205870000D03*
X138080000Y-208410000D03*
X140620000Y-208410000D03*
X138080000Y-210950000D03*
X140620000Y-210950000D03*
X138080000Y-213490000D03*
X140620000Y-213490000D03*
X138080000Y-216030000D03*
X140620000Y-216030000D03*
X138080000Y-218570000D03*
X140620000Y-218570000D03*
X138080000Y-221110000D03*
X140620000Y-221110000D03*
X138080000Y-223650000D03*
X140620000Y-223650000D03*
X138080000Y-226190000D03*
X140620000Y-226190000D03*
X138080000Y-228730000D03*
X140620000Y-228730000D03*
X138080000Y-231270000D03*
X140620000Y-231270000D03*
%TD*%
D37*
%TO.C,Rd6*%
X163177400Y-174317800D03*
X163177400Y-176227800D03*
%TD*%
D20*
%TO.C,Cb1*%
X124170000Y-87500000D03*
X124830000Y-87500000D03*
%TD*%
%TO.C,Cvs4*%
X74549000Y-135250000D03*
X73889000Y-135250000D03*
%TD*%
D38*
%TO.C,R6*%
X83750000Y-141794000D03*
X83750000Y-143750000D03*
%TD*%
D10*
%TO.C,J_VDD1+1*%
X80987600Y-47750000D03*
X80987600Y-52525200D03*
X83375200Y-50137600D03*
X78600000Y-50137600D03*
%TD*%
D39*
%TO.C,D8*%
X206860000Y-174125000D03*
X206860000Y-175495000D03*
%TD*%
D40*
%TO.C,U7*%
X114270000Y-126836800D03*
X115540000Y-126836800D03*
X116810000Y-126836800D03*
X118080000Y-126836800D03*
X118080000Y-121147200D03*
X116810000Y-121147200D03*
X115540000Y-121147200D03*
X114270000Y-121147200D03*
%TD*%
D24*
%TO.C,D4*%
X218150000Y-182750000D03*
X222350000Y-182750000D03*
%TD*%
D30*
%TO.C,Rd11*%
X117520000Y-105650000D03*
X115640000Y-105650000D03*
%TD*%
D41*
%TO.C,D7*%
X198940000Y-171160000D03*
D19*
X206560000Y-171160000D03*
%TD*%
D16*
%TO.C,Cd1*%
X152420000Y-114500000D03*
X155000000Y-114500000D03*
%TD*%
D42*
%TO.C,U8*%
X112475000Y-117060000D03*
D43*
X115015000Y-117060000D03*
X117555000Y-117060000D03*
X120095000Y-117060000D03*
X120095000Y-109440000D03*
X117555000Y-109440000D03*
X115015000Y-109440000D03*
X112475000Y-109440000D03*
%TD*%
D38*
%TO.C,R3*%
X80266000Y-134794000D03*
X80266000Y-136750000D03*
%TD*%
D20*
%TO.C,Cd2*%
X153380000Y-111700000D03*
X154040000Y-111700000D03*
%TD*%
%TO.C,Cvs2*%
X80652000Y-116550000D03*
X79992000Y-116550000D03*
%TD*%
D44*
%TO.C,Cb2*%
X124231000Y-89982000D03*
X125571000Y-89982000D03*
%TD*%
D45*
%TO.C,Rd10*%
X115170000Y-131750000D03*
X117080000Y-131750000D03*
%TD*%
D10*
%TO.C,J_BAT-1*%
X257700000Y-85900000D03*
X252924800Y-85900000D03*
X255312400Y-88287600D03*
X255312400Y-83512400D03*
%TD*%
D15*
%TO.C,REF\u002A\u002A*%
X54000000Y-235900000D03*
%TD*%
D46*
%TO.C,M3*%
X210948000Y-172120000D03*
D47*
X222110300Y-174660000D03*
D46*
X210948000Y-177200000D03*
%TD*%
D48*
%TO.C,U2*%
X93843000Y-121475000D03*
X92573000Y-121475000D03*
X91303000Y-121475000D03*
X90033000Y-121475000D03*
X90033000Y-126425000D03*
X91303000Y-126425000D03*
X92573000Y-126425000D03*
X93843000Y-126425000D03*
%TD*%
D24*
%TO.C,D3*%
X178780000Y-74350000D03*
X174580000Y-74350000D03*
%TD*%
D15*
%TO.C,REF\u002A\u002A*%
X53800000Y-44000000D03*
%TD*%
D10*
%TO.C,J_M2-1*%
X181650000Y-47824800D03*
X181650000Y-52600000D03*
X184037600Y-50212400D03*
X179262400Y-50212400D03*
%TD*%
D20*
%TO.C,Cvs3*%
X81549000Y-132000000D03*
X80889000Y-132000000D03*
%TD*%
D49*
%TO.C,Cb6*%
X191750000Y-166920000D03*
X191750000Y-167580000D03*
%TD*%
%TO.C,Cvs5*%
X86000000Y-142451000D03*
X86000000Y-143111000D03*
%TD*%
D50*
%TO.C,C1*%
X175500000Y-81850000D03*
X175500000Y-87850000D03*
%TD*%
D49*
%TO.C,Cb4*%
X227600000Y-177250000D03*
X227600000Y-177910000D03*
%TD*%
D10*
%TO.C,J_Pump+1*%
X257700000Y-212687600D03*
X252924800Y-212687600D03*
X255312400Y-215075200D03*
X255312400Y-210300000D03*
%TD*%
D45*
%TO.C,Rd2*%
X162935000Y-131750000D03*
X164845000Y-131750000D03*
%TD*%
D51*
%TO.C,Rd5*%
X156987200Y-175372800D03*
X158943200Y-175372800D03*
%TD*%
D52*
%TO.C,Rd12*%
X116000000Y-102585000D03*
X116000000Y-100715000D03*
%TD*%
D53*
%TO.C,Rd8*%
X202130000Y-174000000D03*
X204000000Y-174000000D03*
%TD*%
D49*
%TO.C,Cb5*%
X94250000Y-128701000D03*
X94250000Y-129361000D03*
%TD*%
D10*
%TO.C,J_M1-1*%
X114200000Y-47824800D03*
X114200000Y-52600000D03*
X116587600Y-50212400D03*
X111812400Y-50212400D03*
%TD*%
D54*
%TO.C,Cb3*%
X230000000Y-176910000D03*
X230000000Y-178250000D03*
%TD*%
D55*
%TO.C,R5*%
X74456000Y-137250000D03*
X72500000Y-137250000D03*
%TD*%
D38*
%TO.C,R4*%
X77250000Y-134794000D03*
X77250000Y-136750000D03*
%TD*%
D10*
%TO.C,J_Pump-1*%
X257700000Y-198587600D03*
X252924800Y-198587600D03*
X255312400Y-200975200D03*
X255312400Y-196200000D03*
%TD*%
D55*
%TO.C,R2*%
X78894000Y-114150000D03*
X76938000Y-114150000D03*
%TD*%
D40*
%TO.C,U3*%
X161985000Y-126836800D03*
X163255000Y-126836800D03*
X164525000Y-126836800D03*
X165795000Y-126836800D03*
X165795000Y-121147200D03*
X164525000Y-121147200D03*
X163255000Y-121147200D03*
X161985000Y-121147200D03*
%TD*%
D31*
%TO.C,Rd9*%
X112580000Y-133350000D03*
X112580000Y-131394000D03*
%TD*%
D56*
%TO.C,CL1*%
X91570000Y-129250000D03*
X90706000Y-129250000D03*
%TD*%
D52*
%TO.C,Rd4*%
X163000000Y-102500000D03*
X163000000Y-100630000D03*
%TD*%
D42*
%TO.C,U4*%
X160080000Y-117060000D03*
D43*
X162620000Y-117060000D03*
X165160000Y-117060000D03*
X167700000Y-117060000D03*
X167700000Y-109440000D03*
X165160000Y-109440000D03*
X162620000Y-109440000D03*
X160080000Y-109440000D03*
%TD*%
D15*
%TO.C,REF\u002A\u002A*%
X261100000Y-44000000D03*
%TD*%
D27*
%TO.C,M1*%
X114140000Y-93852000D03*
D28*
X116680000Y-82689700D03*
D27*
X119220000Y-93852000D03*
%TD*%
D10*
%TO.C,J_M3-1*%
X252924800Y-182887600D03*
X257700000Y-182887600D03*
X255312400Y-180500000D03*
X255312400Y-185275200D03*
%TD*%
D17*
%TO.C,Cpv2*%
X103150000Y-83500000D03*
X103150000Y-86080000D03*
%TD*%
D42*
%TO.C,U6*%
X187190000Y-170880000D03*
D43*
X187190000Y-173420000D03*
X187190000Y-175960000D03*
X187190000Y-178500000D03*
X194810000Y-178500000D03*
X194810000Y-175960000D03*
X194810000Y-173420000D03*
X194810000Y-170880000D03*
%TD*%
M02*
