M48
; DRILL file {KiCad 9.0.7} date 2026-03-21T02:29:28+1100
; FORMAT={-:-/ absolute / metric / decimal}
; #@! TF.CreationDate,2026-03-21T02:29:28+11:00
; #@! TF.GenerationSoftware,Kicad,Pcbnew,9.0.7
; #@! TF.FileFunction,Plated,1,4,PTH
FMAT,2
METRIC
; #@! TA.AperFunction,Plated,PTH,ViaDrill
T1C0.300
; #@! TA.AperFunction,Plated,PTH,ViaDrill
T2C0.400
; #@! TA.AperFunction,Plated,PTH,ComponentDrill
T3C0.800
; #@! TA.AperFunction,Plated,PTH,ComponentDrill
T4C0.991
; #@! TA.AperFunction,Plated,PTH,ComponentDrill
T5C1.020
; #@! TA.AperFunction,Plated,PTH,ComponentDrill
T6C1.070
; #@! TA.AperFunction,Plated,PTH,ComponentDrill
T7C1.702
%
G90
G05
T1
X72.5Y-138.7
X74.5Y-145.9
X75.1Y-140.7
X76.75Y-112.5
X76.75Y-131.25
X78.0Y-131.25
X78.1Y-148.1
X78.25Y-115.5
X79.4Y-146.6
X79.75Y-131.75
X80.0Y-115.5
X80.25Y-133.5
X81.5Y-133.0
X82.5Y-116.5
X89.7Y-128.4
X89.7Y-129.1
X92.5Y-129.3
X94.0Y-130.25
X95.75Y-128.0
X108.5Y-112.5
X108.5Y-115.0
X112.75Y-134.75
X117.0Y-128.25
X117.25Y-130.25
X117.5Y-133.5
X123.0Y-112.5
X123.0Y-115.0
X125.25Y-110.0
X127.0Y-87.5
X127.75Y-90.25
X156.3Y-111.7
X157.0Y-114.5
X157.0Y-177.75
X160.5Y-135.25
X161.5Y-176.75
X164.75Y-128.0
X164.75Y-130.25
X164.75Y-133.25
X164.75Y-176.25
X166.75Y-175.75
X169.25Y-118.0
X182.75Y-173.25
X182.75Y-177.25
X186.25Y-182.0
X187.75Y-165.25
X192.0Y-168.5
X192.0Y-180.75
X227.4Y-178.876
X229.0Y-180.0
T2
X88.75Y-116.75
X89.3Y-117.25
X95.7Y-80.25
X96.45Y-80.25
X103.25Y-89.0
X107.5Y-89.0
X120.6Y-93.5
X122.35Y-93.85
X125.25Y-66.65
X126.0Y-67.45
X129.85Y-92.45
X130.65Y-92.45
X151.75Y-111.25
X167.5Y-107.5
X168.05Y-92.8
X168.55Y-93.4
X171.15Y-91.15
X171.9Y-91.5
X224.5Y-182.75
X225.1Y-188.2
T3
X112.58Y-98.34
X112.58Y-105.96
X160.18Y-98.34
X160.18Y-105.96
X198.94Y-171.16
X206.56Y-171.16
T4
X112.475Y-109.44
X112.475Y-117.06
X115.015Y-109.44
X115.015Y-117.06
X117.555Y-109.44
X117.555Y-117.06
X120.095Y-109.44
X120.095Y-117.06
X160.08Y-109.44
X160.08Y-117.06
X162.62Y-109.44
X162.62Y-117.06
X165.16Y-109.44
X165.16Y-117.06
X167.7Y-109.44
X167.7Y-117.06
X187.19Y-170.88
X187.19Y-173.42
X187.19Y-175.96
X187.19Y-178.5
X194.81Y-170.88
X194.81Y-173.42
X194.81Y-175.96
X194.81Y-178.5
T5
X77.12Y-185.55
X77.12Y-188.09
X77.12Y-190.63
X77.12Y-193.17
X77.12Y-195.71
X77.12Y-198.25
X77.12Y-200.79
X77.12Y-203.33
X77.12Y-205.87
X77.12Y-208.41
X77.12Y-210.95
X77.12Y-213.49
X77.12Y-216.03
X77.12Y-218.57
X77.12Y-221.11
X77.12Y-223.65
X77.12Y-226.19
X77.12Y-228.73
X77.12Y-231.27
X79.66Y-185.55
X79.66Y-188.09
X79.66Y-190.63
X79.66Y-193.17
X79.66Y-195.71
X79.66Y-198.25
X79.66Y-200.79
X79.66Y-203.33
X79.66Y-205.87
X79.66Y-208.41
X79.66Y-210.95
X79.66Y-213.49
X79.66Y-216.03
X79.66Y-218.57
X79.66Y-221.11
X79.66Y-223.65
X79.66Y-226.19
X79.66Y-228.73
X79.66Y-231.27
X138.08Y-185.55
X138.08Y-188.09
X138.08Y-190.63
X138.08Y-193.17
X138.08Y-195.71
X138.08Y-198.25
X138.08Y-200.79
X138.08Y-203.33
X138.08Y-205.87
X138.08Y-208.41
X138.08Y-210.95
X138.08Y-213.49
X138.08Y-216.03
X138.08Y-218.57
X138.08Y-221.11
X138.08Y-223.65
X138.08Y-226.19
X138.08Y-228.73
X138.08Y-231.27
X140.62Y-185.55
X140.62Y-188.09
X140.62Y-190.63
X140.62Y-193.17
X140.62Y-195.71
X140.62Y-198.25
X140.62Y-200.79
X140.62Y-203.33
X140.62Y-205.87
X140.62Y-208.41
X140.62Y-210.95
X140.62Y-213.49
X140.62Y-216.03
X140.62Y-218.57
X140.62Y-221.11
X140.62Y-223.65
X140.62Y-226.19
X140.62Y-228.73
X140.62Y-231.27
T6
X84.74Y-195.71
X84.74Y-198.25
X84.74Y-200.79
X84.74Y-203.33
X84.74Y-205.87
X84.74Y-208.41
X84.74Y-210.95
X84.74Y-213.49
X84.74Y-218.57
X84.74Y-221.11
X84.74Y-223.65
X84.74Y-226.19
X84.74Y-228.73
X84.74Y-231.27
X133.0Y-186.57
X133.0Y-189.11
X133.0Y-191.65
X133.0Y-194.19
X133.0Y-196.73
X133.0Y-199.27
X133.0Y-201.81
X133.0Y-204.35
X133.0Y-206.89
X133.0Y-209.43
X133.0Y-213.49
X133.0Y-216.03
X133.0Y-218.57
X133.0Y-221.11
X133.0Y-223.65
X133.0Y-226.19
X133.0Y-228.73
X133.0Y-231.27
T7
X58.3Y-95.3
X58.3Y-109.388
X60.688Y-92.912
X60.688Y-97.688
X60.688Y-107.0
X60.688Y-111.775
X63.075Y-95.3
X63.075Y-109.388
X64.388Y-50.138
X66.775Y-47.75
X66.775Y-52.525
X69.163Y-50.138
X78.6Y-50.138
X80.988Y-47.75
X80.988Y-52.525
X83.375Y-50.138
X97.612Y-50.212
X100.0Y-47.825
X100.0Y-52.6
X102.388Y-50.212
X111.812Y-50.212
X114.2Y-47.825
X114.2Y-52.6
X116.588Y-50.212
X164.95Y-50.212
X167.338Y-47.825
X167.338Y-52.6
X169.725Y-50.212
X179.262Y-50.212
X181.65Y-47.825
X181.65Y-52.6
X184.038Y-50.212
X252.925Y-85.9
X252.925Y-100.1
X252.925Y-165.288
X252.925Y-182.888
X252.925Y-198.588
X252.925Y-212.688
X255.312Y-83.512
X255.312Y-88.288
X255.312Y-97.712
X255.312Y-102.488
X255.312Y-162.9
X255.312Y-167.675
X255.312Y-180.5
X255.312Y-185.275
X255.312Y-196.2
X255.312Y-200.975
X255.312Y-210.3
X255.312Y-215.075
X257.7Y-85.9
X257.7Y-100.1
X257.7Y-165.288
X257.7Y-182.888
X257.7Y-198.588
X257.7Y-212.688
M30
