%TF.GenerationSoftware,KiCad,Pcbnew,9.0.7*%
%TF.CreationDate,2026-03-21T02:29:11+11:00*%
%TF.ProjectId,SolarSystem,536f6c61-7253-4797-9374-656d2e6b6963,0*%
%TF.SameCoordinates,Original*%
%TF.FileFunction,Copper,L3,Inr*%
%TF.FilePolarity,Positive*%
%FSLAX46Y46*%
G04 Gerber Fmt 4.6, Leading zero omitted, Abs format (unit mm)*
G04 Created by KiCad (PCBNEW 9.0.7) date 2026-03-21 02:29:11*
%MOMM*%
%LPD*%
G01*
G04 APERTURE LIST*
G04 Aperture macros list*
%AMRoundRect*
0 Rectangle with rounded corners*
0 $1 Rounding radius*
0 $2 $3 $4 $5 $6 $7 $8 $9 X,Y pos of 4 corners*
0 Add a 4 corners polygon primitive as box body*
4,1,4,$2,$3,$4,$5,$6,$7,$8,$9,$2,$3,0*
0 Add four circle primitives for the rounded corners*
1,1,$1+$1,$2,$3*
1,1,$1+$1,$4,$5*
1,1,$1+$1,$6,$7*
1,1,$1+$1,$8,$9*
0 Add four rect primitives between the rounded corners*
20,1,$1+$1,$2,$3,$4,$5,0*
20,1,$1+$1,$4,$5,$6,$7,0*
20,1,$1+$1,$6,$7,$8,$9,0*
20,1,$1+$1,$8,$9,$2,$3,0*%
G04 Aperture macros list end*
%TA.AperFunction,ComponentPad*%
%ADD10C,2.209800*%
%TD*%
%TA.AperFunction,ComponentPad*%
%ADD11RoundRect,0.250000X0.550000X-0.550000X0.550000X0.550000X-0.550000X0.550000X-0.550000X-0.550000X0*%
%TD*%
%TA.AperFunction,ComponentPad*%
%ADD12C,1.600000*%
%TD*%
%TA.AperFunction,ComponentPad*%
%ADD13R,1.605000X1.605000*%
%TD*%
%TA.AperFunction,ComponentPad*%
%ADD14C,1.605000*%
%TD*%
%TA.AperFunction,ComponentPad*%
%ADD15R,1.530000X1.530000*%
%TD*%
%TA.AperFunction,ComponentPad*%
%ADD16C,1.530000*%
%TD*%
%TA.AperFunction,ComponentPad*%
%ADD17RoundRect,0.250000X-0.550000X-0.550000X0.550000X-0.550000X0.550000X0.550000X-0.550000X0.550000X0*%
%TD*%
%TA.AperFunction,ComponentPad*%
%ADD18R,1.498600X1.498600*%
%TD*%
%TA.AperFunction,ComponentPad*%
%ADD19C,1.498600*%
%TD*%
%TA.AperFunction,ViaPad*%
%ADD20C,0.600000*%
%TD*%
%TA.AperFunction,ViaPad*%
%ADD21C,0.700000*%
%TD*%
%TA.AperFunction,ViaPad*%
%ADD22C,0.500000*%
%TD*%
%TA.AperFunction,Conductor*%
%ADD23C,0.200000*%
%TD*%
%TA.AperFunction,Conductor*%
%ADD24C,1.367000*%
%TD*%
%TA.AperFunction,Conductor*%
%ADD25C,0.300000*%
%TD*%
G04 APERTURE END LIST*
D10*
%TO.N,PV+*%
%TO.C,J_PV+1*%
X58300000Y-95300000D03*
X63075200Y-95300000D03*
X60687600Y-92912400D03*
X60687600Y-97687600D03*
%TD*%
%TO.N,BAT+*%
%TO.C,J_BAT+1*%
X257700000Y-100100000D03*
X252924800Y-100100000D03*
X255312400Y-102487600D03*
X255312400Y-97712400D03*
%TD*%
%TO.N,PGND*%
%TO.C,J_PV-1*%
X58300000Y-109387600D03*
X63075200Y-109387600D03*
X60687600Y-107000000D03*
X60687600Y-111775200D03*
%TD*%
%TO.N,/V_M3+*%
%TO.C,J_M3+1*%
X252924800Y-165287600D03*
X257700000Y-165287600D03*
X255312400Y-162900000D03*
X255312400Y-167675200D03*
%TD*%
D11*
%TO.N,/GateDriver_M1/SU1+*%
%TO.C,D9*%
X112580000Y-105960000D03*
D12*
%TO.N,/M1_Gate*%
X112580000Y-98340000D03*
%TD*%
D10*
%TO.N,PGND*%
%TO.C,J_VDD1-1*%
X66775200Y-47750000D03*
X66775200Y-52525200D03*
X69162800Y-50137600D03*
X64387600Y-50137600D03*
%TD*%
%TO.N,/V_M1+*%
%TO.C,J_M1+1*%
X100000000Y-47824800D03*
X100000000Y-52600000D03*
X102387600Y-50212400D03*
X97612400Y-50212400D03*
%TD*%
D11*
%TO.N,/GateDriver_M2/SU2+*%
%TO.C,D5*%
X160180000Y-105960000D03*
D12*
%TO.N,/M2_Gate*%
X160180000Y-98340000D03*
%TD*%
D10*
%TO.N,/V_M2+*%
%TO.C,J_M2+1*%
X167337600Y-47824800D03*
X167337600Y-52600000D03*
X169725200Y-50212400D03*
X164950000Y-50212400D03*
%TD*%
D13*
%TO.N,unconnected-(U1F-D8-PadCN5_1)*%
%TO.C,U1*%
X133000000Y-209430000D03*
D14*
%TO.N,unconnected-(U1F-D9-PadCN5_2)*%
X133000000Y-206890000D03*
%TO.N,unconnected-(U1F-D10-PadCN5_3)*%
X133000000Y-204350000D03*
%TO.N,unconnected-(U1F-D11-PadCN5_4)*%
X133000000Y-201810000D03*
%TO.N,unconnected-(U1F-D12-PadCN5_5)*%
X133000000Y-199270000D03*
%TO.N,unconnected-(U1F-D13-PadCN5_6)*%
X133000000Y-196730000D03*
%TO.N,unconnected-(U1F-CN5_GND-PadCN5_7)*%
X133000000Y-194190000D03*
%TO.N,unconnected-(U1F-AREF-PadCN5_8)*%
X133000000Y-191650000D03*
%TO.N,unconnected-(U1F-D14-PadCN5_9)*%
X133000000Y-189110000D03*
%TO.N,unconnected-(U1F-D15-PadCN5_10)*%
X133000000Y-186570000D03*
D13*
%TO.N,N/C*%
X84740000Y-195710000D03*
D14*
%TO.N,unconnected-(U1C-CN6_IOREF-PadCN6_2)*%
X84740000Y-198250000D03*
%TO.N,unconnected-(U1C-CN6_RESET-PadCN6_3)*%
X84740000Y-200790000D03*
%TO.N,unconnected-(U1C-CN6_+3V3-PadCN6_4)*%
X84740000Y-203330000D03*
%TO.N,unconnected-(U1C-CN6_+5V-PadCN6_5)*%
X84740000Y-205870000D03*
%TO.N,CN6_GND*%
X84740000Y-208410000D03*
%TO.N,CN6_GND_1*%
X84740000Y-210950000D03*
%TO.N,unconnected-(U1C-CN6_VIN-PadCN6_8)*%
X84740000Y-213490000D03*
D15*
%TO.N,unconnected-(U1A-PC10-PadCN7_1)*%
X77120000Y-185550000D03*
D16*
%TO.N,unconnected-(U1A-PC11-PadCN7_2)*%
X79660000Y-185550000D03*
%TO.N,unconnected-(U1A-PC12-PadCN7_3)*%
X77120000Y-188090000D03*
%TO.N,unconnected-(U1A-PD2-PadCN7_4)*%
X79660000Y-188090000D03*
%TO.N,unconnected-(U1A-VDD-PadCN7_5)*%
X77120000Y-190630000D03*
%TO.N,unconnected-(U1A-E5V-PadCN7_6)*%
X79660000Y-190630000D03*
%TO.N,unconnected-(U1A-BOOT0-PadCN7_7)*%
X77120000Y-193170000D03*
%TO.N,CN7_GND_1*%
X79660000Y-193170000D03*
%TO.N,N/C*%
X77120000Y-195710000D03*
X79660000Y-195710000D03*
X77120000Y-198250000D03*
%TO.N,unconnected-(U1A-CN7_IOREF-PadCN7_12)*%
X79660000Y-198250000D03*
%TO.N,unconnected-(U1A-PA13-PadCN7_13)*%
X77120000Y-200790000D03*
%TO.N,unconnected-(U1A-CN7_RESET-PadCN7_14)*%
X79660000Y-200790000D03*
%TO.N,unconnected-(U1A-PA14-PadCN7_15)*%
X77120000Y-203330000D03*
%TO.N,/VCC*%
X79660000Y-203330000D03*
%TO.N,unconnected-(U1A-PA15-PadCN7_17)*%
X77120000Y-205870000D03*
%TO.N,/VDD2*%
X79660000Y-205870000D03*
%TO.N,CN7_GND*%
X77120000Y-208410000D03*
%TO.N,CN7_GND_2*%
X79660000Y-208410000D03*
%TO.N,unconnected-(U1A-PB7-PadCN7_21)*%
X77120000Y-210950000D03*
%TO.N,CN7_GND_3*%
X79660000Y-210950000D03*
%TO.N,unconnected-(U1A-PC13-PadCN7_23)*%
X77120000Y-213490000D03*
%TO.N,unconnected-(U1A-CN7_VIN-PadCN7_24)*%
X79660000Y-213490000D03*
%TO.N,unconnected-(U1A-PC14-PadCN7_25)*%
X77120000Y-216030000D03*
%TO.N,N/C*%
X79660000Y-216030000D03*
%TO.N,unconnected-(U1A-PC15-PadCN7_27)*%
X77120000Y-218570000D03*
%TO.N,/PV_Voltage_Out*%
X79660000Y-218570000D03*
%TO.N,unconnected-(U1A-PH0-PadCN7_29)*%
X77120000Y-221110000D03*
%TO.N,/PV_Current*%
X79660000Y-221110000D03*
%TO.N,unconnected-(U1A-PH1-PadCN7_31)*%
X77120000Y-223650000D03*
%TO.N,unconnected-(U1A-PA4-PadCN7_32)*%
X79660000Y-223650000D03*
%TO.N,unconnected-(U1A-VBAT-PadCN7_33)*%
X77120000Y-226190000D03*
%TO.N,unconnected-(U1A-PB0-PadCN7_34)*%
X79660000Y-226190000D03*
%TO.N,unconnected-(U1A-PC2-PadCN7_35)*%
X77120000Y-228730000D03*
%TO.N,unconnected-(U1A-PC1{slash}PB9-PadCN7_36)*%
X79660000Y-228730000D03*
%TO.N,unconnected-(U1A-PC3-PadCN7_37)*%
X77120000Y-231270000D03*
%TO.N,unconnected-(U1A-PC0{slash}PB8-PadCN7_38)*%
X79660000Y-231270000D03*
D13*
%TO.N,unconnected-(U1E-A0-PadCN8_1)*%
X84740000Y-218570000D03*
D14*
%TO.N,unconnected-(U1E-A1-PadCN8_2)*%
X84740000Y-221110000D03*
%TO.N,unconnected-(U1E-A2-PadCN8_3)*%
X84740000Y-223650000D03*
%TO.N,unconnected-(U1E-A3-PadCN8_4)*%
X84740000Y-226190000D03*
%TO.N,unconnected-(U1E-A4-PadCN8_5)*%
X84740000Y-228730000D03*
%TO.N,unconnected-(U1E-A5-PadCN8_6)*%
X84740000Y-231270000D03*
D13*
%TO.N,unconnected-(U1D-D0-PadCN9_1)*%
X133000000Y-231270000D03*
D14*
%TO.N,unconnected-(U1D-D1-PadCN9_2)*%
X133000000Y-228730000D03*
%TO.N,unconnected-(U1D-D2-PadCN9_3)*%
X133000000Y-226190000D03*
%TO.N,unconnected-(U1D-D3-PadCN9_4)*%
X133000000Y-223650000D03*
%TO.N,unconnected-(U1D-D4-PadCN9_5)*%
X133000000Y-221110000D03*
%TO.N,unconnected-(U1D-D5-PadCN9_6)*%
X133000000Y-218570000D03*
%TO.N,unconnected-(U1D-D6-PadCN9_7)*%
X133000000Y-216030000D03*
%TO.N,unconnected-(U1D-D7-PadCN9_8)*%
X133000000Y-213490000D03*
D15*
%TO.N,unconnected-(U1B-PC9-PadCN10_1)*%
X138080000Y-185550000D03*
D16*
%TO.N,unconnected-(U1B-PC8-PadCN10_2)*%
X140620000Y-185550000D03*
%TO.N,unconnected-(U1B-PB8-PadCN10_3)*%
X138080000Y-188090000D03*
%TO.N,unconnected-(U1B-PC6-PadCN10_4)*%
X140620000Y-188090000D03*
%TO.N,unconnected-(U1B-PB9-PadCN10_5)*%
X138080000Y-190630000D03*
%TO.N,unconnected-(U1B-PC5-PadCN10_6)*%
X140620000Y-190630000D03*
%TO.N,unconnected-(U1B-AVDD-PadCN10_7)*%
X138080000Y-193170000D03*
%TO.N,unconnected-(U1B-U5V-PadCN10_8)*%
X140620000Y-193170000D03*
%TO.N,AGND*%
X138080000Y-195710000D03*
%TO.N,N/C*%
X140620000Y-195710000D03*
%TO.N,unconnected-(U1B-PA5-PadCN10_11)*%
X138080000Y-198250000D03*
%TO.N,unconnected-(U1B-PA12-PadCN10_12)*%
X140620000Y-198250000D03*
%TO.N,unconnected-(U1B-PA6-PadCN10_13)*%
X138080000Y-200790000D03*
%TO.N,unconnected-(U1B-PA11-PadCN10_14)*%
X140620000Y-200790000D03*
%TO.N,unconnected-(U1B-PA7-PadCN10_15)*%
X138080000Y-203330000D03*
%TO.N,unconnected-(U1B-PB12-PadCN10_16)*%
X140620000Y-203330000D03*
%TO.N,unconnected-(U1B-PB6-PadCN10_17)*%
X138080000Y-205870000D03*
%TO.N,N/C*%
X140620000Y-205870000D03*
%TO.N,unconnected-(U1B-PC7-PadCN10_19)*%
X138080000Y-208410000D03*
%TO.N,AGND*%
X140620000Y-208410000D03*
%TO.N,/M2_Sig*%
X138080000Y-210950000D03*
%TO.N,unconnected-(U1B-PB2-PadCN10_22)*%
X140620000Y-210950000D03*
%TO.N,/M1_Sig*%
X138080000Y-213490000D03*
%TO.N,unconnected-(U1B-PB1-PadCN10_24)*%
X140620000Y-213490000D03*
%TO.N,unconnected-(U1B-PB10-PadCN10_25)*%
X138080000Y-216030000D03*
%TO.N,unconnected-(U1B-PB15-PadCN10_26)*%
X140620000Y-216030000D03*
%TO.N,unconnected-(U1B-PB4-PadCN10_27)*%
X138080000Y-218570000D03*
%TO.N,unconnected-(U1B-PB14-PadCN10_28)*%
X140620000Y-218570000D03*
%TO.N,unconnected-(U1B-PB5-PadCN10_29)*%
X138080000Y-221110000D03*
%TO.N,unconnected-(U1B-PB13-PadCN10_30)*%
X140620000Y-221110000D03*
%TO.N,unconnected-(U1B-PB3-PadCN10_31)*%
X138080000Y-223650000D03*
%TO.N,AGND*%
X140620000Y-223650000D03*
%TO.N,/M3_Sig*%
X138080000Y-226190000D03*
%TO.N,unconnected-(U1B-PC4-PadCN10_34)*%
X140620000Y-226190000D03*
%TO.N,unconnected-(U1B-PA2-PadCN10_35)*%
X138080000Y-228730000D03*
%TO.N,N/C*%
X140620000Y-228730000D03*
%TO.N,unconnected-(U1B-PA3-PadCN10_37)*%
X138080000Y-231270000D03*
%TO.N,N/C*%
X140620000Y-231270000D03*
%TD*%
D10*
%TO.N,/VDD1*%
%TO.C,J_VDD1+1*%
X80987600Y-47750000D03*
X80987600Y-52525200D03*
X83375200Y-50137600D03*
X78600000Y-50137600D03*
%TD*%
D17*
%TO.N,/GateDriver_M3/SU3+*%
%TO.C,D7*%
X198940000Y-171160000D03*
D12*
%TO.N,/M3_Gate*%
X206560000Y-171160000D03*
%TD*%
D18*
%TO.N,/V_M1+*%
%TO.C,U8*%
X112475000Y-117060000D03*
D19*
%TO.N,Net-(U7-VO)*%
X115015000Y-117060000D03*
%TO.N,unconnected-(U8-NC-Pad3)*%
X117555000Y-117060000D03*
%TO.N,/M1_Source*%
X120095000Y-117060000D03*
X120095000Y-109440000D03*
%TO.N,/GateDriver_M1/SU1+*%
X117555000Y-109440000D03*
X115015000Y-109440000D03*
%TO.N,/V_M1+*%
X112475000Y-109440000D03*
%TD*%
D10*
%TO.N,PGND*%
%TO.C,J_BAT-1*%
X257700000Y-85900000D03*
X252924800Y-85900000D03*
X255312400Y-88287600D03*
X255312400Y-83512400D03*
%TD*%
%TO.N,PGND*%
%TO.C,J_M2-1*%
X181650000Y-47824800D03*
X181650000Y-52600000D03*
X184037600Y-50212400D03*
X179262400Y-50212400D03*
%TD*%
%TO.N,/Pump_Voltage*%
%TO.C,J_Pump+1*%
X257700000Y-212687600D03*
X252924800Y-212687600D03*
X255312400Y-215075200D03*
X255312400Y-210300000D03*
%TD*%
%TO.N,/M1_Source*%
%TO.C,J_M1-1*%
X114200000Y-47824800D03*
X114200000Y-52600000D03*
X116587600Y-50212400D03*
X111812400Y-50212400D03*
%TD*%
%TO.N,PGND*%
%TO.C,J_Pump-1*%
X257700000Y-198587600D03*
X252924800Y-198587600D03*
X255312400Y-200975200D03*
X255312400Y-196200000D03*
%TD*%
D18*
%TO.N,/V_M2+*%
%TO.C,U4*%
X160080000Y-117060000D03*
D19*
%TO.N,Net-(U3-VO)*%
X162620000Y-117060000D03*
%TO.N,unconnected-(U4-NC-Pad3)*%
X165160000Y-117060000D03*
%TO.N,PGND*%
X167700000Y-117060000D03*
X167700000Y-109440000D03*
%TO.N,/GateDriver_M2/SU2+*%
X165160000Y-109440000D03*
X162620000Y-109440000D03*
%TO.N,/V_M2+*%
X160080000Y-109440000D03*
%TD*%
D10*
%TO.N,/M3_Source*%
%TO.C,J_M3-1*%
X252924800Y-182887600D03*
X257700000Y-182887600D03*
X255312400Y-180500000D03*
X255312400Y-185275200D03*
%TD*%
D18*
%TO.N,/V_M3+*%
%TO.C,U6*%
X187190000Y-170880000D03*
D19*
%TO.N,Net-(U5-VO)*%
X187190000Y-173420000D03*
%TO.N,unconnected-(U6-NC-Pad3)*%
X187190000Y-175960000D03*
%TO.N,/M3_Source*%
X187190000Y-178500000D03*
X194810000Y-178500000D03*
%TO.N,/GateDriver_M3/SU3+*%
X194810000Y-175960000D03*
X194810000Y-173420000D03*
%TO.N,/V_M3+*%
X194810000Y-170880000D03*
%TD*%
D20*
%TO.N,PGND*%
X156300000Y-111700000D03*
D21*
X167500000Y-107500000D03*
D20*
X157000000Y-114500000D03*
X127750000Y-90250000D03*
X78250000Y-115500000D03*
X169250000Y-118000000D03*
X80000000Y-115500000D03*
D21*
X103250000Y-89000000D03*
D20*
X229000000Y-180000000D03*
D21*
X224500000Y-182750000D03*
X225100000Y-188200000D03*
X171900000Y-91500000D03*
X171150000Y-91150000D03*
X107500000Y-89000000D03*
X129849997Y-92450000D03*
X168550000Y-93400000D03*
X130650000Y-92450000D03*
D20*
X227400000Y-178876000D03*
X127000000Y-87500000D03*
D21*
X168050000Y-92800000D03*
D20*
X76750000Y-112500000D03*
D21*
%TO.N,/PV_IN*%
X95700000Y-80250000D03*
X96450000Y-80250000D03*
X88750000Y-116750000D03*
X89300000Y-117250000D03*
D20*
%TO.N,/VCC*%
X95750000Y-128000000D03*
%TO.N,AGND*%
X79750000Y-131750000D03*
D22*
X117250000Y-130250000D03*
D20*
X75100000Y-140700000D03*
X117500000Y-133500000D03*
X89700000Y-128400000D03*
X164750000Y-130250000D03*
X161500000Y-176750000D03*
X164750000Y-133250000D03*
X166750000Y-175750000D03*
X164750000Y-176250000D03*
X117000000Y-128250000D03*
X94000000Y-130250000D03*
X76750000Y-131250000D03*
X72500000Y-138700000D03*
X164750000Y-128000000D03*
X89700000Y-129100000D03*
%TO.N,/V_M3+*%
X187750000Y-165250000D03*
%TO.N,/M3_Source*%
X192000000Y-168500000D03*
X186250000Y-182000000D03*
X182750000Y-173250000D03*
X192000000Y-180750000D03*
X182750000Y-177250000D03*
D21*
%TO.N,/V_M2+*%
X151750000Y-111250000D03*
%TO.N,/M1_Source*%
X120600000Y-93500000D03*
X125250000Y-66650000D03*
X122350000Y-93850000D03*
D20*
X108500000Y-115000000D03*
X108500000Y-112500000D03*
D21*
X126000000Y-67450000D03*
D20*
X125250000Y-110000000D03*
X123000000Y-112500000D03*
X123000000Y-115000000D03*
%TO.N,/PV_Current*%
X92500000Y-129300000D03*
%TO.N,/VDD1*%
X82500000Y-116500000D03*
%TO.N,/VDD2*%
X74500000Y-145900000D03*
X79400000Y-146600000D03*
X81500000Y-133000000D03*
%TO.N,/M2_Sig*%
X160500000Y-135250000D03*
%TO.N,/M3_Sig*%
X157000000Y-177750000D03*
%TO.N,/M1_Sig*%
X112750000Y-134750000D03*
%TO.N,/PV_Voltage_Out*%
X78100000Y-148100000D03*
%TO.N,/Voltage_Sensor/VOUT-*%
X78000000Y-131250000D03*
X80250000Y-133500000D03*
%TD*%
D23*
%TO.N,/VCC*%
X79660000Y-203330000D02*
X83636500Y-199353500D01*
X95750000Y-173353366D02*
X95750000Y-128000000D01*
X83636500Y-199353500D02*
X83636500Y-185466866D01*
X83636500Y-185466866D02*
X95750000Y-173353366D01*
D24*
%TO.N,/PV_IN*%
X96450000Y-80250000D02*
X95700000Y-81000000D01*
X89300000Y-116800000D02*
X89250000Y-116750000D01*
X88750000Y-116750000D02*
X89250000Y-116750000D01*
X95700000Y-110300000D02*
X95700000Y-81000000D01*
X95700000Y-80250000D02*
X96000000Y-80250000D01*
X89250000Y-116750000D02*
X95700000Y-110300000D01*
X95700000Y-81000000D02*
X95700000Y-80250000D01*
X89300000Y-117250000D02*
X89300000Y-116800000D01*
D25*
%TO.N,/V_M3+*%
X245000000Y-165250000D02*
X187750000Y-165250000D01*
X245000000Y-165250000D02*
X245037600Y-165287600D01*
X245037600Y-165287600D02*
X252924800Y-165287600D01*
%TO.N,/M3_Source*%
X186250000Y-182000000D02*
X187850000Y-183600000D01*
X192000000Y-168500000D02*
X192000000Y-180750000D01*
X243712400Y-182887600D02*
X252924800Y-182887600D01*
X243000000Y-183600000D02*
X243712400Y-182887600D01*
X182750000Y-173250000D02*
X182750000Y-177250000D01*
X187850000Y-183600000D02*
X243000000Y-183600000D01*
D23*
%TO.N,/V_M2+*%
X151750000Y-68187600D02*
X167337600Y-52600000D01*
X151750000Y-111250000D02*
X151750000Y-68187600D01*
%TO.N,/V_M1+*%
X112475000Y-117060000D02*
X112440000Y-117060000D01*
D25*
%TO.N,/M1_Source*%
X120095000Y-117060000D02*
X120095000Y-115105000D01*
D23*
X110300000Y-56500000D02*
X114200000Y-52600000D01*
D24*
X122000000Y-93500000D02*
X122350000Y-93850000D01*
D25*
X120200000Y-115000000D02*
X123000000Y-115000000D01*
D23*
X120095000Y-112345000D02*
X120250000Y-112500000D01*
D25*
X108500000Y-112500000D02*
X120250000Y-112500000D01*
X108500000Y-115000000D02*
X120000000Y-115000000D01*
D23*
X110300000Y-92500000D02*
X110300000Y-56500000D01*
D24*
X120600000Y-93500000D02*
X122250000Y-93500000D01*
D25*
X120250000Y-112500000D02*
X123000000Y-112500000D01*
X120095000Y-115105000D02*
X120200000Y-115000000D01*
D24*
X126000000Y-67450000D02*
X125250000Y-68200000D01*
D23*
X125250000Y-107450000D02*
X110300000Y-92500000D01*
X125250000Y-110000000D02*
X125250000Y-107450000D01*
D24*
X122250000Y-93500000D02*
X125250000Y-90500000D01*
D25*
X120000000Y-115000000D02*
X120200000Y-115000000D01*
D24*
X125250000Y-68200000D02*
X125250000Y-66650000D01*
D23*
X120095000Y-109440000D02*
X120095000Y-112345000D01*
D24*
X125250000Y-90500000D02*
X125250000Y-68200000D01*
X120600000Y-93500000D02*
X122000000Y-93500000D01*
D23*
%TO.N,/VDD1*%
X82500000Y-116500000D02*
X82500000Y-54037600D01*
X82500000Y-54037600D02*
X80987600Y-52525200D01*
%TO.N,/VDD2*%
X82100000Y-149300000D02*
X79400000Y-146600000D01*
X87600000Y-139100000D02*
X87600000Y-172500000D01*
X74500000Y-145900000D02*
X78700000Y-145900000D01*
X87600000Y-139100000D02*
X81500000Y-133000000D01*
X82100000Y-178000000D02*
X82100000Y-149300000D01*
X78700000Y-145900000D02*
X79400000Y-146600000D01*
X87600000Y-172500000D02*
X82100000Y-178000000D01*
X78400000Y-181700000D02*
X82100000Y-178000000D01*
X79660000Y-205670000D02*
X78400000Y-204410000D01*
X78400000Y-204410000D02*
X78400000Y-181700000D01*
X79660000Y-205870000D02*
X79660000Y-205670000D01*
%TD*%
%TA.AperFunction,Conductor*%
%TO.N,/M3_Source*%
G36*
X261043039Y-177219685D02*
G01*
X261088794Y-177272489D01*
X261100000Y-177324000D01*
X261100000Y-188576000D01*
X261080315Y-188643039D01*
X261027511Y-188688794D01*
X260976000Y-188700000D01*
X249824000Y-188700000D01*
X249756961Y-188680315D01*
X249711206Y-188627511D01*
X249700000Y-188576000D01*
X249700000Y-185148892D01*
X253707500Y-185148892D01*
X253707500Y-185401507D01*
X253747018Y-185651015D01*
X253825083Y-185891272D01*
X253939766Y-186116351D01*
X254014640Y-186219405D01*
X254014640Y-186219406D01*
X254557595Y-185676450D01*
X254558342Y-185678252D01*
X254651463Y-185817617D01*
X254769983Y-185936137D01*
X254909348Y-186029258D01*
X254911148Y-186030003D01*
X254368192Y-186572958D01*
X254471248Y-186647833D01*
X254696327Y-186762516D01*
X254936584Y-186840581D01*
X255186093Y-186880100D01*
X255438707Y-186880100D01*
X255688215Y-186840581D01*
X255928472Y-186762516D01*
X256153543Y-186647837D01*
X256153549Y-186647833D01*
X256256605Y-186572958D01*
X256256606Y-186572958D01*
X255713651Y-186030003D01*
X255715452Y-186029258D01*
X255854817Y-185936137D01*
X255973337Y-185817617D01*
X256066458Y-185678252D01*
X256067203Y-185676451D01*
X256610158Y-186219406D01*
X256610158Y-186219405D01*
X256685033Y-186116349D01*
X256685037Y-186116343D01*
X256799716Y-185891272D01*
X256877781Y-185651015D01*
X256917300Y-185401507D01*
X256917300Y-185148892D01*
X256877781Y-184899384D01*
X256799716Y-184659127D01*
X256686640Y-184437202D01*
X256595294Y-184345856D01*
X256067203Y-184873947D01*
X256066458Y-184872148D01*
X255973337Y-184732783D01*
X255854817Y-184614263D01*
X255715452Y-184521142D01*
X255713649Y-184520395D01*
X256241742Y-183992304D01*
X256150397Y-183900959D01*
X255928472Y-183787883D01*
X255688215Y-183709818D01*
X255438707Y-183670300D01*
X255186093Y-183670300D01*
X254936584Y-183709818D01*
X254696327Y-183787883D01*
X254474398Y-183900961D01*
X254383056Y-183992303D01*
X254911149Y-184520396D01*
X254909348Y-184521142D01*
X254769983Y-184614263D01*
X254651463Y-184732783D01*
X254558342Y-184872148D01*
X254557596Y-184873949D01*
X254029503Y-184345856D01*
X253938161Y-184437198D01*
X253825083Y-184659127D01*
X253747018Y-184899384D01*
X253707500Y-185148892D01*
X249700000Y-185148892D01*
X249700000Y-182761292D01*
X251319900Y-182761292D01*
X251319900Y-183013907D01*
X251359418Y-183263415D01*
X251437483Y-183503672D01*
X251552166Y-183728751D01*
X251627040Y-183831805D01*
X251627040Y-183831806D01*
X252169995Y-183288850D01*
X252170742Y-183290652D01*
X252263863Y-183430017D01*
X252382383Y-183548537D01*
X252521748Y-183641658D01*
X252523548Y-183642403D01*
X251980592Y-184185358D01*
X252083648Y-184260233D01*
X252308727Y-184374916D01*
X252548984Y-184452981D01*
X252798493Y-184492500D01*
X253051107Y-184492500D01*
X253300615Y-184452981D01*
X253540872Y-184374916D01*
X253762793Y-184261842D01*
X253854141Y-184170494D01*
X253326050Y-183642403D01*
X253327852Y-183641658D01*
X253467217Y-183548537D01*
X253585737Y-183430017D01*
X253678858Y-183290652D01*
X253679603Y-183288851D01*
X254207694Y-183816942D01*
X254299042Y-183725593D01*
X254412116Y-183503672D01*
X254490181Y-183263415D01*
X254529700Y-183013907D01*
X254529700Y-182761292D01*
X256095100Y-182761292D01*
X256095100Y-183013907D01*
X256134618Y-183263415D01*
X256212683Y-183503672D01*
X256325759Y-183725597D01*
X256417104Y-183816942D01*
X256945195Y-183288850D01*
X256945942Y-183290652D01*
X257039063Y-183430017D01*
X257157583Y-183548537D01*
X257296948Y-183641658D01*
X257298748Y-183642403D01*
X256770656Y-184170494D01*
X256862002Y-184261840D01*
X257083927Y-184374916D01*
X257324184Y-184452981D01*
X257573693Y-184492500D01*
X257826307Y-184492500D01*
X258075815Y-184452981D01*
X258316072Y-184374916D01*
X258541143Y-184260237D01*
X258541149Y-184260233D01*
X258644205Y-184185358D01*
X258644206Y-184185358D01*
X258101251Y-183642403D01*
X258103052Y-183641658D01*
X258242417Y-183548537D01*
X258360937Y-183430017D01*
X258454058Y-183290652D01*
X258454803Y-183288851D01*
X258997758Y-183831806D01*
X258997758Y-183831805D01*
X259072633Y-183728749D01*
X259072637Y-183728743D01*
X259187316Y-183503672D01*
X259265381Y-183263415D01*
X259304900Y-183013907D01*
X259304900Y-182761292D01*
X259265381Y-182511784D01*
X259187316Y-182271527D01*
X259072633Y-182046448D01*
X258997758Y-181943393D01*
X258997758Y-181943392D01*
X258454803Y-182486347D01*
X258454058Y-182484548D01*
X258360937Y-182345183D01*
X258242417Y-182226663D01*
X258103052Y-182133542D01*
X258101249Y-182132795D01*
X258644206Y-181589840D01*
X258541151Y-181514966D01*
X258316072Y-181400283D01*
X258075815Y-181322218D01*
X257826307Y-181282700D01*
X257573693Y-181282700D01*
X257324184Y-181322218D01*
X257083927Y-181400283D01*
X256861998Y-181513361D01*
X256770656Y-181604703D01*
X257298749Y-182132796D01*
X257296948Y-182133542D01*
X257157583Y-182226663D01*
X257039063Y-182345183D01*
X256945942Y-182484548D01*
X256945196Y-182486349D01*
X256417103Y-181958256D01*
X256325761Y-182049598D01*
X256212683Y-182271527D01*
X256134618Y-182511784D01*
X256095100Y-182761292D01*
X254529700Y-182761292D01*
X254490181Y-182511784D01*
X254412116Y-182271527D01*
X254299040Y-182049602D01*
X254207694Y-181958256D01*
X253679603Y-182486347D01*
X253678858Y-182484548D01*
X253585737Y-182345183D01*
X253467217Y-182226663D01*
X253327852Y-182133542D01*
X253326049Y-182132795D01*
X253854142Y-181604704D01*
X253762797Y-181513359D01*
X253540872Y-181400283D01*
X253300615Y-181322218D01*
X253051107Y-181282700D01*
X252798493Y-181282700D01*
X252548984Y-181322218D01*
X252308727Y-181400283D01*
X252083644Y-181514968D01*
X251980593Y-181589839D01*
X251980592Y-181589840D01*
X252523548Y-182132796D01*
X252521748Y-182133542D01*
X252382383Y-182226663D01*
X252263863Y-182345183D01*
X252170742Y-182484548D01*
X252169996Y-182486348D01*
X251627040Y-181943392D01*
X251627039Y-181943393D01*
X251552168Y-182046444D01*
X251437483Y-182271527D01*
X251359418Y-182511784D01*
X251319900Y-182761292D01*
X249700000Y-182761292D01*
X249700000Y-180373692D01*
X253707500Y-180373692D01*
X253707500Y-180626307D01*
X253747018Y-180875815D01*
X253825083Y-181116072D01*
X253938159Y-181337997D01*
X254029504Y-181429342D01*
X254557595Y-180901250D01*
X254558342Y-180903052D01*
X254651463Y-181042417D01*
X254769983Y-181160937D01*
X254909348Y-181254058D01*
X254911148Y-181254803D01*
X254383056Y-181782894D01*
X254474402Y-181874240D01*
X254696327Y-181987316D01*
X254936584Y-182065381D01*
X255186093Y-182104900D01*
X255438707Y-182104900D01*
X255688215Y-182065381D01*
X255928472Y-181987316D01*
X256150393Y-181874242D01*
X256241741Y-181782894D01*
X255713650Y-181254803D01*
X255715452Y-181254058D01*
X255854817Y-181160937D01*
X255973337Y-181042417D01*
X256066458Y-180903052D01*
X256067203Y-180901250D01*
X256595294Y-181429341D01*
X256686642Y-181337993D01*
X256799716Y-181116072D01*
X256877781Y-180875815D01*
X256917300Y-180626307D01*
X256917300Y-180373692D01*
X256877781Y-180124184D01*
X256799716Y-179883927D01*
X256685033Y-179658848D01*
X256610158Y-179555793D01*
X256610158Y-179555792D01*
X256067203Y-180098747D01*
X256066458Y-180096948D01*
X255973337Y-179957583D01*
X255854817Y-179839063D01*
X255715452Y-179745942D01*
X255713649Y-179745195D01*
X256256606Y-179202240D01*
X256153551Y-179127366D01*
X255928472Y-179012683D01*
X255688215Y-178934618D01*
X255438707Y-178895100D01*
X255186093Y-178895100D01*
X254936584Y-178934618D01*
X254696327Y-179012683D01*
X254471244Y-179127368D01*
X254368193Y-179202239D01*
X254368192Y-179202240D01*
X254911148Y-179745196D01*
X254909348Y-179745942D01*
X254769983Y-179839063D01*
X254651463Y-179957583D01*
X254558342Y-180096948D01*
X254557596Y-180098748D01*
X254014640Y-179555792D01*
X254014639Y-179555793D01*
X253939768Y-179658844D01*
X253825083Y-179883927D01*
X253747018Y-180124184D01*
X253707500Y-180373692D01*
X249700000Y-180373692D01*
X249700000Y-177324000D01*
X249719685Y-177256961D01*
X249772489Y-177211206D01*
X249824000Y-177200000D01*
X260976000Y-177200000D01*
X261043039Y-177219685D01*
G37*
%TD.AperFunction*%
%TD*%
%TA.AperFunction,Conductor*%
%TO.N,/V_M3+*%
G36*
X260943039Y-159519685D02*
G01*
X260988794Y-159572489D01*
X261000000Y-159624000D01*
X261000000Y-170876000D01*
X260980315Y-170943039D01*
X260927511Y-170988794D01*
X260876000Y-171000000D01*
X249824000Y-171000000D01*
X249756961Y-170980315D01*
X249711206Y-170927511D01*
X249700000Y-170876000D01*
X249700000Y-167548892D01*
X253707500Y-167548892D01*
X253707500Y-167801507D01*
X253747018Y-168051015D01*
X253825083Y-168291272D01*
X253939766Y-168516351D01*
X254014640Y-168619405D01*
X254014640Y-168619406D01*
X254557595Y-168076450D01*
X254558342Y-168078252D01*
X254651463Y-168217617D01*
X254769983Y-168336137D01*
X254909348Y-168429258D01*
X254911148Y-168430003D01*
X254368192Y-168972958D01*
X254471248Y-169047833D01*
X254696327Y-169162516D01*
X254936584Y-169240581D01*
X255186093Y-169280100D01*
X255438707Y-169280100D01*
X255688215Y-169240581D01*
X255928472Y-169162516D01*
X256153543Y-169047837D01*
X256153549Y-169047833D01*
X256256605Y-168972958D01*
X256256606Y-168972958D01*
X255713651Y-168430003D01*
X255715452Y-168429258D01*
X255854817Y-168336137D01*
X255973337Y-168217617D01*
X256066458Y-168078252D01*
X256067203Y-168076451D01*
X256610158Y-168619406D01*
X256610158Y-168619405D01*
X256685033Y-168516349D01*
X256685037Y-168516343D01*
X256799716Y-168291272D01*
X256877781Y-168051015D01*
X256917300Y-167801507D01*
X256917300Y-167548892D01*
X256877781Y-167299384D01*
X256799716Y-167059127D01*
X256686640Y-166837202D01*
X256595294Y-166745856D01*
X256067203Y-167273947D01*
X256066458Y-167272148D01*
X255973337Y-167132783D01*
X255854817Y-167014263D01*
X255715452Y-166921142D01*
X255713649Y-166920395D01*
X256241742Y-166392304D01*
X256150397Y-166300959D01*
X255928472Y-166187883D01*
X255688215Y-166109818D01*
X255438707Y-166070300D01*
X255186093Y-166070300D01*
X254936584Y-166109818D01*
X254696327Y-166187883D01*
X254474398Y-166300961D01*
X254383056Y-166392303D01*
X254911149Y-166920396D01*
X254909348Y-166921142D01*
X254769983Y-167014263D01*
X254651463Y-167132783D01*
X254558342Y-167272148D01*
X254557596Y-167273949D01*
X254029503Y-166745856D01*
X253938161Y-166837198D01*
X253825083Y-167059127D01*
X253747018Y-167299384D01*
X253707500Y-167548892D01*
X249700000Y-167548892D01*
X249700000Y-165161292D01*
X251319900Y-165161292D01*
X251319900Y-165413907D01*
X251359418Y-165663415D01*
X251437483Y-165903672D01*
X251552166Y-166128751D01*
X251627040Y-166231805D01*
X251627040Y-166231806D01*
X252169995Y-165688850D01*
X252170742Y-165690652D01*
X252263863Y-165830017D01*
X252382383Y-165948537D01*
X252521748Y-166041658D01*
X252523548Y-166042403D01*
X251980592Y-166585358D01*
X252083648Y-166660233D01*
X252308727Y-166774916D01*
X252548984Y-166852981D01*
X252798493Y-166892500D01*
X253051107Y-166892500D01*
X253300615Y-166852981D01*
X253540872Y-166774916D01*
X253762793Y-166661842D01*
X253854141Y-166570494D01*
X253326050Y-166042403D01*
X253327852Y-166041658D01*
X253467217Y-165948537D01*
X253585737Y-165830017D01*
X253678858Y-165690652D01*
X253679603Y-165688851D01*
X254207694Y-166216942D01*
X254299042Y-166125593D01*
X254412116Y-165903672D01*
X254490181Y-165663415D01*
X254529700Y-165413907D01*
X254529700Y-165161292D01*
X256095100Y-165161292D01*
X256095100Y-165413907D01*
X256134618Y-165663415D01*
X256212683Y-165903672D01*
X256325759Y-166125597D01*
X256417104Y-166216942D01*
X256945195Y-165688850D01*
X256945942Y-165690652D01*
X257039063Y-165830017D01*
X257157583Y-165948537D01*
X257296948Y-166041658D01*
X257298748Y-166042403D01*
X256770656Y-166570494D01*
X256862002Y-166661840D01*
X257083927Y-166774916D01*
X257324184Y-166852981D01*
X257573693Y-166892500D01*
X257826307Y-166892500D01*
X258075815Y-166852981D01*
X258316072Y-166774916D01*
X258541143Y-166660237D01*
X258541149Y-166660233D01*
X258644205Y-166585358D01*
X258644206Y-166585358D01*
X258101251Y-166042403D01*
X258103052Y-166041658D01*
X258242417Y-165948537D01*
X258360937Y-165830017D01*
X258454058Y-165690652D01*
X258454803Y-165688851D01*
X258997758Y-166231806D01*
X258997758Y-166231805D01*
X259072633Y-166128749D01*
X259072637Y-166128743D01*
X259187316Y-165903672D01*
X259265381Y-165663415D01*
X259304900Y-165413907D01*
X259304900Y-165161292D01*
X259265381Y-164911784D01*
X259187316Y-164671527D01*
X259072633Y-164446448D01*
X258997758Y-164343393D01*
X258997758Y-164343392D01*
X258454803Y-164886347D01*
X258454058Y-164884548D01*
X258360937Y-164745183D01*
X258242417Y-164626663D01*
X258103052Y-164533542D01*
X258101249Y-164532795D01*
X258644206Y-163989840D01*
X258541151Y-163914966D01*
X258316072Y-163800283D01*
X258075815Y-163722218D01*
X257826307Y-163682700D01*
X257573693Y-163682700D01*
X257324184Y-163722218D01*
X257083927Y-163800283D01*
X256861998Y-163913361D01*
X256770656Y-164004703D01*
X257298749Y-164532796D01*
X257296948Y-164533542D01*
X257157583Y-164626663D01*
X257039063Y-164745183D01*
X256945942Y-164884548D01*
X256945196Y-164886349D01*
X256417103Y-164358256D01*
X256325761Y-164449598D01*
X256212683Y-164671527D01*
X256134618Y-164911784D01*
X256095100Y-165161292D01*
X254529700Y-165161292D01*
X254490181Y-164911784D01*
X254412116Y-164671527D01*
X254299040Y-164449602D01*
X254207694Y-164358256D01*
X253679603Y-164886347D01*
X253678858Y-164884548D01*
X253585737Y-164745183D01*
X253467217Y-164626663D01*
X253327852Y-164533542D01*
X253326049Y-164532795D01*
X253854142Y-164004704D01*
X253762797Y-163913359D01*
X253540872Y-163800283D01*
X253300615Y-163722218D01*
X253051107Y-163682700D01*
X252798493Y-163682700D01*
X252548984Y-163722218D01*
X252308727Y-163800283D01*
X252083644Y-163914968D01*
X251980593Y-163989839D01*
X251980592Y-163989840D01*
X252523548Y-164532796D01*
X252521748Y-164533542D01*
X252382383Y-164626663D01*
X252263863Y-164745183D01*
X252170742Y-164884548D01*
X252169996Y-164886348D01*
X251627040Y-164343392D01*
X251627039Y-164343393D01*
X251552168Y-164446444D01*
X251437483Y-164671527D01*
X251359418Y-164911784D01*
X251319900Y-165161292D01*
X249700000Y-165161292D01*
X249700000Y-162773692D01*
X253707500Y-162773692D01*
X253707500Y-163026307D01*
X253747018Y-163275815D01*
X253825083Y-163516072D01*
X253938159Y-163737997D01*
X254029504Y-163829342D01*
X254557595Y-163301250D01*
X254558342Y-163303052D01*
X254651463Y-163442417D01*
X254769983Y-163560937D01*
X254909348Y-163654058D01*
X254911148Y-163654803D01*
X254383056Y-164182894D01*
X254474402Y-164274240D01*
X254696327Y-164387316D01*
X254936584Y-164465381D01*
X255186093Y-164504900D01*
X255438707Y-164504900D01*
X255688215Y-164465381D01*
X255928472Y-164387316D01*
X256150393Y-164274242D01*
X256241741Y-164182894D01*
X255713650Y-163654803D01*
X255715452Y-163654058D01*
X255854817Y-163560937D01*
X255973337Y-163442417D01*
X256066458Y-163303052D01*
X256067203Y-163301250D01*
X256595294Y-163829341D01*
X256686642Y-163737993D01*
X256799716Y-163516072D01*
X256877781Y-163275815D01*
X256917300Y-163026307D01*
X256917300Y-162773692D01*
X256877781Y-162524184D01*
X256799716Y-162283927D01*
X256685033Y-162058848D01*
X256610158Y-161955793D01*
X256610158Y-161955792D01*
X256067203Y-162498747D01*
X256066458Y-162496948D01*
X255973337Y-162357583D01*
X255854817Y-162239063D01*
X255715452Y-162145942D01*
X255713649Y-162145195D01*
X256256606Y-161602240D01*
X256153551Y-161527366D01*
X255928472Y-161412683D01*
X255688215Y-161334618D01*
X255438707Y-161295100D01*
X255186093Y-161295100D01*
X254936584Y-161334618D01*
X254696327Y-161412683D01*
X254471244Y-161527368D01*
X254368193Y-161602239D01*
X254368192Y-161602240D01*
X254911148Y-162145196D01*
X254909348Y-162145942D01*
X254769983Y-162239063D01*
X254651463Y-162357583D01*
X254558342Y-162496948D01*
X254557596Y-162498748D01*
X254014640Y-161955792D01*
X254014639Y-161955793D01*
X253939768Y-162058844D01*
X253825083Y-162283927D01*
X253747018Y-162524184D01*
X253707500Y-162773692D01*
X249700000Y-162773692D01*
X249700000Y-159624000D01*
X249719685Y-159556961D01*
X249772489Y-159511206D01*
X249824000Y-159500000D01*
X260876000Y-159500000D01*
X260943039Y-159519685D01*
G37*
%TD.AperFunction*%
%TD*%
%TA.AperFunction,Conductor*%
%TO.N,/VDD1*%
G36*
X86943039Y-44219685D02*
G01*
X86988794Y-44272489D01*
X87000000Y-44324000D01*
X87000000Y-55776000D01*
X86980315Y-55843039D01*
X86927511Y-55888794D01*
X86876000Y-55900000D01*
X75124000Y-55900000D01*
X75056961Y-55880315D01*
X75011206Y-55827511D01*
X75000000Y-55776000D01*
X75000000Y-52398892D01*
X79382700Y-52398892D01*
X79382700Y-52651507D01*
X79422218Y-52901015D01*
X79500283Y-53141272D01*
X79614966Y-53366351D01*
X79689840Y-53469405D01*
X79689840Y-53469406D01*
X80232795Y-52926450D01*
X80233542Y-52928252D01*
X80326663Y-53067617D01*
X80445183Y-53186137D01*
X80584548Y-53279258D01*
X80586348Y-53280003D01*
X80043392Y-53822958D01*
X80146448Y-53897833D01*
X80371527Y-54012516D01*
X80611784Y-54090581D01*
X80861293Y-54130100D01*
X81113907Y-54130100D01*
X81363415Y-54090581D01*
X81603672Y-54012516D01*
X81828743Y-53897837D01*
X81828749Y-53897833D01*
X81931805Y-53822958D01*
X81931806Y-53822958D01*
X81388851Y-53280003D01*
X81390652Y-53279258D01*
X81530017Y-53186137D01*
X81648537Y-53067617D01*
X81741658Y-52928252D01*
X81742403Y-52926451D01*
X82285358Y-53469406D01*
X82285358Y-53469405D01*
X82360233Y-53366349D01*
X82360237Y-53366343D01*
X82474916Y-53141272D01*
X82552981Y-52901015D01*
X82592500Y-52651507D01*
X82592500Y-52398892D01*
X82552981Y-52149384D01*
X82474916Y-51909127D01*
X82361840Y-51687202D01*
X82270494Y-51595856D01*
X81742403Y-52123947D01*
X81741658Y-52122148D01*
X81648537Y-51982783D01*
X81530017Y-51864263D01*
X81390652Y-51771142D01*
X81388849Y-51770395D01*
X81916942Y-51242304D01*
X81825597Y-51150959D01*
X81603672Y-51037883D01*
X81363415Y-50959818D01*
X81113907Y-50920300D01*
X80861293Y-50920300D01*
X80611784Y-50959818D01*
X80371527Y-51037883D01*
X80149598Y-51150961D01*
X80058256Y-51242303D01*
X80586349Y-51770396D01*
X80584548Y-51771142D01*
X80445183Y-51864263D01*
X80326663Y-51982783D01*
X80233542Y-52122148D01*
X80232796Y-52123949D01*
X79704703Y-51595856D01*
X79613361Y-51687198D01*
X79500283Y-51909127D01*
X79422218Y-52149384D01*
X79382700Y-52398892D01*
X75000000Y-52398892D01*
X75000000Y-50011292D01*
X76995100Y-50011292D01*
X76995100Y-50263907D01*
X77034618Y-50513415D01*
X77112683Y-50753672D01*
X77227366Y-50978751D01*
X77302240Y-51081805D01*
X77302240Y-51081806D01*
X77845195Y-50538850D01*
X77845942Y-50540652D01*
X77939063Y-50680017D01*
X78057583Y-50798537D01*
X78196948Y-50891658D01*
X78198748Y-50892403D01*
X77655792Y-51435358D01*
X77758848Y-51510233D01*
X77983927Y-51624916D01*
X78224184Y-51702981D01*
X78473693Y-51742500D01*
X78726307Y-51742500D01*
X78975815Y-51702981D01*
X79216072Y-51624916D01*
X79437993Y-51511842D01*
X79529341Y-51420494D01*
X79001250Y-50892403D01*
X79003052Y-50891658D01*
X79142417Y-50798537D01*
X79260937Y-50680017D01*
X79354058Y-50540652D01*
X79354803Y-50538850D01*
X79882894Y-51066941D01*
X79974242Y-50975593D01*
X80087316Y-50753672D01*
X80165381Y-50513415D01*
X80204900Y-50263907D01*
X80204900Y-50011292D01*
X81770300Y-50011292D01*
X81770300Y-50263907D01*
X81809818Y-50513415D01*
X81887883Y-50753672D01*
X82000959Y-50975597D01*
X82092304Y-51066942D01*
X82620395Y-50538850D01*
X82621142Y-50540652D01*
X82714263Y-50680017D01*
X82832783Y-50798537D01*
X82972148Y-50891658D01*
X82973948Y-50892403D01*
X82445856Y-51420494D01*
X82537202Y-51511840D01*
X82759127Y-51624916D01*
X82999384Y-51702981D01*
X83248893Y-51742500D01*
X83501507Y-51742500D01*
X83751015Y-51702981D01*
X83991272Y-51624916D01*
X84216343Y-51510237D01*
X84216349Y-51510233D01*
X84319405Y-51435358D01*
X84319406Y-51435358D01*
X83776451Y-50892403D01*
X83778252Y-50891658D01*
X83917617Y-50798537D01*
X84036137Y-50680017D01*
X84129258Y-50540652D01*
X84130003Y-50538851D01*
X84672958Y-51081806D01*
X84672958Y-51081805D01*
X84747833Y-50978749D01*
X84747837Y-50978743D01*
X84862516Y-50753672D01*
X84940581Y-50513415D01*
X84980100Y-50263907D01*
X84980100Y-50011292D01*
X84940581Y-49761784D01*
X84862516Y-49521527D01*
X84747833Y-49296448D01*
X84672958Y-49193393D01*
X84672958Y-49193392D01*
X84130003Y-49736347D01*
X84129258Y-49734548D01*
X84036137Y-49595183D01*
X83917617Y-49476663D01*
X83778252Y-49383542D01*
X83776449Y-49382795D01*
X84319406Y-48839840D01*
X84216351Y-48764966D01*
X83991272Y-48650283D01*
X83751015Y-48572218D01*
X83501507Y-48532700D01*
X83248893Y-48532700D01*
X82999384Y-48572218D01*
X82759127Y-48650283D01*
X82537198Y-48763361D01*
X82445856Y-48854703D01*
X82973949Y-49382796D01*
X82972148Y-49383542D01*
X82832783Y-49476663D01*
X82714263Y-49595183D01*
X82621142Y-49734548D01*
X82620396Y-49736349D01*
X82092303Y-49208256D01*
X82000961Y-49299598D01*
X81887883Y-49521527D01*
X81809818Y-49761784D01*
X81770300Y-50011292D01*
X80204900Y-50011292D01*
X80165381Y-49761784D01*
X80087316Y-49521527D01*
X79974240Y-49299602D01*
X79882894Y-49208256D01*
X79354803Y-49736347D01*
X79354058Y-49734548D01*
X79260937Y-49595183D01*
X79142417Y-49476663D01*
X79003052Y-49383542D01*
X79001249Y-49382795D01*
X79529342Y-48854704D01*
X79437997Y-48763359D01*
X79216072Y-48650283D01*
X78975815Y-48572218D01*
X78726307Y-48532700D01*
X78473693Y-48532700D01*
X78224184Y-48572218D01*
X77983927Y-48650283D01*
X77758844Y-48764968D01*
X77655793Y-48839839D01*
X77655792Y-48839840D01*
X78198748Y-49382796D01*
X78196948Y-49383542D01*
X78057583Y-49476663D01*
X77939063Y-49595183D01*
X77845942Y-49734548D01*
X77845196Y-49736348D01*
X77302240Y-49193392D01*
X77302239Y-49193393D01*
X77227368Y-49296444D01*
X77112683Y-49521527D01*
X77034618Y-49761784D01*
X76995100Y-50011292D01*
X75000000Y-50011292D01*
X75000000Y-47623692D01*
X79382700Y-47623692D01*
X79382700Y-47876307D01*
X79422218Y-48125815D01*
X79500283Y-48366072D01*
X79613359Y-48587997D01*
X79704704Y-48679342D01*
X80232795Y-48151250D01*
X80233542Y-48153052D01*
X80326663Y-48292417D01*
X80445183Y-48410937D01*
X80584548Y-48504058D01*
X80586348Y-48504803D01*
X80058256Y-49032894D01*
X80149602Y-49124240D01*
X80371527Y-49237316D01*
X80611784Y-49315381D01*
X80861293Y-49354900D01*
X81113907Y-49354900D01*
X81363415Y-49315381D01*
X81603672Y-49237316D01*
X81825593Y-49124242D01*
X81916941Y-49032894D01*
X81388850Y-48504803D01*
X81390652Y-48504058D01*
X81530017Y-48410937D01*
X81648537Y-48292417D01*
X81741658Y-48153052D01*
X81742403Y-48151251D01*
X82270494Y-48679342D01*
X82361842Y-48587993D01*
X82474916Y-48366072D01*
X82552981Y-48125815D01*
X82592500Y-47876307D01*
X82592500Y-47623692D01*
X82552981Y-47374184D01*
X82474916Y-47133927D01*
X82360233Y-46908848D01*
X82285358Y-46805793D01*
X82285358Y-46805792D01*
X81742403Y-47348747D01*
X81741658Y-47346948D01*
X81648537Y-47207583D01*
X81530017Y-47089063D01*
X81390652Y-46995942D01*
X81388849Y-46995195D01*
X81931806Y-46452240D01*
X81828751Y-46377366D01*
X81603672Y-46262683D01*
X81363415Y-46184618D01*
X81113907Y-46145100D01*
X80861293Y-46145100D01*
X80611784Y-46184618D01*
X80371527Y-46262683D01*
X80146444Y-46377368D01*
X80043393Y-46452239D01*
X80043392Y-46452240D01*
X80586348Y-46995196D01*
X80584548Y-46995942D01*
X80445183Y-47089063D01*
X80326663Y-47207583D01*
X80233542Y-47346948D01*
X80232796Y-47348748D01*
X79689840Y-46805792D01*
X79689839Y-46805793D01*
X79614968Y-46908844D01*
X79500283Y-47133927D01*
X79422218Y-47374184D01*
X79382700Y-47623692D01*
X75000000Y-47623692D01*
X75000000Y-44324000D01*
X75019685Y-44256961D01*
X75072489Y-44211206D01*
X75124000Y-44200000D01*
X86876000Y-44200000D01*
X86943039Y-44219685D01*
G37*
%TD.AperFunction*%
%TD*%
%TA.AperFunction,Conductor*%
%TO.N,/M1_Source*%
G36*
X119943039Y-44219685D02*
G01*
X119988794Y-44272489D01*
X120000000Y-44324000D01*
X120000000Y-55576000D01*
X119980315Y-55643039D01*
X119927511Y-55688794D01*
X119876000Y-55700000D01*
X108624000Y-55700000D01*
X108556961Y-55680315D01*
X108511206Y-55627511D01*
X108500000Y-55576000D01*
X108500000Y-52473692D01*
X112595100Y-52473692D01*
X112595100Y-52726307D01*
X112634618Y-52975815D01*
X112712683Y-53216072D01*
X112827366Y-53441151D01*
X112902240Y-53544205D01*
X112902240Y-53544206D01*
X113445195Y-53001250D01*
X113445942Y-53003052D01*
X113539063Y-53142417D01*
X113657583Y-53260937D01*
X113796948Y-53354058D01*
X113798748Y-53354803D01*
X113255792Y-53897758D01*
X113358848Y-53972633D01*
X113583927Y-54087316D01*
X113824184Y-54165381D01*
X114073693Y-54204900D01*
X114326307Y-54204900D01*
X114575815Y-54165381D01*
X114816072Y-54087316D01*
X115041143Y-53972637D01*
X115041149Y-53972633D01*
X115144205Y-53897758D01*
X115144206Y-53897758D01*
X114601251Y-53354803D01*
X114603052Y-53354058D01*
X114742417Y-53260937D01*
X114860937Y-53142417D01*
X114954058Y-53003052D01*
X114954803Y-53001251D01*
X115497758Y-53544206D01*
X115497758Y-53544205D01*
X115572633Y-53441149D01*
X115572637Y-53441143D01*
X115687316Y-53216072D01*
X115765381Y-52975815D01*
X115804900Y-52726307D01*
X115804900Y-52473692D01*
X115765381Y-52224184D01*
X115687316Y-51983927D01*
X115574240Y-51762002D01*
X115482894Y-51670656D01*
X114954803Y-52198747D01*
X114954058Y-52196948D01*
X114860937Y-52057583D01*
X114742417Y-51939063D01*
X114603052Y-51845942D01*
X114601249Y-51845195D01*
X115129342Y-51317104D01*
X115037997Y-51225759D01*
X114816072Y-51112683D01*
X114575815Y-51034618D01*
X114326307Y-50995100D01*
X114073693Y-50995100D01*
X113824184Y-51034618D01*
X113583927Y-51112683D01*
X113361998Y-51225761D01*
X113270656Y-51317103D01*
X113798749Y-51845196D01*
X113796948Y-51845942D01*
X113657583Y-51939063D01*
X113539063Y-52057583D01*
X113445942Y-52196948D01*
X113445196Y-52198749D01*
X112917103Y-51670656D01*
X112825761Y-51761998D01*
X112712683Y-51983927D01*
X112634618Y-52224184D01*
X112595100Y-52473692D01*
X108500000Y-52473692D01*
X108500000Y-50086092D01*
X110207500Y-50086092D01*
X110207500Y-50338707D01*
X110247018Y-50588215D01*
X110325083Y-50828472D01*
X110439766Y-51053551D01*
X110514640Y-51156605D01*
X110514640Y-51156606D01*
X111057595Y-50613650D01*
X111058342Y-50615452D01*
X111151463Y-50754817D01*
X111269983Y-50873337D01*
X111409348Y-50966458D01*
X111411148Y-50967203D01*
X110868192Y-51510158D01*
X110971248Y-51585033D01*
X111196327Y-51699716D01*
X111436584Y-51777781D01*
X111686093Y-51817300D01*
X111938707Y-51817300D01*
X112188215Y-51777781D01*
X112428472Y-51699716D01*
X112650393Y-51586642D01*
X112741741Y-51495294D01*
X112213650Y-50967203D01*
X112215452Y-50966458D01*
X112354817Y-50873337D01*
X112473337Y-50754817D01*
X112566458Y-50615452D01*
X112567203Y-50613650D01*
X113095294Y-51141741D01*
X113186642Y-51050393D01*
X113299716Y-50828472D01*
X113377781Y-50588215D01*
X113417300Y-50338707D01*
X113417300Y-50086092D01*
X114982700Y-50086092D01*
X114982700Y-50338707D01*
X115022218Y-50588215D01*
X115100283Y-50828472D01*
X115213359Y-51050397D01*
X115304704Y-51141742D01*
X115832795Y-50613650D01*
X115833542Y-50615452D01*
X115926663Y-50754817D01*
X116045183Y-50873337D01*
X116184548Y-50966458D01*
X116186348Y-50967203D01*
X115658256Y-51495294D01*
X115749602Y-51586640D01*
X115971527Y-51699716D01*
X116211784Y-51777781D01*
X116461293Y-51817300D01*
X116713907Y-51817300D01*
X116963415Y-51777781D01*
X117203672Y-51699716D01*
X117428743Y-51585037D01*
X117428749Y-51585033D01*
X117531805Y-51510158D01*
X117531806Y-51510158D01*
X116988851Y-50967203D01*
X116990652Y-50966458D01*
X117130017Y-50873337D01*
X117248537Y-50754817D01*
X117341658Y-50615452D01*
X117342403Y-50613651D01*
X117885358Y-51156606D01*
X117885358Y-51156605D01*
X117960233Y-51053549D01*
X117960237Y-51053543D01*
X118074916Y-50828472D01*
X118152981Y-50588215D01*
X118192500Y-50338707D01*
X118192500Y-50086092D01*
X118152981Y-49836584D01*
X118074916Y-49596327D01*
X117960233Y-49371248D01*
X117885358Y-49268193D01*
X117885358Y-49268192D01*
X117342403Y-49811147D01*
X117341658Y-49809348D01*
X117248537Y-49669983D01*
X117130017Y-49551463D01*
X116990652Y-49458342D01*
X116988849Y-49457595D01*
X117531806Y-48914640D01*
X117428751Y-48839766D01*
X117203672Y-48725083D01*
X116963415Y-48647018D01*
X116713907Y-48607500D01*
X116461293Y-48607500D01*
X116211784Y-48647018D01*
X115971527Y-48725083D01*
X115749598Y-48838161D01*
X115658256Y-48929503D01*
X116186349Y-49457596D01*
X116184548Y-49458342D01*
X116045183Y-49551463D01*
X115926663Y-49669983D01*
X115833542Y-49809348D01*
X115832796Y-49811149D01*
X115304703Y-49283056D01*
X115213361Y-49374398D01*
X115100283Y-49596327D01*
X115022218Y-49836584D01*
X114982700Y-50086092D01*
X113417300Y-50086092D01*
X113377781Y-49836584D01*
X113299716Y-49596327D01*
X113186640Y-49374402D01*
X113095294Y-49283056D01*
X112567203Y-49811147D01*
X112566458Y-49809348D01*
X112473337Y-49669983D01*
X112354817Y-49551463D01*
X112215452Y-49458342D01*
X112213649Y-49457595D01*
X112741742Y-48929504D01*
X112650397Y-48838159D01*
X112428472Y-48725083D01*
X112188215Y-48647018D01*
X111938707Y-48607500D01*
X111686093Y-48607500D01*
X111436584Y-48647018D01*
X111196327Y-48725083D01*
X110971244Y-48839768D01*
X110868193Y-48914639D01*
X110868192Y-48914640D01*
X111411148Y-49457596D01*
X111409348Y-49458342D01*
X111269983Y-49551463D01*
X111151463Y-49669983D01*
X111058342Y-49809348D01*
X111057596Y-49811148D01*
X110514640Y-49268192D01*
X110514639Y-49268193D01*
X110439768Y-49371244D01*
X110325083Y-49596327D01*
X110247018Y-49836584D01*
X110207500Y-50086092D01*
X108500000Y-50086092D01*
X108500000Y-47698492D01*
X112595100Y-47698492D01*
X112595100Y-47951107D01*
X112634618Y-48200615D01*
X112712683Y-48440872D01*
X112825759Y-48662797D01*
X112917104Y-48754142D01*
X113445195Y-48226050D01*
X113445942Y-48227852D01*
X113539063Y-48367217D01*
X113657583Y-48485737D01*
X113796948Y-48578858D01*
X113798748Y-48579603D01*
X113270656Y-49107694D01*
X113362002Y-49199040D01*
X113583927Y-49312116D01*
X113824184Y-49390181D01*
X114073693Y-49429700D01*
X114326307Y-49429700D01*
X114575815Y-49390181D01*
X114816072Y-49312116D01*
X115037993Y-49199042D01*
X115129341Y-49107694D01*
X114601250Y-48579603D01*
X114603052Y-48578858D01*
X114742417Y-48485737D01*
X114860937Y-48367217D01*
X114954058Y-48227852D01*
X114954803Y-48226050D01*
X115482894Y-48754141D01*
X115574242Y-48662793D01*
X115687316Y-48440872D01*
X115765381Y-48200615D01*
X115804900Y-47951107D01*
X115804900Y-47698492D01*
X115765381Y-47448984D01*
X115687316Y-47208727D01*
X115572633Y-46983648D01*
X115497758Y-46880593D01*
X115497758Y-46880592D01*
X114954803Y-47423547D01*
X114954058Y-47421748D01*
X114860937Y-47282383D01*
X114742417Y-47163863D01*
X114603052Y-47070742D01*
X114601249Y-47069995D01*
X115144206Y-46527040D01*
X115041151Y-46452166D01*
X114816072Y-46337483D01*
X114575815Y-46259418D01*
X114326307Y-46219900D01*
X114073693Y-46219900D01*
X113824184Y-46259418D01*
X113583927Y-46337483D01*
X113358844Y-46452168D01*
X113255793Y-46527039D01*
X113255792Y-46527040D01*
X113798748Y-47069996D01*
X113796948Y-47070742D01*
X113657583Y-47163863D01*
X113539063Y-47282383D01*
X113445942Y-47421748D01*
X113445196Y-47423548D01*
X112902240Y-46880592D01*
X112902239Y-46880593D01*
X112827368Y-46983644D01*
X112712683Y-47208727D01*
X112634618Y-47448984D01*
X112595100Y-47698492D01*
X108500000Y-47698492D01*
X108500000Y-44324000D01*
X108519685Y-44256961D01*
X108572489Y-44211206D01*
X108624000Y-44200000D01*
X119876000Y-44200000D01*
X119943039Y-44219685D01*
G37*
%TD.AperFunction*%
%TD*%
%TA.AperFunction,Conductor*%
%TO.N,/V_M2+*%
G36*
X172943039Y-44919685D02*
G01*
X172988794Y-44972489D01*
X173000000Y-45024000D01*
X173000000Y-55876000D01*
X172980315Y-55943039D01*
X172927511Y-55988794D01*
X172876000Y-56000000D01*
X162124000Y-56000000D01*
X162056961Y-55980315D01*
X162011206Y-55927511D01*
X162000000Y-55876000D01*
X162000000Y-52473692D01*
X165732700Y-52473692D01*
X165732700Y-52726307D01*
X165772218Y-52975815D01*
X165850283Y-53216072D01*
X165964966Y-53441151D01*
X166039840Y-53544205D01*
X166039840Y-53544206D01*
X166582795Y-53001250D01*
X166583542Y-53003052D01*
X166676663Y-53142417D01*
X166795183Y-53260937D01*
X166934548Y-53354058D01*
X166936348Y-53354803D01*
X166393392Y-53897758D01*
X166496448Y-53972633D01*
X166721527Y-54087316D01*
X166961784Y-54165381D01*
X167211293Y-54204900D01*
X167463907Y-54204900D01*
X167713415Y-54165381D01*
X167953672Y-54087316D01*
X168178743Y-53972637D01*
X168178749Y-53972633D01*
X168281805Y-53897758D01*
X168281806Y-53897758D01*
X167738851Y-53354803D01*
X167740652Y-53354058D01*
X167880017Y-53260937D01*
X167998537Y-53142417D01*
X168091658Y-53003052D01*
X168092403Y-53001251D01*
X168635358Y-53544206D01*
X168635358Y-53544205D01*
X168710233Y-53441149D01*
X168710237Y-53441143D01*
X168824916Y-53216072D01*
X168902981Y-52975815D01*
X168942500Y-52726307D01*
X168942500Y-52473692D01*
X168902981Y-52224184D01*
X168824916Y-51983927D01*
X168711840Y-51762002D01*
X168620494Y-51670656D01*
X168092403Y-52198747D01*
X168091658Y-52196948D01*
X167998537Y-52057583D01*
X167880017Y-51939063D01*
X167740652Y-51845942D01*
X167738849Y-51845195D01*
X168266942Y-51317104D01*
X168175597Y-51225759D01*
X167953672Y-51112683D01*
X167713415Y-51034618D01*
X167463907Y-50995100D01*
X167211293Y-50995100D01*
X166961784Y-51034618D01*
X166721527Y-51112683D01*
X166499598Y-51225761D01*
X166408256Y-51317103D01*
X166936349Y-51845196D01*
X166934548Y-51845942D01*
X166795183Y-51939063D01*
X166676663Y-52057583D01*
X166583542Y-52196948D01*
X166582796Y-52198749D01*
X166054703Y-51670656D01*
X165963361Y-51761998D01*
X165850283Y-51983927D01*
X165772218Y-52224184D01*
X165732700Y-52473692D01*
X162000000Y-52473692D01*
X162000000Y-50086092D01*
X163345100Y-50086092D01*
X163345100Y-50338707D01*
X163384618Y-50588215D01*
X163462683Y-50828472D01*
X163577366Y-51053551D01*
X163652240Y-51156605D01*
X163652240Y-51156606D01*
X164195195Y-50613650D01*
X164195942Y-50615452D01*
X164289063Y-50754817D01*
X164407583Y-50873337D01*
X164546948Y-50966458D01*
X164548748Y-50967203D01*
X164005792Y-51510158D01*
X164108848Y-51585033D01*
X164333927Y-51699716D01*
X164574184Y-51777781D01*
X164823693Y-51817300D01*
X165076307Y-51817300D01*
X165325815Y-51777781D01*
X165566072Y-51699716D01*
X165787993Y-51586642D01*
X165879341Y-51495294D01*
X165351250Y-50967203D01*
X165353052Y-50966458D01*
X165492417Y-50873337D01*
X165610937Y-50754817D01*
X165704058Y-50615452D01*
X165704803Y-50613650D01*
X166232894Y-51141741D01*
X166324242Y-51050393D01*
X166437316Y-50828472D01*
X166515381Y-50588215D01*
X166554900Y-50338707D01*
X166554900Y-50086092D01*
X168120300Y-50086092D01*
X168120300Y-50338707D01*
X168159818Y-50588215D01*
X168237883Y-50828472D01*
X168350959Y-51050397D01*
X168442304Y-51141742D01*
X168970395Y-50613650D01*
X168971142Y-50615452D01*
X169064263Y-50754817D01*
X169182783Y-50873337D01*
X169322148Y-50966458D01*
X169323948Y-50967203D01*
X168795856Y-51495294D01*
X168887202Y-51586640D01*
X169109127Y-51699716D01*
X169349384Y-51777781D01*
X169598893Y-51817300D01*
X169851507Y-51817300D01*
X170101015Y-51777781D01*
X170341272Y-51699716D01*
X170566343Y-51585037D01*
X170566349Y-51585033D01*
X170669405Y-51510158D01*
X170669406Y-51510158D01*
X170126451Y-50967203D01*
X170128252Y-50966458D01*
X170267617Y-50873337D01*
X170386137Y-50754817D01*
X170479258Y-50615452D01*
X170480003Y-50613651D01*
X171022958Y-51156606D01*
X171022958Y-51156605D01*
X171097833Y-51053549D01*
X171097837Y-51053543D01*
X171212516Y-50828472D01*
X171290581Y-50588215D01*
X171330100Y-50338707D01*
X171330100Y-50086092D01*
X171290581Y-49836584D01*
X171212516Y-49596327D01*
X171097833Y-49371248D01*
X171022958Y-49268193D01*
X171022958Y-49268192D01*
X170480003Y-49811147D01*
X170479258Y-49809348D01*
X170386137Y-49669983D01*
X170267617Y-49551463D01*
X170128252Y-49458342D01*
X170126449Y-49457595D01*
X170669406Y-48914640D01*
X170566351Y-48839766D01*
X170341272Y-48725083D01*
X170101015Y-48647018D01*
X169851507Y-48607500D01*
X169598893Y-48607500D01*
X169349384Y-48647018D01*
X169109127Y-48725083D01*
X168887198Y-48838161D01*
X168795856Y-48929503D01*
X169323949Y-49457596D01*
X169322148Y-49458342D01*
X169182783Y-49551463D01*
X169064263Y-49669983D01*
X168971142Y-49809348D01*
X168970396Y-49811149D01*
X168442303Y-49283056D01*
X168350961Y-49374398D01*
X168237883Y-49596327D01*
X168159818Y-49836584D01*
X168120300Y-50086092D01*
X166554900Y-50086092D01*
X166515381Y-49836584D01*
X166437316Y-49596327D01*
X166324240Y-49374402D01*
X166232894Y-49283056D01*
X165704803Y-49811147D01*
X165704058Y-49809348D01*
X165610937Y-49669983D01*
X165492417Y-49551463D01*
X165353052Y-49458342D01*
X165351249Y-49457595D01*
X165879342Y-48929504D01*
X165787997Y-48838159D01*
X165566072Y-48725083D01*
X165325815Y-48647018D01*
X165076307Y-48607500D01*
X164823693Y-48607500D01*
X164574184Y-48647018D01*
X164333927Y-48725083D01*
X164108844Y-48839768D01*
X164005793Y-48914639D01*
X164005792Y-48914640D01*
X164548748Y-49457596D01*
X164546948Y-49458342D01*
X164407583Y-49551463D01*
X164289063Y-49669983D01*
X164195942Y-49809348D01*
X164195196Y-49811148D01*
X163652240Y-49268192D01*
X163652239Y-49268193D01*
X163577368Y-49371244D01*
X163462683Y-49596327D01*
X163384618Y-49836584D01*
X163345100Y-50086092D01*
X162000000Y-50086092D01*
X162000000Y-47698492D01*
X165732700Y-47698492D01*
X165732700Y-47951107D01*
X165772218Y-48200615D01*
X165850283Y-48440872D01*
X165963359Y-48662797D01*
X166054704Y-48754142D01*
X166582795Y-48226050D01*
X166583542Y-48227852D01*
X166676663Y-48367217D01*
X166795183Y-48485737D01*
X166934548Y-48578858D01*
X166936348Y-48579603D01*
X166408256Y-49107694D01*
X166499602Y-49199040D01*
X166721527Y-49312116D01*
X166961784Y-49390181D01*
X167211293Y-49429700D01*
X167463907Y-49429700D01*
X167713415Y-49390181D01*
X167953672Y-49312116D01*
X168175593Y-49199042D01*
X168266941Y-49107694D01*
X167738850Y-48579603D01*
X167740652Y-48578858D01*
X167880017Y-48485737D01*
X167998537Y-48367217D01*
X168091658Y-48227852D01*
X168092403Y-48226050D01*
X168620494Y-48754141D01*
X168711842Y-48662793D01*
X168824916Y-48440872D01*
X168902981Y-48200615D01*
X168942500Y-47951107D01*
X168942500Y-47698492D01*
X168902981Y-47448984D01*
X168824916Y-47208727D01*
X168710233Y-46983648D01*
X168635358Y-46880593D01*
X168635358Y-46880592D01*
X168092403Y-47423547D01*
X168091658Y-47421748D01*
X167998537Y-47282383D01*
X167880017Y-47163863D01*
X167740652Y-47070742D01*
X167738849Y-47069995D01*
X168281806Y-46527040D01*
X168178751Y-46452166D01*
X167953672Y-46337483D01*
X167713415Y-46259418D01*
X167463907Y-46219900D01*
X167211293Y-46219900D01*
X166961784Y-46259418D01*
X166721527Y-46337483D01*
X166496444Y-46452168D01*
X166393393Y-46527039D01*
X166393392Y-46527040D01*
X166936348Y-47069996D01*
X166934548Y-47070742D01*
X166795183Y-47163863D01*
X166676663Y-47282383D01*
X166583542Y-47421748D01*
X166582796Y-47423548D01*
X166039840Y-46880592D01*
X166039839Y-46880593D01*
X165964968Y-46983644D01*
X165850283Y-47208727D01*
X165772218Y-47448984D01*
X165732700Y-47698492D01*
X162000000Y-47698492D01*
X162000000Y-45024000D01*
X162019685Y-44956961D01*
X162072489Y-44911206D01*
X162124000Y-44900000D01*
X172876000Y-44900000D01*
X172943039Y-44919685D01*
G37*
%TD.AperFunction*%
%TD*%
M02*
