ISO-10303-21;
HEADER;
FILE_DESCRIPTION (( 'STEP AP214' ),
    '1' );
FILE_NAME ('RN732ABlack.STEP',
    '2023-03-14T12:38:52',
    ( '' ),
    ( '' ),
    'SwSTEP 2.0',
    'SolidWorks 2021',
    '' );
FILE_SCHEMA (( 'AUTOMOTIVE_DESIGN' ));
ENDSEC;

DATA;
#1 = PLANE ( 'NONE',  #284 ) ;
#2 = EDGE_CURVE ( 'NONE', #1169, #815, #1101, .T. ) ;
#3 = LINE ( 'NONE', #538, #864 ) ;
#4 = CARTESIAN_POINT ( 'NONE',  ( -1.000000000000000000, 0.03999999999999995920, -0.6250000000000000000 ) ) ;
#5 = VERTEX_POINT ( 'NONE', #648 ) ;
#6 = PLANE ( 'NONE',  #142 ) ;
#7 = DIRECTION ( 'NONE',  ( -1.000000000000000000, 0.000000000000000000, 0.000000000000000000 ) ) ;
#8 = ORIENTED_EDGE ( 'NONE', *, *, #1181, .T. ) ;
#9 = VERTEX_POINT ( 'NONE', #4 ) ;
#10 = EDGE_CURVE ( 'NONE', #1043, #539, #366, .T. ) ;
#11 = ORIENTED_EDGE ( 'NONE', *, *, #367, .F. ) ;
#12 = AXIS2_PLACEMENT_3D ( 'NONE', #936, #1037, #204 ) ;
#13 = DIRECTION ( 'NONE',  ( 0.000000000000000000, 0.000000000000000000, 1.000000000000000000 ) ) ;
#14 = AXIS2_PLACEMENT_3D ( 'NONE', #706, #349, #722 ) ;
#15 = CARTESIAN_POINT ( 'NONE',  ( -0.9599999999999999645, 0.03999999999999995920, -2.604090700296477046 ) ) ;
#16 = LINE ( 'NONE', #380, #1195 ) ;
#17 = VERTEX_POINT ( 'NONE', #653 ) ;
#18 = VERTEX_POINT ( 'NONE', #934 ) ;
#19 = VERTEX_POINT ( 'NONE', #96 ) ;
#20 = ADVANCED_FACE ( 'NONE', ( #468 ), #42, .F. ) ;
#21 = CARTESIAN_POINT ( 'NONE',  ( -0.9600000000000000755, 0.5199999999999999067, 0.6250000000000000000 ) ) ;
#22 = APPLICATION_CONTEXT ( 'automotive_design' ) ;
#23 = CARTESIAN_POINT ( 'NONE',  ( 0.9600000000000000755, 0.5199999999999999067, 0.6250000000000000000 ) ) ;
#24 = EDGE_LOOP ( 'NONE', ( #268, #981, #784, #11, #499, #333, #941, #1035, #1178, #470 ) ) ;
#25 = ORIENTED_EDGE ( 'NONE', *, *, #291, .T. ) ;
#26 = CARTESIAN_POINT ( 'NONE',  ( -0.9599999999999999645, 0.03999999999999995920, -2.604090700296477046 ) ) ;
#27 = EDGE_CURVE ( 'NONE', #244, #519, #1034, .T. ) ;
#28 = ADVANCED_FACE ( 'NONE', ( #665 ), #1124, .T. ) ;
#29 = CARTESIAN_POINT ( 'NONE',  ( 0.9600000000000000755, 0.03999999999999995920, 0.6250000000000000000 ) ) ;
#30 = ORIENTED_EDGE ( 'NONE', *, *, #1002, .F. ) ;
#31 = VERTEX_POINT ( 'NONE', #1100 ) ;
#32 = CARTESIAN_POINT ( 'NONE',  ( -0.5600000000000000533, 0.5599999999999999423, -1.827663710269833208 ) ) ;
#33 = AXIS2_PLACEMENT_3D ( 'NONE', #979, #307, #874 ) ;
#34 = FACE_OUTER_BOUND ( 'NONE', #1130, .T. ) ;
#35 = AXIS2_PLACEMENT_3D ( 'NONE', #580, #650, #13 ) ;
#36 = AXIS2_PLACEMENT_3D ( 'NONE', #115, #562, #1123 ) ;
#37 = CARTESIAN_POINT ( 'NONE',  ( 0.7000000000000000666, 0.000000000000000000, 0.6250000000000000000 ) ) ;
#38 = EDGE_CURVE ( 'NONE', #1030, #232, #978, .T. ) ;
#39 = ORIENTED_EDGE ( 'NONE', *, *, #996, .F. ) ;
#40 = CARTESIAN_POINT ( 'NONE',  ( -1.000000000000000000, 0.5199999999999999067, 0.6250000000000000000 ) ) ;
#41 = DIRECTION ( 'NONE',  ( 0.000000000000000000, 0.000000000000000000, 1.000000000000000000 ) ) ;
#42 = PLANE ( 'NONE',  #224 ) ;
#43 = SURFACE_STYLE_FILL_AREA ( #594 ) ;
#44 = EDGE_CURVE ( 'NONE', #1004, #31, #3, .T. ) ;
#45 = EDGE_LOOP ( 'NONE', ( #260, #744, #642, #214 ) ) ;
#46 = CARTESIAN_POINT ( 'NONE',  ( -0.9600000000000000755, 0.03999999999999995920, 0.6250000000000000000 ) ) ;
#47 = DIRECTION ( 'NONE',  ( 0.000000000000000000, -0.000000000000000000, 1.000000000000000000 ) ) ;
#48 = ORIENTED_EDGE ( 'NONE', *, *, #848, .F. ) ;
#49 = CARTESIAN_POINT ( 'NONE',  ( -0.7000000000000000666, 0.04000000000000000083, 0.6250000000000000000 ) ) ;
#50 = ADVANCED_FACE ( 'NONE', ( #56 ), #455, .T. ) ;
#51 = DIRECTION ( 'NONE',  ( -0.000000000000000000, -0.000000000000000000, -1.000000000000000000 ) ) ;
#52 = DIRECTION ( 'NONE',  ( 0.000000000000000000, -0.000000000000000000, -1.000000000000000000 ) ) ;
#53 = AXIS2_PLACEMENT_3D ( 'NONE', #628, #1184, #168 ) ;
#54 = ORIENTED_EDGE ( 'NONE', *, *, #359, .F. ) ;
#55 = VECTOR ( 'NONE', #841, 1000.000000000000000 ) ;
#56 = FACE_OUTER_BOUND ( 'NONE', #955, .T. ) ;
#57 = PLANE ( 'NONE',  #1133 ) ;
#58 = EDGE_LOOP ( 'NONE', ( #942, #915, #857, #202 ) ) ;
#59 = CYLINDRICAL_SURFACE ( 'NONE', #14, 0.03999999999999999389 ) ;
#60 = EDGE_CURVE ( 'NONE', #737, #1004, #172, .T. ) ;
#61 = ORIENTED_EDGE ( 'NONE', *, *, #759, .T. ) ;
#62 = FACE_OUTER_BOUND ( 'NONE', #58, .T. ) ;
#63 = CARTESIAN_POINT ( 'NONE',  ( 0.9600000000000000755, 0.03999999999999995920, -2.604090700296477046 ) ) ;
#64 = DIRECTION ( 'NONE',  ( -1.000000000000000000, 0.000000000000000000, 0.000000000000000000 ) ) ;
#65 = EDGE_CURVE ( 'NONE', #589, #755, #1007, .T. ) ;
#66 = ORIENTED_EDGE ( 'NONE', *, *, #1197, .F. ) ;
#67 = DIRECTION ( 'NONE',  ( 0.000000000000000000, 0.000000000000000000, -1.000000000000000000 ) ) ;
#68 = DIRECTION ( 'NONE',  ( 0.000000000000000000, 0.000000000000000000, 1.000000000000000000 ) ) ;
#69 = DIRECTION ( 'NONE',  ( -0.000000000000000000, -0.000000000000000000, -1.000000000000000000 ) ) ;
#70 = ORIENTED_EDGE ( 'NONE', *, *, #679, .F. ) ;
#71 = CARTESIAN_POINT ( 'NONE',  ( 0.6000000000000000888, 0.5199999999999999067, 0.6250000000000000000 ) ) ;
#72 = ADVANCED_FACE ( 'NONE', ( #807 ), #914, .T. ) ;
#73 = PLANE ( 'NONE',  #475 ) ;
#74 = DIRECTION ( 'NONE',  ( -1.000000000000000000, -0.000000000000000000, -0.000000000000000000 ) ) ;
#75 = PLANE ( 'NONE',  #904 ) ;
#76 = VERTEX_POINT ( 'NONE', #730 ) ;
#77 = ORIENTED_EDGE ( 'NONE', *, *, #1171, .F. ) ;
#78 = EDGE_CURVE ( 'NONE', #31, #1112, #253, .T. ) ;
#79 = SURFACE_STYLE_FILL_AREA ( #805 ) ;
#80 = CARTESIAN_POINT ( 'NONE',  ( 0.9600000000000000755, 0.03999999999999995920, -0.6250000000000000000 ) ) ;
#81 = PLANE ( 'NONE',  #967 ) ;
#82 = ORIENTED_EDGE ( 'NONE', *, *, #569, .T. ) ;
#83 = ORIENTED_EDGE ( 'NONE', *, *, #408, .T. ) ;
#84 = PRODUCT_DEFINITION_FORMATION_WITH_SPECIFIED_SOURCE ( 'ANY', '', #565, .NOT_KNOWN. ) ;
#85 = AXIS2_PLACEMENT_3D ( 'NONE', #1050, #618, #149 ) ;
#86 = DIRECTION ( 'NONE',  ( 1.824378655624647301E-16, -1.000000000000000000, 0.000000000000000000 ) ) ;
#87 = VECTOR ( 'NONE', #751, 1000.000000000000000 ) ;
#88 = ADVANCED_FACE ( 'NONE', ( #555 ), #635, .T. ) ;
#89 = CARTESIAN_POINT ( 'NONE',  ( -0.9600000000000000755, 0.5199999999999999067, 0.6250000000000000000 ) ) ;
#90 = LINE ( 'NONE', #259, #243 ) ;
#91 = EDGE_LOOP ( 'NONE', ( #1120, #838, #61, #563 ) ) ;
#92 = ORIENTED_EDGE ( 'NONE', *, *, #996, .T. ) ;
#93 = FACE_OUTER_BOUND ( 'NONE', #492, .T. ) ;
#94 = LINE ( 'NONE', #937, #87 ) ;
#95 = CARTESIAN_POINT ( 'NONE',  ( -0.9600000000000000755, 0.03999999999999995920, -0.6250000000000000000 ) ) ;
#96 = CARTESIAN_POINT ( 'NONE',  ( -0.9599999999999999645, 0.5599999999999999423, 0.6250000000000000000 ) ) ;
#97 = ORIENTED_EDGE ( 'NONE', *, *, #359, .T. ) ;
#98 = FACE_OUTER_BOUND ( 'NONE', #352, .T. ) ;
#99 = FACE_OUTER_BOUND ( 'NONE', #201, .T. ) ;
#100 = DIRECTION ( 'NONE',  ( 0.000000000000000000, 0.000000000000000000, -1.000000000000000000 ) ) ;
#101 = EDGE_LOOP ( 'NONE', ( #966, #921, #727, #411, #1014, #763, #898, #993, #218, #1015 ) ) ;
#102 = ADVANCED_FACE ( 'NONE', ( #324 ), #81, .F. ) ;
#103 = VERTEX_POINT ( 'NONE', #139 ) ;
#104 = AXIS2_PLACEMENT_3D ( 'NONE', #251, #67, #436 ) ;
#105 = DIRECTION ( 'NONE',  ( -0.000000000000000000, 0.000000000000000000, -1.000000000000000000 ) ) ;
#106 =( GEOMETRIC_REPRESENTATION_CONTEXT ( 3 ) GLOBAL_UNCERTAINTY_ASSIGNED_CONTEXT ( ( #248 ) ) GLOBAL_UNIT_ASSIGNED_CONTEXT ( ( #171, #803, #441 ) ) REPRESENTATION_CONTEXT ( 'NONE', 'WORKASPACE' ) );
#107 = CIRCLE ( 'NONE', #164, 0.03999999999999999389 ) ;
#108 = VECTOR ( 'NONE', #609, 1000.000000000000000 ) ;
#109 = CARTESIAN_POINT ( 'NONE',  ( 0.9600000000000000755, 0.5199999999999999067, -0.6250000000000001110 ) ) ;
#110 = DIRECTION ( 'NONE',  ( 1.000000000000000000, 0.000000000000000000, 0.000000000000000000 ) ) ;
#111 = EDGE_LOOP ( 'NONE', ( #556, #524, #121, #1113 ) ) ;
#112 = CARTESIAN_POINT ( 'NONE',  ( -0.6000000000000000888, 0.5599999999999999423, 0.6250000000000000000 ) ) ;
#113 = EDGE_CURVE ( 'NONE', #19, #1024, #107, .T. ) ;
#114 = DIRECTION ( 'NONE',  ( -1.000000000000000000, 1.824378655624647301E-16, 0.000000000000000000 ) ) ;
#115 = CARTESIAN_POINT ( 'NONE',  ( -0.9600000000000000755, 0.03999999999999995920, 0.6250000000000000000 ) ) ;
#116 = ORIENTED_EDGE ( 'NONE', *, *, #60, .T. ) ;
#117 = ORIENTED_EDGE ( 'NONE', *, *, #38, .F. ) ;
#118 = DIRECTION ( 'NONE',  ( -1.000000000000000000, 0.000000000000000000, 0.000000000000000000 ) ) ;
#119 = ADVANCED_FACE ( 'NONE', ( #907 ), #75, .F. ) ;
#120 = PLANE ( 'NONE',  #261 ) ;
#121 = ORIENTED_EDGE ( 'NONE', *, *, #810, .T. ) ;
#122 = ORIENTED_EDGE ( 'NONE', *, *, #385, .T. ) ;
#123 = DIRECTION ( 'NONE',  ( 0.000000000000000000, -0.000000000000000000, -1.000000000000000000 ) ) ;
#124 = PRESENTATION_LAYER_ASSIGNMENT (  '', '', ( #795 ) ) ;
#125 = LINE ( 'NONE', #308, #245 ) ;
#126 = DIRECTION ( 'NONE',  ( -1.000000000000000000, 0.000000000000000000, 0.000000000000000000 ) ) ;
#127 = VECTOR ( 'NONE', #511, 1000.000000000000000 ) ;
#128 =( NAMED_UNIT ( * ) SI_UNIT ( $, .STERADIAN. ) SOLID_ANGLE_UNIT ( ) );
#129 = CIRCLE ( 'NONE', #1156, 0.03999999999999999389 ) ;
#130 = ORIENTED_EDGE ( 'NONE', *, *, #818, .F. ) ;
#131 = CARTESIAN_POINT ( 'NONE',  ( 0.9600000000000000755, 0.5199999999999999067, -0.6250000000000001110 ) ) ;
#132 = CARTESIAN_POINT ( 'NONE',  ( -0.9600000000000000755, 0.5199999999999999067, -2.604090700296477046 ) ) ;
#133 = EDGE_CURVE ( 'NONE', #323, #774, #641, .T. ) ;
#134 = ORIENTED_EDGE ( 'NONE', *, *, #408, .F. ) ;
#135 = DIRECTION ( 'NONE',  ( 0.000000000000000000, 0.000000000000000000, 1.000000000000000000 ) ) ;
#136 = FACE_OUTER_BOUND ( 'NONE', #637, .T. ) ;
#137 = EDGE_LOOP ( 'NONE', ( #169, #362, #649, #464 ) ) ;
#138 = EDGE_CURVE ( 'NONE', #1200, #539, #90, .T. ) ;
#139 = CARTESIAN_POINT ( 'NONE',  ( -0.9599999999999999645, 0.03999999999999995920, 0.6250000000000000000 ) ) ;
#140 = DIRECTION ( 'NONE',  ( 0.000000000000000000, 1.000000000000000000, 0.000000000000000000 ) ) ;
#141 = CARTESIAN_POINT ( 'NONE',  ( -0.9600000000000000755, 0.5199999999999999067, 0.6250000000000000000 ) ) ;
#142 = AXIS2_PLACEMENT_3D ( 'NONE', #739, #943, #105 ) ;
#143 = CARTESIAN_POINT ( 'NONE',  ( 0.7000000000000000666, 0.04000000000000000083, 0.6250000000000000000 ) ) ;
#144 = AXIS2_PLACEMENT_3D ( 'NONE', #198, #305, #758 ) ;
#145 = ORIENTED_EDGE ( 'NONE', *, *, #153, .T. ) ;
#146 = PRESENTATION_LAYER_ASSIGNMENT (  '', '', ( #434 ) ) ;
#147 = DIRECTION ( 'NONE',  ( 2.710505431213761479E-15, 1.000000000000000000, 0.000000000000000000 ) ) ;
#148 = EDGE_CURVE ( 'NONE', #1004, #1200, #547, .T. ) ;
#149 = DIRECTION ( 'NONE',  ( 1.000000000000000000, 0.000000000000000000, 0.000000000000000000 ) ) ;
#150 = ORIENTED_EDGE ( 'NONE', *, *, #657, .T. ) ;
#151 = CARTESIAN_POINT ( 'NONE',  ( -0.7000000000000000666, 0.04000000000000000083, 0.6250000000000000000 ) ) ;
#152 = CARTESIAN_POINT ( 'NONE',  ( 0.6000000000000001998, 0.5599999999999998312, 0.6250000000000000000 ) ) ;
#153 = EDGE_CURVE ( 'NONE', #298, #769, #1162, .T. ) ;
#154 = FACE_OUTER_BOUND ( 'NONE', #227, .T. ) ;
#155 = VERTEX_POINT ( 'NONE', #829 ) ;
#156 = DIRECTION ( 'NONE',  ( 0.000000000000000000, -0.000000000000000000, -1.000000000000000000 ) ) ;
#157 = PLANE ( 'NONE',  #986 ) ;
#158 = EDGE_CURVE ( 'NONE', #407, #815, #415, .T. ) ;
#159 = AXIS2_PLACEMENT_3D ( 'NONE', #425, #621, #540 ) ;
#160 = DIRECTION ( 'NONE',  ( -1.000000000000000000, 0.000000000000000000, 0.000000000000000000 ) ) ;
#161 = EDGE_CURVE ( 'NONE', #667, #194, #473, .T. ) ;
#162 = EDGE_LOOP ( 'NONE', ( #250, #355, #428, #328 ) ) ;
#163 = SURFACE_STYLE_FILL_AREA ( #624 ) ;
#164 = AXIS2_PLACEMENT_3D ( 'NONE', #543, #180, #160 ) ;
#165 = VECTOR ( 'NONE', #691, 1000.000000000000000 ) ;
#166 = DIRECTION ( 'NONE',  ( 1.000000000000000000, 0.000000000000000000, -0.000000000000000000 ) ) ;
#167 = DIRECTION ( 'NONE',  ( 1.000000000000000000, 1.818576331356368456E-16, -0.000000000000000000 ) ) ;
#168 = DIRECTION ( 'NONE',  ( -1.000000000000000000, 0.000000000000000000, 0.000000000000000000 ) ) ;
#169 = ORIENTED_EDGE ( 'NONE', *, *, #854, .T. ) ;
#170 = ADVANCED_FACE ( 'NONE', ( #575 ), #120, .T. ) ;
#171 =( LENGTH_UNIT ( ) NAMED_UNIT ( * ) SI_UNIT ( .MILLI., .METRE. ) );
#172 =( BOUNDED_CURVE ( )  B_SPLINE_CURVE ( 3, ( #813, #1105, #358, #1191 ),
 .UNSPECIFIED., .F., .T. ) 
 B_SPLINE_CURVE_WITH_KNOTS ( ( 4, 4 ),
 ( 4.712388980384689674, 6.283185307179586232 ),
 .UNSPECIFIED. ) 
 CURVE ( )  GEOMETRIC_REPRESENTATION_ITEM ( )  RATIONAL_B_SPLINE_CURVE ( ( 1.000000000000000000, 0.8047378541243649375, 0.8047378541243649375, 1.000000000000000000 ) ) 
 REPRESENTATION_ITEM ( '' )  );
#173 = SURFACE_SIDE_STYLE ('',( #79 ) ) ;
#174 = DIRECTION ( 'NONE',  ( -1.000000000000000000, 0.000000000000000000, 0.000000000000000000 ) ) ;
#175 = DIRECTION ( 'NONE',  ( 1.000000000000000000, 0.000000000000000000, 0.000000000000000000 ) ) ;
#176 = ORIENTED_EDGE ( 'NONE', *, *, #138, .F. ) ;
#177 = ORIENTED_EDGE ( 'NONE', *, *, #1152, .T. ) ;
#178 = LINE ( 'NONE', #923, #396 ) ;
#179 = DIRECTION ( 'NONE',  ( 1.000000000000000000, -1.818576331356368456E-16, 0.000000000000000000 ) ) ;
#180 = DIRECTION ( 'NONE',  ( 0.000000000000000000, 0.000000000000000000, 1.000000000000000000 ) ) ;
#181 = ORIENTED_EDGE ( 'NONE', *, *, #657, .F. ) ;
#182 = PRODUCT_DEFINITION_SHAPE ( 'NONE', 'NONE',  #392 ) ;
#183 = ORIENTED_EDGE ( 'NONE', *, *, #887, .T. ) ;
#184 = DIRECTION ( 'NONE',  ( 1.000000000000000000, 0.000000000000000000, 0.000000000000000000 ) ) ;
#185 = EDGE_CURVE ( 'NONE', #402, #76, #1027, .T. ) ;
#186 = FACE_OUTER_BOUND ( 'NONE', #610, .T. ) ;
#187 = CARTESIAN_POINT ( 'NONE',  ( -0.5600000000000000533, 0.5999999999999999778, -0.5849999999999999645 ) ) ;
#188 = ORIENTED_EDGE ( 'NONE', *, *, #897, .T. ) ;
#189 = EDGE_LOOP ( 'NONE', ( #1192, #39, #832, #306 ) ) ;
#190 = DIRECTION ( 'NONE',  ( 0.000000000000000000, 0.000000000000000000, -1.000000000000000000 ) ) ;
#191 = EDGE_CURVE ( 'NONE', #1091, #407, #276, .T. ) ;
#192 = DIRECTION ( 'NONE',  ( 0.000000000000000000, -0.000000000000000000, -1.000000000000000000 ) ) ;
#193 = ORIENTED_EDGE ( 'NONE', *, *, #1152, .F. ) ;
#194 = VERTEX_POINT ( 'NONE', #677 ) ;
#195 = ORIENTED_EDGE ( 'NONE', *, *, #27, .T. ) ;
#196 = CARTESIAN_POINT ( 'NONE',  ( 0.7000000000000000666, 0.000000000000000000, 0.6250000000000000000 ) ) ;
#197 = LINE ( 'NONE', #391, #781 ) ;
#198 = CARTESIAN_POINT ( 'NONE',  ( 0.9600000000000000755, 0.03999999999999995920, 0.6250000000000000000 ) ) ;
#199 = DIRECTION ( 'NONE',  ( 0.000000000000000000, -0.000000000000000000, -1.000000000000000000 ) ) ;
#200 = EDGE_CURVE ( 'NONE', #1081, #194, #467, .T. ) ;
#201 = EDGE_LOOP ( 'NONE', ( #929, #423, #794, #469 ) ) ;
#202 = ORIENTED_EDGE ( 'NONE', *, *, #940, .F. ) ;
#203 = AXIS2_PLACEMENT_3D ( 'NONE', #32, #403, #1157 ) ;
#204 = DIRECTION ( 'NONE',  ( 1.000000000000000000, 0.000000000000000000, 0.000000000000000000 ) ) ;
#205 = VECTOR ( 'NONE', #192, 1000.000000000000000 ) ;
#206 = VECTOR ( 'NONE', #1163, 1000.000000000000000 ) ;
#207 = DIRECTION ( 'NONE',  ( 1.000000000000000000, 1.818576331356368456E-16, -0.000000000000000000 ) ) ;
#208 = ORIENTED_EDGE ( 'NONE', *, *, #940, .T. ) ;
#209 = ADVANCED_FACE ( 'NONE', ( #850 ), #856, .F. ) ;
#210 = ORIENTED_EDGE ( 'NONE', *, *, #818, .T. ) ;
#211 = CARTESIAN_POINT ( 'NONE',  ( -0.6000000000000000888, 0.5199999999999999067, -1.827663710269833208 ) ) ;
#212 = DIRECTION ( 'NONE',  ( 0.000000000000000000, 1.000000000000000000, 0.000000000000000000 ) ) ;
#213 = CARTESIAN_POINT ( 'NONE',  ( 0.7000000000000000666, 0.04000000000000000083, 0.6250000000000000000 ) ) ;
#214 = ORIENTED_EDGE ( 'NONE', *, *, #684, .F. ) ;
#215 = CARTESIAN_POINT ( 'NONE',  ( -0.6000000000000000888, 0.5199999999999999067, -0.6250000000000001110 ) ) ;
#216 = DIRECTION ( 'NONE',  ( -1.000000000000000000, -0.000000000000000000, -0.000000000000000000 ) ) ;
#217 = DIRECTION ( 'NONE',  ( -0.000000000000000000, -0.000000000000000000, -1.000000000000000000 ) ) ;
#218 = ORIENTED_EDGE ( 'NONE', *, *, #1107, .T. ) ;
#219 = EDGE_LOOP ( 'NONE', ( #340, #381, #273, #1009, #48, #181, #383, #972, #1185, #66 ) ) ;
#220 = FACE_OUTER_BOUND ( 'NONE', #777, .T. ) ;
#221 = VECTOR ( 'NONE', #685, 1000.000000000000000 ) ;
#222 = CARTESIAN_POINT ( 'NONE',  ( -0.9600000000000000755, -4.728298461526556606E-17, 0.6250000000000000000 ) ) ;
#223 = AXIS2_PLACEMENT_3D ( 'NONE', #365, #1064, #606 ) ;
#224 = AXIS2_PLACEMENT_3D ( 'NONE', #497, #293, #963 ) ;
#225 = DIRECTION ( 'NONE',  ( 0.000000000000000000, -0.000000000000000000, -1.000000000000000000 ) ) ;
#226 = AXIS2_PLACEMENT_3D ( 'NONE', #889, #225, #975 ) ;
#227 = EDGE_LOOP ( 'NONE', ( #1028, #1063, #130, #873 ) ) ;
#228 = DIRECTION ( 'NONE',  ( -0.000000000000000000, 0.000000000000000000, -1.000000000000000000 ) ) ;
#229 = CARTESIAN_POINT ( 'NONE',  ( 0.6000000000000000888, 0.5199999999999999067, -0.6250000000000000000 ) ) ;
#230 = CARTESIAN_POINT ( 'NONE',  ( -0.7000000000000000666, 0.000000000000000000, 0.6250000000000000000 ) ) ;
#231 = EDGE_CURVE ( 'NONE', #659, #31, #913, .T. ) ;
#232 = VERTEX_POINT ( 'NONE', #587 ) ;
#233 = CARTESIAN_POINT ( 'NONE',  ( -0.9600000000000000755, 0.5199999999999999067, -0.6250000000000001110 ) ) ;
#234 = CARTESIAN_POINT ( 'NONE',  ( -0.6000000000000000888, 0.5599999999999999423, 0.6250000000000000000 ) ) ;
#235 = DIRECTION ( 'NONE',  ( -0.000000000000000000, -0.000000000000000000, -1.000000000000000000 ) ) ;
#236 =( NAMED_UNIT ( * ) PLANE_ANGLE_UNIT ( ) SI_UNIT ( $, .RADIAN. ) );
#237 = EDGE_CURVE ( 'NONE', #712, #103, #741, .T. ) ;
#238 = EDGE_LOOP ( 'NONE', ( #894, #474, #195, #1194 ) ) ;
#239 = CARTESIAN_POINT ( 'NONE',  ( 0.5834314575050764118, 0.5999999999999999778, 0.6084314575050762119 ) ) ;
#240 = LINE ( 'NONE', #1084, #533 ) ;
#241 = VECTOR ( 'NONE', #775, 1000.000000000000000 ) ;
#242 = LINE ( 'NONE', #783, #705 ) ;
#243 = VECTOR ( 'NONE', #175, 1000.000000000000000 ) ;
#244 = VERTEX_POINT ( 'NONE', #23 ) ;
#245 = VECTOR ( 'NONE', #974, 1000.000000000000000 ) ;
#246 = PRESENTATION_STYLE_ASSIGNMENT (( #420 ) ) ;
#247 = EDGE_CURVE ( 'NONE', #9, #770, #946, .T. ) ;
#248 = UNCERTAINTY_MEASURE_WITH_UNIT (LENGTH_MEASURE( 1.000000000000000082E-05 ), #171, 'distance_accuracy_value', 'NONE');
#249 = LINE ( 'NONE', #992, #479 ) ;
#250 = ORIENTED_EDGE ( 'NONE', *, *, #715, .T. ) ;
#251 = CARTESIAN_POINT ( 'NONE',  ( 0.9600000000000000755, 0.03999999999999995920, -0.6250000000000000000 ) ) ;
#252 = CARTESIAN_POINT ( 'NONE',  ( 0.5600000000000001643, 0.5999999999999999778, -0.5849999999999999645 ) ) ;
#253 = LINE ( 'NONE', #927, #820 ) ;
#254 = ORIENTED_EDGE ( 'NONE', *, *, #10, .F. ) ;
#255 = FACE_OUTER_BOUND ( 'NONE', #287, .T. ) ;
#256 = LINE ( 'NONE', #438, #558 ) ;
#257 = EDGE_CURVE ( 'NONE', #790, #890, #938, .T. ) ;
#258 = VECTOR ( 'NONE', #147, 1000.000000000000000 ) ;
#259 = CARTESIAN_POINT ( 'NONE',  ( -0.6000000000000000888, 0.5199999999999999067, 0.6250000000000000000 ) ) ;
#260 = ORIENTED_EDGE ( 'NONE', *, *, #745, .F. ) ;
#261 = AXIS2_PLACEMENT_3D ( 'NONE', #842, #735, #669 ) ;
#262 = VECTOR ( 'NONE', #285, 1000.000000000000000 ) ;
#263 = DIRECTION ( 'NONE',  ( -1.000000000000000000, -1.824378655624647301E-16, 0.000000000000000000 ) ) ;
#264 = FILL_AREA_STYLE_COLOUR ( '', #517 ) ;
#265 = FACE_OUTER_BOUND ( 'NONE', #802, .T. ) ;
#266 = ADVANCED_FACE ( 'NONE', ( #1129 ), #286, .F. ) ;
#267 = DIRECTION ( 'NONE',  ( 1.000000000000000000, 0.000000000000000000, -0.000000000000000000 ) ) ;
#268 = ORIENTED_EDGE ( 'NONE', *, *, #810, .F. ) ;
#269 = ORIENTED_EDGE ( 'NONE', *, *, #161, .F. ) ;
#270 = CARTESIAN_POINT ( 'NONE',  ( -0.7000000000000000666, 0.04000000000000000083, 0.6250000000000000000 ) ) ;
#271 = PLANE ( 'NONE',  #800 ) ;
#272 = CARTESIAN_POINT ( 'NONE',  ( 0.6000000000000001998, 0.5599999999999998312, -1.827663710269833208 ) ) ;
#273 = ORIENTED_EDGE ( 'NONE', *, *, #247, .F. ) ;
#274 = EDGE_CURVE ( 'NONE', #519, #1081, #16, .T. ) ;
#275 = CARTESIAN_POINT ( 'NONE',  ( -0.9599999999999999645, 0.03999999999999995920, 0.6250000000000000000 ) ) ;
#276 = LINE ( 'NONE', #491, #205 ) ;
#277 = DIRECTION ( 'NONE',  ( 0.000000000000000000, 0.000000000000000000, 1.000000000000000000 ) ) ;
#278 = VECTOR ( 'NONE', #118, 1000.000000000000000 ) ;
#279 = STYLED_ITEM ( 'NONE', ( #1186 ), #446 ) ;
#280 = EDGE_LOOP ( 'NONE', ( #726, #596, #395, #188, #582, #1149, #1139, #695, #666, #25 ) ) ;
#281 = VECTOR ( 'NONE', #370, 1000.000000000000000 ) ;
#282 = EDGE_CURVE ( 'NONE', #815, #808, #933, .T. ) ;
#283 = DIRECTION ( 'NONE',  ( 0.000000000000000000, -0.000000000000000000, -1.000000000000000000 ) ) ;
#284 = AXIS2_PLACEMENT_3D ( 'NONE', #734, #828, #114 ) ;
#285 = DIRECTION ( 'NONE',  ( -1.000000000000000000, 0.000000000000000000, 0.000000000000000000 ) ) ;
#286 = PLANE ( 'NONE',  #353 ) ;
#287 = EDGE_LOOP ( 'NONE', ( #1118, #117, #954, #320 ) ) ;
#288 = ORIENTED_EDGE ( 'NONE', *, *, #1144, .F. ) ;
#289 = CARTESIAN_POINT ( 'NONE',  ( 0.6000000000000003109, 0.5834314575050760787, -0.6250000000000002220 ) ) ;
#290 = CARTESIAN_POINT ( 'NONE',  ( -0.6000000000000000888, 0.5599999999999999423, 0.6250000000000000000 ) ) ;
#291 = EDGE_CURVE ( 'NONE', #544, #344, #953, .T. ) ;
#292 = FACE_OUTER_BOUND ( 'NONE', #91, .T. ) ;
#293 = DIRECTION ( 'NONE',  ( 0.000000000000000000, -1.000000000000000000, 0.000000000000000000 ) ) ;
#294 = ORIENTED_EDGE ( 'NONE', *, *, #976, .T. ) ;
#295 = DIRECTION ( 'NONE',  ( 0.000000000000000000, -0.000000000000000000, 1.000000000000000000 ) ) ;
#296 = DIRECTION ( 'NONE',  ( 0.000000000000000000, 1.000000000000000000, 0.000000000000000000 ) ) ;
#297 = EDGE_CURVE ( 'NONE', #866, #544, #557, .T. ) ;
#298 = VERTEX_POINT ( 'NONE', #486 ) ;
#299 = VERTEX_POINT ( 'NONE', #29 ) ;
#300 = VECTOR ( 'NONE', #184, 1000.000000000000000 ) ;
#301 = CARTESIAN_POINT ( 'NONE',  ( 0.6000000000000000888, 0.5599999999999999423, 0.6250000000000000000 ) ) ;
#302 =( GEOMETRIC_REPRESENTATION_CONTEXT ( 3 ) GLOBAL_UNCERTAINTY_ASSIGNED_CONTEXT ( ( #615 ) ) GLOBAL_UNIT_ASSIGNED_CONTEXT ( ( #531, #442, #786 ) ) REPRESENTATION_CONTEXT ( 'NONE', 'WORKASPACE' ) );
#303 = CLOSED_SHELL ( 'NONE', ( #1137, #266, #28, #577, #422, #1088, #504, #1128, #1053, #50 ) ) ;
#304 = VECTOR ( 'NONE', #356, 1000.000000000000000 ) ;
#305 = DIRECTION ( 'NONE',  ( 1.000000000000000000, 0.000000000000000000, -0.000000000000000000 ) ) ;
#306 = ORIENTED_EDGE ( 'NONE', *, *, #752, .T. ) ;
#307 = DIRECTION ( 'NONE',  ( 1.000000000000000000, 0.000000000000000000, 0.000000000000000000 ) ) ;
#308 = CARTESIAN_POINT ( 'NONE',  ( 0.9600000000000000755, 0.5199999999999999067, 0.6250000000000000000 ) ) ;
#309 = ORIENTED_EDGE ( 'NONE', *, *, #738, .T. ) ;
#310 = ORIENTED_EDGE ( 'NONE', *, *, #191, .T. ) ;
#311 = LINE ( 'NONE', #961, #1016 ) ;
#312 = ADVANCED_FACE ( 'NONE', ( #292 ), #1032, .F. ) ;
#313 = CARTESIAN_POINT ( 'NONE',  ( 0.9600000000000000755, -4.728298461526556606E-17, -0.6250000000000000000 ) ) ;
#314 = ORIENTED_EDGE ( 'NONE', *, *, #877, .F. ) ;
#315 = LINE ( 'NONE', #1052, #221 ) ;
#316 = VECTOR ( 'NONE', #984, 1000.000000000000000 ) ;
#317 = EDGE_CURVE ( 'NONE', #244, #1125, #1135, .T. ) ;
#318 = MECHANICAL_DESIGN_GEOMETRIC_PRESENTATION_REPRESENTATION (  '', ( #434 ), #1116 ) ;
#319 = CYLINDRICAL_SURFACE ( 'NONE', #226, 0.03999999999999999389 ) ;
#320 = ORIENTED_EDGE ( 'NONE', *, *, #414, .T. ) ;
#321 = CARTESIAN_POINT ( 'NONE',  ( 0.6000000000000000888, 0.5199999999999999067, -0.6250000000000001110 ) ) ;
#322 = CARTESIAN_POINT ( 'NONE',  ( -0.7000000000000000666, 0.000000000000000000, 0.6250000000000000000 ) ) ;
#323 = VERTEX_POINT ( 'NONE', #1055 ) ;
#324 = FACE_OUTER_BOUND ( 'NONE', #476, .T. ) ;
#325 = CARTESIAN_POINT ( 'NONE',  ( 0.5600000000000001643, 0.5999999999999999778, 0.5849999999999999645 ) ) ;
#326 = CARTESIAN_POINT ( 'NONE',  ( -0.9599999999999999645, 0.03999999999999995920, -0.6250000000000001110 ) ) ;
#327 = ADVANCED_FACE ( 'NONE', ( #136 ), #417, .T. ) ;
#328 = ORIENTED_EDGE ( 'NONE', *, *, #700, .T. ) ;
#329 = MECHANICAL_DESIGN_GEOMETRIC_PRESENTATION_REPRESENTATION (  '', ( #861 ), #302 ) ;
#330 = VECTOR ( 'NONE', #625, 1000.000000000000000 ) ;
#331 = CARTESIAN_POINT ( 'NONE',  ( -0.6000000000000000888, 0.5599999999999999423, -0.6250000000000000000 ) ) ;
#332 = VECTOR ( 'NONE', #1164, 1000.000000000000000 ) ;
#333 = ORIENTED_EDGE ( 'NONE', *, *, #932, .F. ) ;
#334 = VECTOR ( 'NONE', #716, 1000.000000000000000 ) ;
#335 = SHAPE_DEFINITION_REPRESENTATION ( #182, #446 ) ;
#336 = EDGE_CURVE ( 'NONE', #76, #564, #242, .T. ) ;
#337 = FILL_AREA_STYLE_COLOUR ( '', #670 ) ;
#338 = SURFACE_STYLE_FILL_AREA ( #991 ) ;
#339 = DIRECTION ( 'NONE',  ( -0.000000000000000000, -0.000000000000000000, -1.000000000000000000 ) ) ;
#340 = ORIENTED_EDGE ( 'NONE', *, *, #133, .F. ) ;
#341 = EDGE_CURVE ( 'NONE', #866, #9, #400, .T. ) ;
#342 = FACE_OUTER_BOUND ( 'NONE', #977, .T. ) ;
#343 = CARTESIAN_POINT ( 'NONE',  ( 1.000000000000000000, 0.03999999999999995920, 0.6250000000000000000 ) ) ;
#344 = VERTEX_POINT ( 'NONE', #230 ) ;
#345 = DIRECTION ( 'NONE',  ( 0.000000000000000000, 0.000000000000000000, 1.000000000000000000 ) ) ;
#346 = PLANE ( 'NONE',  #159 ) ;
#347 = DIRECTION ( 'NONE',  ( 0.000000000000000000, -0.000000000000000000, -1.000000000000000000 ) ) ;
#348 = EDGE_CURVE ( 'NONE', #488, #583, #406, .T. ) ;
#349 = DIRECTION ( 'NONE',  ( -0.000000000000000000, -0.000000000000000000, -1.000000000000000000 ) ) ;
#350 = AXIS2_PLACEMENT_3D ( 'NONE', #916, #1180, #545 ) ;
#351 = DIRECTION ( 'NONE',  ( 0.000000000000000000, 0.000000000000000000, -1.000000000000000000 ) ) ;
#352 = EDGE_LOOP ( 'NONE', ( #836, #692, #1036, #314 ) ) ;
#353 = AXIS2_PLACEMENT_3D ( 'NONE', #658, #100, #393 ) ;
#354 = VECTOR ( 'NONE', #526, 1000.000000000000000 ) ;
#355 = ORIENTED_EDGE ( 'NONE', *, *, #414, .F. ) ;
#356 = DIRECTION ( 'NONE',  ( 0.000000000000000000, 0.000000000000000000, 1.000000000000000000 ) ) ;
#357 = LINE ( 'NONE', #1006, #905 ) ;
#358 = CARTESIAN_POINT ( 'NONE',  ( -0.6000000000000000888, 0.5834314575050761897, 0.6250000000000000000 ) ) ;
#359 = EDGE_CURVE ( 'NONE', #344, #323, #698, .T. ) ;
#360 = ORIENTED_EDGE ( 'NONE', *, *, #191, .F. ) ;
#361 = MANIFOLD_SOLID_BREP ( 'Mirror2', #398 ) ;
#362 = ORIENTED_EDGE ( 'NONE', *, *, #341, .F. ) ;
#363 = LINE ( 'NONE', #733, #454 ) ;
#364 = CARTESIAN_POINT ( 'NONE',  ( 0.9600000000000000755, 0.5199999999999999067, 0.6250000000000000000 ) ) ;
#365 = CARTESIAN_POINT ( 'NONE',  ( 0.9600000000000000755, 0.5199999999999999067, -0.6250000000000000000 ) ) ;
#366 = LINE ( 'NONE', #736, #1077 ) ;
#367 = EDGE_CURVE ( 'NONE', #1169, #707, #603, .T. ) ;
#368 = ORIENTED_EDGE ( 'NONE', *, *, #336, .F. ) ;
#369 = CARTESIAN_POINT ( 'NONE',  ( 0.5834314575050764118, 0.5999999999999999778, -0.6084314575050762119 ) ) ;
#370 = DIRECTION ( 'NONE',  ( 0.000000000000000000, -0.000000000000000000, -1.000000000000000000 ) ) ;
#371 = ORIENTED_EDGE ( 'NONE', *, *, #887, .F. ) ;
#372 = VERTEX_POINT ( 'NONE', #313 ) ;
#373 = VECTOR ( 'NONE', #217, 1000.000000000000000 ) ;
#374 = EDGE_CURVE ( 'NONE', #1091, #1169, #129, .T. ) ;
#375 = AXIS2_PLACEMENT_3D ( 'NONE', #364, #212, #41 ) ;
#376 = DIRECTION ( 'NONE',  ( 1.000000000000000000, 1.824378655624647301E-16, 0.000000000000000000 ) ) ;
#377 = ADVANCED_FACE ( 'NONE', ( #988 ), #319, .T. ) ;
#378 = AXIS2_PLACEMENT_3D ( 'NONE', #676, #1045, #567 ) ;
#379 = CARTESIAN_POINT ( 'NONE',  ( 0.9600000000000000755, 0.5599999999999999423, -0.6250000000000000000 ) ) ;
#380 = CARTESIAN_POINT ( 'NONE',  ( 0.6000000000000000888, 0.5599999999999999423, 0.6250000000000000000 ) ) ;
#381 = ORIENTED_EDGE ( 'NONE', *, *, #490, .F. ) ;
#382 = ORIENTED_EDGE ( 'NONE', *, *, #274, .T. ) ;
#383 = ORIENTED_EDGE ( 'NONE', *, *, #461, .F. ) ;
#384 = DIRECTION ( 'NONE',  ( -0.000000000000000000, -1.000000000000000000, -0.000000000000000000 ) ) ;
#385 = EDGE_CURVE ( 'NONE', #155, #712, #509, .T. ) ;
#386 = PLANE ( 'NONE',  #968 ) ;
#387 = DIRECTION ( 'NONE',  ( 0.000000000000000000, 0.000000000000000000, -1.000000000000000000 ) ) ;
#388 = ORIENTED_EDGE ( 'NONE', *, *, #78, .T. ) ;
#389 = ORIENTED_EDGE ( 'NONE', *, *, #60, .F. ) ;
#390 = DIRECTION ( 'NONE',  ( 1.000000000000000000, 0.000000000000000000, 0.000000000000000000 ) ) ;
#391 = CARTESIAN_POINT ( 'NONE',  ( -1.000000000000000000, 0.03999999999999995920, 0.6250000000000000000 ) ) ;
#392 = PRODUCT_DEFINITION ( 'UNKNOWN', '', #84, #870 ) ;
#393 = DIRECTION ( 'NONE',  ( -1.000000000000000000, 0.000000000000000000, -0.000000000000000000 ) ) ;
#394 = ORIENTED_EDGE ( 'NONE', *, *, #700, .F. ) ;
#395 = ORIENTED_EDGE ( 'NONE', *, *, #348, .T. ) ;
#396 = VECTOR ( 'NONE', #384, 1000.000000000000000 ) ;
#397 = CARTESIAN_POINT ( 'NONE',  ( -0.9599999999999999645, 0.5599999999999999423, 0.6250000000000000000 ) ) ;
#398 = CLOSED_SHELL ( 'NONE', ( #837, #604, #312, #636, #789, #917, #830, #119, #377, #528, #209, #950 ) ) ;
#399 = PRESENTATION_LAYER_ASSIGNMENT (  '', '', ( #1136 ) ) ;
#400 = LINE ( 'NONE', #523, #373 ) ;
#401 = EDGE_CURVE ( 'NONE', #659, #737, #879, .T. ) ;
#402 = VERTEX_POINT ( 'NONE', #143 ) ;
#403 = DIRECTION ( 'NONE',  ( 0.000000000000000000, -0.000000000000000000, 1.000000000000000000 ) ) ;
#404 = CARTESIAN_POINT ( 'NONE',  ( 0.9600000000000000755, 0.03999999999999995920, 0.6250000000000000000 ) ) ;
#405 = CARTESIAN_POINT ( 'NONE',  ( 0.9600000000000000755, 0.5199999999999999067, 0.6250000000000000000 ) ) ;
#406 = LINE ( 'NONE', #773, #332 ) ;
#407 = VERTEX_POINT ( 'NONE', #410 ) ;
#408 = EDGE_CURVE ( 'NONE', #1112, #1200, #518, .T. ) ;
#409 = CARTESIAN_POINT ( 'NONE',  ( -0.6000000000000000888, 0.5199999999999999067, 0.6250000000000000000 ) ) ;
#410 = CARTESIAN_POINT ( 'NONE',  ( 0.9599999999999999645, 0.5599999999999999423, -0.6250000000000000000 ) ) ;
#411 = ORIENTED_EDGE ( 'NONE', *, *, #1017, .T. ) ;
#412 = CARTESIAN_POINT ( 'NONE',  ( 1.000000000000000000, 0.03999999999999995920, 0.6250000000000000000 ) ) ;
#413 =( GEOMETRIC_REPRESENTATION_CONTEXT ( 3 ) GLOBAL_UNCERTAINTY_ASSIGNED_CONTEXT ( ( #502 ) ) GLOBAL_UNIT_ASSIGNED_CONTEXT ( ( #891, #791, #1079 ) ) REPRESENTATION_CONTEXT ( 'NONE', 'WORKASPACE' ) );
#414 = EDGE_CURVE ( 'NONE', #583, #851, #776, .T. ) ;
#415 = CIRCLE ( 'NONE', #223, 0.03999999999999999389 ) ;
#416 = AXIS2_PLACEMENT_3D ( 'NONE', #404, #235, #608 ) ;
#417 = PLANE ( 'NONE',  #85 ) ;
#418 = ORIENTED_EDGE ( 'NONE', *, *, #113, .F. ) ;
#419 = DIRECTION ( 'NONE',  ( 0.000000000000000000, -1.000000000000000000, 0.000000000000000000 ) ) ;
#420 = SURFACE_STYLE_USAGE ( .BOTH. , #714 ) ;
#421 = LINE ( 'NONE', #787, #206 ) ;
#422 = ADVANCED_FACE ( 'NONE', ( #265 ), #546, .T. ) ;
#423 = ORIENTED_EDGE ( 'NONE', *, *, #65, .T. ) ;
#424 =( NAMED_UNIT ( * ) SI_UNIT ( $, .STERADIAN. ) SOLID_ANGLE_UNIT ( ) );
#425 = CARTESIAN_POINT ( 'NONE',  ( -0.9600000000000000755, 0.5199999999999999067, 0.6250000000000000000 ) ) ;
#426 = CARTESIAN_POINT ( 'NONE',  ( 0.9600000000000000755, -4.728298461526556606E-17, 0.6250000000000000000 ) ) ;
#427 = DIRECTION ( 'NONE',  ( -1.818576331356368456E-16, 1.000000000000000000, 0.000000000000000000 ) ) ;
#428 = ORIENTED_EDGE ( 'NONE', *, *, #348, .F. ) ;
#429 = SURFACE_STYLE_FILL_AREA ( #895 ) ;
#430 = LINE ( 'NONE', #797, #701 ) ;
#431 = PLANE ( 'NONE',  #579 ) ;
#432 = VECTOR ( 'NONE', #652, 1000.000000000000000 ) ;
#433 = ORIENTED_EDGE ( 'NONE', *, *, #782, .T. ) ;
#434 = STYLED_ITEM ( 'NONE', ( #1061 ), #361 ) ;
#435 = EDGE_CURVE ( 'NONE', #731, #5, #1104, .T. ) ;
#436 = DIRECTION ( 'NONE',  ( 1.000000000000000000, 0.000000000000000000, 0.000000000000000000 ) ) ;
#437 = FACE_OUTER_BOUND ( 'NONE', #571, .T. ) ;
#438 = CARTESIAN_POINT ( 'NONE',  ( -0.9599999999999999645, 0.5599999999999999423, 0.6250000000000000000 ) ) ;
#439 = DIRECTION ( 'NONE',  ( -1.000000000000000000, 0.000000000000000000, 0.000000000000000000 ) ) ;
#440 = VERTEX_POINT ( 'NONE', #252 ) ;
#441 =( NAMED_UNIT ( * ) SI_UNIT ( $, .STERADIAN. ) SOLID_ANGLE_UNIT ( ) );
#442 =( NAMED_UNIT ( * ) PLANE_ANGLE_UNIT ( ) SI_UNIT ( $, .RADIAN. ) );
#443 = EDGE_CURVE ( 'NONE', #732, #440, #1089, .T. ) ;
#444 = SURFACE_STYLE_USAGE ( .BOTH. , #710 ) ;
#445 = LINE ( 'NONE', #331, #844 ) ;
#446 = ADVANCED_BREP_SHAPE_REPRESENTATION ( 'RN732ABlack', ( #765, #361, #1175, #754, #965 ), #106 ) ;
#447 = CARTESIAN_POINT ( 'NONE',  ( 0.000000000000000000, 0.5599999999999999423, 0.5849999999999999645 ) ) ;
#448 = ORIENTED_EDGE ( 'NONE', *, *, #148, .T. ) ;
#449 = EDGE_LOOP ( 'NONE', ( #1029, #588, #761, #92 ) ) ;
#450 = ADVANCED_FACE ( 'NONE', ( #912 ), #453, .F. ) ;
#451 = LINE ( 'NONE', #1096, #354 ) ;
#452 = EDGE_CURVE ( 'NONE', #17, #19, #256, .T. ) ;
#453 = PLANE ( 'NONE',  #886 ) ;
#454 = VECTOR ( 'NONE', #1114, 1000.000000000000000 ) ;
#455 = CYLINDRICAL_SURFACE ( 'NONE', #654, 0.03999999999999999389 ) ;
#456 = ORIENTED_EDGE ( 'NONE', *, *, #401, .T. ) ;
#457 = VECTOR ( 'NONE', #592, 1000.000000000000000 ) ;
#458 = ORIENTED_EDGE ( 'NONE', *, *, #599, .F. ) ;
#459 = PLANE ( 'NONE',  #35 ) ;
#460 = DIRECTION ( 'NONE',  ( 1.000000000000000000, -0.000000000000000000, -0.000000000000000000 ) ) ;
#461 = EDGE_CURVE ( 'NONE', #232, #876, #445, .T. ) ;
#462 = CARTESIAN_POINT ( 'NONE',  ( -0.6000000000000000888, 0.5199999999999999067, 0.6250000000000000000 ) ) ;
#463 = ORIENTED_EDGE ( 'NONE', *, *, #1197, .T. ) ;
#464 = ORIENTED_EDGE ( 'NONE', *, *, #671, .T. ) ;
#465 = CARTESIAN_POINT ( 'NONE',  ( -1.000000000000000000, 0.03999999999999995920, 0.6250000000000000000 ) ) ;
#466 = PLANE ( 'NONE',  #867 ) ;
#467 = LINE ( 'NONE', #1022, #516 ) ;
#468 = FACE_OUTER_BOUND ( 'NONE', #852, .T. ) ;
#469 = ORIENTED_EDGE ( 'NONE', *, *, #385, .F. ) ;
#470 = ORIENTED_EDGE ( 'NONE', *, *, #738, .F. ) ;
#471 = CARTESIAN_POINT ( 'NONE',  ( 0.7000000000000000666, 0.04000000000000000083, 0.6250000000000000000 ) ) ;
#472 = DIRECTION ( 'NONE',  ( 0.000000000000000000, 0.000000000000000000, 1.000000000000000000 ) ) ;
#473 = LINE ( 'NONE', #581, #799 ) ;
#474 = ORIENTED_EDGE ( 'NONE', *, *, #317, .F. ) ;
#475 = AXIS2_PLACEMENT_3D ( 'NONE', #811, #86, #376 ) ;
#476 = EDGE_LOOP ( 'NONE', ( #483, #510, #960, #97 ) ) ;
#477 = ADVANCED_FACE ( 'NONE', ( #627 ), #157, .F. ) ;
#478 = ORIENTED_EDGE ( 'NONE', *, *, #752, .F. ) ;
#479 = VECTOR ( 'NONE', #339, 1000.000000000000000 ) ;
#480 = FACE_OUTER_BOUND ( 'NONE', #101, .T. ) ;
#481 = LINE ( 'NONE', #15, #55 ) ;
#482 = DIRECTION ( 'NONE',  ( 0.000000000000000000, 1.000000000000000000, 0.000000000000000000 ) ) ;
#483 = ORIENTED_EDGE ( 'NONE', *, *, #133, .T. ) ;
#484 = DIRECTION ( 'NONE',  ( 0.000000000000000000, 1.000000000000000000, 0.000000000000000000 ) ) ;
#485 = FACE_OUTER_BOUND ( 'NONE', #238, .T. ) ;
#486 = CARTESIAN_POINT ( 'NONE',  ( 0.6000000000000001998, 0.5599999999999998312, -0.6250000000000001110 ) ) ;
#487 = ORIENTED_EDGE ( 'NONE', *, *, #626, .F. ) ;
#488 = VERTEX_POINT ( 'NONE', #640 ) ;
#489 = CARTESIAN_POINT ( 'NONE',  ( 0.9600000000000000755, 0.03999999999999995920, 0.6250000000000000000 ) ) ;
#490 = EDGE_CURVE ( 'NONE', #770, #323, #357, .T. ) ;
#491 = CARTESIAN_POINT ( 'NONE',  ( 0.9599999999999999645, 0.5599999999999999423, 0.6250000000000000000 ) ) ;
#492 = EDGE_LOOP ( 'NONE', ( #845, #360, #1108, #880 ) ) ;
#493 = DIRECTION ( 'NONE',  ( 1.000000000000000000, 0.000000000000000000, 0.000000000000000000 ) ) ;
#494 = CLOSED_SHELL ( 'NONE', ( #327, #170, #892, #72, #633, #643 ) ) ;
#495 = AXIS2_PLACEMENT_3D ( 'NONE', #729, #64, #906 ) ;
#496 = CARTESIAN_POINT ( 'NONE',  ( -0.9600000000000000755, 0.03999999999999995920, 0.6250000000000000000 ) ) ;
#497 = CARTESIAN_POINT ( 'NONE',  ( -0.9599999999999999645, 0.5599999999999999423, 0.6250000000000000000 ) ) ;
#498 = DIRECTION ( 'NONE',  ( -0.000000000000000000, -0.000000000000000000, -1.000000000000000000 ) ) ;
#499 = ORIENTED_EDGE ( 'NONE', *, *, #374, .F. ) ;
#500 = CARTESIAN_POINT ( 'NONE',  ( 0.9599999999999999645, 0.5599999999999999423, 0.6250000000000000000 ) ) ;
#501 = DIRECTION ( 'NONE',  ( 2.258754526011467735E-16, -1.000000000000000000, 0.000000000000000000 ) ) ;
#502 = UNCERTAINTY_MEASURE_WITH_UNIT (LENGTH_MEASURE( 1.000000000000000082E-05 ), #891, 'distance_accuracy_value', 'NONE');
#503 = DIRECTION ( 'NONE',  ( -0.000000000000000000, -0.000000000000000000, -1.000000000000000000 ) ) ;
#504 = ADVANCED_FACE ( 'NONE', ( #154 ), #535, .T. ) ;
#505 = EDGE_LOOP ( 'NONE', ( #998, #1199, #1143, #672 ) ) ;
#506 = ADVANCED_FACE ( 'NONE', ( #806 ), #431, .T. ) ;
#507 = PLANE ( 'NONE',  #881 ) ;
#508 = CARTESIAN_POINT ( 'NONE',  ( -0.5600000000000000533, 0.5999999999999999778, -0.5849999999999999645 ) ) ;
#509 = LINE ( 'NONE', #598, #108 ) ;
#510 = ORIENTED_EDGE ( 'NONE', *, *, #550, .F. ) ;
#511 = DIRECTION ( 'NONE',  ( -1.000000000000000000, 0.000000000000000000, 0.000000000000000000 ) ) ;
#512 = DIRECTION ( 'NONE',  ( -0.000000000000000000, 1.000000000000000000, -0.000000000000000000 ) ) ;
#513 = EDGE_CURVE ( 'NONE', #564, #1125, #542, .T. ) ;
#514 = AXIS2_PLACEMENT_3D ( 'NONE', #1025, #190, #878 ) ;
#515 = CARTESIAN_POINT ( 'NONE',  ( -0.9600000000000000755, 0.03999999999999995920, -0.6250000000000000000 ) ) ;
#516 = VECTOR ( 'NONE', #1046, 1000.000000000000000 ) ;
#517 = COLOUR_RGB ( '',0.2509803921568627416, 0.2509803921568627416, 0.2509803921568627416 ) ;
#518 = LINE ( 'NONE', #1154, #165 ) ;
#519 = VERTEX_POINT ( 'NONE', #821 ) ;
#520 = CARTESIAN_POINT ( 'NONE',  ( 0.9600000000000000755, 0.5199999999999999067, -0.6250000000000000000 ) ) ;
#521 = PRODUCT_RELATED_PRODUCT_CATEGORY ( 'part', '', ( #565 ) ) ;
#522 = PRESENTATION_STYLE_ASSIGNMENT (( #444 ) ) ;
#523 = CARTESIAN_POINT ( 'NONE',  ( -1.000000000000000000, 0.03999999999999995920, 0.6250000000000000000 ) ) ;
#524 = ORIENTED_EDGE ( 'NONE', *, *, #782, .F. ) ;
#525 = CYLINDRICAL_SURFACE ( 'NONE', #350, 0.03999999999999999389 ) ;
#526 = DIRECTION ( 'NONE',  ( 1.000000000000000000, -1.824378655624647301E-16, 0.000000000000000000 ) ) ;
#527 = DIRECTION ( 'NONE',  ( 0.000000000000000000, 1.000000000000000000, 0.000000000000000000 ) ) ;
#528 = ADVANCED_FACE ( 'NONE', ( #801 ), #271, .F. ) ;
#529 = ORIENTED_EDGE ( 'NONE', *, *, #1002, .T. ) ;
#530 =( LENGTH_UNIT ( ) NAMED_UNIT ( * ) SI_UNIT ( .MILLI., .METRE. ) );
#531 =( LENGTH_UNIT ( ) NAMED_UNIT ( * ) SI_UNIT ( .MILLI., .METRE. ) );
#532 = CARTESIAN_POINT ( 'NONE',  ( 0.6000000000000000888, 0.5599999999999999423, 0.6250000000000000000 ) ) ;
#533 = VECTOR ( 'NONE', #156, 1000.000000000000000 ) ;
#534 = MECHANICAL_DESIGN_GEOMETRIC_PRESENTATION_REPRESENTATION (  '', ( #279 ), #703 ) ;
#535 = CYLINDRICAL_SURFACE ( 'NONE', #495, 0.03999999999999999389 ) ;
#536 = VECTOR ( 'NONE', #47, 1000.000000000000000 ) ;
#537 = ADVANCED_FACE ( 'NONE', ( #1190 ), #59, .T. ) ;
#538 = CARTESIAN_POINT ( 'NONE',  ( -0.6000000000000000888, 0.5599999999999999423, -1.827663710269833208 ) ) ;
#539 = VERTEX_POINT ( 'NONE', #1167 ) ;
#540 = DIRECTION ( 'NONE',  ( 0.000000000000000000, -0.000000000000000000, 1.000000000000000000 ) ) ;
#541 = CARTESIAN_POINT ( 'NONE',  ( 0.9600000000000000755, -4.728298461526556606E-17, 0.6250000000000000000 ) ) ;
#542 = LINE ( 'NONE', #80, #823 ) ;
#543 = CARTESIAN_POINT ( 'NONE',  ( -0.9600000000000000755, 0.5199999999999999067, 0.6250000000000000000 ) ) ;
#544 = VERTEX_POINT ( 'NONE', #1177 ) ;
#545 = DIRECTION ( 'NONE',  ( 1.000000000000000000, 0.000000000000000000, 0.000000000000000000 ) ) ;
#546 = PLANE ( 'NONE',  #1000 ) ;
#547 = LINE ( 'NONE', #462, #1134 ) ;
#548 = CARTESIAN_POINT ( 'NONE',  ( 1.000000000000000000, 0.5199999999999999067, 0.6250000000000000000 ) ) ;
#549 = VERTEX_POINT ( 'NONE', #1080 ) ;
#550 = EDGE_CURVE ( 'NONE', #1161, #774, #249, .T. ) ;
#551 = CARTESIAN_POINT ( 'NONE',  ( -0.9600000000000000755, 0.5199999999999999067, -0.6250000000000000000 ) ) ;
#552 = DIRECTION ( 'NONE',  ( 0.000000000000000000, 1.000000000000000000, 0.000000000000000000 ) ) ;
#553 = VECTOR ( 'NONE', #140, 1000.000000000000000 ) ;
#554 = VECTOR ( 'NONE', #833, 1000.000000000000000 ) ;
#555 = FACE_OUTER_BOUND ( 'NONE', #505, .T. ) ;
#556 = ORIENTED_EDGE ( 'NONE', *, *, #985, .F. ) ;
#557 = CIRCLE ( 'NONE', #36, 0.03999999999999999389 ) ;
#558 = VECTOR ( 'NONE', #74, 1000.000000000000000 ) ;
#559 = ORIENTED_EDGE ( 'NONE', *, *, #138, .T. ) ;
#560 = PLANE ( 'NONE',  #514 ) ;
#561 = FACE_OUTER_BOUND ( 'NONE', #749, .T. ) ;
#562 = DIRECTION ( 'NONE',  ( 0.000000000000000000, 0.000000000000000000, 1.000000000000000000 ) ) ;
#563 = ORIENTED_EDGE ( 'NONE', *, *, #317, .T. ) ;
#564 = VERTEX_POINT ( 'NONE', #574 ) ;
#565 = PRODUCT ( 'RN732ABlack', 'RN732ABlack', '', ( #708 ) ) ;
#566 = DIRECTION ( 'NONE',  ( 1.000000000000000000, 0.000000000000000000, 0.000000000000000000 ) ) ;
#567 = DIRECTION ( 'NONE',  ( 2.710505431213761479E-15, 1.000000000000000000, 0.000000000000000000 ) ) ;
#568 = CARTESIAN_POINT ( 'NONE',  ( -0.6000000000000000888, 0.5599999999999999423, -0.6250000000000001110 ) ) ;
#569 = EDGE_CURVE ( 'NONE', #731, #103, #481, .T. ) ;
#570 = VERTEX_POINT ( 'NONE', #952 ) ;
#571 = EDGE_LOOP ( 'NONE', ( #463, #394, #826, #908 ) ) ;
#572 = VERTEX_POINT ( 'NONE', #1110 ) ;
#573 = DIRECTION ( 'NONE',  ( 0.000000000000000000, -1.000000000000000000, 0.000000000000000000 ) ) ;
#574 = CARTESIAN_POINT ( 'NONE',  ( 0.9600000000000000755, 0.03999999999999995920, -0.6250000000000000000 ) ) ;
#575 = FACE_OUTER_BOUND ( 'NONE', #1023, .T. ) ;
#576 = VECTOR ( 'NONE', #566, 1000.000000000000000 ) ;
#577 = ADVANCED_FACE ( 'NONE', ( #1026 ), #1132, .T. ) ;
#578 = CLOSED_SHELL ( 'NONE', ( #102, #793, #450, #1122, #611, #20, #537, #1067, #88, #477, #1099, #506 ) ) ;
#579 = AXIS2_PLACEMENT_3D ( 'NONE', #646, #632, #1183 ) ;
#580 = CARTESIAN_POINT ( 'NONE',  ( 0.7000000000000000666, 0.04000000000000000083, 0.6250000000000000000 ) ) ;
#581 = CARTESIAN_POINT ( 'NONE',  ( 0.6000000000000000888, 0.5599999999999999423, -0.6250000000000000000 ) ) ;
#582 = ORIENTED_EDGE ( 'NONE', *, *, #626, .T. ) ;
#583 = VERTEX_POINT ( 'NONE', #89 ) ;
#584 = DIRECTION ( 'NONE',  ( -1.000000000000000000, 1.818576331356368456E-16, 0.000000000000000000 ) ) ;
#585 = EDGE_CURVE ( 'NONE', #1024, #866, #197, .T. ) ;
#586 = CARTESIAN_POINT ( 'NONE',  ( -0.5600000000000000533, 0.5999999999999999778, 0.5849999999999999645 ) ) ;
#587 = CARTESIAN_POINT ( 'NONE',  ( -0.6000000000000000888, 0.5199999999999999067, -0.6250000000000000000 ) ) ;
#588 = ORIENTED_EDGE ( 'NONE', *, *, #2, .F. ) ;
#589 = VERTEX_POINT ( 'NONE', #109 ) ;
#590 = CYLINDRICAL_SURFACE ( 'NONE', #203, 0.03999999999999999389 ) ;
#591 = EDGE_CURVE ( 'NONE', #31, #298, #1115, .T. ) ;
#592 = DIRECTION ( 'NONE',  ( 1.000000000000000000, -0.000000000000000000, -0.000000000000000000 ) ) ;
#593 = CARTESIAN_POINT ( 'NONE',  ( -0.6000000000000000888, 0.5199999999999999067, -1.827663710269833208 ) ) ;
#594 = FILL_AREA_STYLE ('',( #768 ) ) ;
#595 = EDGE_LOOP ( 'NONE', ( #134, #208, #831, #176 ) ) ;
#596 = ORIENTED_EDGE ( 'NONE', *, *, #909, .T. ) ;
#597 = DIRECTION ( 'NONE',  ( 0.000000000000000000, -0.000000000000000000, -1.000000000000000000 ) ) ;
#598 = CARTESIAN_POINT ( 'NONE',  ( -0.9600000000000000755, 0.5199999999999999067, 0.6250000000000000000 ) ) ;
#599 = EDGE_CURVE ( 'NONE', #769, #1004, #747, .T. ) ;
#600 = ORIENTED_EDGE ( 'NONE', *, *, #976, .F. ) ;
#601 = DIRECTION ( 'NONE',  ( -0.000000000000000000, -0.000000000000000000, -1.000000000000000000 ) ) ;
#602 = LINE ( 'NONE', #1060, #457 ) ;
#603 = LINE ( 'NONE', #1148, #1097 ) ;
#604 = ADVANCED_FACE ( 'NONE', ( #186 ), #1, .F. ) ;
#605 = ORIENTED_EDGE ( 'NONE', *, *, #723, .T. ) ;
#606 = DIRECTION ( 'NONE',  ( 1.000000000000000000, 0.000000000000000000, 0.000000000000000000 ) ) ;
#607 = FACE_OUTER_BOUND ( 'NONE', #137, .T. ) ;
#608 = DIRECTION ( 'NONE',  ( 1.000000000000000000, 0.000000000000000000, 0.000000000000000000 ) ) ;
#609 = DIRECTION ( 'NONE',  ( -1.000000000000000000, -0.000000000000000000, -0.000000000000000000 ) ) ;
#610 = EDGE_LOOP ( 'NONE', ( #368, #839, #309, #718 ) ) ;
#611 = ADVANCED_FACE ( 'NONE', ( #561 ), #386, .F. ) ;
#612 = CARTESIAN_POINT ( 'NONE',  ( 0.6000000000000001998, 0.5599999999999998312, 0.6250000000000000000 ) ) ;
#613 = VECTOR ( 'NONE', #484, 1000.000000000000000 ) ;
#614 =( NAMED_UNIT ( * ) PLANE_ANGLE_UNIT ( ) SI_UNIT ( $, .RADIAN. ) );
#615 = UNCERTAINTY_MEASURE_WITH_UNIT (LENGTH_MEASURE( 1.000000000000000082E-05 ), #531, 'distance_accuracy_value', 'NONE');
#616 = VECTOR ( 'NONE', #52, 1000.000000000000000 ) ;
#617 = VECTOR ( 'NONE', #216, 1000.000000000000000 ) ;
#618 = DIRECTION ( 'NONE',  ( 0.000000000000000000, 0.000000000000000000, -1.000000000000000000 ) ) ;
#619 = VERTEX_POINT ( 'NONE', #944 ) ;
#620 = FILL_AREA_STYLE_COLOUR ( '', #882 ) ;
#621 = DIRECTION ( 'NONE',  ( 0.000000000000000000, 1.000000000000000000, 0.000000000000000000 ) ) ;
#622 = CARTESIAN_POINT ( 'NONE',  ( 0.5600000000000001643, 0.5999999999999999778, -1.827663710269833208 ) ) ;
#623 = ORIENTED_EDGE ( 'NONE', *, *, #1010, .F. ) ;
#624 = FILL_AREA_STYLE ('',( #620 ) ) ;
#625 = DIRECTION ( 'NONE',  ( 0.000000000000000000, 0.000000000000000000, 1.000000000000000000 ) ) ;
#626 = EDGE_CURVE ( 'NONE', #1030, #17, #94, .T. ) ;
#627 = FACE_OUTER_BOUND ( 'NONE', #1145, .T. ) ;
#628 = CARTESIAN_POINT ( 'NONE',  ( -0.9600000000000000755, 0.03999999999999995920, 0.6250000000000000000 ) ) ;
#629 = EDGE_LOOP ( 'NONE', ( #687, #699, #448, #559 ) ) ;
#630 = DIRECTION ( 'NONE',  ( 1.000000000000000000, 0.000000000000000000, 0.000000000000000000 ) ) ;
#631 = PLANE ( 'NONE',  #1054 ) ;
#632 = DIRECTION ( 'NONE',  ( -0.000000000000000000, 0.000000000000000000, -1.000000000000000000 ) ) ;
#633 = ADVANCED_FACE ( 'NONE', ( #99 ), #466, .T. ) ;
#634 = VECTOR ( 'NONE', #69, 1000.000000000000000 ) ;
#635 = CYLINDRICAL_SURFACE ( 'NONE', #53, 0.03999999999999999389 ) ;
#636 = ADVANCED_FACE ( 'NONE', ( #485 ), #855, .F. ) ;
#637 = EDGE_LOOP ( 'NONE', ( #30, #843, #1165, #825 ) ) ;
#638 = DIRECTION ( 'NONE',  ( -1.000000000000000000, 0.000000000000000000, 0.000000000000000000 ) ) ;
#639 =( NAMED_UNIT ( * ) SI_UNIT ( $, .STERADIAN. ) SOLID_ANGLE_UNIT ( ) );
#640 = CARTESIAN_POINT ( 'NONE',  ( -0.9600000000000000755, 0.03999999999999995920, 0.6250000000000000000 ) ) ;
#641 = LINE ( 'NONE', #717, #721 ) ;
#642 = ORIENTED_EDGE ( 'NONE', *, *, #1189, .T. ) ;
#643 = ADVANCED_FACE ( 'NONE', ( #34 ), #962, .T. ) ;
#644 = ORIENTED_EDGE ( 'NONE', *, *, #200, .T. ) ;
#645 = LINE ( 'NONE', #112, #554 ) ;
#646 = CARTESIAN_POINT ( 'NONE',  ( -0.9600000000000000755, 0.03999999999999995920, -0.6250000000000000000 ) ) ;
#647 = DIRECTION ( 'NONE',  ( -0.000000000000000000, 0.000000000000000000, 1.000000000000000000 ) ) ;
#648 = CARTESIAN_POINT ( 'NONE',  ( 0.9600000000000000755, 0.03999999999999995920, -0.6250000000000001110 ) ) ;
#649 = ORIENTED_EDGE ( 'NONE', *, *, #585, .F. ) ;
#650 = DIRECTION ( 'NONE',  ( 1.000000000000000000, 0.000000000000000000, -0.000000000000000000 ) ) ;
#651 = AXIS2_PLACEMENT_3D ( 'NONE', #551, #930, #840 ) ;
#652 = DIRECTION ( 'NONE',  ( 2.258754526011467735E-16, -1.000000000000000000, 0.000000000000000000 ) ) ;
#653 = CARTESIAN_POINT ( 'NONE',  ( -0.6000000000000000888, 0.5599999999999999423, 0.6250000000000000000 ) ) ;
#654 = AXIS2_PLACEMENT_3D ( 'NONE', #447, #1013, #824 ) ;
#655 = ORIENTED_EDGE ( 'NONE', *, *, #443, .F. ) ;
#656 = CARTESIAN_POINT ( 'NONE',  ( -0.9600000000000000755, 0.5199999999999999067, -0.6250000000000000000 ) ) ;
#657 = EDGE_CURVE ( 'NONE', #876, #18, #767, .T. ) ;
#658 = CARTESIAN_POINT ( 'NONE',  ( 0.000000000000000000, 0.000000000000000000, 0.6250000000000000000 ) ) ;
#659 = VERTEX_POINT ( 'NONE', #508 ) ;
#660 = ORIENTED_EDGE ( 'NONE', *, *, #44, .F. ) ;
#661 = CARTESIAN_POINT ( 'NONE',  ( -0.6000000000000000888, 0.5599999999999999423, -0.6250000000000000000 ) ) ;
#662 = DIRECTION ( 'NONE',  ( -1.000000000000000000, 0.000000000000000000, 0.000000000000000000 ) ) ;
#663 = EDGE_CURVE ( 'NONE', #544, #770, #980, .T. ) ;
#664 = CARTESIAN_POINT ( 'NONE',  ( -0.7000000000000000666, 0.000000000000000000, 0.6250000000000000000 ) ) ;
#665 = FACE_OUTER_BOUND ( 'NONE', #595, .T. ) ;
#666 = ORIENTED_EDGE ( 'NONE', *, *, #297, .T. ) ;
#667 = VERTEX_POINT ( 'NONE', #229 ) ;
#668 = FACE_OUTER_BOUND ( 'NONE', #111, .T. ) ;
#669 = DIRECTION ( 'NONE',  ( 1.000000000000000000, 0.000000000000000000, 0.000000000000000000 ) ) ;
#670 = COLOUR_RGB ( '',1.000000000000000000, 1.000000000000000000, 1.000000000000000000 ) ;
#671 = EDGE_CURVE ( 'NONE', #1024, #549, #1049, .T. ) ;
#672 = ORIENTED_EDGE ( 'NONE', *, *, #341, .T. ) ;
#673 = VECTOR ( 'NONE', #1111, 1000.000000000000000 ) ;
#674 = VECTOR ( 'NONE', #888, 1000.000000000000000 ) ;
#675 = LINE ( 'NONE', #397, #1168 ) ;
#676 = CARTESIAN_POINT ( 'NONE',  ( 0.6000000000000000888, 0.5199999999999999067, -1.827663710269833208 ) ) ;
#677 = CARTESIAN_POINT ( 'NONE',  ( 0.6000000000000000888, 0.5599999999999999423, -0.6250000000000000000 ) ) ;
#678 = ORIENTED_EDGE ( 'NONE', *, *, #684, .T. ) ;
#679 = EDGE_CURVE ( 'NONE', #194, #407, #602, .T. ) ;
#680 = LINE ( 'NONE', #489, #964 ) ;
#681 = SURFACE_SIDE_STYLE ('',( #43 ) ) ;
#682 = ORIENTED_EDGE ( 'NONE', *, *, #291, .F. ) ;
#683 = ORIENTED_EDGE ( 'NONE', *, *, #148, .F. ) ;
#684 = EDGE_CURVE ( 'NONE', #572, #155, #125, .T. ) ;
#685 = DIRECTION ( 'NONE',  ( 0.000000000000000000, 1.000000000000000000, 0.000000000000000000 ) ) ;
#686 = CARTESIAN_POINT ( 'NONE',  ( 0.9600000000000000755, 0.5199999999999999067, 0.6250000000000000000 ) ) ;
#687 = ORIENTED_EDGE ( 'NONE', *, *, #1171, .T. ) ;
#688 = AXIS2_PLACEMENT_3D ( 'NONE', #859, #1048, #1146 ) ;
#689 = LINE ( 'NONE', #1065, #241 ) ;
#690 = CARTESIAN_POINT ( 'NONE',  ( -0.9599999999999999645, 0.5599999999999999423, -0.6250000000000000000 ) ) ;
#691 = DIRECTION ( 'NONE',  ( 0.000000000000000000, 0.000000000000000000, 1.000000000000000000 ) ) ;
#692 = ORIENTED_EDGE ( 'NONE', *, *, #435, .T. ) ;
#693 = LINE ( 'NONE', #131, #553 ) ;
#694 = UNCERTAINTY_MEASURE_WITH_UNIT (LENGTH_MEASURE( 1.000000000000000082E-05 ), #530, 'distance_accuracy_value', 'NONE');
#695 = ORIENTED_EDGE ( 'NONE', *, *, #585, .T. ) ;
#696 = CARTESIAN_POINT ( 'NONE',  ( -0.6000000000000000888, 0.5199999999999999067, 0.6250000000000000000 ) ) ;
#697 = CARTESIAN_POINT ( 'NONE',  ( 0.6000000000000003109, 0.5834314575050760787, 0.6250000000000002220 ) ) ;
#698 = LINE ( 'NONE', #322, #1056 ) ;
#699 = ORIENTED_EDGE ( 'NONE', *, *, #599, .T. ) ;
#700 = EDGE_CURVE ( 'NONE', #488, #619, #1158, .T. ) ;
#701 = VECTOR ( 'NONE', #918, 1000.000000000000000 ) ;
#702 = CARTESIAN_POINT ( 'NONE',  ( 0.9600000000000000755, 0.5199999999999999067, -2.604090700296477046 ) ) ;
#703 =( GEOMETRIC_REPRESENTATION_CONTEXT ( 3 ) GLOBAL_UNCERTAINTY_ASSIGNED_CONTEXT ( ( #694 ) ) GLOBAL_UNIT_ASSIGNED_CONTEXT ( ( #530, #899, #424 ) ) REPRESENTATION_CONTEXT ( 'NONE', 'WORKASPACE' ) );
#704 = LINE ( 'NONE', #426, #1041 ) ;
#705 = VECTOR ( 'NONE', #1160, 1000.000000000000000 ) ;
#706 = CARTESIAN_POINT ( 'NONE',  ( -0.9600000000000000755, 0.5199999999999999067, 0.6250000000000000000 ) ) ;
#707 = VERTEX_POINT ( 'NONE', #869 ) ;
#708 = PRODUCT_CONTEXT ( 'NONE', #22, 'mechanical' ) ;
#709 = EDGE_CURVE ( 'NONE', #707, #790, #948, .T. ) ;
#710 = SURFACE_SIDE_STYLE ('',( #338 ) ) ;
#711 = DIRECTION ( 'NONE',  ( -1.000000000000000000, -1.818576331356368456E-16, 0.000000000000000000 ) ) ;
#712 = VERTEX_POINT ( 'NONE', #141 ) ;
#713 = SURFACE_STYLE_USAGE ( .BOTH. , #994 ) ;
#714 = SURFACE_SIDE_STYLE ('',( #429 ) ) ;
#715 = EDGE_CURVE ( 'NONE', #619, #851, #772, .T. ) ;
#716 = DIRECTION ( 'NONE',  ( -0.000000000000000000, -0.000000000000000000, -1.000000000000000000 ) ) ;
#717 = CARTESIAN_POINT ( 'NONE',  ( -0.7000000000000000666, 0.04000000000000000083, -0.6250000000000000000 ) ) ;
#718 = ORIENTED_EDGE ( 'NONE', *, *, #1083, .T. ) ;
#719 = LINE ( 'NONE', #1094, #1076 ) ;
#720 = VECTOR ( 'NONE', #1011, 1000.000000000000000 ) ;
#721 = VECTOR ( 'NONE', #1090, 1000.000000000000000 ) ;
#722 = DIRECTION ( 'NONE',  ( -1.000000000000000000, 0.000000000000000000, 0.000000000000000000 ) ) ;
#723 = EDGE_CURVE ( 'NONE', #1043, #298, #421, .T. ) ;
#724 = VECTOR ( 'NONE', #1066, 1000.000000000000000 ) ;
#725 = CARTESIAN_POINT ( 'NONE',  ( 0.9600000000000000755, 0.5199999999999999067, -2.604090700296477046 ) ) ;
#726 = ORIENTED_EDGE ( 'NONE', *, *, #971, .T. ) ;
#727 = ORIENTED_EDGE ( 'NONE', *, *, #513, .T. ) ;
#728 = LINE ( 'NONE', #63, #304 ) ;
#729 = CARTESIAN_POINT ( 'NONE',  ( -0.6000000000000000888, 0.5599999999999999423, -0.5849999999999999645 ) ) ;
#730 = CARTESIAN_POINT ( 'NONE',  ( 0.7000000000000000666, 0.04000000000000000083, -0.6250000000000000000 ) ) ;
#731 = VERTEX_POINT ( 'NONE', #326 ) ;
#732 = VERTEX_POINT ( 'NONE', #1071 ) ;
#733 = CARTESIAN_POINT ( 'NONE',  ( 0.9599999999999999645, 0.5599999999999999423, 0.6250000000000000000 ) ) ;
#734 = CARTESIAN_POINT ( 'NONE',  ( 0.7000000000000000666, 0.04000000000000000083, 0.6250000000000000000 ) ) ;
#735 = DIRECTION ( 'NONE',  ( -0.000000000000000000, 0.000000000000000000, 1.000000000000000000 ) ) ;
#736 = CARTESIAN_POINT ( 'NONE',  ( 0.6000000000000000888, 0.5199999999999999067, -1.827663710269833208 ) ) ;
#737 = VERTEX_POINT ( 'NONE', #586 ) ;
#738 = EDGE_CURVE ( 'NONE', #402, #299, #451, .T. ) ;
#739 = CARTESIAN_POINT ( 'NONE',  ( 0.9599999999999999645, 0.5599999999999999423, 0.6250000000000000000 ) ) ;
#740 = VECTOR ( 'NONE', #390, 1000.000000000000000 ) ;
#741 = LINE ( 'NONE', #947, #432 ) ;
#742 = ORIENTED_EDGE ( 'NONE', *, *, #153, .F. ) ;
#743 = EDGE_LOOP ( 'NONE', ( #623, #478, #1051, #433 ) ) ;
#744 = ORIENTED_EDGE ( 'NONE', *, *, #1062, .T. ) ;
#745 = EDGE_CURVE ( 'NONE', #5, #572, #728, .T. ) ;
#746 = CARTESIAN_POINT ( 'NONE',  ( 1.000000000000000000, 0.5199999999999999067, -0.6250000000000000000 ) ) ;
#747 = LINE ( 'NONE', #290, #262 ) ;
#748 = ORIENTED_EDGE ( 'NONE', *, *, #663, .T. ) ;
#749 = EDGE_LOOP ( 'NONE', ( #858, #371, #487, #846 ) ) ;
#750 = CARTESIAN_POINT ( 'NONE',  ( 1.000000000000000000, 0.03999999999999995920, -0.6250000000000000000 ) ) ;
#751 = DIRECTION ( 'NONE',  ( -0.000000000000000000, 1.000000000000000000, -0.000000000000000000 ) ) ;
#752 = EDGE_CURVE ( 'NONE', #790, #372, #704, .T. ) ;
#753 = DIRECTION ( 'NONE',  ( -1.000000000000000000, 1.818576331356368456E-16, 0.000000000000000000 ) ) ;
#754 = MANIFOLD_SOLID_BREP ( 'Fillet1', #303 ) ;
#755 = VERTEX_POINT ( 'NONE', #911 ) ;
#756 = ORIENTED_EDGE ( 'NONE', *, *, #231, .T. ) ;
#757 = LINE ( 'NONE', #885, #924 ) ;
#758 = DIRECTION ( 'NONE',  ( 0.000000000000000000, 0.000000000000000000, 1.000000000000000000 ) ) ;
#759 = EDGE_CURVE ( 'NONE', #299, #244, #430, .T. ) ;
#760 = VECTOR ( 'NONE', #512, 1000.000000000000000 ) ;
#761 = ORIENTED_EDGE ( 'NONE', *, *, #367, .T. ) ;
#762 = VECTOR ( 'NONE', #126, 1000.000000000000000 ) ;
#763 = ORIENTED_EDGE ( 'NONE', *, *, #679, .T. ) ;
#764 = VECTOR ( 'NONE', #51, 1000.000000000000000 ) ;
#765 = MANIFOLD_SOLID_BREP ( 'Boss-Extrude1', #578 ) ;
#766 = LINE ( 'NONE', #1140, #278 ) ;
#767 = LINE ( 'NONE', #690, #617 ) ;
#768 = FILL_AREA_STYLE_COLOUR ( '', #1174 ) ;
#769 = VERTEX_POINT ( 'NONE', #152 ) ;
#770 = VERTEX_POINT ( 'NONE', #1176 ) ;
#771 = FACE_OUTER_BOUND ( 'NONE', #280, .T. ) ;
#772 = LINE ( 'NONE', #515, #674 ) ;
#773 = CARTESIAN_POINT ( 'NONE',  ( -0.9600000000000000755, 0.03999999999999995920, 0.6250000000000000000 ) ) ;
#774 = VERTEX_POINT ( 'NONE', #1182 ) ;
#775 = DIRECTION ( 'NONE',  ( 2.258754526011467735E-16, -1.000000000000000000, 0.000000000000000000 ) ) ;
#776 = LINE ( 'NONE', #788, #334 ) ;
#777 = EDGE_LOOP ( 'NONE', ( #756, #660, #389, #1047 ) ) ;
#778 = VECTOR ( 'NONE', #1044, 1000.000000000000000 ) ;
#779 = VECTOR ( 'NONE', #647, 1000.000000000000000 ) ;
#780 = LINE ( 'NONE', #1059, #778 ) ;
#781 = VECTOR ( 'NONE', #849, 1000.000000000000000 ) ;
#782 = EDGE_CURVE ( 'NONE', #890, #570, #240, .T. ) ;
#783 = CARTESIAN_POINT ( 'NONE',  ( 0.7000000000000000666, 0.04000000000000000083, -0.6250000000000000000 ) ) ;
#784 = ORIENTED_EDGE ( 'NONE', *, *, #709, .F. ) ;
#785 = DIRECTION ( 'NONE',  ( -0.000000000000000000, -1.000000000000000000, -0.000000000000000000 ) ) ;
#786 =( NAMED_UNIT ( * ) SI_UNIT ( $, .STERADIAN. ) SOLID_ANGLE_UNIT ( ) );
#787 = CARTESIAN_POINT ( 'NONE',  ( 0.6000000000000000888, 0.5199999999999999067, -0.6250000000000001110 ) ) ;
#788 = CARTESIAN_POINT ( 'NONE',  ( -0.9600000000000000755, 0.5199999999999999067, 0.6250000000000000000 ) ) ;
#789 = ADVANCED_FACE ( 'NONE', ( #342 ), #631, .F. ) ;
#790 = VERTEX_POINT ( 'NONE', #541 ) ;
#791 =( NAMED_UNIT ( * ) PLANE_ANGLE_UNIT ( ) SI_UNIT ( $, .RADIAN. ) );
#792 = CARTESIAN_POINT ( 'NONE',  ( -0.7000000000000000666, 0.000000000000000000, 0.6250000000000000000 ) ) ;
#793 = ADVANCED_FACE ( 'NONE', ( #437 ), #73, .F. ) ;
#794 = ORIENTED_EDGE ( 'NONE', *, *, #1033, .T. ) ;
#795 = STYLED_ITEM ( 'NONE', ( #522 ), #765 ) ;
#796 = DIRECTION ( 'NONE',  ( 1.000000000000000000, -0.000000000000000000, 0.000000000000000000 ) ) ;
#797 = CARTESIAN_POINT ( 'NONE',  ( 0.9600000000000000755, 0.03999999999999995920, 0.6250000000000000000 ) ) ;
#798 = UNCERTAINTY_MEASURE_WITH_UNIT (LENGTH_MEASURE( 1.000000000000000082E-05 ), #903, 'distance_accuracy_value', 'NONE');
#799 = VECTOR ( 'NONE', #482, 1000.000000000000000 ) ;
#800 = AXIS2_PLACEMENT_3D ( 'NONE', #812, #1012, #179 ) ;
#801 = FACE_OUTER_BOUND ( 'NONE', #743, .T. ) ;
#802 = EDGE_LOOP ( 'NONE', ( #456, #177, #935, #8 ) ) ;
#803 =( NAMED_UNIT ( * ) PLANE_ANGLE_UNIT ( ) SI_UNIT ( $, .RADIAN. ) );
#804 = LINE ( 'NONE', #71, #258 ) ;
#805 = FILL_AREA_STYLE ('',( #264 ) ) ;
#806 = FACE_OUTER_BOUND ( 'NONE', #219, .T. ) ;
#807 = FACE_OUTER_BOUND ( 'NONE', #45, .T. ) ;
#808 = VERTEX_POINT ( 'NONE', #750 ) ;
#809 = LINE ( 'NONE', #1082, #819 ) ;
#810 = EDGE_CURVE ( 'NONE', #890, #402, #1126, .T. ) ;
#811 = CARTESIAN_POINT ( 'NONE',  ( -0.7000000000000000666, 0.04000000000000000083, 0.6250000000000000000 ) ) ;
#812 = CARTESIAN_POINT ( 'NONE',  ( 0.7000000000000000666, 0.000000000000000000, 0.6250000000000000000 ) ) ;
#813 = CARTESIAN_POINT ( 'NONE',  ( -0.5600000000000000533, 0.5999999999999999778, 0.5849999999999999645 ) ) ;
#814 = ORIENTED_EDGE ( 'NONE', *, *, #877, .T. ) ;
#815 = VERTEX_POINT ( 'NONE', #746 ) ;
#816 = SURFACE_STYLE_USAGE ( .BOTH. , #173 ) ;
#817 = COLOUR_RGB ( '',0.7960784313725489669, 0.8235294117647058432, 0.9372549019607843146 ) ;
#818 = EDGE_CURVE ( 'NONE', #298, #440, #822, .T. ) ;
#819 = VECTOR ( 'NONE', #638, 1000.000000000000000 ) ;
#820 = VECTOR ( 'NONE', #419, 1000.000000000000000 ) ;
#821 = CARTESIAN_POINT ( 'NONE',  ( 0.6000000000000000888, 0.5199999999999999067, 0.6250000000000000000 ) ) ;
#822 =( BOUNDED_CURVE ( )  B_SPLINE_CURVE ( 3, ( #1121, #289, #369, #1031 ),
 .UNSPECIFIED., .F., .F. ) 
 B_SPLINE_CURVE_WITH_KNOTS ( ( 4, 4 ),
 ( 3.141592653589790451, 4.712388980384689674 ),
 .UNSPECIFIED. ) 
 CURVE ( )  GEOMETRIC_REPRESENTATION_ITEM ( )  RATIONAL_B_SPLINE_CURVE ( ( 1.000000000000000000, 0.8047378541243643824, 0.8047378541243643824, 1.000000000000000000 ) ) 
 REPRESENTATION_ITEM ( '' )  );
#823 = VECTOR ( 'NONE', #552, 1000.000000000000000 ) ;
#824 = DIRECTION ( 'NONE',  ( 0.000000000000000000, 0.000000000000000000, -1.000000000000000000 ) ) ;
#825 = ORIENTED_EDGE ( 'NONE', *, *, #435, .F. ) ;
#826 = ORIENTED_EDGE ( 'NONE', *, *, #909, .F. ) ;
#827 = CYLINDRICAL_SURFACE ( 'NONE', #12, 0.03999999999999999389 ) ;
#828 = DIRECTION ( 'NONE',  ( -1.824378655624647301E-16, -1.000000000000000000, 0.000000000000000000 ) ) ;
#829 = CARTESIAN_POINT ( 'NONE',  ( 0.9600000000000000755, 0.5199999999999999067, 0.6250000000000000000 ) ) ;
#830 = ADVANCED_FACE ( 'NONE', ( #93 ), #827, .T. ) ;
#831 = ORIENTED_EDGE ( 'NONE', *, *, #10, .T. ) ;
#832 = ORIENTED_EDGE ( 'NONE', *, *, #709, .T. ) ;
#833 = DIRECTION ( 'NONE',  ( -0.000000000000000000, -0.000000000000000000, -1.000000000000000000 ) ) ;
#834 = CARTESIAN_POINT ( 'NONE',  ( -0.9600000000000000755, 0.5199999999999999067, -2.604090700296477046 ) ) ;
#835 = DIRECTION ( 'NONE',  ( 0.000000000000000000, 0.000000000000000000, 1.000000000000000000 ) ) ;
#836 = ORIENTED_EDGE ( 'NONE', *, *, #569, .F. ) ;
#837 = ADVANCED_FACE ( 'NONE', ( #668 ), #459, .F. ) ;
#838 = ORIENTED_EDGE ( 'NONE', *, *, #1083, .F. ) ;
#839 = ORIENTED_EDGE ( 'NONE', *, *, #185, .F. ) ;
#840 = DIRECTION ( 'NONE',  ( -1.000000000000000000, 0.000000000000000000, 0.000000000000000000 ) ) ;
#841 = DIRECTION ( 'NONE',  ( 0.000000000000000000, 0.000000000000000000, 1.000000000000000000 ) ) ;
#842 = CARTESIAN_POINT ( 'NONE',  ( 0.000000000000000000, 0.000000000000000000, 0.6250000000000000000 ) ) ;
#843 = ORIENTED_EDGE ( 'NONE', *, *, #65, .F. ) ;
#844 = VECTOR ( 'NONE', #919, 1000.000000000000000 ) ;
#845 = ORIENTED_EDGE ( 'NONE', *, *, #158, .F. ) ;
#846 = ORIENTED_EDGE ( 'NONE', *, *, #38, .T. ) ;
#847 = CARTESIAN_POINT ( 'NONE',  ( -0.6000000000000000888, 0.5199999999999999067, -0.6250000000000001110 ) ) ;
#848 = EDGE_CURVE ( 'NONE', #18, #549, #900, .T. ) ;
#849 = DIRECTION ( 'NONE',  ( -0.000000000000000000, -1.000000000000000000, -0.000000000000000000 ) ) ;
#850 = FACE_OUTER_BOUND ( 'NONE', #24, .T. ) ;
#851 = VERTEX_POINT ( 'NONE', #656 ) ;
#852 = EDGE_LOOP ( 'NONE', ( #150, #600, #989, #183 ) ) ;
#853 = PLANE ( 'NONE',  #1038 ) ;
#854 = EDGE_CURVE ( 'NONE', #549, #9, #178, .T. ) ;
#855 = PLANE ( 'NONE',  #375 ) ;
#856 = PLANE ( 'NONE',  #883 ) ;
#857 = ORIENTED_EDGE ( 'NONE', *, *, #723, .F. ) ;
#858 = ORIENTED_EDGE ( 'NONE', *, *, #461, .T. ) ;
#859 = CARTESIAN_POINT ( 'NONE',  ( 0.9600000000000000755, 0.03999999999999995920, -0.6250000000000000000 ) ) ;
#860 = DIRECTION ( 'NONE',  ( -1.000000000000000000, -2.258754526011467735E-16, 0.000000000000000000 ) ) ;
#861 = STYLED_ITEM ( 'NONE', ( #246 ), #1175 ) ;
#862 = CARTESIAN_POINT ( 'NONE',  ( -0.6000000000000000888, 0.5834314575050761897, -0.6250000000000000000 ) ) ;
#863 = EDGE_LOOP ( 'NONE', ( #605, #145, #77, #254 ) ) ;
#864 = VECTOR ( 'NONE', #1003, 1000.000000000000000 ) ;
#865 =( BOUNDED_CURVE ( )  B_SPLINE_CURVE ( 3, ( #612, #697, #239, #325 ),
 .UNSPECIFIED., .F., .F. ) 
 B_SPLINE_CURVE_WITH_KNOTS ( ( 4, 4 ),
 ( -2.664535259100375697E-15, 1.570796326794896558 ),
 .UNSPECIFIED. ) 
 CURVE ( )  GEOMETRIC_REPRESENTATION_ITEM ( )  RATIONAL_B_SPLINE_CURVE ( ( 1.000000000000000000, 0.8047378541243643824, 0.8047378541243643824, 1.000000000000000000 ) ) 
 REPRESENTATION_ITEM ( '' )  );
#866 = VERTEX_POINT ( 'NONE', #465 ) ;
#867 = AXIS2_PLACEMENT_3D ( 'NONE', #834, #1127, #295 ) ;
#868 = LINE ( 'NONE', #412, #1153 ) ;
#869 = CARTESIAN_POINT ( 'NONE',  ( 1.000000000000000000, 0.03999999999999995920, 0.6250000000000000000 ) ) ;
#870 = PRODUCT_DEFINITION_CONTEXT ( 'detailed design', #1092, 'design' ) ;
#871 = DIRECTION ( 'NONE',  ( 0.000000000000000000, -1.000000000000000000, 0.000000000000000000 ) ) ;
#872 = DIRECTION ( 'NONE',  ( 1.000000000000000000, 0.000000000000000000, 0.000000000000000000 ) ) ;
#873 = ORIENTED_EDGE ( 'NONE', *, *, #591, .F. ) ;
#874 = DIRECTION ( 'NONE',  ( 0.000000000000000000, 0.000000000000000000, -1.000000000000000000 ) ) ;
#875 =( LENGTH_UNIT ( ) NAMED_UNIT ( * ) SI_UNIT ( .MILLI., .METRE. ) );
#876 = VERTEX_POINT ( 'NONE', #661 ) ;
#877 = EDGE_CURVE ( 'NONE', #103, #572, #951, .T. ) ;
#878 = DIRECTION ( 'NONE',  ( 1.000000000000000000, 0.000000000000000000, 0.000000000000000000 ) ) ;
#879 = LINE ( 'NONE', #970, #536 ) ;
#880 = ORIENTED_EDGE ( 'NONE', *, *, #2, .T. ) ;
#881 = AXIS2_PLACEMENT_3D ( 'NONE', #46, #228, #1131 ) ;
#882 = COLOUR_RGB ( '',0.7960784313725489669, 0.8235294117647058432, 0.9372549019607843146 ) ;
#883 = AXIS2_PLACEMENT_3D ( 'NONE', #1117, #387, #110 ) ;
#884 = DIRECTION ( 'NONE',  ( -0.000000000000000000, 0.000000000000000000, -1.000000000000000000 ) ) ;
#885 = CARTESIAN_POINT ( 'NONE',  ( 0.7000000000000000666, 0.000000000000000000, -0.6250000000000000000 ) ) ;
#886 = AXIS2_PLACEMENT_3D ( 'NONE', #1098, #174, #896 ) ;
#887 = EDGE_CURVE ( 'NONE', #17, #876, #645, .T. ) ;
#888 = DIRECTION ( 'NONE',  ( 0.000000000000000000, 1.000000000000000000, 0.000000000000000000 ) ) ;
#889 = CARTESIAN_POINT ( 'NONE',  ( 0.9600000000000000755, 0.03999999999999995920, 0.6250000000000000000 ) ) ;
#890 = VERTEX_POINT ( 'NONE', #196 ) ;
#891 =( LENGTH_UNIT ( ) NAMED_UNIT ( * ) SI_UNIT ( .MILLI., .METRE. ) );
#892 = ADVANCED_FACE ( 'NONE', ( #98 ), #853, .T. ) ;
#893 = CARTESIAN_POINT ( 'NONE',  ( 0.9600000000000000755, 0.5199999999999999067, 0.6250000000000000000 ) ) ;
#894 = ORIENTED_EDGE ( 'NONE', *, *, #1017, .F. ) ;
#895 = FILL_AREA_STYLE ('',( #337 ) ) ;
#896 = DIRECTION ( 'NONE',  ( 0.000000000000000000, 0.000000000000000000, 1.000000000000000000 ) ) ;
#897 = EDGE_CURVE ( 'NONE', #583, #1030, #1109, .T. ) ;
#898 = ORIENTED_EDGE ( 'NONE', *, *, #158, .T. ) ;
#899 =( NAMED_UNIT ( * ) PLANE_ANGLE_UNIT ( ) SI_UNIT ( $, .RADIAN. ) );
#900 = CIRCLE ( 'NONE', #651, 0.03999999999999999389 ) ;
#901 = FACE_OUTER_BOUND ( 'NONE', #1008, .T. ) ;
#902 = VECTOR ( 'NONE', #207, 1000.000000000000000 ) ;
#903 =( LENGTH_UNIT ( ) NAMED_UNIT ( * ) SI_UNIT ( .MILLI., .METRE. ) );
#904 = AXIS2_PLACEMENT_3D ( 'NONE', #343, #1198, #351 ) ;
#905 = VECTOR ( 'NONE', #167, 1000.000000000000000 ) ;
#906 = DIRECTION ( 'NONE',  ( 0.000000000000000000, 0.000000000000000000, 1.000000000000000000 ) ) ;
#907 = FACE_OUTER_BOUND ( 'NONE', #449, .T. ) ;
#908 = ORIENTED_EDGE ( 'NONE', *, *, #550, .T. ) ;
#909 = EDGE_CURVE ( 'NONE', #1161, #488, #1103, .T. ) ;
#910 = LINE ( 'NONE', #1166, #1193 ) ;
#911 = CARTESIAN_POINT ( 'NONE',  ( -0.9600000000000000755, 0.5199999999999999067, -0.6250000000000001110 ) ) ;
#912 = FACE_OUTER_BOUND ( 'NONE', #162, .T. ) ;
#913 =( BOUNDED_CURVE ( )  B_SPLINE_CURVE ( 3, ( #187, #958, #862, #568 ),
 .UNSPECIFIED., .F., .F. ) 
 B_SPLINE_CURVE_WITH_KNOTS ( ( 4, 4 ),
 ( 4.712388980384689674, 6.283185307179586232 ),
 .UNSPECIFIED. ) 
 CURVE ( )  GEOMETRIC_REPRESENTATION_ITEM ( )  RATIONAL_B_SPLINE_CURVE ( ( 1.000000000000000000, 0.8047378541243649375, 0.8047378541243649375, 1.000000000000000000 ) ) 
 REPRESENTATION_ITEM ( '' )  );
#914 = PLANE ( 'NONE',  #1039 ) ;
#915 = ORIENTED_EDGE ( 'NONE', *, *, #591, .T. ) ;
#916 = CARTESIAN_POINT ( 'NONE',  ( 0.5600000000000001643, 0.5599999999999999423, -1.827663710269833208 ) ) ;
#917 = ADVANCED_FACE ( 'NONE', ( #1201 ), #6, .F. ) ;
#918 = DIRECTION ( 'NONE',  ( 0.000000000000000000, 1.000000000000000000, 0.000000000000000000 ) ) ;
#919 = DIRECTION ( 'NONE',  ( -0.000000000000000000, 1.000000000000000000, -0.000000000000000000 ) ) ;
#920 = DIRECTION ( 'NONE',  ( -0.000000000000000000, -0.000000000000000000, -1.000000000000000000 ) ) ;
#921 = ORIENTED_EDGE ( 'NONE', *, *, #336, .T. ) ;
#922 = ORIENTED_EDGE ( 'NONE', *, *, #237, .T. ) ;
#923 = CARTESIAN_POINT ( 'NONE',  ( -1.000000000000000000, 0.03999999999999995920, -0.6250000000000000000 ) ) ;
#924 = VECTOR ( 'NONE', #584, 1000.000000000000000 ) ;
#925 = VECTOR ( 'NONE', #753, 1000.000000000000000 ) ;
#926 = AXIS2_PLACEMENT_3D ( 'NONE', #132, #860, #501 ) ;
#927 = CARTESIAN_POINT ( 'NONE',  ( -0.6000000000000000888, 0.5199999999999999067, -0.6250000000000001110 ) ) ;
#928 = ORIENTED_EDGE ( 'NONE', *, *, #490, .T. ) ;
#929 = ORIENTED_EDGE ( 'NONE', *, *, #1189, .F. ) ;
#930 = DIRECTION ( 'NONE',  ( 0.000000000000000000, 0.000000000000000000, 1.000000000000000000 ) ) ;
#931 = CARTESIAN_POINT ( 'NONE',  ( -0.6000000000000000888, 0.5599999999999999423, 0.6250000000000000000 ) ) ;
#932 = EDGE_CURVE ( 'NONE', #1081, #1091, #363, .T. ) ;
#933 = LINE ( 'NONE', #1040, #673 ) ;
#934 = CARTESIAN_POINT ( 'NONE',  ( -0.9599999999999999645, 0.5599999999999999423, -0.6250000000000000000 ) ) ;
#935 = ORIENTED_EDGE ( 'NONE', *, *, #443, .T. ) ;
#936 = CARTESIAN_POINT ( 'NONE',  ( 0.9600000000000000755, 0.5199999999999999067, 0.6250000000000000000 ) ) ;
#937 = CARTESIAN_POINT ( 'NONE',  ( -0.6000000000000000888, 0.5599999999999999423, 0.6250000000000000000 ) ) ;
#938 = LINE ( 'NONE', #37, #925 ) ;
#939 = EDGE_LOOP ( 'NONE', ( #959, #1057, #418, #294 ) ) ;
#940 = EDGE_CURVE ( 'NONE', #1112, #1043, #1018, .T. ) ;
#941 = ORIENTED_EDGE ( 'NONE', *, *, #274, .F. ) ;
#942 = ORIENTED_EDGE ( 'NONE', *, *, #78, .F. ) ;
#943 = DIRECTION ( 'NONE',  ( 0.000000000000000000, -1.000000000000000000, -0.000000000000000000 ) ) ;
#944 = CARTESIAN_POINT ( 'NONE',  ( -0.9600000000000000755, 0.03999999999999995920, -0.6250000000000000000 ) ) ;
#945 = PRESENTATION_LAYER_ASSIGNMENT (  '', '', ( #861 ) ) ;
#946 = CIRCLE ( 'NONE', #1095, 0.03999999999999999389 ) ;
#947 = CARTESIAN_POINT ( 'NONE',  ( -0.9600000000000000755, 0.5199999999999999067, 0.6250000000000000000 ) ) ;
#948 = CIRCLE ( 'NONE', #416, 0.03999999999999999389 ) ;
#949 = ORIENTED_EDGE ( 'NONE', *, *, #200, .F. ) ;
#950 = ADVANCED_FACE ( 'NONE', ( #480 ), #560, .T. ) ;
#951 = LINE ( 'NONE', #275, #576 ) ;
#952 = CARTESIAN_POINT ( 'NONE',  ( 0.7000000000000000666, 0.000000000000000000, -0.6250000000000000000 ) ) ;
#953 = LINE ( 'NONE', #664, #902 ) ;
#954 = ORIENTED_EDGE ( 'NONE', *, *, #897, .F. ) ;
#955 = EDGE_LOOP ( 'NONE', ( #1074, #193, #116, #458 ) ) ;
#956 = EDGE_CURVE ( 'NONE', #851, #232, #311, .T. ) ;
#957 = PLANE ( 'NONE',  #33 ) ;
#958 = CARTESIAN_POINT ( 'NONE',  ( -0.5834314575050763008, 0.5999999999999999778, -0.6084314575050762119 ) ) ;
#959 = ORIENTED_EDGE ( 'NONE', *, *, #848, .T. ) ;
#960 = ORIENTED_EDGE ( 'NONE', *, *, #971, .F. ) ;
#961 = CARTESIAN_POINT ( 'NONE',  ( -0.9600000000000000755, 0.5199999999999999067, -0.6250000000000000000 ) ) ;
#962 = PLANE ( 'NONE',  #926 ) ;
#963 = DIRECTION ( 'NONE',  ( 0.000000000000000000, -0.000000000000000000, -1.000000000000000000 ) ) ;
#964 = VECTOR ( 'NONE', #123, 1000.000000000000000 ) ;
#965 = AXIS2_PLACEMENT_3D ( 'NONE', #1170, #345, #630 ) ;
#966 = ORIENTED_EDGE ( 'NONE', *, *, #985, .T. ) ;
#967 = AXIS2_PLACEMENT_3D ( 'NONE', #1069, #439, #997 ) ;
#968 = AXIS2_PLACEMENT_3D ( 'NONE', #931, #662, #472 ) ;
#969 = DIRECTION ( 'NONE',  ( -1.000000000000000000, 0.000000000000000000, 0.000000000000000000 ) ) ;
#970 = CARTESIAN_POINT ( 'NONE',  ( -0.5600000000000000533, 0.5999999999999999778, -1.827663710269833208 ) ) ;
#971 = EDGE_CURVE ( 'NONE', #344, #1161, #1151, .T. ) ;
#972 = ORIENTED_EDGE ( 'NONE', *, *, #956, .F. ) ;
#973 = FACE_OUTER_BOUND ( 'NONE', #1119, .T. ) ;
#974 = DIRECTION ( 'NONE',  ( -0.000000000000000000, 1.000000000000000000, -0.000000000000000000 ) ) ;
#975 = DIRECTION ( 'NONE',  ( 1.000000000000000000, 0.000000000000000000, 0.000000000000000000 ) ) ;
#976 = EDGE_CURVE ( 'NONE', #19, #18, #675, .T. ) ;
#977 = EDGE_LOOP ( 'NONE', ( #269, #1068, #382, #644 ) ) ;
#978 = LINE ( 'NONE', #696, #999 ) ;
#979 = CARTESIAN_POINT ( 'NONE',  ( -1.000000000000000000, 0.03999999999999995920, 0.6250000000000000000 ) ) ;
#980 = LINE ( 'NONE', #222, #724 ) ;
#981 = ORIENTED_EDGE ( 'NONE', *, *, #257, .F. ) ;
#982 = APPLICATION_PROTOCOL_DEFINITION ( 'draft international standard', 'automotive_design', 1998, #22 ) ;
#983 = CIRCLE ( 'NONE', #688, 0.03999999999999999389 ) ;
#984 = DIRECTION ( 'NONE',  ( 0.000000000000000000, -0.000000000000000000, -1.000000000000000000 ) ) ;
#985 = EDGE_CURVE ( 'NONE', #570, #76, #315, .T. ) ;
#986 = AXIS2_PLACEMENT_3D ( 'NONE', #792, #427, #711 ) ;
#987 = FILL_AREA_STYLE_COLOUR ( '', #817 ) ;
#988 = FACE_OUTER_BOUND ( 'NONE', #189, .T. ) ;
#989 = ORIENTED_EDGE ( 'NONE', *, *, #452, .F. ) ;
#990 = PLANE ( 'NONE',  #104 ) ;
#991 = FILL_AREA_STYLE ('',( #987 ) ) ;
#992 = CARTESIAN_POINT ( 'NONE',  ( -0.7000000000000000666, 0.04000000000000000083, 0.6250000000000000000 ) ) ;
#993 = ORIENTED_EDGE ( 'NONE', *, *, #282, .T. ) ;
#994 = SURFACE_SIDE_STYLE ('',( #163 ) ) ;
#995 = DIRECTION ( 'NONE',  ( 0.000000000000000000, -0.000000000000000000, 1.000000000000000000 ) ) ;
#996 = EDGE_CURVE ( 'NONE', #707, #808, #868, .T. ) ;
#997 = DIRECTION ( 'NONE',  ( 0.000000000000000000, 0.000000000000000000, 1.000000000000000000 ) ) ;
#998 = ORIENTED_EDGE ( 'NONE', *, *, #247, .T. ) ;
#999 = VECTOR ( 'NONE', #920, 1000.000000000000000 ) ;
#1000 = AXIS2_PLACEMENT_3D ( 'NONE', #1085, #527, #995 ) ;
#1001 = DIRECTION ( 'NONE',  ( 1.000000000000000000, 0.000000000000000000, 0.000000000000000000 ) ) ;
#1002 = EDGE_CURVE ( 'NONE', #755, #731, #689, .T. ) ;
#1003 = DIRECTION ( 'NONE',  ( -0.000000000000000000, -0.000000000000000000, -1.000000000000000000 ) ) ;
#1004 = VERTEX_POINT ( 'NONE', #234 ) ;
#1005 = CARTESIAN_POINT ( 'NONE',  ( -0.6000000000000000888, 0.5199999999999999067, 0.6250000000000000000 ) ) ;
#1006 = CARTESIAN_POINT ( 'NONE',  ( -0.7000000000000000666, 0.000000000000000000, -0.6250000000000000000 ) ) ;
#1007 = LINE ( 'NONE', #233, #127 ) ;
#1008 = EDGE_LOOP ( 'NONE', ( #210, #655, #288, #742 ) ) ;
#1009 = ORIENTED_EDGE ( 'NONE', *, *, #854, .F. ) ;
#1010 = EDGE_CURVE ( 'NONE', #372, #570, #757, .T. ) ;
#1011 = DIRECTION ( 'NONE',  ( -1.000000000000000000, -1.824378655624647301E-16, 0.000000000000000000 ) ) ;
#1012 = DIRECTION ( 'NONE',  ( 1.818576331356368456E-16, 1.000000000000000000, 0.000000000000000000 ) ) ;
#1013 = DIRECTION ( 'NONE',  ( 1.000000000000000000, -0.000000000000000000, 0.000000000000000000 ) ) ;
#1014 = ORIENTED_EDGE ( 'NONE', *, *, #161, .T. ) ;
#1015 = ORIENTED_EDGE ( 'NONE', *, *, #1010, .T. ) ;
#1016 = VECTOR ( 'NONE', #493, 1000.000000000000000 ) ;
#1017 = EDGE_CURVE ( 'NONE', #1125, #667, #766, .T. ) ;
#1018 = LINE ( 'NONE', #847, #300 ) ;
#1019 = PRESENTATION_LAYER_ASSIGNMENT (  '', '', ( #279 ) ) ;
#1020 = VECTOR ( 'NONE', #1106, 1000.000000000000000 ) ;
#1021 = VECTOR ( 'NONE', #1001, 1000.000000000000000 ) ;
#1022 = CARTESIAN_POINT ( 'NONE',  ( 0.6000000000000000888, 0.5599999999999999423, 0.6250000000000000000 ) ) ;
#1023 = EDGE_LOOP ( 'NONE', ( #922, #814, #678, #122 ) ) ;
#1024 = VERTEX_POINT ( 'NONE', #40 ) ;
#1025 = CARTESIAN_POINT ( 'NONE',  ( 0.9600000000000000755, 0.03999999999999995920, -0.6250000000000000000 ) ) ;
#1026 = FACE_OUTER_BOUND ( 'NONE', #863, .T. ) ;
#1027 = LINE ( 'NONE', #213, #281 ) ;
#1028 = ORIENTED_EDGE ( 'NONE', *, *, #231, .F. ) ;
#1029 = ORIENTED_EDGE ( 'NONE', *, *, #282, .F. ) ;
#1030 = VERTEX_POINT ( 'NONE', #409 ) ;
#1031 = CARTESIAN_POINT ( 'NONE',  ( 0.5600000000000001643, 0.5999999999999999778, -0.5849999999999999645 ) ) ;
#1032 = PLANE ( 'NONE',  #144 ) ;
#1033 = EDGE_CURVE ( 'NONE', #755, #712, #780, .T. ) ;
#1034 = LINE ( 'NONE', #405, #762 ) ;
#1035 = ORIENTED_EDGE ( 'NONE', *, *, #27, .F. ) ;
#1036 = ORIENTED_EDGE ( 'NONE', *, *, #745, .T. ) ;
#1037 = DIRECTION ( 'NONE',  ( 0.000000000000000000, -0.000000000000000000, -1.000000000000000000 ) ) ;
#1038 = AXIS2_PLACEMENT_3D ( 'NONE', #26, #573, #283 ) ;
#1039 = AXIS2_PLACEMENT_3D ( 'NONE', #725, #267, #884 ) ;
#1040 = CARTESIAN_POINT ( 'NONE',  ( 1.000000000000000000, 0.03999999999999995920, -0.6250000000000000000 ) ) ;
#1041 = VECTOR ( 'NONE', #347, 1000.000000000000000 ) ;
#1042 = EDGE_LOOP ( 'NONE', ( #70, #949, #1138, #310 ) ) ;
#1043 = VERTEX_POINT ( 'NONE', #321 ) ;
#1044 = DIRECTION ( 'NONE',  ( 0.000000000000000000, 0.000000000000000000, 1.000000000000000000 ) ) ;
#1045 = DIRECTION ( 'NONE',  ( 1.000000000000000000, -2.710505431213761479E-15, 0.000000000000000000 ) ) ;
#1046 = DIRECTION ( 'NONE',  ( 0.000000000000000000, -0.000000000000000000, -1.000000000000000000 ) ) ;
#1047 = ORIENTED_EDGE ( 'NONE', *, *, #401, .F. ) ;
#1048 = DIRECTION ( 'NONE',  ( -0.000000000000000000, -0.000000000000000000, -1.000000000000000000 ) ) ;
#1049 = LINE ( 'NONE', #1147, #1058 ) ;
#1050 = CARTESIAN_POINT ( 'NONE',  ( 0.9600000000000000755, 0.03999999999999995920, -0.6250000000000000000 ) ) ;
#1051 = ORIENTED_EDGE ( 'NONE', *, *, #257, .T. ) ;
#1052 = CARTESIAN_POINT ( 'NONE',  ( 0.7000000000000000666, 0.04000000000000000083, -0.6250000000000000000 ) ) ;
#1053 = ADVANCED_FACE ( 'NONE', ( #220 ), #590, .T. ) ;
#1054 = AXIS2_PLACEMENT_3D ( 'NONE', #532, #166, #68 ) ;
#1055 = CARTESIAN_POINT ( 'NONE',  ( -0.7000000000000000666, 0.000000000000000000, -0.6250000000000000000 ) ) ;
#1056 = VECTOR ( 'NONE', #503, 1000.000000000000000 ) ;
#1057 = ORIENTED_EDGE ( 'NONE', *, *, #671, .F. ) ;
#1058 = VECTOR ( 'NONE', #1141, 1000.000000000000000 ) ;
#1059 = CARTESIAN_POINT ( 'NONE',  ( -0.9600000000000000755, 0.5199999999999999067, -2.604090700296477046 ) ) ;
#1060 = CARTESIAN_POINT ( 'NONE',  ( 0.9599999999999999645, 0.5599999999999999423, -0.6250000000000000000 ) ) ;
#1061 = PRESENTATION_STYLE_ASSIGNMENT (( #1142 ) ) ;
#1062 = EDGE_CURVE ( 'NONE', #5, #589, #693, .T. ) ;
#1063 = ORIENTED_EDGE ( 'NONE', *, *, #1181, .F. ) ;
#1064 = DIRECTION ( 'NONE',  ( -0.000000000000000000, -0.000000000000000000, -1.000000000000000000 ) ) ;
#1065 = CARTESIAN_POINT ( 'NONE',  ( -0.9600000000000000755, 0.5199999999999999067, -0.6250000000000001110 ) ) ;
#1066 = DIRECTION ( 'NONE',  ( -0.000000000000000000, -0.000000000000000000, -1.000000000000000000 ) ) ;
#1067 = ADVANCED_FACE ( 'NONE', ( #607 ), #957, .F. ) ;
#1068 = ORIENTED_EDGE ( 'NONE', *, *, #1150, .F. ) ;
#1069 = CARTESIAN_POINT ( 'NONE',  ( -0.7000000000000000666, 0.04000000000000000083, 0.6250000000000000000 ) ) ;
#1070 = CARTESIAN_POINT ( 'NONE',  ( 1.000000000000000000, 0.5199999999999999067, 0.6250000000000000000 ) ) ;
#1071 = CARTESIAN_POINT ( 'NONE',  ( 0.5600000000000001643, 0.5999999999999999778, 0.5849999999999999645 ) ) ;
#1072 = DIRECTION ( 'NONE',  ( 0.000000000000000000, -1.000000000000000000, -0.000000000000000000 ) ) ;
#1073 = VECTOR ( 'NONE', #460, 1000.000000000000000 ) ;
#1074 = ORIENTED_EDGE ( 'NONE', *, *, #1144, .T. ) ;
#1075 =( GEOMETRIC_REPRESENTATION_CONTEXT ( 3 ) GLOBAL_UNCERTAINTY_ASSIGNED_CONTEXT ( ( #798 ) ) GLOBAL_UNIT_ASSIGNED_CONTEXT ( ( #903, #614, #639 ) ) REPRESENTATION_CONTEXT ( 'NONE', 'WORKASPACE' ) );
#1076 = VECTOR ( 'NONE', #263, 1000.000000000000000 ) ;
#1077 = VECTOR ( 'NONE', #277, 1000.000000000000000 ) ;
#1078 = MECHANICAL_DESIGN_GEOMETRIC_PRESENTATION_REPRESENTATION (  '', ( #1136 ), #1075 ) ;
#1079 =( NAMED_UNIT ( * ) SI_UNIT ( $, .STERADIAN. ) SOLID_ANGLE_UNIT ( ) );
#1080 = CARTESIAN_POINT ( 'NONE',  ( -1.000000000000000000, 0.5199999999999999067, -0.6250000000000000000 ) ) ;
#1081 = VERTEX_POINT ( 'NONE', #301 ) ;
#1082 = CARTESIAN_POINT ( 'NONE',  ( -0.6000000000000000888, 0.5999999999999999778, -0.5849999999999999645 ) ) ;
#1083 = EDGE_CURVE ( 'NONE', #299, #564, #680, .T. ) ;
#1084 = CARTESIAN_POINT ( 'NONE',  ( 0.7000000000000000666, 0.000000000000000000, 0.6250000000000000000 ) ) ;
#1085 = CARTESIAN_POINT ( 'NONE',  ( -0.6000000000000000888, 0.5999999999999999778, -1.827663710269833208 ) ) ;
#1086 = ORIENTED_EDGE ( 'NONE', *, *, #44, .T. ) ;
#1087 = LINE ( 'NONE', #1173, #316 ) ;
#1088 = ADVANCED_FACE ( 'NONE', ( #973 ), #57, .T. ) ;
#1089 = LINE ( 'NONE', #622, #634 ) ;
#1090 = DIRECTION ( 'NONE',  ( -0.000000000000000000, 1.000000000000000000, -0.000000000000000000 ) ) ;
#1091 = VERTEX_POINT ( 'NONE', #500 ) ;
#1092 = APPLICATION_CONTEXT ( 'automotive_design' ) ;
#1093 = MECHANICAL_DESIGN_GEOMETRIC_PRESENTATION_REPRESENTATION (  '', ( #795 ), #413 ) ;
#1094 = CARTESIAN_POINT ( 'NONE',  ( -0.7000000000000000666, 0.04000000000000000083, -0.6250000000000000000 ) ) ;
#1095 = AXIS2_PLACEMENT_3D ( 'NONE', #95, #835, #7 ) ;
#1096 = CARTESIAN_POINT ( 'NONE',  ( 0.7000000000000000666, 0.04000000000000000083, 0.6250000000000000000 ) ) ;
#1097 = VECTOR ( 'NONE', #1072, 1000.000000000000000 ) ;
#1098 = CARTESIAN_POINT ( 'NONE',  ( -0.9600000000000000755, 0.03999999999999995920, 0.6250000000000000000 ) ) ;
#1099 = ADVANCED_FACE ( 'NONE', ( #771 ), #507, .F. ) ;
#1100 = CARTESIAN_POINT ( 'NONE',  ( -0.6000000000000000888, 0.5599999999999999423, -0.6250000000000001110 ) ) ;
#1101 = LINE ( 'NONE', #548, #1020 ) ;
#1102 = ORIENTED_EDGE ( 'NONE', *, *, #237, .F. ) ;
#1103 = LINE ( 'NONE', #270, #720 ) ;
#1104 = LINE ( 'NONE', #1196, #1021 ) ;
#1105 = CARTESIAN_POINT ( 'NONE',  ( -0.5834314575050763008, 0.5999999999999999778, 0.6084314575050762119 ) ) ;
#1106 = DIRECTION ( 'NONE',  ( 0.000000000000000000, -0.000000000000000000, -1.000000000000000000 ) ) ;
#1107 = EDGE_CURVE ( 'NONE', #808, #372, #983, .T. ) ;
#1108 = ORIENTED_EDGE ( 'NONE', *, *, #374, .T. ) ;
#1109 = LINE ( 'NONE', #21, #740 ) ;
#1110 = CARTESIAN_POINT ( 'NONE',  ( 0.9600000000000000755, 0.03999999999999995920, 0.6250000000000000000 ) ) ;
#1111 = DIRECTION ( 'NONE',  ( 0.000000000000000000, -1.000000000000000000, -0.000000000000000000 ) ) ;
#1112 = VERTEX_POINT ( 'NONE', #215 ) ;
#1113 = ORIENTED_EDGE ( 'NONE', *, *, #185, .T. ) ;
#1114 = DIRECTION ( 'NONE',  ( 1.000000000000000000, -0.000000000000000000, -0.000000000000000000 ) ) ;
#1115 = LINE ( 'NONE', #379, #1073 ) ;
#1116 =( GEOMETRIC_REPRESENTATION_CONTEXT ( 3 ) GLOBAL_UNCERTAINTY_ASSIGNED_CONTEXT ( ( #1159 ) ) GLOBAL_UNIT_ASSIGNED_CONTEXT ( ( #875, #236, #128 ) ) REPRESENTATION_CONTEXT ( 'NONE', 'WORKASPACE' ) );
#1117 = CARTESIAN_POINT ( 'NONE',  ( 0.9600000000000000755, 0.03999999999999995920, 0.6250000000000000000 ) ) ;
#1118 = ORIENTED_EDGE ( 'NONE', *, *, #956, .T. ) ;
#1119 = EDGE_LOOP ( 'NONE', ( #683, #1086, #388, #83 ) ) ;
#1120 = ORIENTED_EDGE ( 'NONE', *, *, #513, .F. ) ;
#1121 = CARTESIAN_POINT ( 'NONE',  ( 0.6000000000000001998, 0.5599999999999998312, -0.6250000000000001110 ) ) ;
#1122 = ADVANCED_FACE ( 'NONE', ( #255 ), #346, .F. ) ;
#1123 = DIRECTION ( 'NONE',  ( -1.000000000000000000, 0.000000000000000000, 0.000000000000000000 ) ) ;
#1124 = PLANE ( 'NONE',  #1172 ) ;
#1125 = VERTEX_POINT ( 'NONE', #520 ) ;
#1126 = LINE ( 'NONE', #471, #613 ) ;
#1127 = DIRECTION ( 'NONE',  ( 0.000000000000000000, 1.000000000000000000, 0.000000000000000000 ) ) ;
#1128 = ADVANCED_FACE ( 'NONE', ( #901 ), #525, .T. ) ;
#1129 = FACE_OUTER_BOUND ( 'NONE', #629, .T. ) ;
#1130 = EDGE_LOOP ( 'NONE', ( #1155, #529, #82, #1102 ) ) ;
#1131 = DIRECTION ( 'NONE',  ( -1.000000000000000000, 0.000000000000000000, 0.000000000000000000 ) ) ;
#1132 = PLANE ( 'NONE',  #378 ) ;
#1133 = AXIS2_PLACEMENT_3D ( 'NONE', #211, #969, #135 ) ;
#1134 = VECTOR ( 'NONE', #785, 1000.000000000000000 ) ;
#1135 = LINE ( 'NONE', #893, #616 ) ;
#1136 = STYLED_ITEM ( 'NONE', ( #1188 ), #754 ) ;
#1137 = ADVANCED_FACE ( 'NONE', ( #62 ), #990, .T. ) ;
#1138 = ORIENTED_EDGE ( 'NONE', *, *, #932, .T. ) ;
#1139 = ORIENTED_EDGE ( 'NONE', *, *, #113, .T. ) ;
#1140 = CARTESIAN_POINT ( 'NONE',  ( 0.9600000000000000755, 0.5199999999999999067, -0.6250000000000000000 ) ) ;
#1141 = DIRECTION ( 'NONE',  ( -0.000000000000000000, -0.000000000000000000, -1.000000000000000000 ) ) ;
#1142 = SURFACE_STYLE_USAGE ( .BOTH. , #681 ) ;
#1143 = ORIENTED_EDGE ( 'NONE', *, *, #297, .F. ) ;
#1144 = EDGE_CURVE ( 'NONE', #769, #732, #865, .T. ) ;
#1145 = EDGE_LOOP ( 'NONE', ( #928, #54, #682, #748 ) ) ;
#1146 = DIRECTION ( 'NONE',  ( 1.000000000000000000, 0.000000000000000000, 0.000000000000000000 ) ) ;
#1147 = CARTESIAN_POINT ( 'NONE',  ( -1.000000000000000000, 0.5199999999999999067, 0.6250000000000000000 ) ) ;
#1148 = CARTESIAN_POINT ( 'NONE',  ( 1.000000000000000000, 0.03999999999999995920, 0.6250000000000000000 ) ) ;
#1149 = ORIENTED_EDGE ( 'NONE', *, *, #452, .T. ) ;
#1150 = EDGE_CURVE ( 'NONE', #519, #667, #1087, .T. ) ;
#1151 = LINE ( 'NONE', #49, #760 ) ;
#1152 = EDGE_CURVE ( 'NONE', #737, #732, #910, .T. ) ;
#1153 = VECTOR ( 'NONE', #597, 1000.000000000000000 ) ;
#1154 = CARTESIAN_POINT ( 'NONE',  ( -0.6000000000000000888, 0.5199999999999999067, -1.827663710269833208 ) ) ;
#1155 = ORIENTED_EDGE ( 'NONE', *, *, #1033, .F. ) ;
#1156 = AXIS2_PLACEMENT_3D ( 'NONE', #686, #498, #872 ) ;
#1157 = DIRECTION ( 'NONE',  ( 1.000000000000000000, 0.000000000000000000, 0.000000000000000000 ) ) ;
#1158 = LINE ( 'NONE', #496, #764 ) ;
#1159 = UNCERTAINTY_MEASURE_WITH_UNIT (LENGTH_MEASURE( 1.000000000000000082E-05 ), #875, 'distance_accuracy_value', 'NONE');
#1160 = DIRECTION ( 'NONE',  ( 1.000000000000000000, -1.824378655624647301E-16, 0.000000000000000000 ) ) ;
#1161 = VERTEX_POINT ( 'NONE', #151 ) ;
#1162 = LINE ( 'NONE', #272, #779 ) ;
#1163 = DIRECTION ( 'NONE',  ( 2.710505431213761479E-15, 1.000000000000000000, 0.000000000000000000 ) ) ;
#1164 = DIRECTION ( 'NONE',  ( 0.000000000000000000, 1.000000000000000000, 0.000000000000000000 ) ) ;
#1165 = ORIENTED_EDGE ( 'NONE', *, *, #1062, .F. ) ;
#1166 = CARTESIAN_POINT ( 'NONE',  ( 0.6000000000000003109, 0.5999999999999999778, 0.5849999999999999645 ) ) ;
#1167 = CARTESIAN_POINT ( 'NONE',  ( 0.6000000000000000888, 0.5199999999999999067, 0.6250000000000000000 ) ) ;
#1168 = VECTOR ( 'NONE', #601, 1000.000000000000000 ) ;
#1169 = VERTEX_POINT ( 'NONE', #1070 ) ;
#1170 = CARTESIAN_POINT ( 'NONE',  ( 0.000000000000000000, 0.000000000000000000, 0.000000000000000000 ) ) ;
#1171 = EDGE_CURVE ( 'NONE', #539, #769, #804, .T. ) ;
#1172 = AXIS2_PLACEMENT_3D ( 'NONE', #593, #871, #199 ) ;
#1173 = CARTESIAN_POINT ( 'NONE',  ( 0.6000000000000000888, 0.5199999999999999067, 0.6250000000000000000 ) ) ;
#1174 = COLOUR_RGB ( '',0.7960784313725489669, 0.8235294117647058432, 0.9372549019607843146 ) ;
#1175 = MANIFOLD_SOLID_BREP ( 'Boss-Extrude2', #494 ) ;
#1176 = CARTESIAN_POINT ( 'NONE',  ( -0.9600000000000000755, -4.728298461526556606E-17, -0.6250000000000000000 ) ) ;
#1177 = CARTESIAN_POINT ( 'NONE',  ( -0.9600000000000000755, -4.728298461526556606E-17, 0.6250000000000000000 ) ) ;
#1178 = ORIENTED_EDGE ( 'NONE', *, *, #759, .F. ) ;
#1179 = APPLICATION_PROTOCOL_DEFINITION ( 'draft international standard', 'automotive_design', 1998, #1092 ) ;
#1180 = DIRECTION ( 'NONE',  ( -0.000000000000000000, 0.000000000000000000, 1.000000000000000000 ) ) ;
#1181 = EDGE_CURVE ( 'NONE', #440, #659, #809, .T. ) ;
#1182 = CARTESIAN_POINT ( 'NONE',  ( -0.7000000000000000666, 0.04000000000000000083, -0.6250000000000000000 ) ) ;
#1183 = DIRECTION ( 'NONE',  ( -1.000000000000000000, 0.000000000000000000, 0.000000000000000000 ) ) ;
#1184 = DIRECTION ( 'NONE',  ( -0.000000000000000000, -0.000000000000000000, -1.000000000000000000 ) ) ;
#1185 = ORIENTED_EDGE ( 'NONE', *, *, #715, .F. ) ;
#1186 = PRESENTATION_STYLE_ASSIGNMENT (( #713 ) ) ;
#1187 = LINE ( 'NONE', #702, #330 ) ;
#1188 = PRESENTATION_STYLE_ASSIGNMENT (( #816 ) ) ;
#1189 = EDGE_CURVE ( 'NONE', #589, #155, #1187, .T. ) ;
#1190 = FACE_OUTER_BOUND ( 'NONE', #939, .T. ) ;
#1191 = CARTESIAN_POINT ( 'NONE',  ( -0.6000000000000000888, 0.5599999999999999423, 0.6250000000000000000 ) ) ;
#1192 = ORIENTED_EDGE ( 'NONE', *, *, #1107, .F. ) ;
#1193 = VECTOR ( 'NONE', #796, 1000.000000000000000 ) ;
#1194 = ORIENTED_EDGE ( 'NONE', *, *, #1150, .T. ) ;
#1195 = VECTOR ( 'NONE', #296, 1000.000000000000000 ) ;
#1196 = CARTESIAN_POINT ( 'NONE',  ( -0.9599999999999999645, 0.03999999999999995920, -0.6250000000000001110 ) ) ;
#1197 = EDGE_CURVE ( 'NONE', #774, #619, #719, .T. ) ;
#1198 = DIRECTION ( 'NONE',  ( -1.000000000000000000, 0.000000000000000000, 0.000000000000000000 ) ) ;
#1199 = ORIENTED_EDGE ( 'NONE', *, *, #663, .F. ) ;
#1200 = VERTEX_POINT ( 'NONE', #1005 ) ;
#1201 = FACE_OUTER_BOUND ( 'NONE', #1042, .T. ) ;
ENDSEC;
END-ISO-10303-21;
